<svg xmlns="http://www.w3.org/2000/svg" viewBox="0 0 64 64" role="img" aria-label="YiQi">
  <rect width="64" height="64" rx="14" fill="#07131a"/>
  <path transform="translate(32 32) scale(1.4) translate(-61.05 -31.1)" d="M57.91,44.78v-2.66c-2.18-.53-4.21-1.66-5.92-3.36-4.97-4.97-5.09-13.02-.03-18.08,5.09-5.09,13.14-4.97,18.11,0s5.09,13.02,0,18.11c-1.78,1.78-3.94,2.93-6.22,3.46v2.51c0,.35-.18.53-.58.53h-4.82c-.3,0-.55-.2-.55-.5ZM56.28,34.47c.5.5,1.05.9,1.65,1.2v-3.36c0-.35.18-.53.53-.53h4.87c.25,0,.53.18.53.53v3.36c.63-.33,1.23-.78,1.78-1.33,2.73-2.73,2.78-6.75.15-9.38s-6.67-2.61-9.41.13c-2.71,2.71-2.73,6.75-.1,9.38Z" fill="#0cf"/>
</svg>
