<svg width="28" height="28" viewBox="0 0 28 28" fill="none" xmlns="http://www.w3.org/2000/svg">
<path d="M23.625 7H19.25C19.25 5.60761 18.6969 4.27226 17.7123 3.28769C16.7277 2.30312 15.3924 1.75 14 1.75C12.6076 1.75 11.2723 2.30312 10.2877 3.28769C9.30312 4.27226 8.75 5.60761 8.75 7H4.375C3.91087 7 3.46575 7.18438 3.13756 7.51256C2.80937 7.84075 2.625 8.28587 2.625 8.75V21.875C2.625 22.3391 2.80937 22.7843 3.13756 23.1124C3.46575 23.4406 3.91087 23.625 4.375 23.625H23.625C24.0891 23.625 24.5342 23.4406 24.8624 23.1124C25.1906 22.7843 25.375 22.3391 25.375 21.875V8.75C25.375 8.28587 25.1906 7.84075 24.8624 7.51256C24.5342 7.18438 24.0891 7 23.625 7ZM14 3.5C14.9283 3.5 15.8185 3.86875 16.4749 4.52513C17.1313 5.1815 17.5 6.07174 17.5 7H10.5C10.5 6.07174 10.8687 5.1815 11.5251 4.52513C12.1815 3.86875 13.0717 3.5 14 3.5ZM23.625 21.875H4.375V8.75H8.75V10.5C8.75 10.7321 8.84219 10.9546 9.00628 11.1187C9.17038 11.2828 9.39294 11.375 9.625 11.375C9.85706 11.375 10.0796 11.2828 10.2437 11.1187C10.4078 10.9546 10.5 10.7321 10.5 10.5V8.75H17.5V10.5C17.5 10.7321 17.5922 10.9546 17.7563 11.1187C17.9204 11.2828 18.1429 11.375 18.375 11.375C18.6071 11.375 18.8296 11.2828 18.9937 11.1187C19.1578 10.9546 19.25 10.7321 19.25 10.5V8.75H23.625V21.875Z" fill="#F2F2F2"/>
</svg>
