<svg width="28" height="28" viewBox="0 0 28 28" fill="none" xmlns="http://www.w3.org/2000/svg">
<path d="M24.465 7.23499L14.84 1.96859C14.5828 1.82649 14.2938 1.75195 14 1.75195C13.7062 1.75195 13.4172 1.82649 13.16 1.96859L3.535 7.23718C3.26013 7.38758 3.03068 7.60901 2.8706 7.87836C2.71053 8.14772 2.62571 8.4551 2.625 8.76843V19.2291C2.62571 19.5424 2.71053 19.8498 2.8706 20.1191C3.03068 20.3885 3.26013 20.6099 3.535 20.7603L13.16 26.0289C13.4172 26.171 13.7062 26.2455 14 26.2455C14.2938 26.2455 14.5828 26.171 14.84 26.0289L24.465 20.7603C24.7399 20.6099 24.9693 20.3885 25.1294 20.1191C25.2895 19.8498 25.3743 19.5424 25.375 19.2291V8.76952C25.3749 8.45564 25.2903 8.14757 25.1302 7.87759C24.9701 7.60761 24.7404 7.38566 24.465 7.23499ZM14 3.49984L22.7872 8.31234L19.5311 10.0951L10.7428 5.28265L14 3.49984ZM14 13.1248L5.21281 8.31234L8.92062 6.28234L17.7078 11.0948L14 13.1248ZM4.375 9.84359L13.125 14.632V24.0153L4.375 19.2302V9.84359ZM23.625 19.2258L14.875 24.0153V14.6364L18.375 12.7212V16.6248C18.375 16.8569 18.4672 17.0795 18.6313 17.2436C18.7954 17.4076 19.0179 17.4998 19.25 17.4998C19.4821 17.4998 19.7046 17.4076 19.8687 17.2436C20.0328 17.0795 20.125 16.8569 20.125 16.6248V11.7631L23.625 9.84359V19.2247V19.2258Z" fill="#F2F2F2"/>
</svg>
