<svg width="28" height="28" viewBox="0 0 28 28" fill="none" xmlns="http://www.w3.org/2000/svg">
<path d="M25.1716 6.43891C25.0894 6.34062 24.9867 6.26156 24.8707 6.20732C24.7546 6.15308 24.6281 6.12498 24.5 6.125H6.85563L6.19063 2.46859C6.154 2.26698 6.04777 2.08462 5.89047 1.9533C5.73316 1.82198 5.53476 1.75003 5.32984 1.75H2.625C2.39294 1.75 2.17038 1.84219 2.00628 2.00628C1.84219 2.17038 1.75 2.39294 1.75 2.625C1.75 2.85706 1.84219 3.07962 2.00628 3.24372C2.17038 3.40781 2.39294 3.5 2.625 3.5H4.59375L7.38938 18.8442C7.47172 19.2993 7.67283 19.7245 7.97234 20.0769C7.55896 20.463 7.26059 20.956 7.11031 21.5014C6.96004 22.0467 6.96374 22.623 7.121 23.1664C7.27826 23.7097 7.58294 24.1989 8.00125 24.5797C8.41956 24.9605 8.93515 25.2179 9.49086 25.3236C10.0466 25.4292 10.6207 25.3789 11.1495 25.1782C11.6784 24.9774 12.1413 24.6341 12.487 24.1864C12.8326 23.7386 13.0475 23.2039 13.1078 22.6414C13.1681 22.079 13.0715 21.5109 12.8286 21H17.7964C17.6007 21.4098 17.4994 21.8583 17.5 22.3125C17.5 22.9182 17.6796 23.5103 18.0161 24.0139C18.3526 24.5176 18.8309 24.9101 19.3905 25.1419C19.9501 25.3737 20.5659 25.4343 21.16 25.3162C21.754 25.198 22.2997 24.9063 22.728 24.478C23.1563 24.0497 23.448 23.504 23.5662 22.91C23.6843 22.3159 23.6237 21.7001 23.3919 21.1405C23.1601 20.5809 22.7676 20.1026 22.2639 19.7661C21.7603 19.4296 21.1682 19.25 20.5625 19.25H9.97172C9.76681 19.25 9.5684 19.178 9.4111 19.0467C9.25379 18.9154 9.14757 18.733 9.11094 18.5314L8.76422 16.625H21.4517C22.0665 16.6249 22.6617 16.4091 23.1336 16.0151C23.6055 15.6212 23.9242 15.0741 24.0341 14.4692L25.3641 7.15641C25.3866 7.03001 25.381 6.90021 25.3477 6.77621C25.3145 6.65221 25.2543 6.53706 25.1716 6.43891ZM11.375 22.3125C11.375 22.5721 11.298 22.8258 11.1538 23.0417C11.0096 23.2575 10.8046 23.4257 10.5648 23.5251C10.3249 23.6244 10.061 23.6504 9.80644 23.5998C9.55184 23.5491 9.31798 23.4241 9.13442 23.2406C8.95087 23.057 8.82586 22.8232 8.77522 22.5686C8.72458 22.314 8.75057 22.0501 8.84991 21.8102C8.94925 21.5704 9.11748 21.3654 9.33331 21.2212C9.54915 21.077 9.80291 21 10.0625 21C10.4106 21 10.7444 21.1383 10.9906 21.3844C11.2367 21.6306 11.375 21.9644 11.375 22.3125ZM21.875 22.3125C21.875 22.5721 21.798 22.8258 21.6538 23.0417C21.5096 23.2575 21.3046 23.4257 21.0648 23.5251C20.8249 23.6244 20.561 23.6504 20.3064 23.5998C20.0518 23.5491 19.818 23.4241 19.6344 23.2406C19.4509 23.057 19.3259 22.8232 19.2752 22.5686C19.2246 22.314 19.2506 22.0501 19.3499 21.8102C19.4492 21.5704 19.6175 21.3654 19.8333 21.2212C20.0492 21.077 20.3029 21 20.5625 21C20.9106 21 21.2444 21.1383 21.4906 21.3844C21.7367 21.6306 21.875 21.9644 21.875 22.3125ZM22.3125 14.1564C22.2758 14.3586 22.1691 14.5414 22.0111 14.6728C21.8531 14.8041 21.6539 14.8757 21.4484 14.875H8.44594L7.17391 7.875H23.4511L22.3125 14.1564Z" fill="#F2F2F2"/>
</svg>
