<svg width="28" height="28" viewBox="0 0 28 28" fill="none" xmlns="http://www.w3.org/2000/svg">
<path d="M26.7753 16.45C26.6834 16.519 26.5788 16.5691 26.4675 16.5977C26.3562 16.6262 26.2403 16.6325 26.1266 16.6162C26.0128 16.6 25.9034 16.5615 25.8045 16.5029C25.7057 16.4444 25.6193 16.367 25.5503 16.275C25.0229 15.5661 24.3365 14.991 23.5462 14.5958C22.7559 14.2007 21.8839 13.9966 21.0003 14C20.8283 14 20.66 13.9493 20.5167 13.8541C20.3733 13.759 20.2611 13.6237 20.1942 13.4652C20.1488 13.3575 20.1254 13.2419 20.1254 13.125C20.1254 13.0082 20.1488 12.8925 20.1942 12.7849C20.2611 12.6263 20.3733 12.4911 20.5167 12.3959C20.66 12.3008 20.8283 12.25 21.0003 12.25C21.4913 12.25 21.9724 12.1123 22.389 11.8525C22.8056 11.5927 23.141 11.2213 23.3571 10.7805C23.5732 10.3397 23.6614 9.84708 23.6116 9.35866C23.5617 8.87024 23.3759 8.40558 23.0753 8.01746C22.7746 7.62934 22.3711 7.33332 21.9107 7.16302C21.4502 6.99272 20.9512 6.95496 20.4703 7.05405C19.9895 7.15313 19.5461 7.38507 19.1904 7.72354C18.8348 8.062 18.5812 8.49342 18.4585 8.96878C18.4297 9.0801 18.3794 9.18467 18.3102 9.27652C18.2411 9.36836 18.1545 9.4457 18.0555 9.5041C17.9565 9.5625 17.8469 9.60082 17.7331 9.61688C17.6193 9.63294 17.5034 9.62642 17.392 9.59769C17.2807 9.56896 17.1762 9.51859 17.0843 9.44945C16.9925 9.38031 16.9151 9.29376 16.8567 9.19474C16.7983 9.09571 16.76 8.98615 16.744 8.87232C16.7279 8.75848 16.7344 8.6426 16.7631 8.53128C16.9335 7.87209 17.2554 7.26176 17.7031 6.74885C18.1508 6.23594 18.7121 5.83461 19.3423 5.57679C19.9724 5.31897 20.654 5.21178 21.3329 5.26374C22.0117 5.3157 22.6691 5.52539 23.2527 5.87611C23.8362 6.22683 24.3299 6.70891 24.6943 7.28399C25.0588 7.85907 25.284 8.51127 25.3521 9.18871C25.4201 9.86615 25.3291 10.5501 25.0863 11.1862C24.8435 11.8223 24.4556 12.3929 23.9535 12.8527C25.1432 13.3678 26.1775 14.1853 26.9536 15.2239C27.0226 15.3161 27.0726 15.421 27.101 15.5325C27.1293 15.644 27.1354 15.7601 27.1189 15.874C27.1023 15.9879 27.0634 16.0974 27.0045 16.1962C26.9455 16.2951 26.8677 16.3813 26.7753 16.45ZM20.8822 23.1875C20.9455 23.2871 20.988 23.3985 21.0072 23.5149C21.0263 23.6314 21.0217 23.7505 20.9937 23.8651C20.9656 23.9797 20.9146 24.0875 20.8438 24.1819C20.773 24.2763 20.6838 24.3554 20.5817 24.4145C20.4795 24.4736 20.3664 24.5113 20.2493 24.5256C20.1321 24.5398 20.0133 24.5302 19.9 24.4973C19.7867 24.4644 19.6811 24.409 19.5898 24.3342C19.4984 24.2595 19.4232 24.1671 19.3685 24.0625C18.8173 23.1292 18.0322 22.3557 17.0909 21.8184C16.1495 21.281 15.0843 20.9984 14.0003 20.9984C12.9164 20.9984 11.8512 21.281 10.9098 21.8184C9.96842 22.3557 9.18341 23.1292 8.63221 24.0625C8.57751 24.1671 8.50222 24.2595 8.41087 24.3342C8.31953 24.409 8.21401 24.4644 8.10068 24.4973C7.98734 24.5302 7.86852 24.5398 7.75137 24.5256C7.63422 24.5113 7.52116 24.4736 7.41899 24.4145C7.31682 24.3554 7.22766 24.2763 7.15686 24.1819C7.08605 24.0875 7.03508 23.9797 7.00701 23.8651C6.97893 23.7505 6.97433 23.6314 6.99348 23.5149C7.01264 23.3985 7.05515 23.2871 7.11846 23.1875C7.96677 21.73 9.26023 20.583 10.8088 19.915C9.93741 19.2479 9.29702 18.3245 8.97761 17.2745C8.65821 16.2246 8.67585 15.101 9.02805 14.0616C9.38026 13.0222 10.0493 12.1194 10.9412 11.4799C11.8331 10.8404 12.9029 10.4965 14.0003 10.4965C15.0978 10.4965 16.1676 10.8404 17.0595 11.4799C17.9513 12.1194 18.6204 13.0222 18.9726 14.0616C19.3248 15.101 19.3425 16.2246 19.0231 17.2745C18.7036 18.3245 18.0633 19.2479 17.1919 19.915C18.7404 20.583 20.0339 21.73 20.8822 23.1875ZM14.0003 19.25C14.6926 19.25 15.3693 19.0448 15.9448 18.6602C16.5204 18.2756 16.969 17.729 17.2339 17.0894C17.4988 16.4499 17.5681 15.7462 17.4331 15.0672C17.298 14.3883 16.9647 13.7646 16.4752 13.2752C15.9857 12.7857 15.3621 12.4523 14.6831 12.3173C14.0042 12.1822 13.3005 12.2515 12.6609 12.5165C12.0214 12.7814 11.4748 13.23 11.0902 13.8055C10.7056 14.3811 10.5003 15.0578 10.5003 15.75C10.5003 16.6783 10.8691 17.5685 11.5255 18.2249C12.1818 18.8813 13.0721 19.25 14.0003 19.25ZM7.87533 13.125C7.87533 12.893 7.78314 12.6704 7.61905 12.5063C7.45496 12.3422 7.2324 12.25 7.00033 12.25C6.50938 12.25 6.02828 12.1123 5.61167 11.8525C5.19507 11.5927 4.85966 11.2213 4.64355 10.7805C4.42744 10.3397 4.33929 9.84708 4.38911 9.35866C4.43893 8.87024 4.62472 8.40558 4.92539 8.01746C5.22605 7.62934 5.62953 7.33332 6.09 7.16302C6.55047 6.99272 7.04947 6.95496 7.53033 7.05405C8.01118 7.15313 8.45461 7.38507 8.81024 7.72354C9.16588 8.062 9.41947 8.49342 9.54221 8.96878C9.60022 9.19359 9.74517 9.38615 9.94516 9.5041C10.1451 9.62204 10.3838 9.6557 10.6086 9.59769C10.8334 9.53967 11.026 9.39473 11.1439 9.19474C11.2619 8.99475 11.2955 8.75609 11.2375 8.53128C11.0672 7.87209 10.7453 7.26176 10.2976 6.74885C9.84982 6.23594 9.28855 5.83461 8.65841 5.57679C8.02826 5.31897 7.34665 5.21178 6.66779 5.26374C5.98893 5.3157 5.33156 5.52539 4.748 5.87611C4.16444 6.22683 3.67079 6.70891 3.30632 7.28399C2.94186 7.85907 2.71664 8.51127 2.64859 9.18871C2.58055 9.86615 2.67154 10.5501 2.91435 11.1862C3.15715 11.8223 3.54506 12.3929 4.04721 12.8527C2.85861 13.3683 1.82549 14.1858 1.05033 15.2239C0.910948 15.4096 0.851023 15.643 0.883739 15.8728C0.916456 16.1027 1.03913 16.3101 1.22478 16.4495C1.41044 16.5889 1.64385 16.6488 1.87369 16.6161C2.10352 16.5834 2.31095 16.4607 2.45033 16.275C2.97772 15.5661 3.66419 14.991 4.45447 14.5958C5.24476 14.2007 6.11678 13.9966 7.00033 14C7.2324 14 7.45496 13.9078 7.61905 13.7438C7.78314 13.5797 7.87533 13.3571 7.87533 13.125Z" fill="#F2F2F2"/>
</svg>
