<svg width="28" height="28" viewBox="0 0 28 28" fill="none" xmlns="http://www.w3.org/2000/svg">
<path d="M27.9997 14.875C27.9997 15.107 27.9075 15.3296 27.7434 15.4937C27.5793 15.6578 27.3568 15.75 27.1247 15.75H25.3747V17.5C25.3747 17.732 25.2825 17.9546 25.1184 18.1187C24.9543 18.2828 24.7318 18.375 24.4997 18.375C24.2677 18.375 24.0451 18.2828 23.881 18.1187C23.7169 17.9546 23.6247 17.732 23.6247 17.5V15.75H21.8747C21.6427 15.75 21.4201 15.6578 21.256 15.4937C21.0919 15.3296 20.9997 15.107 20.9997 14.875C20.9997 14.6429 21.0919 14.4204 21.256 14.2563C21.4201 14.0922 21.6427 14 21.8747 14H23.6247V12.25C23.6247 12.0179 23.7169 11.7954 23.881 11.6313C24.0451 11.4672 24.2677 11.375 24.4997 11.375C24.7318 11.375 24.9543 11.4672 25.1184 11.6313C25.2825 11.7954 25.3747 12.0179 25.3747 12.25V14H27.1247C27.3568 14 27.5793 14.0922 27.7434 14.2563C27.9075 14.4204 27.9997 14.6429 27.9997 14.875ZM21.6702 21.3117C21.8196 21.4895 21.8922 21.7194 21.8721 21.9508C21.852 22.1821 21.7408 22.3961 21.563 22.5455C21.3852 22.6948 21.1553 22.7675 20.9239 22.7474C20.6926 22.7273 20.4786 22.6161 20.3292 22.4383C18.1286 19.8176 15.1033 18.375 11.8122 18.375C8.52112 18.375 5.49581 19.8176 3.29518 22.4383C3.14579 22.6159 2.93194 22.727 2.70067 22.747C2.4694 22.767 2.23966 22.6943 2.06198 22.5449C1.88431 22.3955 1.77326 22.1817 1.75326 21.9504C1.73326 21.7191 1.80595 21.4894 1.95534 21.3117C3.5894 19.367 5.62159 17.9856 7.88019 17.2462C6.50852 16.3919 5.45241 15.1141 4.87164 13.6061C4.29088 12.0981 4.21705 10.442 4.66133 8.88829C5.10561 7.3346 6.04383 5.96788 7.33404 4.99489C8.62425 4.02191 10.1963 3.49561 11.8122 3.49561C13.4282 3.49561 15.0002 4.02191 16.2904 4.99489C17.5806 5.96788 18.5188 7.3346 18.9631 8.88829C19.4074 10.442 19.3336 12.0981 18.7528 13.6061C18.172 15.1141 17.1159 16.3919 15.7442 17.2462C18.0028 17.9856 20.035 19.367 21.6702 21.3117ZM11.8122 16.625C12.9371 16.625 14.0367 16.2914 14.972 15.6665C15.9073 15.0415 16.6363 14.1532 17.0668 13.114C17.4973 12.0747 17.6099 10.9312 17.3904 9.8279C17.171 8.72464 16.6293 7.71122 15.8339 6.91581C15.0385 6.1204 14.0251 5.57872 12.9218 5.35926C11.8185 5.13981 10.675 5.25244 9.6357 5.68291C8.59645 6.11339 7.70818 6.84237 7.08323 7.77767C6.45828 8.71298 6.12472 9.8126 6.12472 10.9375C6.12645 12.4454 6.72623 13.891 7.79246 14.9572C8.8587 16.0235 10.3043 16.6232 11.8122 16.625Z" fill="#F2F2F2"/>
</svg>
