<svg width="28" height="28" viewBox="0 0 28 28" fill="none" xmlns="http://www.w3.org/2000/svg">
<path d="M10.5007 19.8331H8.16732C6.62022 19.8331 5.13649 19.2186 4.04253 18.1246C2.94856 17.0306 2.33398 15.5469 2.33398 13.9998C2.33398 12.4527 2.94856 10.969 4.04253 9.87504C5.13649 8.78108 6.62022 8.1665 8.16732 8.1665H10.5007" stroke="#2C2C2C" stroke-width="2.33333" stroke-linecap="round" stroke-linejoin="round"/>
<path d="M17.5 8.1665H19.8333C21.3804 8.1665 22.8642 8.78108 23.9581 9.87504C25.0521 10.969 25.6667 12.4527 25.6667 13.9998C25.6667 15.5469 25.0521 17.0306 23.9581 18.1246C22.8642 19.2186 21.3804 19.8331 19.8333 19.8331H17.5" stroke="#2C2C2C" stroke-width="2.33333" stroke-linecap="round" stroke-linejoin="round"/>
<path d="M9.33398 14H18.6674" stroke="#2C2C2C" stroke-width="2.33333" stroke-linecap="round" stroke-linejoin="round"/>
</svg>
