<svg width="28" height="28" viewBox="0 0 28 28" fill="none" xmlns="http://www.w3.org/2000/svg">
<path d="M14 9.3335C19.799 9.3335 24.5 7.7665 24.5 5.8335C24.5 3.90051 19.799 2.3335 14 2.3335C8.20101 2.3335 3.5 3.90051 3.5 5.8335C3.5 7.7665 8.20101 9.3335 14 9.3335Z" stroke="#2C2C2C" stroke-width="2.33333" stroke-linecap="round" stroke-linejoin="round"/>
<path d="M3.5 5.8335V22.1669C3.5 23.0951 4.60625 23.9854 6.57538 24.6417C8.54451 25.2981 11.2152 25.6669 14 25.6669C16.7848 25.6669 19.4555 25.2981 21.4246 24.6417C23.3938 23.9854 24.5 23.0951 24.5 22.1669V5.8335" stroke="#2C2C2C" stroke-width="2.33333" stroke-linecap="round" stroke-linejoin="round"/>
<path d="M3.5 14C3.5 14.9283 4.60625 15.8185 6.57538 16.4749C8.54451 17.1313 11.2152 17.5 14 17.5C16.7848 17.5 19.4555 17.1313 21.4246 16.4749C23.3938 15.8185 24.5 14.9283 24.5 14" stroke="#2C2C2C" stroke-width="2.33333" stroke-linecap="round" stroke-linejoin="round"/>
</svg>
