<svg width="240" height="40" viewBox="0 0 240 40" fill="none" xmlns="http://www.w3.org/2000/svg">
<path d="M227.549 0C234.502 0 239.699 4.33884 239.699 11.4881H239.691V28.8008C239.691 36.0604 234.661 40 227.541 40H226.692C219.513 40 214.434 36.1114 214.434 28.8008V11.4881C214.434 4.22848 219.691 2.51004e-05 226.643 0H227.549ZM176.004 0C180.748 0 183.628 1.3671 186.004 3.88886L182.78 8.80488C181.252 7.37844 179.388 6.23222 176.508 6.23222C173.116 6.23224 171.193 8.28698 171.193 11.7172L171.21 11.7088V28.5036C171.21 31.9848 173.527 33.8784 176.743 33.8784C179.623 33.8784 181.487 33.0802 182.898 31.764L185.895 36.3914C183.519 38.8452 180.58 39.9916 176.063 39.9916C169.279 39.9916 164.14 36.2812 164.14 28.9112V11.2588C164.14 4.28786 169.338 6.50212e-06 176.004 0ZM68.4889 0.568946C74.3074 0.568964 78.5475 4.3389 78.5475 10.6221V12.2777C78.5475 15.0202 76.6248 18.2213 73.8624 19.1893L73.8541 19.1977C77.1875 20.5646 79.5049 23.3072 79.5049 27.2554V29.8876C79.5049 36.2302 75.3233 39.4312 69.3955 39.4312H56.9103V0.568946H68.4889ZM27.6324 39.4226H20.1763L18.3713 30.1082H9.55511L7.57343 39.4226H0L10.2268 0.229296H18.0269L27.6324 39.4226ZM135.668 39.4226H128.212L126.407 30.1082H117.591L115.609 39.4226H108.036L118.262 0.229296H126.063L135.668 39.4226ZM226.635 6.33418C223.637 6.33418 221.496 8.21914 221.496 11.6494V28.6734C221.496 31.9848 223.477 33.7594 226.692 33.7594H227.541C230.588 33.7594 232.628 31.9338 232.628 28.6734V11.7088C232.628 8.27854 230.479 6.33422 227.541 6.33418H226.635ZM63.9549 33.5386H68.1362C70.1178 33.5386 72.4268 32.5706 72.4268 29.0808V26.7376H72.4351C72.4351 23.995 70.3445 22.3392 67.9682 22.3392H63.9549V33.5386ZM10.8481 24.2242H17.0613L14.064 9.4248L10.8481 24.2242ZM118.892 24.2242H125.105L122.108 9.4248L118.892 24.2242ZM63.9632 16.8543H67.75C70.0086 16.8543 71.5368 15.2579 71.5368 12.6852V11.0295C71.5366 7.54834 69.3872 6.51252 66.9021 6.5125H63.9632V16.8543Z" fill="black"/>
</svg>
