<svg width="143" height="25" viewBox="0 0 143 25" fill="none" xmlns="http://www.w3.org/2000/svg">
<path d="M136.706 5.9043C137.586 5.9043 138.402 6.08062 139.154 6.43262C139.922 6.76861 140.587 7.23226 141.146 7.82422C141.706 8.41616 142.138 9.11221 142.442 9.91211C142.762 10.7121 142.922 11.5685 142.922 12.4805C142.922 13.3924 142.762 14.2404 142.442 15.0244C142.138 15.8084 141.706 16.4969 141.146 17.0889C140.603 17.6808 139.954 18.1445 139.202 18.4805C138.45 18.8164 137.634 18.9844 136.754 18.9844C135.218 18.9843 133.938 18.4563 132.914 17.4004V24.7441H128.57V6.28809H132.914V7.65625C133.842 6.4883 135.106 5.90434 136.706 5.9043ZM80.5361 0C82.4241 0 84.0799 0.408664 85.5039 1.22461C86.9279 2.04061 88.0567 3.3046 88.8887 5.0166L84.4238 6.86426C84.0078 5.87239 83.4639 5.16048 82.792 4.72852C82.136 4.29656 81.3841 4.08008 80.5361 4.08008C79.8322 4.08009 79.1922 4.21631 78.6162 4.48828C78.0402 4.74428 77.5439 5.12021 77.1279 5.61621C76.728 6.09617 76.408 6.68024 76.168 7.36816C75.944 8.05616 75.832 8.82485 75.832 9.67285C75.8321 10.4407 75.9282 11.1527 76.1201 11.8086C76.3281 12.4645 76.6323 13.0327 77.0322 13.5127C77.4322 13.9926 77.9286 14.3687 78.5205 14.6406C79.1124 14.8965 79.8002 15.0244 80.584 15.0244C81.0478 15.0244 81.4959 14.9768 81.9277 14.8809C82.3597 14.7689 82.7441 14.6 83.0801 14.376C83.4319 14.136 83.7204 13.8327 83.9443 13.4648C84.1683 13.0968 84.3204 12.6481 84.4004 12.1201H80.5361V8.47266H89.8721C89.8721 9.43256 89.8319 10.3049 89.752 11.0889C89.6719 11.8727 89.5124 12.6006 89.2725 13.2725C88.9365 14.2163 88.4802 15.0561 87.9043 15.792C87.3283 16.512 86.6482 17.1202 85.8643 17.6162C85.0963 18.0962 84.2483 18.4647 83.3203 18.7207C82.3924 18.9767 81.4164 19.1045 80.3926 19.1045C78.9846 19.1045 77.6963 18.8722 76.5283 18.4082C75.3763 17.9442 74.3838 17.2968 73.5518 16.4648C72.7198 15.6169 72.0724 14.6084 71.6084 13.4404C71.1444 12.2564 70.9121 10.9523 70.9121 9.52832C70.9121 8.12035 71.136 6.83204 71.584 5.66406C72.048 4.48018 72.6964 3.47256 73.5283 2.64062C74.3763 1.80863 75.3922 1.16029 76.5762 0.696289C77.7601 0.232298 79.0802 8.68669e-06 80.5361 0ZM106.623 5.83203C107.679 5.83205 108.655 6.00001 109.551 6.33594C110.463 6.65594 111.247 7.1121 111.903 7.7041C112.575 8.28 113.095 8.97618 113.463 9.79199C113.831 10.5919 114.015 11.4802 114.015 12.4561C114.015 13.4321 113.822 14.3285 113.438 15.1445C113.071 15.9443 112.559 16.6405 111.903 17.2324C111.247 17.8084 110.454 18.2562 109.526 18.5762C108.614 18.8961 107.623 19.0566 106.551 19.0566C105.495 19.0566 104.519 18.8961 103.623 18.5762C102.727 18.2562 101.951 17.8 101.295 17.208C100.655 16.6161 100.151 15.9125 99.7832 15.0967C99.4152 14.2647 99.2305 13.3439 99.2305 12.3359C99.2305 11.5776 99.3598 10.8642 99.6143 10.1943C99.0559 9.92687 98.4532 9.79203 97.8057 9.79199C96.7978 9.79199 96.0374 10.0962 95.5254 10.7041C95.0294 11.2961 94.7813 12.1684 94.7812 13.3203V18.6006H90.4375V6.28809H94.7812V8.30469C95.2452 7.56869 95.8134 7.00802 96.4854 6.62402C97.1573 6.22407 97.9419 6.02441 98.8379 6.02441H99.1973C99.3413 6.02441 99.5017 6.04027 99.6777 6.07227V10.0332C99.7113 9.95243 99.7459 9.87145 99.7832 9.79199C100.151 8.99233 100.663 8.30434 101.318 7.72852C101.974 7.13655 102.751 6.67193 103.646 6.33594C104.558 5.99994 105.551 5.83203 106.623 5.83203ZM118.859 13.2246C118.859 14.7444 119.596 15.5048 121.067 15.5049C122.539 15.5049 123.275 14.7445 123.275 13.2246V6.28809H127.619V14.0645C127.619 15.7284 127.068 16.9766 125.964 17.8086C124.876 18.6406 123.243 19.0566 121.067 19.0566C118.891 19.0566 117.251 18.6406 116.147 17.8086C115.059 16.9766 114.516 15.7284 114.516 14.0645V6.28809H118.859V13.2246ZM18.9121 18.6006H13.8965L12.8164 15.4561H6.09668L5.0166 18.6006H0L6.88867 0.504883H12.0244L18.9121 18.6006ZM26.29 0.504883C27.298 0.504883 28.1787 0.655961 28.9307 0.959961C29.6825 1.24793 30.2984 1.64826 30.7783 2.16016C31.2743 2.67216 31.6428 3.26452 31.8828 3.93652C32.1388 4.60845 32.2666 5.32877 32.2666 6.09668C32.2666 7.47234 31.9305 8.59217 31.2588 9.45605C30.6028 10.3041 29.6261 10.8806 28.3301 11.1846L33.9863 18.5576V0.504883H41.4736C43.5056 0.504883 45.0579 1.03287 46.1299 2.08887C47.2178 3.14486 47.7617 4.63283 47.7617 6.55273C47.7617 8.47257 47.2178 9.96066 46.1299 11.0166C45.0579 12.0725 43.5055 12.6006 41.4736 12.6006H38.6904V18.6006H28.1621L23.6748 11.6406V18.6006H18.9707V0.504883H26.29ZM52.9561 7.48828H59.748V0.504883H64.4512V18.6006H59.748V11.1367H52.9561V18.6006H48.252V0.504883H52.9561V7.48828ZM106.623 9.60059C106.239 9.60059 105.871 9.67241 105.519 9.81641C105.183 9.96036 104.887 10.1602 104.631 10.416C104.391 10.672 104.191 10.9687 104.031 11.3047C103.887 11.6407 103.814 12.0008 103.814 12.3848C103.814 12.8006 103.887 13.1843 104.031 13.5361C104.191 13.8721 104.391 14.1688 104.631 14.4248C104.887 14.6806 105.183 14.8805 105.519 15.0244C105.871 15.1684 106.239 15.2402 106.623 15.2402C107.007 15.2402 107.367 15.1684 107.703 15.0244C108.055 14.8805 108.351 14.6806 108.591 14.4248C108.847 14.1688 109.046 13.8721 109.19 13.5361C109.35 13.1842 109.431 12.8082 109.431 12.4082C109.431 12.0243 109.35 11.6641 109.19 11.3281C109.046 10.9763 108.847 10.6719 108.591 10.416C108.351 10.1602 108.055 9.96036 107.703 9.81641C107.367 9.67243 107.007 9.60061 106.623 9.60059ZM135.578 9.64844C135.194 9.64845 134.834 9.72027 134.498 9.86426C134.162 10.0083 133.866 10.2089 133.61 10.4648C133.37 10.7208 133.17 11.0241 133.01 11.376C132.866 11.7119 132.794 12.0722 132.794 12.4561C132.794 12.8399 132.866 13.2002 133.01 13.5361C133.154 13.8721 133.354 14.1688 133.61 14.4248C133.866 14.6647 134.162 14.8645 134.498 15.0244C134.85 15.1684 135.219 15.2402 135.603 15.2402C135.986 15.2402 136.347 15.1684 136.683 15.0244C137.018 14.8805 137.306 14.6805 137.546 14.4248C137.802 14.1688 138.002 13.8721 138.146 13.5361C138.306 13.2003 138.386 12.8483 138.386 12.4805C138.386 12.0965 138.314 11.7364 138.17 11.4004C138.042 11.0484 137.85 10.7443 137.594 10.4883C137.338 10.2325 137.034 10.0326 136.683 9.88867C136.347 9.72867 135.978 9.64844 135.578 9.64844ZM7.34375 11.8809H11.5684L9.45605 5.85645L7.34375 11.8809ZM38.6904 8.80859H40.25C41.9779 8.80859 42.8417 8.05651 42.8418 6.55273C42.8418 5.04873 41.978 4.29688 40.25 4.29688H38.6904V8.80859ZM23.6748 8.59277H24.5625C25.4903 8.59276 26.2023 8.40049 26.6982 8.0166C27.1942 7.6326 27.4424 7.08035 27.4424 6.36035C27.4424 5.64038 27.1942 5.08809 26.6982 4.7041C26.2023 4.32024 25.4903 4.12794 24.5625 4.12793H23.6748V8.59277Z" fill="#DC2626"/>
</svg>
