<svg width="112" height="46" viewBox="0 0 112 46" fill="none" xmlns="http://www.w3.org/2000/svg">
<path d="M20.6528 16.5807C20.6528 18.5369 19.9871 20.0985 18.6541 21.2672C17.321 22.4359 15.4588 23.0204 13.0672 23.0204H0V0.3125H10.9304C12.344 0.3125 13.5751 0.449514 14.6254 0.721888C15.6741 0.994264 16.5206 1.36898 17.1616 1.8444C17.8026 2.31981 18.281 2.87942 18.5965 3.52322C18.9121 4.16868 19.0699 4.8719 19.0699 5.6362C19.0699 6.46652 18.9072 7.23413 18.5801 7.939C18.253 8.64388 17.8487 9.22328 17.3654 9.67559C16.8822 10.1296 16.394 10.4482 15.9058 10.6347C17.4492 11.2471 18.6278 12.0197 19.4381 12.9523C20.2484 13.8867 20.6528 15.0967 20.6528 16.5807ZM12.6925 6.8495C12.6925 5.75669 12.3341 5.03037 11.6158 4.67049C10.8976 4.31064 9.77821 4.12905 8.25454 4.12905H6.81961V9.5683H8.28741C9.84232 9.5683 10.965 9.38836 11.6569 9.02685C12.3473 8.66698 12.6925 7.94066 12.6925 6.84785V6.8495ZM13.8019 16.3034C13.8019 14.3588 12.3982 13.3865 9.59249 13.3865H6.81961V19.2021H9.59249C12.3982 19.2021 13.8019 18.2348 13.8019 16.3017V16.3034Z" fill="black"/>
<path d="M45.6849 23.0204H38.7027L36.8584 18.4163H27.0374L25.162 23.0204H18.1797L28.1798 0.3125H35.7162L45.6834 23.0204H45.6849ZM35.2919 14.4677L31.9799 6.17764L28.6352 14.4677H35.2919Z" fill="black"/>
<path d="M52.3312 23.0204H45.5117V0.3125H52.3312V23.0204Z" fill="black"/>
<path d="M76.7277 23.0204H69.4035L67.6252 18.9892C66.9726 17.515 66.3858 16.4354 65.8631 15.7537C65.3404 15.0719 64.8325 14.6345 64.3377 14.443C63.8429 14.2515 63.2037 14.1558 62.4212 14.1558H61.6537V23.0204H54.834V0.3125H66.4334C68.3039 0.3125 69.8374 0.695477 71.0341 1.45978C72.2307 2.22407 73.092 3.15345 73.6197 4.24461C74.1471 5.33741 74.4102 6.37409 74.4102 7.35793C74.4102 8.5052 74.19 9.47421 73.7495 10.2666C73.309 11.0589 72.8438 11.6351 72.354 11.9949C71.8641 12.3548 71.3152 12.6998 70.7071 13.0266C71.4352 13.4525 72.0368 13.9577 72.5102 14.542C72.9835 15.1264 73.6278 16.3083 74.4431 18.0895L76.7277 23.022V23.0204ZM67.4624 7.48834C67.4624 6.44012 67.1205 5.70882 66.435 5.29283C65.7497 4.87849 64.6353 4.67049 63.0903 4.67049H61.6553V10.1428H63.1232C64.7865 10.1428 65.9255 9.95952 66.5403 9.59305C67.155 9.22658 67.4624 8.52502 67.4624 7.48834Z" fill="black"/>
<path d="M93.6673 23.0204H76.6191V0.3125H93.3894V4.86694H83.4387V9.02851H92.9341V13.5995H83.4387V18.4494H93.6673V23.0204Z" fill="black"/>
<path d="M110.836 16.4168C110.836 17.8364 110.474 19.0662 109.751 20.103C109.028 21.1413 108.018 21.9352 106.725 22.4866C105.43 23.038 103.945 23.3136 102.27 23.3136C101.802 23.3136 101.228 23.284 100.55 23.2228C99.869 23.1635 98.9667 22.9966 97.8407 22.7226C96.7148 22.4504 95.5429 22.0459 94.3249 21.5111V15.9397C95.4673 16.6495 96.5899 17.2405 97.6944 17.7093C98.7974 18.1798 99.9808 18.4142 101.243 18.4142C102.407 18.4142 103.16 18.2211 103.503 17.8331C103.845 17.4452 104.018 17.082 104.018 16.7436C104.018 16.1329 103.723 15.6162 103.137 15.1952C102.55 14.7743 101.695 14.3401 100.576 13.8928C99.3364 13.3678 98.2483 12.7983 97.313 12.1809C96.3778 11.5636 95.6136 10.791 95.0201 9.86328C94.4268 8.93555 94.1309 7.8378 94.1309 6.57001C94.1309 5.30223 94.43 4.2408 95.0284 3.252C95.6267 2.26318 96.5405 1.47413 97.7684 0.884805C98.9978 0.295485 100.499 0 102.27 0C103.533 0 104.698 0.122156 105.77 0.368119C106.841 0.614082 107.724 0.889757 108.421 1.19515C109.116 1.50054 109.596 1.74155 109.856 1.91653V7.24187C108.932 6.57497 107.9 5.9807 106.764 5.45576C105.627 4.9308 104.412 4.67 103.119 4.67C102.27 4.67 101.656 4.83343 101.274 5.16192C100.893 5.49041 100.704 5.8932 100.704 6.37357C100.704 6.82092 100.895 7.20886 101.274 7.53735C101.654 7.86421 102.335 8.26369 103.314 8.73416C105.055 9.55292 106.447 10.2908 107.491 10.9462C108.534 11.6015 109.353 12.3576 109.946 13.216C110.54 14.0743 110.836 15.1407 110.836 16.4184V16.4168Z" fill="black"/>
<path d="M21.8937 45.7057H14.5695L12.7911 41.6746C12.1385 40.2005 11.5517 39.1209 11.0291 38.4391C10.5064 37.7575 9.99847 37.32 9.50373 37.1284C9.00898 36.937 8.36959 36.8413 7.5872 36.8413H6.81961V45.7057H0V22.998H11.5994C13.4699 22.998 15.0035 23.381 16.2001 24.1453C17.3967 24.9095 18.2579 25.8389 18.7856 26.9302C19.3132 28.0228 19.5762 29.0595 19.5762 30.0434C19.5762 31.1906 19.3559 32.1596 18.9154 32.952C18.4749 33.7443 18.0097 34.3206 17.5199 34.6805C17.0301 35.0403 16.4811 35.3852 15.873 35.7122C16.6011 36.1379 17.2027 36.6431 17.6761 37.2276C18.1495 37.8118 18.7938 38.9939 19.609 40.775L21.8937 45.7075V45.7057ZM12.6267 30.1723C12.6267 29.124 12.2848 28.3926 11.5994 27.9766C10.914 27.5624 9.79958 27.3543 8.25454 27.3543H6.81961V32.8265H8.28741C9.95081 32.8265 11.0899 32.6433 11.7046 32.2769C12.3193 31.9105 12.6267 31.2089 12.6267 30.1723Z" fill="black"/>
<path d="M46.9814 34.3349C46.9814 36.4545 46.4947 38.404 45.5218 40.1835C44.5487 41.9647 43.0989 43.3778 41.1742 44.4276C39.2494 45.4775 36.9056 46.0008 34.1426 46.0008C31.3795 46.0008 28.9815 45.4544 27.0468 44.3615C25.1107 43.2687 23.6723 41.8325 22.7321 40.053C21.7921 38.2736 21.3203 36.3669 21.3203 34.3349C21.3203 32.3027 21.7871 30.3829 22.724 28.6084C23.6592 26.8337 25.0974 25.4025 27.0387 24.3165C28.9797 23.2302 31.3484 22.6855 34.1426 22.6855C36.23 22.6855 38.0924 22.9974 39.7293 23.6197C41.3665 24.2422 42.7127 25.0857 43.7679 26.1505C44.8233 27.2151 45.6219 28.4549 46.1661 29.8695C46.71 31.2842 46.9814 32.7715 46.9814 34.3349ZM40.0318 34.3349C40.0318 33.483 39.907 32.704 39.6572 32.0006C39.4072 31.2957 39.0292 30.685 38.5229 30.165C38.0166 29.6467 37.4003 29.2422 36.6705 28.9533C35.9424 28.6646 35.0993 28.5192 34.1426 28.5192C32.3147 28.5192 30.88 29.0541 29.8361 30.1254C28.7924 31.1967 28.2697 32.5998 28.2697 34.3365C28.2697 36.0731 28.794 37.4796 29.8444 38.5557C30.893 39.6321 32.3262 40.1703 34.1426 40.1703C35.3935 40.1703 36.4585 39.9226 37.3395 39.4242C38.2206 38.9273 38.8894 38.2389 39.3464 37.3589C39.8035 36.4792 40.0318 35.4722 40.0318 34.3365V34.3349Z" fill="black"/>
<path d="M69.2637 44.0017C68.3285 44.4935 67.3718 44.8864 66.3922 45.1819C65.4125 45.4775 64.4263 45.6871 63.432 45.8126C62.4375 45.938 61.4069 46.0008 60.3402 46.0008C58.3712 46.0008 56.6073 45.7284 55.0459 45.1819C53.4844 44.6355 52.1317 43.83 50.9843 42.7652C49.8372 41.7005 48.9774 40.4559 48.4071 39.0297C47.8368 37.6051 47.5508 36.0401 47.5508 34.3349C47.5508 32.3804 47.8878 30.6668 48.5616 29.1976C49.2355 27.7284 50.1789 26.5085 51.3921 25.5364C52.6051 24.564 53.9857 23.8459 55.5357 23.3821C57.0856 22.9181 58.7195 22.6855 60.4389 22.6855C63.0062 22.6855 65.9138 23.2583 69.1668 24.4055V30.4341C68.0458 29.7359 66.9395 29.153 65.8464 28.6892C64.7534 28.2255 63.4665 27.9927 61.9889 27.9927C60.6722 27.9927 59.4444 28.2551 58.302 28.7785C57.1596 29.3034 56.2408 30.0511 55.5456 31.0235C54.8486 31.9957 54.5019 33.1315 54.5019 34.4307C54.5019 35.5779 54.806 36.6293 55.4158 37.5852C56.0255 38.541 56.8704 39.3003 57.9519 39.8633C59.0335 40.4262 60.2548 40.7068 61.614 40.7068C62.712 40.7068 63.7507 40.573 64.7304 40.3055C65.71 40.0383 66.5335 39.741 67.2025 39.4126C67.8715 39.0856 68.5586 38.6977 69.2671 38.2489V44.0001L69.2637 44.0017Z" fill="black"/>
<path d="M95.4282 45.7057H87.1079L78.4623 35.0716V45.7057H71.6426V22.998H78.4623V33.1567L86.6526 22.998H94.059L85.6418 33.6322L95.4298 45.7075L95.4282 45.7057Z" fill="black"/>
<path d="M112 39.1024C112 40.522 111.638 41.7519 110.915 42.7883C110.192 43.8268 109.182 44.6208 107.889 45.1722C106.594 45.7234 105.109 45.9992 103.434 45.9992C102.966 45.9992 102.392 45.9695 101.714 45.9084C101.033 45.8488 100.131 45.6822 99.0048 45.4081C97.8789 45.1357 96.7069 44.7313 95.489 44.1966V38.6252C96.6314 39.335 97.754 39.926 98.8585 40.3947C99.9615 40.8653 101.145 41.0997 102.407 41.0997C103.571 41.0997 104.324 40.9065 104.667 40.5186C105.009 40.1307 105.182 39.7675 105.182 39.4291C105.182 38.8184 104.887 38.3017 104.301 37.8807C103.714 37.4597 102.859 37.0256 101.74 36.5783C100.5 36.0534 99.4124 35.4839 98.4771 34.8664C97.5419 34.2491 96.7777 33.4764 96.1842 32.5489C95.5909 31.6211 95.2949 30.5233 95.2949 29.2556C95.2949 27.9877 95.5942 26.9263 96.1925 25.9374C96.7908 24.9487 97.7046 24.1595 98.9324 23.5703C100.162 22.9811 101.663 22.6855 103.434 22.6855C104.697 22.6855 105.862 22.8076 106.934 23.0535C108.006 23.2997 108.888 23.5753 109.585 23.8808C110.28 24.186 110.76 24.427 111.02 24.602V29.9275C110.096 29.2606 109.064 28.6661 107.928 28.1412C106.791 27.6163 105.576 27.3554 104.283 27.3554C103.434 27.3554 102.82 27.5189 102.438 27.8475C102.057 28.1759 101.868 28.5787 101.868 29.059C101.868 29.5065 102.059 29.8944 102.438 30.2228C102.818 30.5498 103.499 30.9492 104.478 31.4196C106.219 32.2384 107.611 32.9764 108.655 33.6318C109.699 34.2871 110.517 35.043 111.111 35.9015C111.704 36.76 112 37.8263 112 39.104V39.1024Z" fill="black"/>
</svg>
