<svg width="422" height="27" viewBox="0 0 422 27" fill="none" xmlns="http://www.w3.org/2000/svg">
<path d="M299.593 0.231401C304.338 0.231418 307.3 2.35796 305.778 5.02735L303.094 9.47628H290.259L291.565 7.20729H269.888C268.765 7.15856 267.648 7.41224 266.655 7.9415C265.663 8.47075 264.832 9.25613 264.252 10.2149L260.672 16.4435C260.072 17.5023 261.145 18.9794 262.524 18.9795H284.809L286.384 16.4524H299.109L296.264 21.2841C294.725 23.9534 289.507 26.0799 284.763 26.0801H254.792C249.314 26.0801 244.525 22.7432 246.423 19.2819L254.667 5.04523C256.169 2.37582 261.262 0.231401 266.013 0.231401H299.593ZM91.6721 7.53678L106.94 0.133493H125.467L98.2323 14.0945L110.189 26.0358H96.5677L88.8263 18.8639L75.0703 25.9111H53.7163L81.8274 12.2883L68.6087 0.133493H84.235L91.6721 7.53678ZM166.063 0.133493C177.743 0.133497 183.077 4.07539 182.11 9.68113C180.439 19.3676 165.466 18.945 165.428 18.9439H162.742L172.936 25.92H159.181L140.905 12.8221H163.459C164.882 12.8221 169.276 13.0802 170.296 10.1528C171.317 7.22533 165.347 7.48331 165.347 7.48331H139.939L129.083 26.009H118.441L133.486 0.133493H166.063ZM360.452 7.10958H323.177L321.781 9.5388H350.635L346.643 16.5326H317.788L316.392 18.9529H354.5L350.473 25.9822H301.455L316.465 0.124645H364.444L360.452 7.10958ZM405.818 0.133493C417.497 0.133493 422.823 4.08426 421.848 9.72557C420.174 19.4216 405.192 18.9353 405.182 18.9351H402.497L412.701 25.92H398.935L380.66 12.8221H403.215C404.619 12.8221 409.022 13.0802 410.042 10.1528C411.062 7.22533 405.093 7.48331 405.093 7.48331H379.676L368.712 25.9379H358.081L373.063 0.133493H405.818ZM42.7621 0.124645C51.8193 0.151339 55.7839 1.8152 58.8716 4.40451C61.9594 6.99382 62.6126 11.3361 61.0644 14.0589C59.1532 17.7051 56.1257 20.653 52.419 22.4765C47.8099 24.8878 40.9899 25.9288 34.9042 25.9288H0L14.9282 0.124645H42.7621ZM234.367 25.8041H222.159L226.258 18.7569H197.199L193.073 25.8041H181.438L190.084 10.5975C196.716 -0.649502 209.281 0.435979 213.281 0.0355853H213.505L249.583 0L234.367 25.8041ZM16.5302 18.9795H37.1149C38.2247 18.9795 42.6726 18.7659 44.9547 17.6003C47.0344 16.5794 48.7837 14.9976 50.0025 13.0356C50.4011 12.4082 50.5648 11.6614 50.4651 10.926C50.3653 10.1906 50.008 9.51371 49.4565 9.01386C48.3825 8.13297 45.5008 7.16305 38.2245 7.16303H23.3769L16.5302 18.9795ZM212.316 7.19843C212.316 7.19843 203.365 7.34972 200.385 12.9198H229.614L232.899 7.19843H212.316Z" fill="black"/>
</svg>
