<svg width="222" height="47" viewBox="0 0 222 47" fill="none" xmlns="http://www.w3.org/2000/svg">
<path d="M41.3506 25.6637C42.7886 25.4858 44.2266 26.7304 44.2266 28.3305V44.5106C44.2266 45.5776 43.1481 47 41.5302 47H25.8921C24.0945 47 23.0161 45.3997 23.1959 43.9773C24.2744 34.5538 30.3857 27.6192 39.7327 25.8413C40.0922 25.8413 41.3506 25.6637 41.3506 25.6637ZM40.6308 1.1269C41.1702 0.0601435 42.0689 -0.117718 42.7879 0.0600371C44.0462 0.415633 44.4057 0.949118 44.4057 2.01588V16.2402C44.4057 17.307 43.5071 18.5516 42.2487 18.7295H41.7093C29.1268 19.4407 17.4432 29.3977 16.7242 44.5109V44.6887C16.7242 45.7557 15.4659 46.8226 14.2077 46.8226H10.2532C8.09621 46.8226 7.55685 45.0445 7.55685 44.1554V43.9775C7.73658 43.0884 7.7366 42.0217 7.91633 41.3105V41.1326C7.91633 40.4214 7.73671 39.7102 7.37721 39.1768L0.546498 30.8201C0.00731869 30.1089 -0.172462 29.2198 0.187 28.5086C0.546501 27.9752 0.906235 27.6195 1.98474 27.4419L12.5898 25.8418C13.1291 25.8418 13.8482 25.4858 14.2077 24.9525C14.3874 24.7747 14.3875 24.5969 14.5672 24.4191C15.1064 23.8857 15.6457 23.1745 16.0052 22.6412C16.3647 22.1078 16.5445 21.5744 16.5445 20.8632L15.8256 10.0171C15.8256 9.30595 15.8255 8.59481 16.3647 8.23918C17.0837 7.35017 17.9824 7.52798 19.2407 8.23918H19.6002L28.4081 12.1509C29.1271 12.3287 29.8461 12.3287 30.5651 12.1509C30.9246 11.9731 31.1045 11.7951 31.464 11.7951C32.3626 11.4395 33.0816 11.2618 33.621 11.084H33.8006C34.3397 11.084 34.8791 10.5505 35.2386 10.0171V9.83923L40.6308 1.1269ZM63.2801 35.2653C64.1788 35.2653 65.2575 35.4429 66.336 35.6208V36.5096C65.2575 36.332 64.3586 36.1541 63.6396 36.1541C62.9206 36.1541 62.3813 36.1541 62.0218 36.3317C61.6623 36.5096 61.3028 36.6875 61.1231 36.8653C60.9433 37.0429 60.7634 37.3987 60.5838 37.932C60.4039 38.8211 60.4041 39.7102 60.4041 40.7769C60.4041 41.8436 60.4039 42.7327 60.5838 43.2663C60.5838 43.7996 60.7634 44.333 60.9433 44.6885C61.1229 45.0442 61.4826 45.3997 61.8421 45.5776C62.2016 45.7554 62.9206 45.9333 63.6396 45.9333C64.3586 45.9333 65.2573 45.7554 66.5156 45.5776V46.4669C65.2573 46.8224 64.3586 46.8224 63.6396 46.8224C62.9206 46.8224 62.2014 46.8221 61.6623 46.6445C61.1231 46.4667 60.7636 46.2888 60.4041 45.9333C60.0446 45.5778 59.8648 45.2221 59.6851 44.6885C59.3256 43.7996 59.1458 42.5551 59.1458 41.1326C59.1458 38.6435 59.5053 37.0429 60.4041 36.3317C61.1231 35.6205 62.022 35.2653 63.2801 35.2653ZM72.088 38.6435C73.3462 38.6435 74.2448 38.999 74.7841 39.5323C75.3233 40.2436 75.5032 41.3103 75.5032 42.7327C75.5032 44.333 75.3233 45.3999 74.7841 45.9333C74.2448 46.6445 73.3462 46.8224 72.088 46.8224C70.8297 46.8224 69.9308 46.4667 69.3916 45.9333C68.8523 45.2221 68.6726 44.1551 68.6726 42.7327C68.6726 41.1326 68.8523 40.0657 69.3916 39.5323C69.9308 38.8211 70.8297 38.6435 72.088 38.6435ZM81.9742 38.4656C83.0527 38.4656 83.7717 38.8211 84.1312 39.3545C84.4907 39.8878 84.6703 40.9548 84.6703 42.5551V46.8224H83.7717V42.5551C83.7717 41.3105 83.592 40.4214 83.4122 40.0659C83.2325 39.7102 82.6932 39.3545 81.7943 39.3545C81.4348 39.3545 81.0753 39.3545 80.5359 39.5323C80.1767 39.7102 79.8172 39.7102 79.6373 39.8878L79.2778 40.0659V46.6445H78.3792V38.6435H79.2778V39.1768C80.1767 38.6435 81.0755 38.4656 81.9742 38.4656ZM90.2427 38.4656C90.9617 38.4656 91.6807 38.4656 92.7592 38.6435H93.1187V39.5323C91.8605 39.5323 90.9617 39.3545 90.2427 39.3545C88.9846 39.3545 88.2653 39.8878 88.2653 40.7769C88.2653 41.1324 88.4452 41.4881 88.6248 41.666C88.9843 41.8436 89.5237 42.0215 90.6022 42.1993C91.6807 42.3772 92.2201 42.5551 92.7592 42.9106C93.1187 43.2663 93.2983 43.7996 93.2983 44.5109C93.2983 45.3999 93.1187 45.9333 92.5793 46.2888C92.0402 46.6445 91.3212 46.8224 90.2427 46.8224C89.7035 46.8224 88.8047 46.8221 87.9058 46.6445H87.3667V45.7554C88.625 45.9333 89.5237 46.1109 90.2427 46.1109C90.9617 46.1109 91.3212 45.9333 91.6807 45.7554C92.0402 45.5776 92.2198 45.2221 92.2198 44.6885C92.2198 44.1551 92.0402 43.7996 91.8603 43.6218C91.5008 43.4439 90.9617 43.2663 89.8832 43.0884C88.9846 42.9108 88.2655 42.7327 87.7262 42.3772C87.5465 42.0217 87.3667 41.4881 87.3667 40.7769C87.3667 40.0657 87.7262 39.3545 88.2653 38.999C88.8047 38.6432 89.5237 38.4656 90.2427 38.4656ZM97.2531 38.6435H99.9492V39.5323H97.4327V43.4442C97.4327 44.5109 97.4329 45.2218 97.6126 45.5776C97.7924 45.933 98.1519 46.1109 98.6911 46.1109L100.129 45.9333V46.8224H98.6911C97.7924 46.8224 97.2531 46.6445 96.8936 46.2888C96.5341 45.9333 96.3542 45.0442 96.3542 43.9775V39.5323H95.0958V38.6435H96.3542V36.1541H97.2531V38.6435ZM109.656 42.7327C109.656 43.9773 109.835 44.8663 110.015 45.2221C110.195 45.5776 110.734 45.9333 111.453 45.9333C111.813 45.9333 112.172 45.9333 112.712 45.7554C113.071 45.5776 113.431 45.5778 113.61 45.3999L113.97 45.2221V38.6435H114.869V46.6445H113.97V46.1109C113.071 46.6443 112.352 46.8224 111.453 46.8224C110.375 46.8224 109.656 46.4667 109.296 45.9333C108.937 45.3999 108.757 44.333 108.757 42.7327V38.4656H109.656V42.7327ZM121.16 38.4656C121.699 38.4656 122.238 38.4656 122.957 38.6435H123.317V39.5323C122.418 39.3545 121.879 39.3545 121.34 39.3545C120.441 39.3545 119.722 39.5323 119.362 40.0659C119.003 40.5993 118.823 41.3105 118.823 42.7327C118.823 43.9773 119.003 44.8666 119.362 45.3999C119.722 45.9333 120.441 46.1109 121.34 46.1109L123.317 45.9333V46.8224H121.16C119.902 46.8224 119.003 46.4667 118.464 45.9333C117.924 45.2221 117.745 44.1551 117.745 42.7327C117.745 41.3105 117.924 40.0659 118.464 39.5323C119.003 38.8211 119.902 38.4656 121.16 38.4656ZM128.889 38.4656C129.428 38.4656 129.968 38.4656 130.687 38.6435H131.046V39.5323C130.147 39.3545 129.608 39.3545 129.069 39.3545C128.17 39.3545 127.451 39.5323 127.092 40.0659C126.732 40.5993 126.552 41.3103 126.552 42.7327C126.552 43.9773 126.732 44.8666 127.092 45.3999C127.451 45.9333 128.17 46.1109 129.069 46.1109L131.046 45.9333V46.8224H128.889C127.631 46.8224 126.732 46.4667 126.193 45.9333C125.654 45.2221 125.474 44.1551 125.474 42.7327C125.474 41.3103 125.654 40.0657 126.193 39.5323C126.732 38.8211 127.631 38.4656 128.889 38.4656ZM140.932 38.4656C142.191 38.4656 143.089 38.8211 143.629 39.3545C144.168 40.0657 144.348 41.1326 144.348 42.5551C144.348 44.1554 144.168 45.2221 143.629 45.7554C143.089 46.4667 142.191 46.8224 140.932 46.8224C139.674 46.8224 138.775 46.4667 138.236 45.9333C137.697 45.2221 137.517 44.1551 137.517 42.7327C137.517 41.1326 137.697 40.0657 138.236 39.5323C138.775 38.8211 139.674 38.4656 140.932 38.4656ZM150.819 38.4656C151.897 38.4656 152.616 38.8211 152.976 39.3545C153.335 39.8878 153.515 40.9548 153.515 42.5551V46.8224H152.616V42.5551C152.616 41.3105 152.436 40.4214 152.257 40.0659C152.077 39.7102 151.538 39.3545 150.639 39.3545C150.28 39.3545 149.92 39.3545 149.381 39.5323C149.021 39.7102 148.662 39.7102 148.482 39.8878L148.122 40.0659V46.6445H147.224V38.6435H148.122V39.1768C149.021 38.6435 149.92 38.4656 150.819 38.4656ZM179.938 38.6435C181.197 38.6435 182.095 38.999 182.635 39.5323C183.174 40.2436 183.354 41.3105 183.354 42.7327C183.354 44.333 183.174 45.3999 182.635 45.9333C182.095 46.6445 181.197 46.8224 179.938 46.8224C178.68 46.8224 177.781 46.4667 177.242 45.9333C176.703 45.2221 176.523 44.1551 176.523 42.7327C176.523 41.1326 176.703 40.0657 177.242 39.5323C177.781 38.8211 178.68 38.6435 179.938 38.6435ZM192.341 46.6445H191.442V46.1109C190.544 46.6445 189.645 46.8224 188.746 46.8224C188.387 46.8224 188.027 46.8221 187.668 46.6445C187.308 46.4667 187.128 46.2888 186.769 46.1109C186.23 45.5776 185.87 44.5109 185.87 42.9106C185.87 41.3105 186.05 40.2436 186.589 39.5323C187.128 38.8211 188.027 38.4656 189.285 38.4656C189.825 38.4656 190.364 38.4656 191.263 38.6435V35.0872H192.341V46.6445ZM196.296 42.7327C196.296 43.9773 196.475 44.8663 196.655 45.2221C196.835 45.5776 197.374 45.9333 198.093 45.9333C198.453 45.9333 198.812 45.9333 199.351 45.7554C199.711 45.5776 200.07 45.5778 200.25 45.3999L200.61 45.2221V38.6435H201.508V46.6445H200.61V46.1109C199.711 46.6445 198.992 46.8224 198.093 46.8224C197.015 46.8224 196.296 46.4667 195.936 45.9333C195.577 45.3999 195.397 44.333 195.397 42.7327V38.4656H196.296V42.7327ZM106.6 39.3545C106.061 39.5323 105.701 39.5323 105.162 39.7099C104.623 39.8878 104.263 40.0657 103.904 40.2436L103.544 40.5993V46.6445H102.466V38.6435H103.544V39.8878C103.904 39.5323 104.443 39.3545 104.982 38.999C105.521 38.8211 106.061 38.6432 106.6 38.4656V39.3545ZM134.461 46.6445H133.563V38.6435H134.461V46.6445ZM168.075 45.2221L171.49 35.4429H173.467V46.6445H172.389V36.5096H172.209L168.614 46.2888H167.356L163.761 36.5096H163.581V46.6445H162.862V35.4429H164.66L168.075 45.2221ZM205.822 46.6445H204.924V35.0872H205.822V46.6445ZM212.293 38.2875C213.192 38.2875 213.911 38.4656 214.271 38.999C214.63 39.5323 214.81 40.2436 214.81 40.9548V45.2221C214.81 45.5776 215.169 45.9333 215.888 45.9333V46.6445C214.99 46.6445 214.45 46.4667 214.091 45.9333C213.012 46.289 212.114 46.6445 211.035 46.6445C210.316 46.6445 209.777 46.4667 209.417 46.1109C209.058 45.7554 208.878 45.0442 208.878 44.333C208.878 43.6218 209.058 42.9108 209.417 42.5551C209.777 42.1996 210.496 42.0215 211.215 41.8439L213.911 41.4881V40.7769C213.911 40.2436 213.731 39.7102 213.552 39.5323C213.372 39.3547 213.012 39.1768 212.473 39.1768C211.754 39.1768 210.855 39.1766 209.777 39.3545H209.238V38.6435C210.496 38.4656 211.395 38.2878 212.293 38.2875ZM222 39.3545C221.461 39.5323 221.101 39.5323 220.562 39.7099C220.023 39.8878 219.663 40.0657 219.304 40.2436L218.944 40.4214V46.4669H218.045V38.6435H218.944V39.8878C219.304 39.5323 219.843 39.3545 220.382 38.999C220.921 38.8211 221.461 38.6432 222 38.4656V39.3545ZM189.285 39.5323C188.387 39.5323 187.668 39.8881 187.308 40.4214C186.949 40.9548 186.769 41.8439 186.769 43.0884C186.769 44.5109 186.949 45.4 187.488 45.7554C187.668 45.5778 187.847 45.7557 188.207 45.9333C188.387 45.9333 188.746 46.1109 188.926 46.1109C189.263 46.1109 189.6 46.1112 189.937 45.9646L190.072 45.902C190.408 45.7549 190.735 45.7443 190.903 45.5776L191.263 45.3999V39.7099C190.364 39.5323 189.645 39.5323 189.285 39.5323ZM71.9081 39.1768C71.0093 39.1768 70.2905 39.3545 69.931 39.8878C69.7511 40.4214 69.5715 41.3105 69.5715 42.5551C69.5715 43.7996 69.7511 44.6887 69.931 45.2221C70.2905 45.7554 70.8296 45.9333 71.9081 45.9333C72.9866 45.9333 73.526 45.7554 73.8855 45.2221C74.2448 44.6887 74.4247 43.7996 74.4247 42.5551C74.4247 41.3105 74.245 40.4214 73.8855 39.8878C73.526 39.3545 72.9866 39.1768 71.9081 39.1768ZM140.932 39.1768C140.034 39.1768 139.315 39.3545 138.955 39.8878C138.596 40.4214 138.416 41.1326 138.416 42.5551C138.416 43.7996 138.596 44.6887 138.775 45.2221C139.135 45.7554 139.854 45.9333 140.932 45.9333C142.011 45.9333 142.55 45.7554 142.91 45.2221C143.269 44.6887 143.449 43.7996 143.449 42.5551C143.449 41.3105 143.269 40.4214 142.91 39.8878C142.55 39.3545 142.011 39.1768 140.932 39.1768ZM179.938 39.1768C179.04 39.1768 178.321 39.3545 177.961 39.8878C177.781 40.4214 177.602 41.3105 177.602 42.5551C177.602 43.7996 177.781 44.6887 177.961 45.2221C178.321 45.7554 178.86 45.9333 179.938 45.9333C181.017 45.9333 181.556 45.7554 181.916 45.2221C182.275 44.6887 182.455 43.7996 182.455 42.5551C182.455 41.3105 182.275 40.4214 181.916 39.8878C181.556 39.3545 181.017 39.1768 179.938 39.1768ZM211.035 42.7327C210.496 42.7327 210.136 42.9106 209.957 43.2663C209.777 43.6218 209.597 43.9775 209.597 44.333C209.597 45.3999 210.136 45.9333 211.035 45.9333C211.395 45.9333 211.934 45.9333 212.293 45.7554C212.833 45.5776 213.192 45.5776 213.372 45.3999L213.731 45.2221V42.3772L211.035 42.7327ZM143.089 35.6208L139.494 37.0432L139.315 36.3317L142.73 34.7317L143.089 35.6208ZM134.461 36.6875H133.563V35.4429H134.461V36.6875ZM155.491 3.43854C156.749 3.43854 158.188 3.79402 159.446 4.14961C160.704 4.68301 161.783 5.21659 162.681 5.92781C162.861 6.1056 162.861 6.46108 162.681 6.6389C161.962 7.35002 160.345 8.95007 160.165 9.12816C159.805 9.48375 159.626 9.30595 159.446 9.12816C158.907 8.59479 158.367 8.23923 157.648 7.88364C156.39 7.35024 154.952 7.17227 153.514 7.52786C152.975 7.52786 152.436 7.88349 152.076 8.06128C151.537 8.41689 151.177 8.77258 150.997 9.12816C150.818 9.48375 150.638 10.0172 150.638 10.5506C150.638 11.084 150.818 11.6174 150.997 11.973C151.177 12.3286 151.537 12.6844 151.896 12.8622C152.256 13.2178 152.795 13.3955 153.334 13.5733C153.873 13.7511 154.592 13.9289 155.311 14.1067C156.031 14.4623 156.929 14.6401 157.828 14.9957C158.727 15.3513 159.626 15.707 160.345 16.2404C161.064 16.7738 161.603 17.3073 162.142 18.1963C162.681 19.0853 162.861 19.9742 162.861 21.2188C162.861 22.6412 162.681 23.7081 162.142 24.7749C161.783 25.8416 161.064 26.553 160.165 27.2643C159.266 27.7976 158.188 28.331 157.109 28.6867C156.031 29.0422 154.772 29.22 153.514 29.22C151.896 29.22 150.278 28.8646 148.661 28.331C147.043 27.7976 145.785 27.0864 144.886 26.0197C144.706 25.8418 144.526 25.4861 144.886 25.3082L147.942 22.9969C148.301 22.8191 148.481 22.8192 148.661 22.9969C149.2 23.7081 149.919 24.2414 150.818 24.597C151.896 25.1304 152.795 25.3082 153.874 25.3082C154.413 25.3082 154.952 25.3082 155.491 25.1304C156.031 25.1304 156.57 24.9526 156.929 24.597C157.469 24.2414 157.828 23.8859 158.008 23.5304C158.188 23.1748 158.367 22.6413 158.367 21.9301C158.367 21.2189 158.367 20.6854 158.008 20.3298C157.648 19.9742 157.289 19.6185 156.75 19.2629C156.21 18.9073 155.671 18.5517 154.952 18.3739L152.615 17.6629C151.896 17.3073 150.997 17.1295 150.278 16.7739C149.38 16.4183 148.661 16.0625 148.121 15.5291C147.402 14.9957 146.863 14.2845 146.504 13.5733C146.144 12.6843 145.964 11.7952 145.964 10.5506C145.964 9.306 146.324 8.2392 146.863 7.35022C147.402 6.46123 148.121 5.57225 149.02 5.03882C149.919 4.50542 150.997 4.14968 152.076 3.79408C153.154 3.61626 154.413 3.43854 155.491 3.43854ZM96.7127 3.43829C100.847 3.0827 104.442 4.86083 107.138 7.52786C107.498 7.70568 107.138 8.06128 107.138 8.06128L104.262 10.3727C104.084 10.5488 103.73 10.376 103.723 10.3727C102.105 8.77245 99.9482 7.88339 97.6113 7.88339C92.7582 7.88344 88.8037 11.973 89.1632 16.7736C89.5227 20.8631 92.7582 24.2414 96.8923 24.597C99.7683 24.7748 102.465 23.5301 104.083 21.5743C104.262 21.3965 104.622 21.3965 104.802 21.5743L107.498 23.708C107.498 23.708 108.037 23.8858 107.498 24.597C105.161 27.4419 101.386 29.2198 97.4317 29.2198C90.062 29.2198 83.9503 22.8189 84.4894 15.3512C84.8489 8.95029 90.2417 3.7939 96.7127 3.43829ZM126.012 3.26065C133.202 3.26065 138.954 8.95024 139.134 16.2402C139.134 23.5301 132.663 29.5755 125.113 29.0422C118.642 28.6864 113.43 23.5301 113.07 17.1292C112.531 9.48365 118.463 3.26067 126.012 3.26065ZM77.2996 3.97172C77.4793 3.97172 77.6589 4.14948 77.6591 4.32725V8.23895C77.6591 8.41674 77.4793 8.59474 77.2996 8.59474H64.7171C64.5373 8.59474 64.3576 8.77245 64.3576 8.95027V13.573C64.3576 13.7508 64.5373 13.9288 64.7171 13.9288H75.682C75.8616 13.9289 76.0415 14.1066 76.0415 14.2844V18.3739C76.0413 18.5517 75.8616 18.7294 75.682 18.7295H64.7171C64.5373 18.7295 64.3576 18.9072 64.3576 19.085V23.708C64.3576 23.8858 64.5375 24.0636 64.7171 24.0636H77.2996C77.4793 24.0636 77.6591 24.2413 77.6591 24.4191V28.3307C77.6591 28.5086 77.4793 28.6864 77.2996 28.6864H60.2232C60.0436 28.6862 59.8637 28.5086 59.8637 28.3307V4.32725C59.8637 4.14948 60.0436 3.97174 60.2232 3.97172H77.2996ZM183.352 3.97146C183.532 3.97146 183.711 3.97159 183.711 4.14936L184.969 7.52761L192.16 24.5967L193.598 27.975C193.778 28.3307 193.598 28.5086 193.418 28.6864H189.283C189.104 28.6864 188.924 28.6862 188.924 28.5083L186.767 23.5299C186.647 23.4114 186.527 23.3522 186.407 23.3522H175.622C175.443 23.3522 175.263 23.3521 175.263 23.5299L174.185 26.1971L173.286 28.3305C173.286 28.3305 173.106 28.5083 172.926 28.5083H168.792C168.433 28.5083 168.253 28.1528 168.433 27.975L174.544 13.3951C175.263 11.4393 176.162 9.48337 177.06 7.34971L178.319 4.14936C178.323 4.14574 178.5 3.97146 178.678 3.97146H183.352ZM204.024 3.97146C204.144 3.97149 204.263 4.03084 204.383 4.14936L215.887 19.7961C216.067 20.1517 216.606 19.9738 216.606 19.6182V4.32725C216.606 4.14948 216.786 3.97151 216.966 3.97146H220.92C221.1 3.97146 221.28 4.14946 221.28 4.32725V28.1528C221.28 28.3307 221.1 28.5083 220.92 28.5083H216.786C216.666 28.5083 216.547 28.4489 216.427 28.3305L204.563 12.1506C204.383 11.795 203.844 11.9727 203.844 12.3283V27.975C203.844 28.1528 203.664 28.3305 203.485 28.3305H199.53C199.35 28.3305 199.171 28.1528 199.171 27.975V4.32725C199.171 4.14948 199.35 3.97151 199.53 3.97146H204.024ZM126.012 7.7055C121.339 7.70555 117.564 11.4395 117.564 16.0623C117.564 21.0408 121.878 24.9525 126.911 24.4191C130.686 24.0635 133.921 21.0408 134.281 17.1292C134.82 12.1507 130.865 7.88332 126.012 7.7055ZM181.195 10.3724C181.015 10.0168 180.656 10.0169 180.476 10.3724L177.24 18.0181C177.24 18.3737 177.42 18.5513 177.6 18.5513H184.071C184.43 18.5513 184.61 18.3736 184.43 18.0181L181.195 10.3724Z" fill="black"/>
</svg>
