<svg width="392" height="45" viewBox="0 0 392 45" fill="none" xmlns="http://www.w3.org/2000/svg">
<path d="M0 3.10511H29.4021V9.44359H7.45238V20.4157H26.7134V26.4015H7.45238V45H0V3.10511ZM35.8443 3.10511H56.5392C60.3579 3.10511 63.4159 3.96556 65.7244 5.68646C68.0275 7.40737 69.1844 10.0101 69.1844 13.4893C69.1844 15.6004 68.6575 17.4121 67.6038 18.9193C66.5501 20.4263 65.0509 21.5915 63.1009 22.4092V22.5267C65.7244 23.0771 67.7125 24.2957 69.0649 26.1931C70.4174 28.0903 71.091 30.4685 71.091 33.3225C71.091 34.9632 70.7923 36.5024 70.1948 37.9294C69.5973 39.3564 68.6629 40.5908 67.392 41.6277C66.121 42.6645 64.4914 43.4875 62.5034 44.0915C60.5153 44.7007 58.1471 45 55.4041 45H35.8443V3.10511ZM43.2967 20.6508H55.4637C57.2508 20.6508 58.7446 20.1537 59.9342 19.1544C61.1291 18.1549 61.7212 16.7173 61.7212 14.8414C61.7212 12.7304 61.1834 11.2447 60.1135 10.3842C59.0378 9.52375 57.4898 9.09085 55.4637 9.09085H43.2967V20.6508ZM43.2967 39.0142H56.4742C58.7392 39.0142 60.4991 38.4371 61.7537 37.2827C63.0085 36.1283 63.6331 34.4983 63.6331 32.3818C63.6331 30.2654 63.0085 28.7156 61.7537 27.5985C60.4991 26.4815 58.7446 25.9258 56.4742 25.9258H43.2967V39.0089V39.0142ZM77.1475 44.6472H73.1714L91.634 0H95.6318L77.1419 44.6472H77.1475ZM118.548 14.5368H104.138V11.9287H122.166V14.5368L107.717 32.7934H122.378V35.3854H103.964V33.0872L118.554 14.5368H118.548ZM147.266 35.3801H144.23L142.019 29.9395H129.434L127.223 35.3801H124.149L134.013 11.9234H137.418L147.266 35.3801ZM130.346 27.5077H141.074L135.718 14.9002L130.346 27.5077ZM153.763 28.0262V35.3854H150.867V11.9287H161.4C165.876 11.9287 169.721 14.4834 169.721 20.0309C169.721 25.0386 165.876 28.0262 161.4 28.0262H153.763ZM153.763 25.4501H161.063C164.153 25.4501 166.75 23.4138 166.75 20.0416C166.75 16.3112 164.153 14.5315 161.063 14.5315H153.763V25.4448V25.4501ZM192.502 35.3801H189.466L187.254 29.9395H174.669L172.459 35.3801H169.384L179.248 11.9234H182.654L192.502 35.3801ZM175.583 27.5077H186.31L180.954 14.9002L175.583 27.5077ZM201.491 14.5849V35.3801H198.612V14.5849H190.622V11.9234H209.46V14.5849H201.491ZM213.377 35.3801V11.9287H230.476V14.5208H216.272V22.0351H228.629V24.6271H216.272V32.8148H230.839V35.3907H213.37L213.377 35.3801ZM238.845 28.0262V35.3854H235.95V11.9287H246.483C250.958 11.9287 254.805 14.4834 254.805 20.0309C254.805 23.8629 252.556 26.5084 249.504 27.5451L256.07 35.3854H252.436L246.434 28.0262H238.852H238.845ZM238.845 25.4501H246.146C249.237 25.4501 251.833 23.4138 251.833 20.0416C251.833 16.3112 249.237 14.5315 246.146 14.5315H238.845V25.4448V25.4501ZM260.366 11.9287H263.261V35.3854H260.366V11.9287ZM289.997 35.3801H286.961L284.749 29.9395H272.164L269.954 35.3801H266.879L276.743 11.9234H280.149L289.997 35.3801ZM273.071 27.5077H283.799L278.443 14.9002L273.071 27.5077ZM303.859 24.6537V35.3801H300.964V11.9287H317.394V14.5208H303.859V22.0884H314.69V24.6645H303.859V24.6537ZM321.746 35.3801V11.9287H338.845V14.5208H324.646V22.0351H337.004V24.6271H324.646V32.8148H339.214V35.3907H321.746V35.3801ZM344.319 11.9287H354.608C358.997 11.9287 361.962 14.3979 361.962 18.3902C361.962 20.2392 361.153 21.9496 359.208 23.0344C361.843 23.9003 363.44 25.9364 363.44 28.8225C363.44 32.4834 360.789 35.3854 355.661 35.3854H344.319V11.9287ZM347.221 22.2221H354.521C357.155 22.2221 358.997 20.7363 358.997 18.4061C358.997 16.0761 357.297 14.4673 354.466 14.4673H347.214V22.2221H347.221ZM355.89 24.6217H347.214V32.8254H355.89C358.541 32.8254 360.468 31.4251 360.468 28.8331C360.468 26.396 358.888 24.6217 355.89 24.6217ZM379.377 11.5814C386.628 11.5814 392 16.696 392 23.7774C392 30.8587 386.628 35.7488 379.377 35.7488C372.125 35.7488 366.878 30.8105 366.878 23.7774C366.878 16.744 372.25 11.5814 379.377 11.5814ZM379.377 33.0658C385.01 33.0658 389.012 29.2661 389.012 23.756C389.012 18.2459 385.026 14.2536 379.377 14.2536C373.727 14.2536 369.883 18.2245 369.883 23.756C369.883 29.2874 373.847 33.0658 379.377 33.0658Z" fill="black"/>
</svg>
