<svg width="180" height="151" viewBox="0 0 180 151" fill="none" xmlns="http://www.w3.org/2000/svg">
<path d="M118.185 141.662C119.322 140.804 121.237 140.679 122.58 141.035C124.516 141.552 121.985 142.081 121.644 142.306C120.56 143.023 121.399 143.54 121.34 144.479C121.29 145.252 120.979 146.098 120.986 146.686C121.001 147.91 121.581 149.253 121.308 150.584C120.839 150.659 120.572 150.553 120.193 150.293C119.288 149.673 117.418 146.758 116.312 145.728C115.93 145.375 115.654 144.852 115.044 144.952V149.335L115.05 149.328C119.175 150.289 115 150.794 113.28 150.878C112.895 150.897 112.318 150.803 112.231 150.421C112.052 149.629 113.524 149.604 113.797 149.097C114.041 148.649 114.527 143.114 114.354 142.817C114.154 142.475 112.309 142.159 112.544 141.192L115.36 141.348L119.902 146.821C120.779 145.785 121.086 143.258 119.921 142.425C119.382 142.04 118.608 142.244 118.185 141.662ZM90.4629 141.715C90.8011 141.693 90.9922 141.008 91.5555 141.198C91.4801 141.951 91.8672 143.966 91.0862 144.319C89.5044 140.265 85.3601 142.238 85.3601 146.044C85.3601 150.083 89.9648 151.404 89.3854 146.705C86.0555 145.202 91.3179 145.537 92.4989 145.891C92.7308 146.877 91.8254 146.32 91.4058 146.824C90.2217 148.242 92.1607 149.563 91.8692 149.955C87.465 151.739 82.093 150.064 83.6749 144.429C84.4078 141.818 86.6977 140.97 89.1912 141.211C89.6829 141.258 90.1904 141.734 90.4629 141.715ZM97.793 145.728C97.8179 139.379 106.893 139.426 106.93 145.728C106.952 149.676 102.253 152.19 99.171 149.541C98.2345 148.737 97.7898 146.946 97.793 145.728ZM145.986 148.627L147.311 149.801C147.342 150.534 144.216 150.218 143.558 150.271V150.268C143.355 150.086 145.265 147.816 143.402 147.453C142.011 147.184 140.711 147.4 141.027 149.119C141.099 149.513 142.233 149.451 141.989 150.268C141.832 150.43 137.588 151.241 137.92 149.648C141.594 148.59 140.489 142.648 143.868 141.192L145.986 148.627ZM32.6658 141.195C33.0197 140.816 36.1896 140.797 36.8945 140.879C39.2815 141.154 40.5033 142.886 39.6983 145.246C38.8932 147.607 35.8298 146.264 35.5133 147.341C35.5854 149.072 35.3724 149.397 37.0482 150.111C37.0636 150.909 33.0763 150.48 32.3589 150.577L32.3557 150.581C32.1429 149.604 33.4866 149.76 33.7747 149.344C33.9878 149.037 34.044 143.609 33.9126 142.92C33.7339 141.984 32.171 141.727 32.6658 141.195ZM75.4272 141.192C76.4547 143.111 76.7866 147.084 77.8359 148.799C78.2308 149.444 79.1141 149.419 79.0264 150.268H75.2706L76.2324 149.116L75.85 147.494L73.269 147.431L72.7739 149.31L73.864 149.958C72.7112 150.768 71.2704 150.587 69.9454 150.581C69.6227 149.222 70.9541 149.563 71.4834 148.834C71.9629 148.173 73.0997 145.055 73.5476 144.01C74.0833 142.754 73.6448 142.053 75.4272 141.192ZM133.008 141.824C132.667 141.906 132.121 141.912 131.852 142.103C131.016 142.695 131.329 148.133 131.473 149.354C131.818 149.82 133.409 149.429 133.218 150.584H127.893V150.581C127.586 149.473 129.277 149.995 129.465 149.429C129.475 146.768 131.147 142.366 127.899 141.345C127.871 140.437 132.407 141.192 133.218 140.879L133.008 141.824ZM65.707 140.876C66.0454 141.092 66.1019 141.298 66.1739 141.671C66.2741 142.191 66.5686 143.621 66.0268 144.003C65.7666 143.123 62.4244 141.277 62.4242 142.601V149.172L63.4581 149.638L63.6773 150.578C62.2021 150.29 61.0836 150.29 59.6082 150.578C59.3985 149.598 60.3821 150.155 60.5543 149.178C60.6797 148.455 60.9114 144.946 60.8737 144.175C60.8549 143.737 60.5668 142.479 60.244 142.26C58.8753 142.019 57.7225 142.729 57.1023 143.853L56.4728 143.531L56.789 141.189C59.6114 141.543 63.0508 142.003 65.707 140.876ZM49.1175 141.189C50.0666 143.086 50.5082 147.128 51.5262 148.796C51.9209 149.441 52.8044 149.416 52.7167 150.265L52.7135 150.268H48.9577C48.704 149.447 49.8692 149.5 49.9225 149.128C50.173 147.422 48.209 147.24 46.9561 147.431L46.4266 149.125L47.3884 150.265L43.6326 150.577C43.3318 149.272 44.3436 149.601 44.7821 149.225C45.2928 148.787 46.8276 144.961 47.2381 144.006C47.7737 142.751 47.3351 142.05 49.1175 141.189ZM102.332 149.629C106.482 149.491 105.502 141.505 101.812 142.178C98.5478 142.773 98.5666 149.754 102.332 149.629ZM74.0331 144.332L73.7011 146.511H75.2706L74.951 144.319H74.9478L74.0331 144.332ZM143.555 146.511C143.605 146.003 143.223 144.147 142.462 144.323L141.673 146.511H143.555ZM48.9482 146.505C49.1268 145.922 48.6381 144.16 47.8644 144.323C47.188 144.827 47.3413 145.744 47.4197 146.479L48.9482 146.505ZM37.8187 142.77C35.7575 140.099 34.8054 144.335 35.8266 146.17C37.6872 146.414 39.0373 144.354 37.8187 142.77ZM91.5561 141.198L91.5555 141.198C91.5557 141.196 91.5559 141.194 91.5561 141.192V141.198ZM104.399 117.08C105.189 112.938 111.256 113.902 109.486 118.254C109.189 118.983 107.394 120.123 107.532 120.671C112.141 122.93 108.828 129.553 104.718 126.166C109.255 127.125 109.366 122.114 105.023 121.619C105.042 120.805 108.287 119.825 108.462 117.844C108.587 116.429 107.391 115.94 106.135 116.138C105.323 116.266 105.211 117.152 104.399 117.08ZM93.7551 116.617C93.7708 114.995 97.6207 113.151 99.0333 115.724C100.311 118.05 96.7155 120.007 96.8815 120.677C101.571 122.909 98.1876 129.54 94.0623 126.168V126.165C96.3458 127.167 98.745 124.684 97.0286 122.728C96.4304 122.042 94.0183 122.03 94.3755 121.316C94.5979 120.868 96.7906 119.991 97.323 119.253C98.3223 117.872 97.8524 115.806 95.8038 116.153C95.4904 116.207 93.7458 117.565 93.7551 116.617ZM104.718 126.166C104.716 126.166 104.714 126.166 104.713 126.165V126.162C104.714 126.163 104.716 126.165 104.718 126.166ZM70.4528 114.291C71.4175 114.691 75.6589 113.677 75.8939 114.738C76.1288 115.8 73.9361 115.224 73.745 116.028V122.048L75.5807 122.405L75.2706 123.197L69.9423 123.341V122.405L71.5306 122.267L71.7842 116.025L69.9454 115.042L70.4528 114.291ZM83.0922 116.926C79.3114 114.366 80.7682 109.785 85.4448 110.193C88.8718 110.49 89.6892 114.572 86.5474 115.837C86.5381 117.011 88.007 117.124 88.4549 118.147C89.2632 119.979 88.527 121.87 86.7634 122.781C82.5316 124.969 78.8947 119.785 83.0922 116.926ZM86.0118 122.349C88.787 121.206 85.7425 116.175 84.0916 117.13C84.007 117.18 83.1486 118.605 83.1048 118.811C82.6694 120.977 83.5654 122.862 86.0118 122.349ZM85.4072 116.1C87.791 114.698 86.8638 110.324 83.9476 111.198C81.3444 111.98 83.0046 116.012 85.4072 116.1ZM32.2116 74.519C33.8029 74.519 35.4098 73.6957 37.0042 74.5502V74.5534L37.0355 75.7432C35.4726 76.3787 33.0761 75.0513 32.7128 77.2427C32.5937 77.9534 33.0167 78.4919 32.9823 79.046C32.7785 82.117 32.8005 83.8139 32.9757 86.8754C33.1636 90.1345 32.0518 92.5107 35.507 94.3639C38.6019 96.0263 43.4945 95.6819 44.4908 91.8032C45.6122 87.4422 44.3844 81.7945 44.4314 77.2957C44.0209 75.8057 39.9613 76.8388 40.4969 74.1934C43.9928 74.663 47.8207 73.9868 51.1567 74.9886C50.9876 77.0547 49.3838 76.4349 48.2341 76.7574C46.5583 77.23 47.213 83.1408 47.072 84.6747C46.8401 87.1606 46.3892 91.0205 45.252 93.187C41.6466 100.068 30.3759 99.4951 29.5363 90.936C29.1918 87.439 29.4706 83.7357 29.5302 80.292C29.5522 79.0553 29.5708 77.8125 29.4926 76.5789L25.7805 74.9729C25.768 73.7677 31.2373 74.519 32.2116 74.519ZM116.791 74.5223C118.066 74.5223 120.525 73.6614 121.553 74.5817H121.55C122.677 75.5898 120.582 76.0404 119.893 76.0875C118.915 76.1532 117.621 75.2391 117.29 77.2429C117.171 77.9534 117.593 78.4887 117.559 79.046C117.33 82.5146 117.051 87.8273 117.578 91.2335C118.004 93.9853 121.838 95.5131 124.297 95.4818C125.813 95.4599 128.726 93.6378 129.083 92.1288C130.139 87.6332 129.042 81.9168 129.008 77.3086C128.898 75.9373 124.507 76.5196 125.08 74.6662C125.399 73.6363 127.72 74.4972 128.385 74.516C129.506 74.5504 135.564 74.1528 135.749 75.0076C136.203 77.1018 133.475 76.4226 132.592 76.8514C131.229 77.5152 131.79 83.1657 131.652 84.6779C131.476 86.6001 131.085 89.9469 130.549 91.7157C128.137 99.7364 115.072 100.384 114.116 90.9394C113.794 87.7523 114.035 83.4915 114.11 80.295C114.138 79.0616 114.144 77.8156 114.072 76.5823L110.36 74.9763C110.348 73.7709 115.817 74.5223 116.791 74.5223ZM148.113 74.5223C149.755 74.5004 152.677 73.1166 152.329 75.7588C151.43 75.7181 149.83 75.856 149.094 76.363C147.812 77.2492 148.342 84.1865 148.267 85.9459C148.201 87.5301 147.368 94.5517 148.003 95.4159C149.15 96.0983 151.314 95.6538 151.697 97.1973C151.477 98.2396 147.192 97.0815 146.23 97.0344C145.181 96.9845 141.463 97.504 141.04 97.2097C139.455 96.1078 142.945 95.1592 143.822 95.4379C144.467 95.0464 144.426 86.6627 144.498 85.3102C144.608 83.2409 145.09 80.7958 145.144 78.739C145.253 74.6442 142.948 76.8671 141.435 75.6868C141.062 75.3957 141.197 74.613 141.397 74.2249C143.652 74.2029 145.842 74.5504 148.113 74.5223ZM171.086 75.3236L176.825 94.6334C177.163 95.7854 178.94 95.6696 179.5 96.183L179.503 96.1798C181.489 97.9924 176.478 97.0284 175.992 97.0377C174.958 97.0597 171.165 97.8234 170.507 97.5291C170.282 97.429 170.09 97.0627 169.874 96.8905C171.497 95.0716 173.455 96.4335 172.925 93.2089C172.794 92.4076 172.017 89.6714 171.281 89.5305C170.2 89.3237 165.539 89.4304 164.828 90.2912C164.621 90.5424 163.713 93.6973 163.672 94.1606C163.478 96.4585 165.862 95.4411 166.382 95.8293C166.516 95.9295 166.77 96.5899 166.425 96.8873C165.219 97.9392 163.732 97.0096 162.504 97.0221C161.592 97.0316 157.445 97.8078 157.028 96.5713C156.518 95.0528 159.822 95.7415 160.715 94.3233C162.338 91.7407 163.29 87.5113 164.477 84.6217C165.664 81.7321 168.223 78.8111 167.362 75.7713L170.347 74.8196L171.086 75.3236ZM18.0278 74.2373C19.5815 74.6225 19.3403 78.0505 19.1649 79.3308C18.7608 82.2736 17.323 78.3856 16.5305 77.6403C16.2204 77.3492 13.9023 76.0719 13.7143 76.0719H7.44941L7.02978 76.5916C6.55677 79.3965 6.6883 82.2204 7.27093 85.0128C7.90368 85.4511 12.9188 84.728 13.6549 84.2334L14.6479 80.1384C14.9204 79.8067 15.0489 79.6971 15.4373 79.9819C16.1233 80.4832 15.456 89.0108 15.7442 90.4727L14.6479 90.1628C14.5446 86.2214 10.4253 86.3215 7.4964 87.0041L7.17384 87.4266C7.27095 88.71 6.43141 95.2689 7.49331 95.4975C8.62412 95.4818 9.72353 95.2 10.4189 96.2707L9.94923 97.0502C7.34614 97.1316 4.71792 96.9406 2.11796 97.0502L2.12416 97.0471C1.45377 97.0753 0.0725619 98.13 0.0913559 96.2675L3.54646 94.9558C3.10477 89.4678 4.10085 83.1752 3.53388 77.7875C3.18618 74.4689 -0.550919 77.9753 0.0693106 74.7163L18.0278 74.2373ZM56.7732 74.0869C57.005 73.1322 61.9763 74.1558 62.9318 74.1653C65.6005 74.1873 68.5326 73.6925 71.3674 73.871C72.0003 73.9116 74.3747 74.1152 74.7567 74.2405C75.7029 74.5443 76.3825 80.4798 75.424 80.4547C75.0199 79.5218 71.8122 75.765 71.0385 75.765H64.6169V75.7588C64.429 75.8778 64.1191 79.44 64.1096 80.0383C64.0971 80.7895 64.3036 84.4549 64.6106 84.6872C65.3842 85.2726 68.21 85.2289 69.0965 84.7749C70.2179 84.1988 69.6728 81.6191 70.7064 80.7458C73.0496 79.9193 71.5773 83.723 71.5116 84.9971C71.4583 86.071 71.8466 90.8388 71.0355 91.0957C69.5129 91.2616 70.0112 89.3769 69.8013 88.2623C69.2844 85.52 66.5058 86.766 64.3351 86.4373C63.9246 86.7878 63.8464 93.4375 63.9747 94.3985C64.1094 95.4223 64.3476 95.6726 65.3844 95.8072C66.9165 96.0077 73.0432 96.0296 74.4153 95.7258C74.8288 95.635 75.3238 95.3532 75.59 95.0215C75.8157 94.7393 77.5541 89.7464 78.3498 92.2445C78.6003 93.0367 78.6159 96.4836 77.7765 96.8905C76.846 97.3413 73.3347 96.9623 71.9783 97.0437C68.0973 97.2754 64.147 96.9186 60.0654 97.0314C59.3607 97.0502 58.0763 97.7294 57.7318 96.8871C57.2589 95.7351 59.367 95.8885 60.0436 95.4504C61.3999 94.5707 60.4603 93.5345 60.5197 92.5075C60.6731 89.8936 60.8642 87.2825 60.8769 84.6935C60.8801 83.5916 60.93 76.379 60.504 76.1156C59.0005 76.0844 56.2157 76.3911 56.7732 74.0869ZM85.0749 91.1584C81.3411 82.7214 88.0415 71.7299 97.8961 74.2751C98.745 74.4942 100.762 75.7339 101.11 75.7463C101.909 75.7715 102.517 74.5975 103.459 74.8166C103.669 76.839 104.377 79.3278 102.986 81.0779C102.188 81.2657 101.37 78.8863 100.797 78.2601C98.1874 75.4052 95.3902 75.2362 92.0825 77.0644C87.0298 79.8538 86.6254 89.7779 89.9803 93.9948C91.227 95.5602 96.6056 96.2487 97.7898 94.3516C98.388 93.3934 98.8421 87.6148 97.9337 86.9948L95.3151 86.3935C95.1367 86.1462 95.6155 85.4576 95.7848 85.4575H104.712V85.4638L104.888 86.4125L102.281 87.4141C101.793 87.9025 101.702 92.6831 101.946 93.3938C102.232 94.2295 103.748 93.9697 103.459 94.6928C103.171 95.4161 101.423 96.3647 100.647 96.5776C94.7387 98.2117 87.8064 97.332 85.0749 91.1584ZM168.768 80.458C168.245 80.4299 167.945 80.9089 167.76 81.3221C167.468 81.9799 165.909 87.3981 166.112 87.6552C167.149 87.2888 170.783 88.2406 171.102 87.1479C171.234 86.6971 169.176 80.5487 168.768 80.458ZM97.7023 0.000930033C99.5753 -0.0804655 99.3906 5.20705 101.787 5.56715C104.9 5.41061 102.473 1.12475 103.441 0.448531C105.468 -0.969599 109.258 4.80649 105.972 7.98721C103.685 10.2037 100.525 10.3445 97.9779 8.45046C97.1698 7.84939 94.9361 5.00058 94.2189 4.9943C92.6244 4.9851 91.3183 11.008 91.3088 12.3637C91.2932 14.4174 92.9595 20.6034 94.5351 21.909C96.1108 23.2146 102.232 19.9806 102.771 23.7186C103.309 27.4564 98.8674 25.4121 96.5682 26.2981C97.984 29.4412 99.2276 32.4123 99.6599 35.8841C101.204 48.2721 92.8813 54.6303 81.0468 53.8601C72.6926 53.3154 65.2058 47.3045 66.1801 38.3478C67.0947 29.9328 80.27 27.7507 83.6436 35.6116C84.2389 37.0017 85.2662 41.2938 82.9389 41.2813C80.6114 41.2687 81.9866 37.0237 78.6787 35.5647C73.5571 33.3076 67.9688 38.4919 69.7918 43.8202C73.4506 54.5082 95.8603 55.2939 94.6825 38.0411C94.5165 35.6148 92.5836 28.1671 90.4787 26.9025C88.2609 25.572 81.7454 28.6868 82.469 22.8544H89.3605L89.3634 22.8514C86.4032 16.6027 86.1432 9.98128 90.9391 4.54651C92.1201 3.20975 95.9949 0.0761186 97.7023 0.000930033Z" fill="black"/>
</svg>
