<svg width="123" height="69" viewBox="0 0 123 69" fill="none" xmlns="http://www.w3.org/2000/svg">
<path d="M10.8333 16.3121C16.0071 11.6065 23.911 7.41857 31.0813 7.8801C45.3226 8.80016 38.342 23.9877 29.2628 26.7257C32.9874 21.9195 36.8928 11.5082 26.872 12.1046C18.5912 12.6 11.3507 22.2699 8.8847 29.559C6.23876 37.3831 8.49666 42.3392 17.1599 38.6861C22.3645 36.4909 26.8551 32.9365 30.3895 28.5686L35.4453 28.1435L29.2621 43.9011C31.8294 43.0091 34.6777 42.1958 37.4108 42.6321L36.9355 43.6281C34.8715 44.4133 29.2986 46.1246 27.9376 47.6444C27.2346 48.4296 25.8289 51.8518 25.0893 53.0958C22.0077 58.2714 17.5423 64.7922 12.1098 67.6854C3.91054 72.0589 -2.16577 64.719 3.55349 57.4327C8.26332 51.4324 16.5666 48.3477 23.2784 45.2324L28.1346 34.0538C27.7549 33.6935 24.9319 36.9074 24.482 37.2902C19.1816 41.8186 6.33152 49.6199 1.30394 41.0616C-3.25404 33.3081 5.15905 21.4707 10.8333 16.3121ZM21.386 49.8142C16.9968 51.5225 12.2982 54.4183 8.8649 57.683C7.3662 59.1099 3.45222 63.2275 5.18995 65.3158C7.41973 67.992 13.0265 62.1833 14.4999 60.5088C17.2921 57.337 19.5106 53.5798 21.386 49.8142ZM89.4496 20.1001C89.8206 21.6451 93.341 19.2332 93.9342 18.434C95.1012 16.8692 94.6597 14.4404 95.565 12.4676C96.8839 9.59693 101.434 6.73476 104.614 7.87737C105.134 3.36881 108.314 6.27045 109.872 8.40655C116.865 5.79481 125.05 5.93837 121.341 15.752C119.55 20.4914 115.92 25.4757 117.7 30.9468C118.082 32.1204 120.492 35.1232 118.957 35.8774C117.829 36.4318 116.457 35.7591 115.577 35.0387C111.461 31.6728 113.881 24.6931 115.448 20.5447C116.263 18.3834 119.311 13.0982 119.46 11.3279C119.587 9.82502 118.279 8.74411 116.837 8.70752C116.108 8.68786 109.484 9.94316 109.186 10.1936C108.539 10.7369 109.205 12.6309 109.093 13.6187C108.584 18.0682 102.865 21.7296 98.6161 21.558C95.9589 21.451 96.6477 20.0551 95.9137 19.54C94.7609 18.7325 93.7879 21.257 93.0794 22.0786C92.0166 23.3113 89.7025 25.4924 88.1055 25.8217C85.2093 26.4157 85.3779 25.4079 84.225 23.3534C82.6702 24.361 81.6635 26.1116 79.9623 26.9615C76.6922 28.5966 74.4005 27.4962 71.6167 25.636C69.699 27.3612 66.4402 31.4982 63.482 30.6145C62.259 30.2486 62.4417 28.0311 60.9487 28.4616C60.3638 28.6304 57.0233 31.8078 55.9463 32.4747C54.5573 33.3387 51.7146 35.0387 50.3341 33.6372C49.915 33.2123 49.9741 32.2526 49.4033 32.3932C48.5232 32.61 46.1584 35.3513 44.9773 36.1307C43.4169 37.1636 41.0998 38.4724 39.3621 37.2312C37.9084 35.2584 41.4486 30.6231 36.2888 34.0452C36.0246 31.5602 39.0893 30.7523 40.5036 28.8386C41.5666 27.4006 41.9434 25.4841 43.0455 24.0655L48.3769 22.2307C47.7441 23.4383 44.5557 31.0904 45.028 31.7686C45.5004 31.9486 45.956 32.1315 46.4819 32.0387C48.7313 31.636 51.8438 23.1593 53.0219 21.1104L59.3401 18.9913C57.9904 20.6236 54.279 28.8078 55.2575 30.4008C56.4638 30.9832 58.1425 29.0134 58.9242 28.1436C61.5335 25.2506 63.4429 21.4538 64.5506 17.7333C64.756 17.4857 69.2408 16.2079 69.9269 16.0728C70.3094 15.9969 70.4358 16.0363 70.3064 16.4556C69.834 17.9782 64.8993 25.6668 66.6368 26.8911C67.9136 27.3978 69.2829 26.4914 70.1827 25.6191C72.2775 23.5843 71.6139 21.4397 72.5081 18.9406C73.9759 14.8345 79.0343 11.3954 83.4012 12.6478C84.5034 12.963 85.0572 13.7397 86.0554 14.069L90.411 0.838692L96.4593 0H96.4622L89.4496 20.1001ZM29.2593 26.7308L29.2565 26.7279C29.2587 26.7273 29.2607 26.7265 29.2628 26.7257C29.2617 26.7275 29.2605 26.729 29.2593 26.7308ZM79.4279 23.6125C84.8042 22.9398 85.8672 14.1843 80.6428 15.2594C77.3444 15.9377 74.0518 24.285 79.4279 23.6125ZM101.037 17.6628C104.889 16.8579 106.588 8.6486 102.288 9.62234C99.6171 10.2274 96.0459 18.707 101.037 17.6628ZM66.8567 9.90935C71.4682 8.85678 71.6847 14.8232 67.647 14.6543C64.658 14.5305 64.2643 10.5032 66.8567 9.90935Z" fill="black"/>
</svg>
