<svg width="162" height="61" viewBox="0 0 162 61" fill="none" xmlns="http://www.w3.org/2000/svg">
<path d="M129.086 32.1879C129.747 32.8087 130.422 35.154 130.094 36.1148L123.291 59.6016C116.909 59.1287 109.245 60.4047 103.014 59.6608C100.132 59.3158 98.5949 56.9755 98.9619 54.1129L105.687 31.2863C106.499 30.7099 123.389 30.8477 125.538 31.0646C126.365 31.1483 128.543 31.6754 129.081 32.183L129.086 32.1879ZM118.931 39.4552C117.467 39.6966 113.674 38.8886 112.808 39.9381C112.465 40.352 109.48 49.1515 109.255 50.1615C109.137 50.6985 109.098 51.2258 109.142 51.7678L115.456 51.7185L118.931 39.4552ZM94.2146 59.1582C96.3778 52.9551 99.1968 45.9391 100.577 39.4502C101.213 36.4744 101.933 33.3556 98.5558 31.6313C94.797 29.7097 82.3753 31.9465 77.5544 31.04L68.5197 59.6509H77.0846L83.6919 38.4649H90.5437L84.1812 59.1582H94.2146ZM37.1964 31.0744L30.4619 53.1177C29.8305 57.0248 30.3151 59.1729 34.5046 59.6509C40.4364 60.3309 47.489 59.1238 53.553 59.6804L62.1571 31.0744H52.3686L46.0256 51.541C45.4481 51.9254 42.2227 51.8909 41.3419 51.7678C40.6615 51.6741 40.5 52.0436 40.6273 51.0434L46.4905 31.0744H37.1915H37.1964ZM9.05437 31.0744L0 59.6509H8.80966L11.7462 49.7969H20.0664L17.1298 59.6509H25.9397L34.2598 31.0744H26.1842L21.7795 42.8991H14.1934L17.6193 31.0744H9.05437ZM146.828 31.0744C144.973 39.4453 141.229 47.4813 139.995 55.9163C140.896 62.336 154.801 58.2762 159.058 60.1485L162 51.2751H150.254L156.127 31.0744H146.828ZM121.867 17.2789C132.796 7.88316 145.335 2.52262 160.038 3.47845L149.035 0C139.31 0.551822 131.778 4.45399 123.962 9.78005C115.695 15.4165 108.32 24.1668 97.4007 23.1963C97.4692 23.8959 99.5786 24.0535 100.151 24.1175C105.3 24.7038 111.012 24.2753 116.185 23.6248C121.818 22.9203 129.076 19.3482 133.374 24.6595C134.489 24.6693 133.638 20.2991 133.902 19.2448C133.613 18.7668 129.649 17.3725 128.969 17.2789C126.791 16.9833 124.114 17.4908 121.872 17.2789H121.867ZM134.103 31.0744C132.732 38.3318 128.836 46.1017 127.476 53.2212C126.492 58.3798 130.432 59.7051 134.856 59.6903L144.386 31.0794H134.108L134.103 31.0744ZM64.6042 31.0744C64.1736 33.5133 63.5471 36.0063 62.7885 38.3613C61.741 41.6033 57.2678 52.9256 57.4146 55.3939C57.6202 58.7394 62.069 59.9711 64.8685 59.6804L74.3878 31.0744H64.5993H64.6042ZM81.8419 5.09941C76.042 3.33063 73.6732 4.61165 68.0351 5.95178L80.1093 9.30705C89.7119 13.224 99.8478 26.5268 110.121 16.7912C99.4171 18.6338 91.5276 8.06054 81.8419 5.09941Z" fill="black"/>
</svg>
