<svg width="279" height="44" viewBox="0 0 279 44" fill="none" xmlns="http://www.w3.org/2000/svg">
<g clip-path="url(#clip0_307_10655)">
<path d="M10.1238 20.8119L11.7943 18.7227C15.6707 14.8331 25.7533 14.1516 27.1912 20.8119C29.5858 18.1478 32.1149 16.1731 35.8542 15.8739C49.8029 14.7604 43.4569 31.2214 45.1455 39.2996C45.5877 41.4096 47.3254 41.4825 49.1693 41.3654V43.1892H34.9465V41.3679C37.398 41.5917 38.6005 40.8996 38.8332 38.3865C39.159 34.9001 39.234 25.9295 38.7556 22.5733C37.91 16.6363 30.1831 17.8174 28.3574 23.1638C27.4652 25.7759 27.3153 36.227 27.817 39.0421C28.2126 41.2587 29.5728 41.42 31.5848 41.3654V43.1866L17.7395 42.942C17.1654 40.8971 18.36 41.6022 19.5005 41.3081C20.6409 41.0142 21.153 40.4027 21.3831 39.2996C21.8796 36.9138 21.802 25.1802 21.4323 22.5733C20.584 16.631 12.8468 17.8537 11.034 23.1638C10.1651 25.7032 9.97638 36.3337 10.4936 39.0421C10.8789 41.0583 12.3684 41.5162 14.2587 41.3679V43.1892L0.281582 43.08C-0.0571789 42.8406 -0.0752807 41.9222 0.147113 41.6099C0.524664 41.0791 3.59938 41.9326 4.1114 39.0967C3.88384 33.8309 4.62343 27.9536 4.18121 22.758C3.93555 19.8648 2.88565 19.2482 0.0333299 19.2562V17.6926C3.2813 17.7445 6.39999 16.5842 9.34022 15.3535L10.1212 20.8145L10.1238 20.8119Z" fill="black"/>
<path d="M231.735 15.6081L232.255 21.0716L236.312 17.4813C239.736 15.3245 246.059 15.0253 248.938 18.2045C252.687 22.3464 249.925 33.7914 250.985 39.2992C251.541 42.1844 254.417 40.9253 254.896 41.6068C255.117 41.9217 255.1 42.8375 254.761 43.0769L240.528 43.1861V41.365C242.195 41.5159 243.734 41.404 244.35 39.6192C244.016 34.2909 244.985 27.9714 244.403 22.7628C243.822 17.5541 237.606 17.6347 234.705 21.0691C231.216 25.1979 233.315 34.1738 232.826 39.3537C233.305 41.2063 234.937 41.5366 236.646 41.365V43.1861H222.423V41.365C225.721 41.6642 226.354 40.3373 226.568 37.3426C226.835 33.6197 226.791 28.0598 226.568 24.3107C226.383 21.1289 226.202 19.1438 222.42 19.2478L222.416 17.6868C225.674 17.7883 228.665 16.2872 231.725 15.6055L231.735 15.6081Z" fill="black"/>
<path d="M166.31 0L160.366 21.3313C162.784 17.8685 167.048 14.0752 171.497 16.5051C177.685 19.8848 174.361 31.1866 171.33 35.8801C168.021 41.008 160.586 46.2582 154.496 42.7174C150.798 40.5683 151.561 36.4421 152.258 32.8231C154.054 23.5401 157.723 14.031 159.784 4.7455C159.815 2.31031 157.485 2.55487 155.706 2.60171L155.743 1.46476L156.145 1.09011L166.31 0ZM166.249 18.2691C161.82 18.9248 157.957 29.3863 157.08 33.2471C156.304 36.6658 154.93 43.693 160.837 41.9707C163.844 41.0939 166.836 34.6807 167.868 31.8735C168.952 28.9284 172.445 17.3508 166.249 18.2666V18.2691Z" fill="black"/>
<path d="M217.059 40.2663C217.801 41.0338 219.681 40.4717 220.231 39.556L221.147 40.7162C218.658 44.8556 211.931 44.9702 210.144 40.0659C206.901 42.743 202.97 44.4263 198.678 43.5391C193.989 42.5713 192.991 36.9361 195.802 33.4367C199.107 29.3235 205.502 29.0451 209.329 26.4928C211.533 25.0254 210.806 19.333 208.393 18.1544C206.456 17.2073 201.746 17.392 200.855 19.7856C200.257 21.3857 200.903 23.9145 198.517 24.1981C194.253 24.7029 194.196 20.1967 196.776 18.2273C201.3 14.7721 215.661 14.3663 216.487 21.7213C217.038 26.6384 216.106 32.5573 216.477 37.6021C216.516 38.1251 216.787 39.9775 217.063 40.2636L217.059 40.2663ZM210.275 28.0981C206.141 29.4587 199.063 32.716 201.103 38.2368C202.365 41.6555 206.941 40.8594 208.982 38.6324C209.192 38.4059 210.278 36.6759 210.278 36.5535V28.0981H210.275Z" fill="black"/>
<path d="M124.512 39.9749C120.615 36.2415 119.544 30.1405 121.313 25.101C126.7 9.74574 152.211 14.5693 149.18 32.3233C147.253 43.6252 132.379 47.512 124.512 39.9723V39.9749ZM133.144 17.7511C124.851 19.2575 124.44 46.1358 137.344 41.7493C140.571 40.6514 141.784 37.0324 142.234 33.9208C143.159 27.5075 142.366 16.0758 133.144 17.7511Z" fill="black"/>
<path d="M75.287 27.3174H56.9267C55.8302 33.5641 58.9799 41.4577 66.324 41.0882C69.303 40.9373 71.3202 39.0719 73.3914 37.2299L74.7672 38.2524C70.1228 45.7505 58.2533 45.61 52.784 39.1629C47.5887 33.0412 49.117 22.8919 55.6517 18.3624C63.5389 12.8936 76.1868 16.3096 75.287 27.3201V27.3174ZM69.0806 25.2361C70.3013 14.5587 57.3352 15.5916 57.1852 25.2361H69.0806Z" fill="black"/>
<path d="M187.518 0V38.8954C187.518 39.3455 188.368 40.6802 188.831 40.9561C190.137 41.7391 193.098 40.7063 191.505 43.1571L177.176 43.1857L177.172 41.5153C179.812 41.2449 181.092 41.3879 181.324 38.3855C182.131 27.9397 180.719 16.4324 181.291 5.87724C181.059 3.79069 178.995 3.23132 177.173 3.38222V1.81859L187.521 0H187.518Z" fill="black"/>
<path d="M278.25 38.0206L279 39.1498C272.915 47.137 258.615 44.9074 255.777 34.9975C253.582 27.3225 257.148 19.0153 264.894 16.5747C268.292 15.5029 274.447 15.3103 277.251 17.8158C279.532 19.8529 278.752 22.8579 275.584 22.3584C273.047 21.9577 273.347 17.1602 269.398 17.4464C261.332 18.0266 260.764 32.4036 263.952 37.7006C266.414 41.7931 271.759 42.3238 275.574 39.8106C276.23 39.3788 277.686 37.6902 278.247 38.0206H278.25Z" fill="black"/>
<path d="M105.538 15.6074L106.319 21.3311C106.914 21.482 106.743 21.2192 106.911 21.0033C109.363 17.8293 112.151 14.9778 116.72 16.4634C120.441 17.6731 120.589 23.0899 116.291 22.3588C114.757 22.096 114.359 19.9314 113.64 19.4969C111.225 18.0374 108.256 20.6677 107.491 22.9025C106.544 25.6682 106.5 35.2555 106.865 38.3462C107.041 39.8266 107.542 40.9791 109.094 41.3069C110.33 41.5671 111.926 40.8856 110.984 43.0787L96.4924 43.1879V41.3668C98.8379 41.5567 100.203 41.039 100.56 38.5674C100.951 35.8746 100.953 23.9354 100.307 21.5262C99.743 19.4215 97.8863 19.1248 95.9727 19.2524L95.9883 17.7017L105.538 15.6074Z" fill="black"/>
<path d="M86.407 9.36651V16.6513H92.872V18.7327H86.407L86.5287 39.0337C87.7984 42.3587 91.9927 41.3311 93.1359 38.5082C93.4332 38.2974 94.6796 39.4501 94.5813 39.822C92.4065 44.5026 82.3394 45.4625 80.5938 40.3216C80.4077 39.7752 79.9422 37.7954 79.9422 37.3348V18.7327H77.0977L77.1416 17.2132C80.056 16.1804 82.0368 13.9585 83.6712 11.4271C84.6254 9.94929 84.2452 8.96325 86.4097 9.36911L86.407 9.36651Z" fill="black"/>
</g>
<defs>
<clipPath id="clip0_307_10655">
<rect width="279" height="44" fill="white"/>
</clipPath>
</defs>
</svg>
