<svg width="267" height="47" viewBox="0 0 267 47" fill="none" xmlns="http://www.w3.org/2000/svg">
<path d="M55.1527 0.189882C57.3424 -0.120875 59.7714 -0.165269 61.7172 0.96072C64.5272 2.48222 66.1319 5.23868 67.24 7.94266C70.3558 15.7398 70.6528 24.2675 69.3455 32.4157C69.0527 34.5022 68.1752 36.8591 65.9279 37.8075C64.5982 38.2152 62.8963 38.1062 61.9741 37.0328C60.485 35.3942 60.9547 33.1342 61.0788 31.1848C61.5621 28.1055 61.748 24.9818 61.5932 21.8783C61.5799 20.4617 61.0568 18.9281 59.7226 18.0927C58.5966 17.3178 56.9699 17.4672 55.853 18.1774C53.9604 19.2954 52.7194 21.0953 51.7043 22.8872C49.2134 27.5565 47.8348 32.6217 45.9775 37.5089C45.0468 39.781 43.5442 41.9443 41.3147 43.3285C38.642 45.0437 35.2467 45.4957 32.0464 45.3909C27.9599 45.2132 24.2808 42.8764 22.1356 39.7852C19.4628 35.8502 17.0826 31.7538 14.4719 27.7868C13.643 26.6324 12.526 25.1554 10.7974 25.3248C8.98009 25.4782 8.29309 27.3308 8.35069 28.7593C8.47924 33.6546 11.0811 38.1144 12.0074 42.8806C12.331 44.3495 11.87 46.1939 10.2433 46.8598C9.25049 46.985 8.20887 47.098 7.22485 46.864C5.77988 46.3634 5.03082 45.0033 4.38367 43.8209C2.12757 38.8973 0.722485 33.6708 0 28.388C0.101946 25.68 -0.177297 22.9357 0.452108 20.2639C1.312 15.9053 2.62843 11.2924 6.17882 8.0718C9.23718 5.25077 14.5029 4.41132 18.2129 6.63505C21.812 8.90722 24.0371 12.4345 26.3995 15.6954C28.1326 18.2057 29.7505 21.1599 32.933 22.3666C35.1269 23.3392 37.9417 22.7419 39.5551 21.1074C40.7119 20.0218 41.2836 18.573 41.8954 17.1967C43.194 14.2345 44.4884 11.2762 45.9111 8.36238C47.529 4.62926 50.7157 1.15847 55.1527 0.189882ZM214.304 9.58927C215.961 9.47222 217.628 9.54084 219.285 9.59331C219.41 11.1107 219.184 12.6403 219.436 14.1497C221.134 14.0973 222.84 14.0528 224.538 14.1739C224.582 15.5178 224.742 16.8779 224.427 18.2057C222.734 18.1774 221.045 18.1855 219.356 18.2138C219.277 21.4585 219.339 24.7114 219.317 27.9563C219.334 29.3325 219.312 30.9144 220.465 31.9558C221.608 32.9526 223.328 32.7991 224.791 32.9203C224.999 34.3126 225.017 35.7332 224.733 37.1173C221.954 37.1456 218.895 37.0973 216.626 35.4264C214.587 33.9493 214.007 31.4594 213.94 29.2034C213.9 23.1496 213.967 17.0918 213.913 11.0381C214.029 10.5942 213.643 9.74667 214.304 9.58927ZM88.7549 15.869C91.2682 13.8148 94.8495 13.5605 98.0721 13.6695C100.696 13.6614 103.329 14.3192 105.399 15.8125C107.717 13.621 111.312 13.6129 114.414 13.6695C117.247 13.6695 120.274 14.4363 122.184 16.4461C123.594 17.9514 123.855 20.0097 123.9 21.9146C123.917 25.9383 123.9 29.962 123.909 33.9897C123.9 35.0351 124.033 36.1084 123.669 37.1173C122.02 37.0529 120.372 37.186 118.732 37.0408L118.559 36.8147C118.381 31.5724 118.718 26.3136 118.372 21.0751C118.403 19.3922 116.692 18.1573 114.955 18.0443C112.974 17.9313 110.669 17.7133 109.051 18.9927C107.845 19.8967 107.987 21.4424 107.912 22.7218C107.859 26.8866 107.881 31.0557 107.894 35.2207C107.783 35.8058 108.103 36.6413 107.549 37.069C105.868 37.1216 104.167 37.1781 102.491 37.0004C102.491 31.6854 102.628 26.3701 102.349 21.059C102.34 19.2671 100.377 18.0645 98.5551 18.016C96.884 17.9393 95.0668 17.8183 93.5596 18.6012C92.5846 19.0936 91.9951 20.0702 91.9685 21.0751C91.5873 26.4106 91.9462 31.762 91.7246 37.1012C90.027 37.1012 88.3293 37.0891 86.6362 37.1134C86.4659 36.3693 86.3947 35.6091 86.4234 34.8495C86.4811 30.3979 86.3793 25.9464 86.4723 21.4989C86.4989 19.4689 87.0042 17.2653 88.7549 15.869ZM135.061 14.1295C138.961 13.4273 143.287 13.282 146.953 14.9004C150.401 16.5107 151.27 20.3447 151.412 23.5653C151.465 27.1005 151.7 30.9669 149.572 34.0945C147.595 36.9156 143.566 37.5654 140.162 37.4928C136.9 37.5736 133.19 37.1498 130.903 34.8009C128.43 31.992 128.452 28.1498 128.447 24.7316C128.545 21.9348 128.82 18.8757 130.748 16.5712C131.812 15.3241 133.412 14.5452 135.061 14.1295ZM137.281 18.1371C135.739 18.4357 134.608 19.6667 134.307 21.0388C133.756 24.016 133.75 27.0556 134.289 30.0346C134.595 31.2051 135.326 32.4279 136.656 32.8234C138.642 33.4207 140.831 33.3885 142.853 32.9444C144.324 32.67 145.26 31.4269 145.597 30.1719C146.199 27.1209 146.173 23.985 145.592 20.9339C145.198 19.5254 143.974 18.2864 142.339 18.0806C140.663 17.899 138.943 17.8707 137.281 18.1371ZM194.836 14.8076C198.466 13.1569 202.73 13.6009 206.604 14.1295C207.105 14.3071 208.107 14.1457 208.205 14.8035C208.266 15.9134 208.253 17.0313 208.227 18.1452C208.071 18.2017 207.761 18.3187 207.606 18.3752C204.801 17.9313 201.915 17.4752 199.069 17.8869C197.952 18.0604 196.53 18.6698 196.547 19.8725C196.294 20.8976 197.274 21.6119 198.161 22.0074C201.281 23.311 204.818 23.9164 207.575 25.8697C209.884 27.4718 210.115 30.4785 209.379 32.8435C208.213 35.8462 204.61 37.2707 201.339 37.4323C198.227 37.5615 194.96 37.4846 192.053 36.387C191.499 35.1439 191.849 33.6829 191.898 32.3592C195.426 33.1342 199.216 33.9815 202.784 32.9283C204.61 32.4884 205.279 30.071 203.697 29.0296C200.532 27.2621 196.592 26.9189 193.577 24.889C190.098 22.3343 190.865 16.6277 194.836 14.8076ZM230.877 15.0537C230.717 14.4686 231.422 14.1295 231.949 14.1053C235.597 13.6574 239.347 13.3829 242.977 14.1093C245.3 14.6461 247.573 15.9416 248.575 17.9999C249.843 20.49 249.36 23.2948 249.453 25.9464C249.391 28.5615 249.776 31.3464 248.5 33.788C247.267 36.1287 244.28 37.1012 241.634 37.412C238.332 37.5976 234.79 37.6341 231.816 36.1245C226.923 33.6306 227.113 26.0432 232.113 23.7388C235.801 21.9671 240.122 22.5442 244.085 22.9558C244.191 21.2608 243.894 19.146 241.957 18.3833C238.398 17.1281 234.56 18.1774 230.89 18.1492C230.881 17.116 230.836 16.0829 230.877 15.0537ZM234.462 32.0928C235.943 33.5538 238.332 33.445 240.331 33.3803C241.683 33.3359 243.243 32.8192 243.788 31.5925C244.249 30.1233 244.019 28.5697 244.094 27.0601C241.572 26.4629 238.868 26.3177 236.306 26.7736C233.753 27.1974 232.756 30.4019 234.462 32.0928ZM256.097 16.0223C258.903 13.4475 263.237 13.5121 266.934 13.7502C267.04 15.1143 267.008 16.4824 266.908 17.8465C264.864 18.1653 262.489 17.4752 260.72 18.7102C259.63 19.4326 259.514 20.7684 259.479 21.8904C259.377 26.927 259.479 31.9677 259.426 37.0046C257.693 37.2103 255.946 37.0408 254.209 37.1295C253.783 33.0291 254.142 28.8804 254.022 24.7598C254.107 21.8016 253.593 18.3308 256.097 16.0223ZM154.359 14.1578C156.23 14.1295 158.131 13.9399 159.98 14.2829C160.427 20.5263 162.369 26.6648 165.401 32.2663C165.919 31.6571 166.243 30.9387 166.557 30.2284C168.933 25.1755 170.578 19.7837 170.906 14.2748C172.745 13.952 174.633 14.1174 176.495 14.1699C176.247 22.1123 172.585 29.5503 168.658 36.5082C168.384 37.2586 167.413 37.069 166.757 37.1094C165.383 37.069 164 37.1942 162.639 37.0247L162.196 36.5243C158.091 29.6229 154.594 22.1204 154.359 14.1578ZM180.932 14.178C182.705 14.0569 184.491 14.073 186.268 14.1618C186.344 21.7451 186.393 29.3444 186.251 36.9238C184.611 37.3555 182.762 36.9642 181.047 37.1134C180.954 29.4738 180.816 21.8218 180.932 14.178Z" fill="black"/>
</svg>
