<svg width="231" height="89" viewBox="0 0 231 89" fill="none" xmlns="http://www.w3.org/2000/svg">
<path d="M59.3634 3.23567C59.7173 3.63613 60.5826 3.83786 61.0555 4.36293C63.2684 6.81917 62.7806 11.8414 64.2973 14.0751C64.9248 15.0007 67.0691 14.0395 66.4328 16.6115C67.0988 16.6767 68.113 17.2849 68.6305 16.6441L70.5043 12.0045C69.5317 10.1386 68.3153 8.20153 68.4789 5.99447C69.0142 5.44271 71.8663 8.68803 72.711 9.02324C73.5557 9.35845 76.2145 9.79157 76.8153 9.11521C77.3239 8.53971 77.3953 5.50798 78.8852 6.42165C79.9886 7.10098 79.2123 9.93098 79.3105 11.0078L81.9931 13.0903C82.0198 15.8758 83.1679 17.6082 85.1039 19.4563C85.9337 20.2483 86.9301 19.9131 86.8974 21.5121C86.8498 23.7518 86.6089 24.8791 85.5857 26.7212C85.1218 27.5608 85.446 28.3823 84.0096 28.6998C82.0496 29.1329 81.3238 28.6315 80.5091 26.9971C79.9737 27.5074 79.4681 27.896 79.1528 28.5989C78.5729 29.8864 76.9462 35.14 76.7023 36.5136C76.5357 37.442 76.9253 38.6939 76.7707 39.8331C76.6339 40.8386 75.8427 41.8235 75.7564 42.6305C75.6464 43.6449 76.5654 46.4363 76.5119 48.151C76.4584 49.9694 75.8635 52.0399 75.3252 53.7725C76.7499 56.2583 78.7811 58.1805 81.0355 59.8893C82.2905 60.8414 85.3746 62.4879 86.3234 63.5708C86.6803 63.977 90.9154 70.1384 91.1087 70.5626C91.5757 71.5861 91.5608 72.5797 91.977 73.5439C92.4588 74.6623 93.5325 75.315 94.172 76.6824C94.4575 77.2965 95.534 80.3906 95.1892 80.794C93.1548 81.334 90.264 81.3931 88.8215 79.643C87.1294 77.5932 88.9375 76.7329 88.4676 75.5848C88.0901 74.6683 86.1836 72.7785 85.4697 71.7433C84.6669 70.5804 82.8556 67.1482 82.1328 66.4868C81.309 65.7333 73.3326 63.0279 72.0507 62.8944C71.0187 62.7876 70.0344 63.3186 68.9904 63.0101C67.7234 62.6363 67.0276 59.7914 65.6981 59.8211C62.9293 59.8864 66.3763 61.9717 66.8283 62.5028C67.7442 63.5767 67.7502 65.3624 67.5212 66.6972C67.2713 68.1509 63.3844 73.8168 62.2452 75.048C60.0889 77.3737 59.5686 75.3862 58.1737 74.9649C56.9453 74.5941 55.3721 74.9649 54.23 73.7189C53.6947 74.4161 57.4569 79.198 58.0964 80.0702C58.5306 80.6635 58.7328 81.488 59.1373 81.9894C60.1305 83.2206 65.8528 86.101 64.5739 88.1656C64.2289 88.7234 59.7768 89.1268 58.9767 88.9666C56.9096 88.5543 57.8971 86.9525 57.3558 86.1277C57.1595 85.8281 56.1871 85.7243 55.7231 85.389C53.8166 84.0156 53.2128 81.5741 51.8538 79.7676C50.1406 80.8297 47.5056 80.7851 45.9204 79.4769C44.597 78.3883 45.8282 76.279 45.1681 75.1993C45.0372 74.9827 41.6587 72.218 41.2542 71.9985C40.0883 71.3666 39.2971 71.5653 38.4913 71.2004C37.9411 70.9542 37.8161 70.2007 37.3759 69.8654C36.5461 69.2308 34.851 68.9222 34.0242 67.9581C32.4478 66.1219 33.5007 64.2262 33.4472 62.3485C33.2836 56.7597 28.1235 53.3898 24.9739 49.471C18.3477 57.3471 11.659 65.1696 4.46768 72.5473C4.06323 73.4519 5.60676 75.4337 3.58737 75.5227C1.34491 75.6204 -1.73922 70.3698 1.21405 70.4321C1.85942 70.4469 2.26391 71.0343 2.65054 71.0076C3.60521 70.9394 12.4085 61.5594 13.6933 60.1178C14.9781 58.676 23.722 48.3468 23.8082 47.5458C23.8945 46.7448 23.2193 44.7811 23.3799 43.1435C23.6268 40.625 24.971 38.7117 25.5926 36.4542C24.2246 35.3862 22.2378 34.3123 20.4892 34.1224C18.7403 33.9328 15.8465 34.3212 13.9729 34.3954C9.90431 34.5526 11.3616 29.3435 14.5171 30.3018C15.0435 30.462 15.335 31.2301 16.0547 31.2924C17.1551 31.3903 20.5873 31.4319 21.7292 31.3874C22.3806 31.3636 22.7613 30.7883 23.7577 30.8447C25.1791 30.9277 24.6557 31.8324 25.0245 32.0252C25.5807 32.3189 26.9786 32.4465 27.6597 32.8974L33.2925 29.0558C33.7148 27.3828 33.239 25.5879 33.468 23.906C33.5899 23.0042 34.28 21.9987 34.3156 21.1977C34.3543 20.2454 33.9349 19.2902 34.0718 17.9968C34.2651 16.1843 35.3594 13.737 36.1149 12.049C34.1402 11.3312 33.7178 10.2721 34.0569 8.22527C34.1788 7.48364 34.735 6.98528 34.8629 6.36825C35.2137 4.66847 34.5447 4.02771 35.8204 2.2953C37.6763 -0.226206 40.927 -0.816533 43.3925 1.26C43.9665 1.74353 44.2193 2.68984 44.8826 2.75509C47.2261 2.21223 49.4387 0.14757 51.9728 0.384888C52.8472 0.467948 53.5995 1.12057 54.4025 1.2422C55.854 1.46171 57.6115 0.868421 58.8578 2.1351C59.2206 2.50591 59.1849 3.01614 59.3783 3.23567H59.3634ZM60.4547 16.0449C60.303 15.1045 61.0139 14.0662 61.005 13.2327C60.996 12.4851 58.5217 8.17483 58.0845 7.91082C57.5491 7.58451 56.6211 7.82479 56.0027 7.76842C55.7409 7.99389 58.0696 10.9455 58.2391 11.6011C58.6615 13.2356 58.0874 15.4071 60.4547 16.0449ZM45.2365 20.2602C43.6929 18.9669 42.6519 18.1778 40.5493 17.9523C38.6695 21.076 37.6972 24.3154 36.9952 27.8782C39.2168 27.7328 41.3107 27.276 43.5263 27.8782C43.4549 26.6767 43.4609 25.066 44.4334 24.1968C44.7844 23.8823 45.7391 23.7429 45.8103 23.3127C45.8995 22.7757 45.1532 21.0375 45.2365 20.2602ZM65.2133 23.1436C65.8498 23.6331 66.5636 21.5418 66.6291 21.2095L65.6535 20.4857C65.1687 21.3282 64.8088 22.2002 65.2133 23.1436ZM53.6263 27.2819C53.9118 27.5519 56.8501 25.3862 54.9587 24.6269C54.2657 24.3481 54.0159 26.8814 53.6263 27.2819ZM45.6053 69.2812C45.3168 65.9469 45.0164 62.8558 43.2794 59.916C41.9918 57.7385 39.6302 55.1458 37.2897 54.1997C37.4146 58.2428 38.1046 61.951 40.005 65.5434C41.385 67.3499 43.6007 68.3081 45.6053 69.2812ZM58.9143 69.3494C59.0838 69.4503 59.1938 70.1532 59.4169 70.1651C61.3649 68.5247 61.2429 68.0649 59.985 66.0566C57.4926 62.0726 55.5684 62.8588 53.0492 60.542C52.1245 59.6906 52.3594 58.4831 51.25 58.3437C51.0745 59.7084 51.5653 60.9868 51.5653 62.3337C51.5653 63.4788 51.1816 64.4606 51.2441 65.576C51.3393 67.2935 52.4605 69.2575 52.4397 71.058C53.4478 70.9334 53.6738 69.9366 54.7327 69.6459C55.3275 69.4829 58.5217 69.118 58.9143 69.3494ZM200.212 32.313C201.842 32.5147 204.364 33.7251 204.755 35.4812C205.528 38.9579 203.918 40.9365 200.823 42.0876C200.055 42.3724 198.658 42.0698 198.874 42.9566C201.866 43.1761 203.924 45.1638 204.679 47.973C205.367 50.5182 204.059 54.0246 207.789 53.3097V54.1967H203.478C203.309 54.1967 201.866 53.4165 201.646 53.2088C199.99 51.6248 200.557 49.2811 200.282 47.3233C199.706 43.2444 197.263 42.7699 193.527 42.9596V53.3097H195.906V54.1967H186.699V53.3097H189.078V33.3661L186.699 33.1941V32.307C190.949 32.6897 196.076 31.7938 200.216 32.307L200.212 32.313ZM193.53 42.0727C195.306 42.0164 197.304 42.3961 198.862 41.3222C201.235 39.6847 200.527 33.203 197.837 33.203H193.53V42.0757V42.0727ZM210.164 54.1997V53.3126L212.845 53.1406V33.2H210.164V32.313H222.194C227.938 32.313 231.372 39.5572 230.954 44.5823C230.621 48.5753 226.867 54.1997 222.491 54.1997H210.164ZM216.995 53.3126H221.599C223.34 53.3126 225.118 50.5153 225.594 49.0082C226.552 45.9676 226.733 37.6615 224.797 35.0451C223.211 32.9033 219.368 33.2089 216.995 33.2V53.3097V53.3126ZM172.667 31.7997C179.377 30.8328 184.983 37.261 184.581 43.6627C183.662 58.3081 165.297 58.4238 163.864 44.5527C163.293 39.0321 166.841 32.6423 172.667 31.8027V31.7997ZM173.262 32.6868C171.296 32.9478 169.943 33.9684 169.318 35.8579C168.581 38.0857 168.622 46.1485 168.881 48.7236C169.497 54.8403 177.173 55.8964 179.058 50.5835C179.858 48.329 179.826 40.6784 179.567 38.0828C179.204 34.4339 177.116 32.1735 173.262 32.6868ZM105.239 31.7997C120.05 29.6699 121.168 56.2435 105.462 54.7869C93.6664 53.6924 93.2054 33.5323 105.239 31.7997ZM105.527 32.6808C103.46 33.0279 102.262 34.2886 101.655 36.2169C100.813 38.8956 100.84 47.5933 101.649 50.2987C103.112 55.1785 110.28 55.1903 111.639 50.2987C112.43 47.4568 112.478 39.0113 111.639 36.211C110.8 33.4106 108.358 32.2062 105.524 32.6779L105.527 32.6808ZM118.675 32.313V33.2L120.603 33.4996L127.193 44.2886L121.197 53.013L118.375 53.3126V54.1997H125.209V53.3126C124.989 53.0812 122.182 53.7725 122.539 52.8736C122.741 52.3633 126.801 46.6766 127.333 46.11C127.538 45.8934 127.598 45.5168 128.026 45.6207L132.93 53.1643L130.554 53.3126V54.1997H139.765V53.3126L137.835 53.013L130.605 41.5803L136.029 33.4729L138.872 33.197V32.31H132.038V33.197C132.246 33.4166 135.086 32.7491 134.709 33.6391L129.81 40.2927L125.507 33.3454L127.883 33.197V32.31H118.672L118.675 32.313ZM143.033 32.313V33.2H145.707V53.1406L143.03 53.3126V54.1997H152.538V53.3126H149.865V43.5529C152.723 43.1702 155.45 43.6004 155.218 47.0979H156.399V39.1152H155.218C155.322 40.0583 154.897 41.7197 153.954 42.1499C153.434 42.3872 149.865 42.8233 149.865 42.2181V33.197H155.953C158.201 33.197 159.959 37.1601 159.968 39.1122H160.854V32.31H143.03L143.033 32.313ZM207.64 64.8462C210.366 65.226 211.75 68.0738 209.276 69.726C211.352 70.6635 212.073 73.3422 210.471 75.0599C210.138 75.4159 208.605 76.0861 208.235 76.0861H203.333V64.8492C204.689 64.9827 206.331 64.6653 207.64 64.8492V64.8462ZM204.816 69.2842C210.027 70.2719 210.406 65.4692 205.096 66.4542L204.816 69.2842ZM204.816 70.7584L205.096 74.4754C207.949 75.2646 211.235 73.9207 208.681 70.9067L204.816 70.7584ZM153.942 64.9145C163.162 63.0249 163.881 77.3974 154.198 76.0594C148.467 75.2675 148.241 66.0833 153.942 64.9145ZM154.54 66.3948C150.311 67.163 150.439 74.0334 154.796 74.5793C161.101 75.3714 160.896 65.2408 154.54 66.3948ZM130.477 64.9145C139.446 63.0753 140.529 77.0473 131.003 76.0861C124.975 75.4782 124.71 66.0982 130.477 64.9145ZM131.074 66.3948C126.845 67.163 126.973 74.0334 131.33 74.5793C137.635 75.3714 137.43 65.2408 131.074 66.3948ZM116.005 64.8462C119.654 64.7365 123.642 64.8166 123.446 69.4414C123.297 72.9713 120.549 73.4875 117.489 73.4223V76.0861H116.005V64.8492V64.8462ZM117.489 66.7684V71.5001C119.312 72.734 121.804 71.4526 121.792 69.1358C121.78 66.4542 117.849 65.6205 117.489 66.7684ZM175.195 74.5377C168.646 75.8903 168.239 65.8786 174.365 66.3207C175.828 66.4245 176.173 67.1333 177.3 67.783L178.371 66.7684C174.365 62.5324 167.495 65.4099 168.307 71.4763C168.979 76.4985 176.099 77.9077 178.675 73.7278C176.953 72.4642 176.798 74.2055 175.192 74.5377H175.195ZM191.154 64.8462V73.5706C191.154 73.6566 191.885 74.8967 192.037 75.0569C193.337 76.4392 196.84 76.5044 198.271 75.3328C198.568 75.0895 199.473 73.7842 199.473 73.5706V64.8462H197.988V72.3871C197.988 72.556 197.304 73.9681 197.09 74.155C196.329 74.8196 194.295 74.8136 193.539 74.155C193.325 73.9681 192.641 72.556 192.641 72.3871V64.8462H191.157H191.154ZM140.954 64.8462V76.0832H147.488V74.606H142.736V64.8462H140.954ZM181.946 64.8462V76.0832H188.48V74.606H183.43V64.8462H181.946Z" fill="black"/>
</svg>
