<svg width="267" height="65" viewBox="0 0 267 65" fill="none" xmlns="http://www.w3.org/2000/svg">
<path d="M3.12205 13.1908C5.15112 13.4291 6.49716 15.2441 7.87071 16.5643C16.742 29.9597 26.2229 43.1573 34.5617 56.9048C36.0472 59.3562 37.7973 62.0587 38.1498 64.9319C35.1034 65.1556 31.9614 64.8108 28.9461 64.149C20.0179 62.189 11.9693 56.7691 6.7358 49.3399C-0.712284 38.7716 -2.08391 25.0516 3.12205 13.1908ZM64.0328 4.49357C76.248 16.9209 77.3754 36.884 67.2995 51.0073C65.5735 53.4275 63.8309 55.8587 60.6154 56.2346C56.1495 56.7554 52.4218 54.579 49.4376 51.5024C45.4363 46.4934 42.1715 40.9123 38.7173 35.5144C46.1379 30.1497 55.1779 26.3708 60.3252 18.4519C63.0228 14.301 64.3542 9.46232 64.0328 4.49539V4.49357ZM179.645 37.3498V23.1749C179.645 23.0701 179.43 21.9996 179.379 21.7942C178.761 19.2733 177.05 19.0092 174.689 19.0605L174.965 17.7789H186.801V19.0605C183.499 18.8626 182.261 20.1846 182.024 23.351C181.496 30.3697 182.426 38.0447 182.04 45.1328C182.126 45.914 181.123 45.9432 180.642 45.593L162.579 24.1816V38.3564C162.579 38.9375 162.858 40.3933 163.038 41.0094C163.734 43.4075 165.34 43.3709 167.533 43.5706V44.6671H155.423V43.5706C157.974 43.4259 159.56 43.2426 160.113 40.4703C160.829 36.8748 160.611 28.34 160.387 24.4475C160.178 20.8501 159.582 18.8057 155.421 19.0605V17.7789H163.038L179.645 37.3498ZM98.1646 17.8725C103.582 18.3987 111.179 16.8017 116.216 18.8149C124.532 22.139 121.179 33.2371 112.756 33.2371H107.524V39.3647C107.524 39.6726 107.857 41.1008 107.989 41.4621C108.735 43.5101 110.598 43.5193 112.479 43.6642V44.7607H98.1664V43.6642C100.763 43.5101 102.263 43.3488 102.856 40.5639C103.587 37.1296 103.35 28.1419 103.13 24.3576C102.921 20.7786 102.214 18.9085 98.1646 19.1541V17.8725ZM206.256 19.1474C203.269 18.9475 201.751 20.0971 201.487 23.0821C201.051 28.0104 201.048 34.7724 201.507 39.6989C201.806 42.8966 203.182 43.5237 206.254 43.6575V44.754H192.126L192.135 43.6648C195.326 43.4924 196.595 42.8396 196.892 39.5375C197.328 34.7228 197.37 27.7171 196.872 22.9188C196.57 19.9908 194.997 18.9641 192.121 19.1474V17.8658H206.256V19.1474ZM255.989 19.1474C254.055 19.1676 252.313 19.1749 251.55 21.2156C250.639 23.656 250.829 34.4478 251.025 37.5354C251.13 39.171 251.382 41.5324 253.133 42.2016C254.885 42.8709 261.365 42.7004 263.145 41.9192C265.099 41.0612 265.181 39.081 265.737 37.2787L267 37.2549L266.633 44.754H241.676V43.6557C245.509 43.7034 246.418 42.1852 246.638 38.6354C246.901 34.4387 246.923 28.1699 246.638 23.9878C246.4 20.4913 245.487 18.9458 241.676 19.1493V17.8677H255.989V19.1474ZM147.439 17.8663L147.714 18.3227L148.081 25.3651L146.812 25.3468C146.414 23.6636 146.199 21.656 144.451 20.8419C143.25 20.2827 141.087 20.1232 139.737 20.0536C138.246 19.9766 136.725 20.1251 135.233 20.0609V29.3897H138.628C138.837 29.3897 140.277 29.0358 140.552 28.9295C141.437 28.5921 142.01 27.8038 142.163 26.876C142.37 25.622 141.579 24.1239 143.491 24.4503V36.522H142.205C142.245 34.6995 142.4 32.9248 140.422 32.173C140.207 32.0904 139.118 31.7658 138.995 31.7658H135.233V38.8084C135.233 39.0634 135.708 40.6163 135.864 40.9224C136.871 42.897 140.556 42.6879 142.481 42.5559C146.249 42.2955 147.738 41.2891 148.351 37.4314L149.55 37.2517L149.183 44.7507H125.877V43.6543C128.813 43.5204 130.265 42.974 130.625 39.881C131.154 35.345 131.163 27.4334 130.645 22.8972C130.295 19.8317 128.906 19.0544 125.877 19.146V17.8644H147.44L147.439 17.8663ZM233.69 17.8663L233.965 18.3227L234.333 25.3651L233.055 25.3561C232.734 23.693 232.404 21.6322 230.705 20.8402C229.503 20.281 227.34 20.1215 225.991 20.0517C224.5 19.9747 222.979 20.1232 221.486 20.059V29.3879H224.882C225.019 29.3879 226.188 29.1459 226.409 29.0817C228.81 28.3813 228.38 26.4818 228.647 24.4521H229.746V36.5221L228.653 36.5128C228.293 34.6885 228.887 33.0695 226.808 32.2262C226.556 32.1234 225.421 31.766 225.251 31.766H221.488V38.625C221.488 38.9697 221.989 40.6841 222.184 41.0397C222.369 41.3771 222.744 41.7895 223.074 41.9803C224.683 42.9099 229.614 42.6368 231.434 42.1362C233.808 41.4834 234.144 39.3491 234.724 37.2755L235.803 37.2517L235.435 44.7507H212.129V43.6544C214.256 43.471 215.978 43.4819 216.664 41.1313C217.533 38.161 217.29 28.1869 217.091 24.7144C217.019 23.4676 216.787 20.9484 215.889 20.0573C214.992 19.1662 213.264 19.113 212.127 19.1443V17.8625H233.69V17.8663ZM30.6302 0.298755C44.3179 -2.48081 55.0127 14.774 45.8587 25.5368C43.1172 28.76 38.9706 30.777 35.5091 33.1292L18.336 6.7966C22.396 4.57807 25.9586 1.24667 30.6302 0.298755ZM107.524 31.0425H111.654C112.095 31.0425 113.641 30.4356 114.076 30.1642C117.26 28.1657 116.822 21.7173 113.081 20.4761C112.739 20.3625 111.56 20.069 111.287 20.069H107.524V31.0425ZM255.991 17.8677H255.989V17.8658L255.991 17.8677Z" fill="black"/>
</svg>
