<svg width="118" height="32" viewBox="0 0 118 32" fill="none" xmlns="http://www.w3.org/2000/svg">
<path d="M6.72288 1.68903C9.12085 1.68903 10.8765 2.32242 12.418 4.05366C13.4886 5.23598 14.1737 6.92501 14.1737 10.852C14.1737 14.0189 13.7455 15.539 13.0604 16.6791C11.947 18.5371 10.3198 20.015 6.38031 20.015H4.36774V31.7538H0V1.68903H6.72288ZM4.36774 15.9613H6.50877C8.90673 15.9613 10.0629 15.1168 10.0629 11.8654V9.8808C10.0629 7.98064 9.8488 5.74269 6.7657 5.74269H4.36774V15.9613ZM35.6697 24.8287C35.6697 28.9668 32.4155 32.007 28.3474 32.007C24.2794 32.007 21.0251 29.0513 21.0251 24.8287V8.61403C21.0251 4.4337 24.2794 1.43567 28.3474 1.43567C32.4155 1.43567 35.6697 4.39147 35.6697 8.61403V24.8287ZM25.3927 24.7442C25.3927 26.6021 26.6775 27.7001 28.3474 27.7001C30.0174 27.7001 31.302 26.6021 31.302 24.7442V8.69848C31.302 6.84055 30.0174 5.74269 28.3046 5.74269C26.7631 5.74269 25.3927 6.79832 25.3927 8.65625V24.7442ZM53.1407 10.3453V9.54298C53.1407 6.79832 51.8561 5.74269 50.0577 5.74269C48.1306 5.74269 47.1029 6.96724 47.1029 9.66968C47.1029 12.3721 47.6168 12.8788 50.1005 13.85C51.0853 14.23 52.4127 14.7367 53.1407 15.0323C56.9946 16.5947 57.5084 19.086 57.5084 23.1397C57.5084 29.2201 54.8106 32.007 49.972 32.007C46.9316 32.007 42.521 30.1069 42.521 24.6176V23.2663H46.8888V24.6597C46.8888 26.1378 47.7452 27.7001 49.972 27.7001C51.4707 27.7001 52.4984 27.32 52.9266 25.8421C53.1407 25.0819 53.1407 24.153 53.1407 23.2242C53.1407 20.5218 52.8837 19.6771 51.2138 18.9171C50.0577 18.4104 48.259 17.777 46.7175 17.0592C43.8915 15.7502 42.7351 13.5122 42.7351 9.66968C42.7351 4.72927 45.5186 1.43567 50.2289 1.43567C51.8133 1.43567 53.4404 1.90015 54.6822 2.87134C56.9518 4.64482 57.5084 6.62942 57.5084 8.40291V10.3453H53.1407ZM74.1229 10.3031V9.12074C74.1229 6.37608 72.453 5.74269 71.4251 5.74269C69.0701 5.74269 68.7275 7.51616 68.7275 9.12074V24.7442C68.7275 26.1378 69.327 27.7001 71.3823 27.7001C72.2387 27.7001 74.1229 27.3621 74.1229 24.5331V23.1819H78.4907V24.9132C78.4907 28.8823 75.3647 32.007 71.5536 32.007C67.0575 32.007 64.3597 29.3046 64.3597 25.0819V8.27623C64.3597 4.51815 67.186 1.43567 71.4679 1.43567C73.6519 1.43567 75.3647 2.32242 76.5208 3.50472C77.7198 4.77149 78.4907 6.24939 78.4907 8.99407V10.3031H74.1229ZM100.279 24.8287C100.279 28.9668 97.025 32.007 92.957 32.007C88.8889 32.007 85.6347 29.0513 85.6347 24.8287V8.61403C85.6347 4.4337 88.8889 1.43567 92.957 1.43567C97.025 1.43567 100.279 4.39147 100.279 8.61403V24.8287ZM90.0022 24.7442C90.0022 26.6021 91.287 27.7001 92.957 27.7001C94.6269 27.7001 95.9115 26.6021 95.9115 24.7442V8.69848C95.9115 6.84055 94.6269 5.74269 92.9142 5.74269C91.3727 5.74269 90.0022 6.79832 90.0022 8.65625V24.7442ZM113.861 0V0.774137H112.897V5.74972H112.062V0.774137H111.099V0H113.868H113.861ZM115.031 0L116.102 3.04728H116.116L117.179 0H117.993V5.74972H117.158V2.25204H117.144L116.316 4.72222H115.895L115.074 2.25204H115.06V5.74972H114.225V0H115.024H115.031Z" fill="black"/>
</svg>
