<svg width="95" height="95" viewBox="0 0 95 95" fill="none" xmlns="http://www.w3.org/2000/svg">
<path d="M42.6185 0.24309C69.6078 -2.49433 93.8427 18.2254 94.9377 45.3516V49.6747L94.7929 51.6558C92.8861 74.4075 74.3403 92.9434 51.6189 94.8551L49.6385 95H45.3173L41.3305 94.6293C19.6728 91.8408 2.41775 74.1362 0.236637 52.3768L0.0197144 49.7476C0.0658142 48.2628 -0.0422297 46.7629 0.0197144 45.2802C0.987815 21.9832 19.5014 2.58821 42.6185 0.24309ZM49.5666 85.4877L46.5787 81.0203H45.1739L45.2461 87.938H46.6866L46.6507 83.3257L49.5673 87.8659H51.008L50.9358 80.948H49.4953L49.5666 85.4877ZM37.0367 79.2924C36.763 79.2982 35.8031 78.7127 35.6321 78.9303L33.392 85.2677C33.3596 85.3478 33.4207 85.3708 33.4784 85.4076C33.7946 85.6073 34.386 85.6528 34.7309 85.849L37.0367 79.2924ZM59.1453 78.8949L59.0719 79.0348L61.7831 85.2772L65.1158 83.8608L64.647 82.7438L62.5762 83.5477L61.9538 82.1019L63.6099 81.4516L63.1769 80.2277L61.4828 80.9315L60.8783 79.6225L62.7872 78.7162L62.3846 77.5623L62.3854 77.5615L59.1453 78.8949ZM18.2703 75.469L18.274 75.5455L19.4683 76.5968L23.4971 74.031L21.3569 78.3196L22.5245 79.423L28.537 75.5085L27.3822 74.4917L23.2095 77.3453L25.5046 72.8288L24.5421 71.882L20.1844 74.6791V74.6786L22.6219 70.2342L21.5846 69.2059L18.2703 75.469ZM72 70.9272C70.5005 70.967 69.0965 72.8598 70.061 74.2423C70.6062 75.0234 71.2745 75.2108 72.198 75.0931C72.7735 75.0196 74.5398 74.1161 74.8034 74.9691C75.1089 75.9565 73.8088 76.4078 73.0452 76.0479L72.6145 77.2378C74.4427 78.4024 76.9688 76.2174 76.0345 74.2459C75.6094 73.3487 74.7588 73.0639 73.8195 73.1844C73.1446 73.2708 71.1175 74.4001 71.1643 73.0566C71.1903 72.3125 72.095 72.2014 72.6757 72.3652V72.3646C72.7505 72.0458 73.0151 71.662 73.0871 71.3643C73.1646 71.0405 72.2343 70.9209 72 70.9272ZM34.3781 67.14C34.3882 67.1966 35.1442 67.7086 35.2336 67.734C35.3179 67.7579 35.3584 67.7803 35.4145 67.6901L62.0699 27.9896L61.2083 27.2704V27.2698L34.3781 67.14ZM61.8118 52.7006C61.3257 51.0428 60.4281 49.4425 59.8829 47.8208C59.6927 47.2545 59.6149 46.7476 60.2811 46.522C60.4453 46.4663 60.748 46.581 60.7315 46.2875L60.7299 46.2882H53.8884V46.5039C54.7614 46.4383 55.3189 46.8773 55.6783 47.6318C57.4394 51.3274 58.4868 55.7928 60.171 59.5656C60.243 59.7272 60.3079 60.0005 60.5138 59.979C60.529 59.3148 60.6883 58.6695 60.933 58.0565L64.0067 51.7639L68.4005 59.979L68.5798 59.8709V58.7897C68.58 58.717 68.8047 57.9228 68.848 57.7606C69.7815 54.2019 71.1385 50.6821 72.2537 47.189C72.6506 46.7044 73.2045 46.4403 73.8384 46.5039V46.2882H69.6611V46.5039C70.3555 46.4152 70.6558 46.8104 70.5982 47.4765L69.0842 52.8448L65.2318 45.9947L61.8118 52.7006ZM23.7129 31.7322V32.0935C25.0708 31.9739 26.4956 32.7895 26.6694 34.2159L26.6585 56.333C26.3782 57.7342 25.116 58.559 23.7129 58.3946L23.7238 58.7084L35.406 58.8165C35.5722 58.7617 35.5218 58.5347 35.524 58.394C34.453 58.5216 33.2365 58.0311 32.7581 57.0179C32.6924 56.8794 32.4987 56.3119 32.4987 56.1965V33.3899H35.9195C36.6154 33.3901 37.9557 34.1046 38.4765 34.5784C40.4479 36.3689 40.4906 40.5884 39.1544 42.7518C38.3454 44.0607 36.4345 45.4959 34.839 45.4959H33.796C33.6613 45.984 34.2144 46.1996 34.5869 46.398C39.4224 48.9731 45.4435 46.1058 46.1737 40.6222C46.9056 35.1265 43.1897 32.0098 38.0121 31.7292L23.7129 31.7322ZM83.448 45.3545C83.1858 45.348 81.9102 45.1308 81.8308 45.3875V46.7209L86.4408 46.8292L81.8303 49.5665C81.7698 49.7627 81.6365 50.9299 81.7545 51.013C83.8088 51.168 85.8631 51.1197 87.919 51.1853C88.0495 51.1897 88.6724 51.3664 88.6724 51.1521V49.8188L84.0625 49.6385L88.6732 46.9733L88.8164 45.4951C87.0317 45.3659 85.2393 45.3977 83.448 45.3545ZM10.3044 47.4189C9.40543 45.7972 6.81667 46.0523 6.33548 47.8877C6.21303 48.355 6.29363 48.5786 6.2886 48.9874C6.28068 49.6248 6.28727 50.2639 6.28513 50.8999L13.2714 50.6835L13.1986 49.242L10.7113 49.369L10.6062 49.2782V48.1978C10.6062 48.0803 10.3808 47.5566 10.3044 47.4189ZM8.34647 47.8049C9.24542 47.7198 9.49537 48.6601 9.38229 49.3871L7.50958 49.459C7.46059 48.7553 7.44762 47.8899 8.34647 47.8049ZM66.9045 40.3627C66.6862 38.8578 64.7673 38.9102 64.5065 40.1594C64.2753 41.2656 65.0757 42.0206 66.1309 41.5331L66.1247 41.5957C66.0452 42.2321 65.4645 42.3736 64.9042 42.1397L64.6263 42.6508C66.3788 43.6481 67.1292 41.9167 66.9045 40.3627ZM69.2974 39.3358C68.1312 38.9047 67.0233 40.0469 68.0029 41.0261H68.0037C67.2387 41.4055 67.4511 42.5918 68.232 42.8522C69.5602 43.295 70.7135 42.0162 69.5899 40.9909C70.1784 40.4803 70.027 39.6057 69.2974 39.3358ZM63.8185 40.3511C63.6182 38.697 61.3416 38.9744 61.3761 40.5559C61.3963 41.4911 62.2045 41.9087 63.0349 41.5685C63.0084 42.27 62.3572 42.3617 61.8134 42.1092L61.6002 42.7504C63.4391 43.4786 64.0079 41.9145 63.8185 40.3511ZM60.5858 39.2984C60.1185 39.2076 59.795 39.4439 59.3615 39.5146L59.5061 40.1629L59.8656 40.09V42.7921C60.037 42.9897 60.3489 42.8738 60.5858 42.9004V39.2984ZM68.5584 41.4041C69.4342 41.1473 69.5624 42.2909 68.7615 42.2579C68.207 42.2346 68.1399 41.5273 68.5584 41.4041ZM65.3574 40.0383C65.8782 39.55 66.4289 40.5215 66.1114 40.8655C65.5624 41.4588 64.8366 40.5264 65.3574 40.0383ZM62.4376 39.9618C63.0736 39.7736 63.3792 40.819 62.8217 40.9951C62.0143 41.2503 61.9695 40.1003 62.4376 39.9618ZM68.4531 40.0361C68.9005 39.5919 69.6058 40.4595 68.961 40.6518C68.4454 40.8055 68.184 40.3044 68.4531 40.0361ZM8.42376 34.3248L7.94904 35.72L13.8463 40.0908L14.2113 38.7713C13.9765 38.5297 12.7911 37.8627 12.7657 37.6023C12.7592 37.5351 12.7859 37.4811 12.7967 37.4221C12.9026 36.8385 13.293 36.092 13.4248 35.4885L15.2903 35.374L15.7186 34.0384L8.42376 34.3248ZM78.5901 32.5254L79.0324 33.884L80.8987 33.8558C81.0169 34.1652 81.7791 35.9364 81.674 36.1145L80.3261 37.1853L80.7484 38.4726L86.3004 33.9339C86.497 33.5964 85.9805 32.8493 85.9258 32.4634V32.4626L78.5901 32.5254ZM11.7219 36.9214L9.66971 35.4791H12.1909L11.7219 36.9214ZM82.696 35.2627L82.191 33.822L84.6394 33.6785L82.696 35.2627ZM13.0618 24.6356L14.0932 25.3904C14.2005 25.3652 14.7853 24.3697 14.9597 24.2324C15.0238 24.1819 15.0621 24.1503 15.1449 24.1942L19.562 27.4767L20.3664 26.4716L20.3694 26.3271L15.938 22.9705L16.8716 21.6465V21.6457L15.7931 20.9238L13.0618 24.6356ZM79.2018 21.1409L73.8691 25.462C73.8372 25.5353 74.5472 26.468 74.6277 26.512C74.7084 26.5559 74.7681 26.5616 74.8415 26.5082L80.0689 22.2932L79.2018 21.1403V21.1409ZM25.1012 12.935C24.8576 12.868 24.0451 13.5307 23.819 13.7189L25.5859 20.7796C25.6803 20.8696 26.6787 20.1732 26.7997 20.0094L26.3891 18.2361L28.2257 16.9749L29.7399 18.0292L30.87 17.326L30.9148 17.1775L25.1012 12.935ZM67.2163 11.1993L63.5421 16.9972L64.6658 17.745L67.2106 13.9332L67.2114 13.9338V19.374L68.4345 20.1307L72.1131 14.262C71.7983 14.1271 71.3864 13.7239 71.0974 13.6093C71.0205 13.5783 70.9606 13.5416 70.8834 13.6065L68.4361 17.3924C68.4626 15.9645 68.3992 14.5301 68.4323 13.1023C68.4402 12.7634 68.631 12.2651 68.4402 11.9471C68.3724 11.8346 67.279 11.1567 67.2163 11.1993ZM27.2412 16.1318C27.2412 16.1989 26.2636 16.8717 26.1605 16.9229C26.0863 16.9604 26.0288 16.9719 25.9467 16.9604L25.2983 14.655L27.2412 16.1318ZM39.8121 6.94102C34.4574 6.64825 34.6857 14.6651 39.8726 14.1409C41.0344 14.0233 42.4507 13.2682 42.9398 12.1771L42.3656 9.60913L39.7732 10.1869L39.99 11.3392L41.3551 11.1257C41.4422 11.7495 41.6409 11.8981 41.0655 12.3069C39.8496 13.1709 38.1186 12.9422 37.5287 11.4596C36.5859 9.09092 38.9595 7.47286 40.9963 8.67209C40.9981 8.38164 41.6776 7.72749 41.5415 7.51863C41.3751 7.26193 40.1401 6.95911 39.8121 6.94102ZM57.3798 11.9155C58.5943 9.26963 56.6999 6.49468 53.8019 6.67784C51.7736 6.80621 50.3539 8.658 50.513 10.6461C50.8019 14.2439 55.9119 15.1144 57.3798 11.9155ZM52.5897 11.9551C50.65 10.0664 53.5314 6.49035 55.6634 8.62705C57.5938 10.5619 54.7521 14.0593 52.5897 11.9551Z" fill="black"/>
</svg>
