<svg width="204" height="56" viewBox="0 0 204 56" fill="none" xmlns="http://www.w3.org/2000/svg">
<path fill-rule="evenodd" clip-rule="evenodd" d="M64.1943 0C63.0121 0.60449 60.3959 0.754942 58.2057 0.754942H36.594C24.4452 0.754942 16.9902 4.73921 15.7678 10.7116C15.5614 11.7459 15.6337 12.8018 15.9688 13.734H20.0059C20.3062 7.28344 27.2278 3.60009 38.0095 3.60009L44.0248 3.5759C40.5184 5.64192 37.5965 8.34197 35.3448 13.4331C35.3072 13.5352 35.2617 13.6346 35.2109 13.734H41.2745C43.5503 8.08942 45.124 5.21205 47.4722 3.5759H56.2274C60.999 3.44962 63.0631 2.24334 64.5214 0.402994L64.1943 0ZM35.2081 13.734C34.3262 15.8269 31.734 22.428 29.7128 27.8227C29.0022 29.7142 28.3643 31.4496 27.8952 32.7848C25.5629 39.0608 24.0726 41.9355 22.2148 42.9941L22.515 43.5744C27.7317 43.878 30.8333 41.2021 32.8438 36.2614C33.8223 33.8675 34.9616 30.7458 36.0097 27.8227C37.0016 25.0769 37.9048 22.5005 38.5135 20.8886C39.5641 18.1159 40.4622 15.7517 41.2691 13.7609L35.2053 13.7367L35.2081 13.734ZM15.9662 13.734C16.5639 15.4723 18.0276 16.8559 20.2874 17.0842L20.5985 16.8586C20.1453 16.0526 19.9738 14.7442 19.9952 13.9355C19.9952 13.8845 20.0005 13.8092 20.0033 13.7582L15.9662 13.734ZM111.817 0.478218C105.732 0.529266 98.2148 1.91556 92.9607 12.8045C91.9797 12.9549 91.0521 13.2585 90.221 13.7367C89.6929 14.0645 89.2159 14.4164 88.7628 14.8947L88.9879 15.3997C89.8431 15.0962 90.8483 15.0209 91.9797 15.0209C91.2747 16.8102 89.819 20.7192 88.3366 24.6767C87.4654 25.8508 86.586 26.8985 85.7148 27.8254H85.6907C82.1952 31.5544 78.8309 33.3168 76.2414 33.341C74.456 33.3653 73.7269 32.4087 73.7269 30.6705C73.7028 29.8134 73.8769 28.6555 74.0538 27.8254C74.1048 27.6481 74.129 27.4734 74.1798 27.3203C77.6755 25.5821 81.1657 23.637 84.3074 20.3592C86.0419 18.4678 87.2483 16.6087 87.2991 14.6421C87.2991 14.3143 87.275 14.0134 87.1972 13.734C86.8702 12.474 85.7659 11.8453 83.8786 11.8211C83.7579 11.8211 83.64 11.8158 83.5193 11.8211C81.6831 11.8883 79.686 12.6244 77.8229 13.734C76.4155 14.5911 75.0833 15.6469 74.0029 16.8075C71.2366 19.8327 68.9686 23.8921 68.1886 27.8227C68.0115 28.704 67.9124 29.5851 67.9124 30.4422C67.8883 33.6687 69.5771 36.3607 73.9521 36.2614C78.6029 36.1109 82.8466 33.3921 86.5191 29.5368C85.5888 32.0058 84.7847 34.1443 84.3315 35.2808C82.9485 38.7089 81.9459 41.4601 79.8576 43.0719L80.1095 43.4749C86.2457 43.827 88.535 39.5175 91.0762 32.4357C91.6552 30.8479 92.1807 29.3138 92.7355 27.8254C94.545 22.71 96.1265 18.2717 97.4348 14.9726C100.099 14.9726 103.925 15.0746 106.064 14.5696C101.638 16.5362 97.7619 22.5086 96.6305 27.8254C96.3278 29.2358 96.2043 30.5953 96.3303 31.8553C96.5824 34.4265 98.089 36.2129 101.408 36.2129C106.16 36.2372 110.361 32.0594 113.052 27.8254C113.958 26.3881 114.712 24.9291 115.24 23.6691C116.422 20.7702 117.175 18.3228 117.326 15.8779C118.835 15.6012 120.298 15.3245 121.003 15.2224C122.438 15.0209 122.159 16.5818 121.733 17.7908C120.601 20.8644 119.17 24.5719 117.862 27.8227C116.076 32.2342 114.562 35.7804 114.562 35.8585H119.572C121.132 32.5324 122.285 30.0928 123.467 27.8227C123.893 26.9898 124.322 26.2108 124.775 25.4047C126.837 21.8019 131.493 15.8242 133.353 15.8242C134.007 15.8 134.182 16.2514 134.056 16.8827C133.804 18.5216 130.957 23.4112 129.198 27.8227H134.785C135.187 26.8903 135.565 26.0845 135.841 25.5068C137.374 22.205 140.114 17.3905 139.964 14.7684C139.94 14.4164 139.838 14.0645 139.688 13.7609L132.273 13.7367C129.758 15.3487 127.314 18.167 125.177 21.5441L125.075 21.4931C126.434 18.4437 127.488 15.5502 127.464 14.1881C127.464 14.0376 127.44 13.8872 127.413 13.734C127.236 12.7776 126.534 12.3746 125.201 12.3988C124.121 12.3988 122.663 12.8259 121.231 13.2048C120.553 13.3821 119.875 13.5567 119.17 13.734C117.762 14.086 116.296 14.4379 114.739 14.7657C113.304 14.9914 112.854 15.2197 112.854 15.7221C113.004 19.8542 111.648 24.3918 109.814 27.8201C108.029 31.1219 105.793 33.4378 103.984 33.4378C102.399 33.4378 102.016 32.3041 102.016 30.692C102.016 29.8109 102.115 28.8543 102.343 27.8201C103.45 22.3259 107.327 15.4212 111.122 14.1612C111.524 14.0349 111.902 13.9597 112.179 13.8845L112.229 13.734L112.733 12.3746C111.779 12.5519 109.517 12.6003 108.334 12.6003C107.128 12.6244 98.424 12.6244 98.424 12.6244C101.04 6.37536 104.713 2.34005 110.069 2.13854C113.414 1.9881 115.647 3.24544 115.848 5.18518C115.998 6.79717 115.521 8.11361 114.24 9.47572L114.618 9.82768C117.534 8.44138 119.577 6.06639 119.577 4.45442C119.601 1.95855 116.631 0.424486 111.827 0.475533L111.817 0.478218ZM132.268 13.734H139.682C139.229 12.928 138.275 12.2994 136.691 12.2994C135.208 12.2994 133.726 12.8286 132.268 13.734ZM129.193 27.8227C128.362 29.8887 127.761 31.8527 127.786 33.3625C127.836 36.3607 129.477 38.1823 132.241 38.862L132.793 38.5342C132.466 37.9029 132.415 37.0404 132.391 36.1083C132.367 33.8407 133.672 30.3911 134.779 27.8469L129.193 27.8227ZM153.185 3.02245C151.802 3.04664 150.394 4.33085 150.094 5.86759C149.767 7.4312 150.646 8.67241 152.054 8.64557C153.461 8.62138 154.844 7.32911 155.169 5.79237C155.472 4.22875 154.592 2.99558 153.182 3.02245H153.185ZM74.9572 3.1729L70.0731 4.10516C69.344 4.28247 68.8909 4.83592 68.6415 5.38936C67.3843 8.01151 66.1298 10.7358 64.7707 13.734H70.325C72.1855 9.67722 73.9279 5.94549 74.9572 3.1729ZM64.7707 13.734C63.5643 16.4314 62.2829 19.3329 60.8757 22.5837C60.5486 23.3145 60.1921 24.0937 59.8624 24.8995C59.1493 25.9071 58.3826 26.8877 57.5678 27.8227C54.8495 30.9231 51.6862 33.3142 48.8555 33.3383C47.3221 33.3625 46.6384 32.484 46.644 30.6948C46.644 29.8134 46.8155 28.6555 46.9871 27.8227C47.0272 27.6453 47.0674 27.4708 47.105 27.3177C50.5898 25.5793 54.0881 23.6342 57.2407 20.3566C58.9857 18.4652 60.1974 16.606 60.2216 14.6394C60.2216 14.3117 60.1974 14.0107 60.1197 13.7313C59.8114 12.4713 58.6962 11.8426 56.8117 11.8185C56.691 11.8185 56.5652 11.8131 56.4417 11.8185C54.6109 11.8856 52.5978 12.6218 50.7453 13.7313C49.3272 14.5884 48.0004 15.6442 46.9253 16.8048C44.1536 19.83 41.8857 23.8896 41.119 27.8201C40.9448 28.7012 40.8536 29.5825 40.8429 30.4394C40.8081 33.7414 42.3683 36.3581 46.6305 36.2586C51.185 36.1083 55.6376 32.5835 57.9483 30.0633C57.6481 31.1219 57.4631 32.1293 57.4631 33.0106C57.4631 35.9335 58.9267 38.0049 61.8031 38.9131L62.3823 38.6364C62.1302 37.8304 62.0552 37.0164 62.1302 36.0598C62.3071 33.6904 63.1086 31.0734 64.3176 27.8227C64.5697 27.1671 64.8457 26.4874 65.1219 25.7566C66.6552 21.8503 68.5638 17.6404 70.325 13.7582L64.7707 13.734ZM166.085 12.0737C164.299 12.0979 162.232 12.6271 160.219 13.7367C158.836 14.5185 157.455 15.5744 156.198 16.9365C153.013 20.4049 151.158 24.5048 150.376 27.8254H150.368C150.368 27.8254 150.368 27.8415 150.368 27.8495C150.244 28.4943 150.116 29.0908 150.067 29.6629C148.306 31.729 146.365 33.0885 145.057 33.1127C144.328 33.1637 143.827 32.7848 143.827 31.979C143.803 31.2992 144.178 29.9155 144.856 28.1263C144.907 28.0242 144.931 27.9247 144.982 27.8254C146.515 23.97 148.708 19.2819 151.373 13.7367C151.574 13.3337 151.775 12.8797 151.976 12.4525C151.976 12.4525 147.427 13.2343 146.773 13.3848C146.497 13.46 146.237 13.5863 146.011 13.7367C145.684 13.9624 145.408 14.2901 145.231 14.6931C143.296 18.801 140.985 23.6155 139.527 27.1699C139.452 27.3955 139.35 27.5971 139.275 27.8254C138.522 29.8162 138.093 31.6779 138.093 32.8386C138.093 35.031 139.473 36.3903 142.138 36.3392C144.904 36.264 147.749 34.6279 150.089 32.3605C150.542 34.7542 152.249 36.4655 155.742 36.3662C159.364 36.264 162.862 33.9509 165.302 31.3046C165.302 31.557 165.278 31.8338 165.278 32.0864C165.278 34.5312 166.559 36.342 169.349 36.342C172.368 36.342 175.84 34.0772 178.555 30.1707L178.657 30.2219C178.405 31.1298 178.129 32.7151 178.105 33.7736C178.029 36.7235 179.761 38.3918 182.227 38.8942L182.78 38.6686C181.925 36.5273 183.131 31.2051 183.659 29.4427C183.836 28.9135 184.01 28.3843 184.187 27.8308C185.922 22.565 188.334 16.9445 189.867 13.7421C189.918 13.6669 189.942 13.5648 189.993 13.4895C189.24 12.8582 187.457 12.3827 185.57 12.3316C185.238 12.3182 184.906 12.3101 184.573 12.3155C182.262 12.3397 179.968 12.7695 177.762 13.7421H177.702C174.258 15.3057 171.06 18.1562 168.422 22.8444C167.618 24.2307 166.738 25.8668 166.135 27.6292C166.06 27.7045 166.009 27.7798 165.958 27.8308C165.355 28.5856 164.776 29.2654 164.5 29.5448C162.841 31.1569 160.471 33.1959 158.083 33.2469C156.699 33.2469 155.946 32.2906 155.97 30.6034C155.97 29.7221 156.069 28.79 156.271 27.8576L153.322 27.8415L156.271 27.8334C157.504 21.6085 162.283 14.1478 165.653 14.1236C166.733 14.1236 167.186 14.6018 167.186 15.5099C167.186 16.5926 166.433 18.1025 165.401 19.0616L165.854 19.4646C168.443 18.4571 170.88 16.6194 170.904 14.7039C170.904 14.3519 170.829 14.0242 170.703 13.7475C170.073 12.3612 167.99 12.0844 166.079 12.0844L166.085 12.0737ZM55.2971 14.1881C56.0424 14.2122 56.3372 14.7173 56.3372 15.397C56.3212 18.4974 52.4852 22.5058 47.5741 25.429C48.8073 20.5661 52.2491 14.1881 55.2971 14.1881ZM82.3721 14.1881C83.1254 14.2122 83.4014 14.7173 83.4014 15.397C83.3772 18.4974 79.56 22.5058 74.6571 25.429C75.8633 20.5661 79.3295 14.1881 82.3721 14.1881ZM183.241 14.3493C183.68 14.3358 184.088 14.3815 184.463 14.4675C184.085 15.2493 182.327 18.7983 180.946 21.9981C180.067 24.0399 179.037 26.0603 177.88 27.8254C176.196 30.3697 174.328 32.3334 172.542 32.7876C171.486 33.0402 170.883 32.586 170.91 31.6027C170.934 30.5685 171.21 29.26 171.69 27.8254C173.25 23.011 176.997 16.7619 180.745 14.9967C181.689 14.5561 182.512 14.3708 183.241 14.3493ZM92.5264 53.2542C45.1776 53.3241 0 53.9044 0 54.6137C0 55.3687 51.3967 56 102.008 56C152.619 56 204 55.3713 204 54.6137C204 53.8561 152.601 53.2542 102.008 53.2542C98.8448 53.2542 95.6815 53.2489 92.5238 53.2542H92.5264Z" fill="black"/>
</svg>
