<svg width="277" height="117" viewBox="0 0 277 117" fill="none" xmlns="http://www.w3.org/2000/svg">
<path d="M28.4173 69.8437C27.3761 68.9666 17.4683 71.7549 17.3112 67.2386L28.6661 67.1537L34.9461 64.6337C30.9974 64.8432 26.7671 64.3197 22.8577 64.6208C21.1223 64.7516 19.793 65.694 18.2345 65.8774C11.6992 66.6431 4.84296 64.8171 7.14145 56.7535C7.85523 54.2402 11.5944 54.2467 12.0921 57.1331C12.4064 58.9461 9.91144 57.8596 8.81784 58.1214C8.47734 65.0068 20.6378 65.1639 22.2422 60.1045C24.7043 52.3422 15.1174 55.3857 16.6431 62.0224H14.05C12.5963 51.6483 26.8457 48.402 25.1627 60.7263C29.7335 58.3832 27.2124 51.524 27.6643 47.1454C4.86914 41.2024 11.2473 16.4098 18.588 0.459462C22.1047 0.400558 38.1025 -0.738283 39.8573 0.806351C41.7957 2.50806 46.36 20.0554 46.6284 23.3607C47.3488 32.1899 44.7556 40.2141 36.8516 44.7041C34.9985 45.7579 32.3398 45.8887 30.7092 47.7016C30.0609 53.7297 28.7906 60.6217 36.21 62.3954C37.6113 62.7292 42.647 62.1597 42.1362 64.2934C41.7892 65.7399 32.0058 68.0634 30.6633 72.4027C30.2967 73.6005 30.7159 77.3705 29.3865 77.6454C26.7802 78.1886 27.8214 71.3032 28.4107 69.8371L28.4173 69.8437ZM21.6462 4.15741C15.4187 13.9096 10.1996 40.2208 26.8391 42.433C47.8202 45.2211 44.0418 15.716 36.9236 4.3865L21.6396 4.15741H21.6462ZM63.1632 54.4234C61.6177 53.8409 60.3212 52.7153 58.6513 52.4076C51.9457 51.164 43.7929 53.8148 45.4956 61.9372C51.3629 63.4098 58.003 64.7516 61.0873 70.4851L52.7709 65.4322C38.2727 59.653 38.4232 73.8165 44.1074 82.8617C45.9867 83.4313 45.2533 81.2975 46.7005 80.9113L49.6472 86.756C52.7905 84.053 54.4145 80.5448 53.9037 76.3494C58.481 81.0816 65.6648 80.5514 71.5387 82.8617C71.5648 78.0446 71.591 70.2887 65.6648 69.1825L68.2579 67.566C66.922 64.601 64.1062 63.6258 61.7552 61.7017C61.7423 61.0144 66.0379 59.4436 66.7713 58.5796C70.0128 54.7769 65.0622 55.137 63.1697 54.4234H63.1632ZM26.9505 90.166C35.7057 88.7262 37.5719 101.083 30.5456 102.883C20.7229 105.403 18.575 91.5406 26.9505 90.166ZM25.3002 94.7345C26.4201 93.6284 29.262 94.5381 30.3622 92.9543C28.0244 90.3363 23.7286 92.8429 23.2965 95.7032C23.1982 96.3708 23.3946 98.524 24.4882 98.4914C24.5603 97.4245 24.5276 95.5004 25.3002 94.7345ZM12.5766 90.166C21.3973 88.7131 23.1262 101.194 15.5431 102.916C6.23123 105.023 4.05714 91.5733 12.5766 90.166ZM8.82439 97.8434C10.3371 97.3788 9.8656 95.4937 11.1491 94.6297C12.5963 93.6545 14.7966 94.4793 15.9949 92.9608C11.876 89.9828 8.49042 93.4778 8.82439 97.8434ZM4.05059 77.7959C14.9734 75.2826 16.0015 88.9749 7.67187 90.5587C-0.657717 92.1427 -2.72046 79.3536 4.05059 77.7959ZM8.11062 79.0002C4.29288 78.3719 1.24787 80.8917 1.62768 84.8123L4.22741 81.8669L8.1892 81.2516L8.11718 78.9937L8.11062 79.0002ZM18.4244 77.7894C30.2443 74.2746 30.3818 92.411 19.7669 90.5587C13.0416 89.3807 13.1333 79.3667 18.4244 77.7894ZM17.3046 84.8188C17.2653 81.1469 19.8454 81.7361 22.5631 81.2583V79.262C19.3346 78.0577 16.1324 80.4663 15.9884 83.8304C15.936 85.1263 16.1259 84.8711 17.3046 84.8123V84.8188ZM32.7982 77.7894C41.6844 75.1714 45.6854 86.3176 38.3971 89.8715C29.2163 94.3549 25.7586 79.8641 32.7982 77.7894ZM31.6784 86.1146C31.148 81.7033 33.2304 81.5854 36.9367 81.2583V79.262C33.8983 78.1362 30.9057 80.1128 30.598 83.2742C30.5521 83.7716 30.7092 86.2653 31.6849 86.1146H31.6784ZM18.4244 103.184C30.2443 99.6695 30.3818 117.806 19.7669 115.954C13.0416 114.776 13.1333 104.762 18.4244 103.184ZM17.3046 110.214C17.2653 106.542 19.8454 107.131 22.5631 106.653V104.657C19.3346 103.453 16.1324 105.861 15.9884 109.225C15.936 110.521 16.1259 110.266 17.3046 110.207V110.214ZM31.8618 19.2045C27.0945 18.3078 22.2749 21.3251 17.9725 18.3994C17.3636 26.6201 17.3046 39.8346 28.2928 40.3908C38.0893 40.8882 40.9248 31.0708 40.0734 23.0596C37.4279 22.1432 34.6121 19.7215 31.8618 19.2045ZM111.923 20.6051C111.17 20.6314 110.633 20.8474 110.318 21.2465C110.004 21.6523 109.723 22.2545 109.467 23.0596L102.211 45.9084H97.5621L89.3242 22.5294C89.0949 21.8749 88.8395 21.3906 88.5514 21.0764C88.2632 20.7622 87.7526 20.6051 87.0192 20.6051V18.7136H97.5621V20.6051C96.9334 20.6051 96.5274 20.6838 96.3507 20.8342C96.1738 20.9848 96.0886 21.1877 96.0886 21.4364C96.0886 21.6393 96.1608 22.0713 96.2983 22.7389C96.4358 23.4064 96.6453 24.1329 96.9203 24.9119L101.72 38.9967L105.348 25.8543C105.675 24.722 105.911 23.8973 106.049 23.3803C106.186 22.8632 106.258 22.4051 106.258 21.9993C106.258 21.4952 106.134 21.1418 105.879 20.939C105.63 20.7361 105.185 20.6248 104.556 20.5987V18.7071H111.923V20.5987V20.6051ZM124.469 45.9084H113.435V44.0235C114.293 44.0235 114.889 43.8532 115.23 43.5129C115.57 43.1725 115.74 42.6227 115.74 41.8701V22.7193C115.74 21.9142 115.57 21.3579 115.23 21.0568C114.889 20.7558 114.293 20.6051 113.435 20.6051V18.7136H124.469V20.6051C123.585 20.6051 122.983 20.7558 122.656 21.0568C122.328 21.3579 122.164 21.9142 122.164 22.7193V41.8701C122.164 42.675 122.328 43.238 122.656 43.5522C122.983 43.8664 123.585 44.0235 124.469 44.0235V45.9084ZM151.822 20.6051C150.965 20.6051 150.369 20.8277 150.028 21.2661C149.688 21.7047 149.517 22.3788 149.517 23.2887V45.9084H146.57L131.797 25.4354V41.3334C131.797 42.2367 131.968 42.9108 132.308 43.3558C132.649 43.7944 133.244 44.0168 134.102 44.0168V45.9019H126.696V44.0168C127.554 44.0168 128.15 43.827 128.49 43.4474C128.831 43.0679 129.001 42.3675 129.001 41.3334V22.7126C129.001 21.9077 128.831 21.3512 128.49 21.0502C128.15 20.7491 127.554 20.5987 126.696 20.5987V18.7071H134.214L146.721 36.2674V23.2755C146.721 22.3723 146.551 21.6982 146.21 21.2532C145.87 20.8146 145.274 20.592 144.416 20.592V18.7006H151.822V20.592V20.6051ZM178.991 32.1572C178.991 35.0304 178.638 37.3933 177.931 39.2585C177.224 41.124 176.301 42.5966 175.155 43.6765C174.008 44.7564 172.711 45.5092 171.265 45.9215C169.817 46.3338 168.338 46.5432 166.825 46.5432C165.215 46.5432 163.668 46.3403 162.195 45.9411C160.722 45.5418 159.432 44.8153 158.318 43.7681C157.212 42.7209 156.321 41.294 155.653 39.4811C154.985 37.6681 154.651 35.3511 154.651 32.5303C154.651 29.7094 154.959 27.5756 155.575 25.7496C156.19 23.9236 157.041 22.4508 158.128 21.3316C159.209 20.2125 160.499 19.4073 161.985 18.9166C163.471 18.4257 165.083 18.177 166.825 18.177C168.566 18.177 170.099 18.3733 171.586 18.7595C173.073 19.1522 174.362 19.859 175.456 20.8931C176.549 21.9273 177.413 23.3475 178.043 25.1606C178.67 26.9735 178.985 29.3036 178.985 32.1441L178.991 32.1572ZM172.267 32.0066C172.267 29.7159 172.161 27.8375 171.946 26.3778C171.73 24.9184 171.402 23.7729 170.963 22.9417C170.525 22.1105 169.954 21.5411 169.26 21.24C168.566 20.939 167.754 20.7883 166.825 20.7883C165.79 20.7883 164.926 21.0109 164.238 21.4495C163.544 21.8881 162.993 22.5949 162.575 23.5635C162.162 24.5322 161.854 25.7692 161.671 27.2614C161.481 28.7603 161.39 30.5667 161.39 32.6809C161.39 34.9716 161.514 36.85 161.769 38.3096C162.018 39.7691 162.379 40.9145 162.844 41.7457C163.308 42.577 163.885 43.1464 164.566 43.4606C165.247 43.7746 165.999 43.9317 166.831 43.9317C167.814 43.9317 168.652 43.7026 169.346 43.2511C170.04 42.7994 170.597 42.0925 171.029 41.1369C171.454 40.1814 171.769 38.9445 171.972 37.4325C172.174 35.9207 172.273 34.1076 172.273 31.9936L172.267 32.0066ZM203.175 25.8543L201.36 26.0834L200.229 23.4391C199.901 22.7061 199.488 22.176 198.998 21.8357C198.506 21.4952 197.871 21.3251 197.091 21.3251H195.317V41.8701C195.317 42.675 195.481 43.238 195.808 43.5522C196.136 43.8664 196.737 44.0235 197.623 44.0235V45.9084H186.588V44.0235C187.446 44.0235 188.041 43.8532 188.382 43.5129C188.722 43.1725 188.892 42.6227 188.892 41.8701V21.3251H187.118C186.338 21.3251 185.704 21.4952 185.213 21.8357C184.722 22.176 184.308 22.7126 183.982 23.4391L182.849 26.0834L181.034 25.8543L181.297 18.5304C181.677 18.5565 182.122 18.5828 182.64 18.6089C183.157 18.6351 183.687 18.6547 184.224 18.6679C184.767 18.6808 185.284 18.694 185.789 18.7071C186.293 18.7202 186.732 18.7267 187.112 18.7267H197.084C197.465 18.7267 197.903 18.7267 198.408 18.7071C198.912 18.694 199.436 18.6808 199.972 18.6679C200.516 18.6547 201.041 18.6351 201.558 18.6089C202.076 18.5828 202.52 18.5565 202.899 18.5304L203.162 25.8543H203.175ZM225.512 38.5059L224.759 46.0982C224.378 46.0719 223.94 46.0458 223.436 46.0196C222.932 45.9935 222.408 45.9739 221.871 45.9607C221.326 45.9476 220.803 45.9346 220.306 45.9215C219.802 45.9083 219.363 45.9019 218.983 45.9019H205.08V44.0168C205.938 44.0168 206.535 43.8467 206.875 43.5063C207.216 43.166 207.386 42.6162 207.386 41.8634V22.7126C207.386 21.9077 207.216 21.3512 206.875 21.0502C206.535 20.7491 205.938 20.5987 205.08 20.5987V18.7071H219.781C220.285 18.7071 220.803 18.694 221.335 18.6679C221.865 18.6416 222.389 18.622 222.899 18.6089C223.417 18.5959 223.874 18.5631 224.281 18.5173L224.542 25.8412L222.729 26.0703L221.785 23.6878C221.38 22.7061 220.863 22.0648 220.221 21.7637C219.578 21.4626 218.865 21.312 218.085 21.312H214.569C214.294 21.312 214.098 21.3644 213.986 21.4626C213.875 21.5607 213.815 21.8161 213.815 22.2152V31.0118H215.479C215.807 31.0118 216.108 31.0118 216.384 30.9921C216.658 30.979 216.914 30.9333 217.136 30.8613C217.365 30.7827 217.555 30.6583 217.719 30.4816C217.882 30.3049 218.014 30.0562 218.119 29.729L218.76 27.6149H220.647V36.6799H218.794L218.113 34.5265C217.936 33.9964 217.615 33.6561 217.149 33.5054C216.684 33.355 216.121 33.2764 215.466 33.2764H213.802V42.6423C213.802 43.0679 214.007 43.2838 214.406 43.2838H218.486C219.389 43.2838 220.208 43.0612 220.921 42.6227C221.641 42.1843 222.171 41.569 222.526 40.7902L223.697 38.2572L225.512 38.4863V38.5059ZM240.096 46.5497C238.458 46.5497 236.932 46.3534 235.525 45.9672C234.109 45.5745 232.891 44.8743 231.857 43.8532C230.822 42.8321 230.016 41.4447 229.441 39.6775C228.865 37.9103 228.57 35.6522 228.57 32.8772C228.57 28.145 229.533 24.5126 231.464 21.9797C233.389 19.4467 236.48 18.1834 240.743 18.1834C242.406 18.1834 243.848 18.2948 245.072 18.5239C246.297 18.7528 247.409 18.9362 248.418 19.0933L249.139 26.5677L247.364 26.9474L245.969 23.9628C245.517 23.0072 244.915 22.2415 244.174 21.659C243.435 21.0829 242.458 20.7883 241.247 20.7883C240.115 20.7883 239.172 21.0502 238.413 21.5803C237.659 22.1105 237.044 22.8893 236.579 23.9236C236.113 24.9576 235.779 26.2207 235.577 27.7196C235.374 29.2185 235.275 30.9398 235.275 32.8772C235.275 34.6116 235.374 36.1694 235.577 37.5437C235.779 38.9182 236.1 40.0766 236.54 41.0192C236.978 41.9617 237.561 42.6882 238.281 43.1922C239.001 43.6961 239.872 43.9448 240.907 43.9448C241.51 43.9448 242.079 43.8664 242.609 43.7157C243.139 43.5653 243.67 43.3035 244.215 42.9237C244.758 42.5442 245.327 42.0402 245.937 41.4119C246.538 40.7835 247.206 39.9785 247.941 38.9967L249.452 39.7887L247.338 45.3782C245.799 45.784 244.463 46.0786 243.329 46.2683C242.197 46.4581 241.124 46.5497 240.115 46.5497H240.096ZM276.334 45.9084H266.243V44.0235C266.845 44.0235 267.232 43.9317 267.396 43.742C267.56 43.5522 267.644 43.3427 267.644 43.1201C267.644 42.7144 267.519 42.1384 267.265 41.3856L266.584 39.0818H257.814C257.737 39.3372 257.644 39.6251 257.534 39.9523C257.422 40.2796 257.318 40.6068 257.232 40.9341C257.148 41.2613 257.068 41.5755 257.004 41.8766C256.937 42.1776 256.911 42.4199 256.911 42.5966C256.911 43.0024 257.017 43.3427 257.232 43.6177C257.448 43.8925 257.907 44.056 258.614 44.1084V45.9215H251.208V44.0692C252.066 43.9907 252.661 43.7093 253.002 43.2183C253.342 42.7274 253.624 42.1645 253.853 41.5363L261.941 18.7267H266.661L274.179 42.0664C274.278 42.3936 274.383 42.675 274.481 42.9173C274.579 43.1595 274.709 43.3558 274.86 43.5194C275.011 43.683 275.207 43.8073 275.444 43.8991C275.685 43.9907 275.98 44.0299 276.334 44.0299V45.9148V45.9084ZM265.791 36.5752L262.504 24.794L258.687 36.5752H265.791ZM121.523 83.6996H110.489V81.8145C111.347 81.8145 111.942 81.6445 112.283 81.304C112.623 80.9637 112.794 80.4139 112.794 79.6612V61.8325H112.564L104.097 82.7177H101.714L93.286 61.8325H93.0241V79.2816C93.0241 80.0867 93.2597 80.7085 93.7247 81.1535C94.1896 81.5986 94.7856 81.8145 95.519 81.8145V83.6996H87.6216V81.8145C88.4794 81.8145 89.1212 81.579 89.5468 81.1143C89.9725 80.6495 90.1885 80.0409 90.1885 79.2816V60.5103C90.1885 59.7054 90.0182 59.149 89.6777 58.8479C89.3372 58.5468 88.7414 58.3964 87.8835 58.3964V56.5113H98.2365L104.89 73.8492L111.844 56.5113H121.215V58.3964C120.409 58.3964 119.873 58.5468 119.611 58.8479C119.349 59.149 119.211 59.7054 119.211 60.5103V79.6612C119.211 80.4663 119.375 81.0292 119.702 81.3434C120.03 81.6574 120.632 81.8145 121.516 81.8145V83.6996H121.523ZM147.972 83.6996H137.881V81.8145C138.483 81.8145 138.869 81.7229 139.033 81.5331C139.197 81.3434 139.282 81.1339 139.282 80.9113C139.282 80.5122 139.158 79.9296 138.902 79.1769L138.221 76.8731H129.453C129.374 77.1282 129.283 77.4163 129.171 77.7435C129.06 78.0709 128.955 78.398 128.87 78.7254C128.785 79.0525 128.706 79.3667 128.641 79.6678C128.575 79.9689 128.549 80.2111 128.549 80.3878C128.549 80.7935 128.654 81.1339 128.87 81.4087C129.086 81.6837 129.545 81.8473 130.252 81.8997V83.7126H122.846V81.8604C123.703 81.7818 124.299 81.5003 124.64 81.0096C124.98 80.5186 125.262 79.9557 125.491 79.3275L133.578 56.518H138.3L145.817 79.8577C145.916 80.1848 146.02 80.4663 146.119 80.7085C146.217 80.9506 146.348 81.1469 146.498 81.3106C146.649 81.4742 146.845 81.5986 147.081 81.6902C147.324 81.7753 147.618 81.8212 147.972 81.8212V83.7061V83.6996ZM137.429 74.3729L134.142 62.5917L130.324 74.3729H137.429ZM168.299 76.2578C168.299 76.8338 168.161 77.5799 167.885 78.4831C167.611 79.3864 167.1 80.2764 166.353 81.1469C165.614 82.0175 164.592 82.7636 163.295 83.3919C161.999 84.0203 160.329 84.3345 158.286 84.3345C157.33 84.3345 156.485 84.3017 155.751 84.2427C155.018 84.1774 154.363 84.0987 153.787 83.994C153.211 83.8959 152.687 83.7845 152.222 83.6733C151.757 83.5621 151.312 83.4639 150.879 83.3919L150.31 76.4411L152.084 76.0287L153.067 78.3325C153.243 78.7579 153.473 79.1769 153.767 79.5762C154.055 79.982 154.409 80.3419 154.828 80.6691C155.241 80.9964 155.732 81.2516 156.301 81.4415C156.871 81.6313 157.533 81.7229 158.286 81.7229C159.621 81.7229 160.643 81.3499 161.344 80.6103C162.051 79.8706 162.404 78.8954 162.404 77.6847C162.404 77.0563 162.293 76.5065 162.064 76.0418C161.835 75.5772 161.494 75.1386 161.042 74.7197C160.591 74.3009 160.034 73.8951 159.379 73.4893C158.724 73.09 157.971 72.6318 157.113 72.1279C156.256 71.6501 155.411 71.1331 154.579 70.5767C153.748 70.0204 153.007 69.4051 152.353 68.7244C151.698 68.0438 151.168 67.2845 150.768 66.4402C150.362 65.596 150.166 64.6208 150.166 63.5146C150.166 62.284 150.395 61.1911 150.847 60.2485C151.298 59.3061 151.921 58.5207 152.719 57.8858C153.512 57.2574 154.448 56.7796 155.535 56.4525C156.622 56.1251 157.788 55.9615 159.052 55.9615C159.982 55.9615 160.813 55.9943 161.547 56.0531C162.28 56.1186 162.928 56.1906 163.512 56.2822C164.088 56.3674 164.618 56.4721 165.096 56.5833C165.575 56.6947 166.025 56.7928 166.458 56.8648L167.028 63.5146L165.254 64.0055L164.12 61.7409C163.917 61.3612 163.689 60.9881 163.439 60.6086C163.191 60.2289 162.883 59.8886 162.536 59.5875C162.182 59.2865 161.763 59.0378 161.272 58.8545C160.781 58.6647 160.211 58.5731 159.556 58.5731C159.229 58.5731 158.855 58.6123 158.443 58.6843C158.03 58.7563 157.631 58.9265 157.251 59.1752C156.871 59.4239 156.557 59.7707 156.308 60.2159C156.059 60.6543 155.928 61.2565 155.928 62.0092C155.928 62.6898 156.079 63.2527 156.38 63.7109C156.681 64.1626 157.087 64.5814 157.591 64.9544C158.096 65.3341 158.659 65.6876 159.294 66.0147C159.923 66.3421 160.564 66.7086 161.219 67.1078C162.353 67.8147 163.361 68.4299 164.245 68.9601C165.129 69.4903 165.868 70.0661 166.471 70.6945C167.073 71.3228 167.532 72.0689 167.853 72.9199C168.167 73.7772 168.325 74.8833 168.325 76.2447L168.299 76.2578ZM181.375 83.6996H170.342V81.8145C171.2 81.8145 171.795 81.6445 172.135 81.304C172.476 80.9637 172.646 80.4139 172.646 79.6612V60.5103C172.646 59.7054 172.476 59.149 172.135 58.8479C171.795 58.5468 171.2 58.3964 170.342 58.3964V56.5113H181.375V58.3964C180.491 58.3964 179.89 58.5468 179.562 58.8479C179.234 59.149 179.071 59.7054 179.071 60.5103V79.6612C179.071 80.4663 179.234 81.0292 179.562 81.3434C179.89 81.6574 180.491 81.8145 181.375 81.8145V83.6996ZM202.573 76.2578C202.573 76.8338 202.435 77.5799 202.16 78.4831C201.886 79.3864 201.375 80.2764 200.627 81.1469C199.888 82.0175 198.866 82.7636 197.569 83.3919C196.274 84.0203 194.603 84.3345 192.56 84.3345C191.604 84.3345 190.759 84.3017 190.026 84.2427C189.293 84.1774 188.638 84.0987 188.061 83.994C187.485 83.8959 186.961 83.7845 186.496 83.6733C186.032 83.5621 185.586 83.4639 185.153 83.3919L184.584 76.4411L186.358 76.0287L187.341 78.3325C187.517 78.7579 187.748 79.1769 188.041 79.5762C188.33 79.982 188.683 80.3419 189.103 80.6691C189.515 80.9964 190.006 81.2516 190.576 81.4415C191.146 81.6313 191.806 81.7229 192.56 81.7229C193.896 81.7229 194.918 81.3499 195.619 80.6103C196.326 79.8706 196.679 78.8954 196.679 77.6847C196.679 77.0563 196.567 76.5065 196.338 76.0418C196.11 75.5772 195.769 75.1386 195.317 74.7197C194.865 74.3009 194.308 73.8951 193.653 73.4893C192.998 73.09 192.246 72.6318 191.388 72.1279C190.53 71.6501 189.685 71.1331 188.853 70.5767C188.022 70.0204 187.282 69.4051 186.627 68.7244C185.972 68.0438 185.442 67.2845 185.043 66.4402C184.636 65.596 184.44 64.6208 184.44 63.5146C184.44 62.284 184.67 61.1911 185.121 60.2485C185.573 59.3061 186.196 58.5207 186.994 57.8858C187.786 57.2574 188.722 56.7796 189.81 56.4525C190.897 56.1251 192.062 55.9615 193.326 55.9615C194.256 55.9615 195.088 55.9943 195.821 56.0531C196.554 56.1186 197.203 56.1906 197.785 56.2822C198.362 56.3674 198.892 56.4721 199.371 56.5833C199.849 56.6947 200.3 56.7928 200.733 56.8648L201.302 63.5146L199.528 64.0055L198.395 61.7409C198.192 61.3612 197.963 60.9881 197.714 60.6086C197.465 60.2289 197.157 59.8886 196.81 59.5875C196.457 59.2865 196.037 59.0378 195.546 58.8545C195.054 58.6647 194.485 58.5731 193.83 58.5731C193.502 58.5731 193.129 58.6123 192.718 58.6843C192.304 58.7563 191.905 58.9265 191.526 59.1752C191.146 59.4239 190.832 59.7707 190.582 60.2159C190.334 60.6543 190.203 61.2565 190.203 62.0092C190.203 62.6898 190.353 63.2527 190.655 63.7109C190.955 64.1626 191.362 64.5814 191.866 64.9544C192.371 65.3341 192.933 65.6876 193.569 66.0147C194.196 66.3421 194.839 66.7086 195.494 67.1078C196.627 67.8147 197.636 68.4299 198.519 68.9601C199.403 69.4903 200.143 70.0661 200.746 70.6945C201.347 71.3228 201.806 72.0689 202.127 72.9199C202.442 73.7772 202.599 74.8833 202.599 76.2447L202.573 76.2578Z" fill="black"/>
</svg>
