<?xml version="1.0" encoding="UTF-8"?>
<svg id="Layer_1" data-name="Layer 1" xmlns="http://www.w3.org/2000/svg" viewBox="0 0 217.72 56.69">
  <defs>
    <style>
      .cls-1 {
        fill: #231f20;
      }
    </style>
  </defs>
  <path class="cls-1" d="M38.07,19.87c0,.14-.28.22-.85.24-.63.02-1.05.22-1.26.62-.21.4-.53,1.25-.96,2.55-.75,2.28-1.42,4.22-2,5.82-1,2.73-1.91,5.38-2.72,7.93-.07.22-.15.33-.26.33-.09,0-.17-.08-.24-.25-.08-.17-.3-.75-.68-1.74-.46-1.3-.97-2.61-1.52-3.93-.43-1.04-.85-2.1-1.27-3.21-1.16,2.82-2.31,5.76-3.46,8.83-.07.2-.15.3-.25.3-.08,0-.18-.14-.3-.42-.52-1.23-2.43-6.34-5.75-15.33-.23-.63-.41-1.03-.52-1.19-.12-.16-.41-.25-.87-.26-.8-.03-1.2-.15-1.2-.35,0-.15.13-.23.4-.23.12,0,.22,0,.3.03.88.05,1.83.08,2.85.08.2,0,.55-.02,1.04-.05.49-.03,1.13-.05,1.91-.05h.27c.28,0,.43.08.43.23,0,.19-.26.29-.77.31-1.03.03-1.54.17-1.54.41,0,.47,1.53,4.81,4.59,13.03,1.11-2.82,1.94-4.89,2.49-6.22l-2.47-6.4c-.13-.35-.29-.57-.47-.67s-.5-.16-.97-.17c-.47-.02-.7-.09-.7-.22,0-.18.18-.27.52-.27.27,0,.59.02.98.05.38.03,1.05.05,2,.05h4.65c.62,0,1.36-.03,2.23-.08.1-.01.22-.02.35-.02.4,0,.6.09.6.26,0,.16-.14.24-.43.24h-.42c-.75,0-1.32.1-1.7.3-.17.08-.47.68-.92,1.8-.2.47-.54,1.26-1.01,2.37-.1.25-.25.63-.44,1.13.12.33.48,1.26,1.09,2.78.79,1.93,1.44,3.58,1.96,4.96.94-2.7,2.04-5.89,3.32-9.57.67-1.96,1.01-3.05,1.01-3.27,0-.32-.29-.48-.88-.48-.82,0-1.22-.09-1.22-.28,0-.17.17-.25.5-.25.28,0,.51.01.67.03.37.04.7.07,1,.07h2c.5,0,.77.02.83.06.05.04.07.08.07.13ZM27.5,20.16h-.73c-.6.03-.9.14-.9.33,0,.03.49,1.48,1.47,4.35.38-.83.83-1.94,1.34-3.3.07-.18.17-.42.31-.72l.05-.2c0-.3-.52-.45-1.55-.45ZM71.27,36.87c0,.14-.12.21-.38.21-.17,0-.32,0-.45-.02l-3.18-.1-3.17.1c-.12.02-.24.02-.38.02-.33,0-.5-.09-.5-.26,0-.19.23-.29.67-.29,1.47-.02,2.2-.16,2.2-.44,0-.02-.02-.08-.05-.2l-.2-.66-.13-.35c-.15-.52-.52-1.66-1.1-3.43h-5.34c-1,2.67-1.5,4.2-1.5,4.6,0,.23.1.38.3.42.05.02.47.05,1.25.1.48.02.73.1.73.25,0,.17-.22.25-.65.25-.77,0-1.66-.03-2.67-.1-.25-.02-.51-.03-.77-.03s-.52.03-.77.08c-.13.03-.24.04-.33.04-.23,0-.35-.08-.35-.23s.26-.23.79-.25.9-.1,1.14-.24c.23-.14.42-.41.55-.82,2.14-6.15,3.89-11.1,5.24-14.82.04-.2.12-.42.23-.66l.11-.46c.05-.18.12-.28.2-.28.05,0,.09.05.12.15.22.65.71,2.01,1.47,4.08.6,1.62,2.09,5.67,4.48,12.17.13.38.3.62.51.72.21.1.64.16,1.29.18.43.02.65.1.65.24ZM64.5,30.88c-.27-.75-.72-1.99-1.35-3.73l-1.2-3.47c-.7,1.84-1.55,4.24-2.53,7.19h5.08ZM101.75,35.06c0,.43-.02,1.15-.08,2.15h-.27c-.1,0-.34-.02-.72-.05s-.81-.05-1.3-.05l-10.38-.08c-.28,0-.42-.08-.42-.22,0-.12.22-.19.67-.23.63-.03,1.01-.1,1.14-.21s.19-.42.19-.94v-14.05c0-.62-.06-.97-.19-1.07-.12-.1-.57-.15-1.34-.15-.32,0-.47-.09-.47-.28,0-.15.1-.22.3-.22h.23c.55.05,1.64.08,3.27.08.15,0,.44-.01.88-.04.43-.02.79-.04,1.08-.04h.28c.3,0,.45.08.45.25,0,.1-.05.16-.14.19-.09.03-.38.05-.86.06s-.77.1-.86.24-.14.58-.14,1.31v14.75c.45.02,1.08.03,1.88.03,1.95,0,3.33-.1,4.12-.3.8-.2,1.34-.58,1.62-1.12.28-.55.45-1.29.5-2.23.02-.22.11-.33.29-.33.21,0,.3.12.29.38v2.18ZM136.62,28.36c0,2.94-1.03,5.23-3.07,6.87-1.5,1.2-3.51,1.8-6.03,1.8h-6.77c-.32,0-.48-.08-.48-.25,0-.15.27-.22.8-.22.68,0,1.11-.12,1.27-.38.07-.12.1-.43.1-.95v-13.48c0-.82-.06-1.29-.19-1.42-.12-.13-.55-.2-1.29-.2-.38,0-.58-.09-.58-.27,0-.13.14-.2.43-.2-.02,0,.17,0,.55,0h3.8c3,0,5.12.21,6.38.63,1.52.5,2.74,1.49,3.67,2.97.93,1.48,1.4,3.18,1.4,5.1ZM133.82,28.26c0-2.78-.54-4.81-1.62-6.11-1.08-1.3-2.78-1.94-5.08-1.94-1.12,0-1.79.12-2.03.35-.1.12-.15.52-.15,1.2v13.34c0,.47.01.75.04.85.03.1.1.18.21.25.4.2,1.24.3,2.52.3,1.8,0,3.25-.63,4.35-1.91,1.17-1.34,1.75-3.45,1.75-6.34ZM169.45,33.01c0,.07-.02.48-.05,1.23s-.05,1.47-.05,2.15v.83c-1.63-.1-4.87-.15-9.7-.15h-3.12c-.32,0-.47-.07-.47-.2,0-.09.05-.14.15-.16.05,0,.37-.02.95-.07.43-.03.7-.12.79-.28s.14-.54.14-1.18v-14.09c0-.48-.07-.77-.21-.87-.14-.09-.6-.14-1.36-.14-.27,0-.4-.07-.4-.21s.18-.21.55-.21h10.6c.5,0,.96-.03,1.38-.1.03.72.11,1.71.23,2.97l.1,1.08c.02.08.03.19.03.33,0,.17-.08.25-.23.25-.18,0-.32-.21-.4-.63-.32-1.51-.83-2.47-1.55-2.87-.53-.3-1.93-.45-4.2-.45h-2.05v7.35h.6c1.87,0,3-.14,3.41-.42s.69-1.11.84-2.47c.03-.35.12-.53.28-.53.18,0,.27.15.27.45s-.02.74-.05,1.33c-.03.58-.05,1.02-.05,1.32,0,1.78.03,3.01.08,3.68.01.17.02.31.02.42,0,.22-.09.33-.27.33-.12,0-.2-.07-.24-.21-.04-.14-.11-.6-.21-1.39-.13-.98-.54-1.59-1.22-1.83-.3-.1-1.08-.15-2.34-.15h-1.12v8.38c3.67,0,5.82-.07,6.45-.22,1.1-.25,1.73-1.3,1.88-3.16.03-.41.14-.62.33-.62.17,0,.25.17.25.52ZM203.77,19.91c0,.17-.21.24-.62.22h-1c-.27,0-.42.05-.48.14-.05.09-.07.37-.07.84v14.38c0,.88,0,1.4-.03,1.55-.02.15-.07.22-.15.22-.1,0-.22-.09-.35-.28l-3.19-4.68c-1.85-2.73-4.1-6.14-6.76-10.22v14c.02.22.14.36.38.41.24.06.8.1,1.69.11.22,0,.33.07.33.2,0,.17-.22.25-.65.25-.15,0-.62-.03-1.42-.08-.27-.02-.53-.03-.78-.03.02,0-.13.02-.44.05s-.78.05-1.41.05h-.25c-.38,0-.58-.08-.58-.23s.17-.23.5-.23c.98-.02,1.55-.08,1.71-.19.16-.11.24-.46.24-1.06v-12.34c0-1.39-.28-2.25-.85-2.6-.27-.17-.74-.25-1.43-.25-.43,0-.65-.09-.65-.26,0-.16.12-.24.38-.24.33,0,.76.02,1.27.05.52.03.79.05.83.05.05,0,.28,0,.7-.02.55,0,1.08-.03,1.6-.08l8.62,12.87v-11.12c0-.52,0-.83-.02-.94s-.08-.19-.2-.25c-.12-.06-.52-.09-1.2-.09-.6,0-.9-.07-.9-.22,0-.17.2-.25.6-.25h4.03c.37,0,.55.08.55.25Z"/>
</svg>