<svg width="100" height="65" viewBox="0 0 100 65" fill="none" xmlns="http://www.w3.org/2000/svg">
<g clip-path="url(#clip0_2_17355)">
<path d="M20.4402 48.3399L23.0102 42.1899L16.2202 25.2799C16.0802 24.8899 16.2902 24.6699 16.6802 24.6699H21.6502C21.9402 24.6699 22.2202 24.8099 22.3302 25.0999L25.9102 35.1799L29.5202 25.0999C29.6302 24.8099 29.9102 24.6699 30.2002 24.6699H35.1702C35.5602 24.6699 35.7402 24.8799 35.6002 25.2799L26.3402 48.5499C26.2302 48.8399 25.9502 48.9799 25.6602 48.9799H20.9102C20.4802 48.9799 20.2302 48.7699 20.4402 48.3399Z" fill="#E6E6E6"/>
<path d="M38.5 18.9898C38.5 17.2198 39.85 15.7998 41.73 15.7998C43.61 15.7998 44.96 17.2198 44.96 18.9898C44.96 20.7598 43.58 22.2198 41.73 22.2198C39.88 22.2198 38.5 20.7998 38.5 18.9898ZM38.72 25.2398C38.72 24.9198 38.97 24.6698 39.29 24.6698H44.18C44.5 24.6698 44.75 24.9198 44.75 25.2398V41.4798C44.75 41.7998 44.5 42.0498 44.18 42.0498H39.29C38.97 42.0498 38.72 41.7998 38.72 41.4798V25.2398Z" fill="#E6E6E6"/>
<path d="M57.9103 44.7799V42.1199C55.7303 41.5899 53.7003 40.4599 51.9903 38.7599C47.0203 33.7899 46.9003 25.7399 51.9603 20.6799C57.0503 15.5899 65.1003 15.7099 70.0703 20.6799C75.0403 25.6499 75.1603 33.6999 70.0703 38.7899C68.2903 40.5699 66.1303 41.7199 63.8503 42.2499V44.7599C63.8503 45.1099 63.6703 45.2899 63.2703 45.2899H58.4503C58.1503 45.2899 57.9003 45.0899 57.9003 44.7899L57.9103 44.7799ZM56.2803 34.4699C56.7803 34.9699 57.3303 35.3699 57.9303 35.6699V32.3099C57.9303 31.9599 58.1103 31.7799 58.4603 31.7799H63.3303C63.5803 31.7799 63.8603 31.9599 63.8603 32.3099V35.6699C64.4903 35.3399 65.0903 34.8899 65.6403 34.3399C68.3703 31.6099 68.4203 27.5899 65.7903 24.9599C63.1603 22.3299 59.1203 22.3499 56.3803 25.0899C53.6703 27.7999 53.6503 31.8399 56.2803 34.4699Z" fill="#4285F4"/>
<path d="M77.2207 18.9898C77.2207 17.2198 78.5707 15.7998 80.4507 15.7998C82.3307 15.7998 83.6807 17.2198 83.6807 18.9898C83.6807 20.7598 82.3007 22.2198 80.4507 22.2198C78.6007 22.2198 77.2207 20.7998 77.2207 18.9898ZM77.4407 25.2398C77.4407 24.9198 77.6907 24.6698 78.0107 24.6698H82.9007C83.2207 24.6698 83.4707 24.9198 83.4707 25.2398V41.4798C83.4707 41.7998 83.2207 42.0498 82.9007 42.0498H78.0107C77.6907 42.0498 77.4407 41.7998 77.4407 41.4798V25.2398Z" fill="#E6E6E6"/>
</g>
<defs>
<clipPath id="clip0_2_17355">
<rect width="100" height="65" fill="white"/>
</clipPath>
</defs>
</svg>
