<svg width="85" height="27" viewBox="0 0 85 27" fill="none" xmlns="http://www.w3.org/2000/svg">
<path d="M2.13905 15.0086C2.13905 11.8236 2.13905 11.2363 2.09505 10.5651C2.05443 9.85357 1.8852 9.51796 1.1846 9.37029C1.01537 9.33002 0.656606 9.30653 0.358764 9.30653C0.125229 9.30653 0 9.26625 0 9.11858C0 8.97091 0.148921 8.93064 0.463686 8.93064C1.58398 8.93064 2.91411 8.99441 3.50641 8.99441C4.16302 8.99441 5.49315 8.93064 6.76236 8.93064C9.40571 8.93064 12.9358 8.93064 15.2373 11.3202C16.2933 12.4109 17.2884 14.1494 17.2884 16.643C17.2884 19.2843 16.1681 21.2979 14.9835 22.4894C14.0121 23.4761 11.8121 24.9628 7.90296 24.9628C7.14144 24.9628 6.27499 24.8991 5.47284 24.8387C4.6707 24.7749 3.92948 24.7111 3.40149 24.7111C3.16795 24.7111 2.70427 24.7111 2.19658 24.7313C1.70921 24.7313 1.16091 24.7715 0.737836 24.7715C0.463686 24.7715 0.314765 24.7078 0.314765 24.5635C0.314765 24.4594 0.399379 24.3956 0.653221 24.3956C0.971371 24.3956 1.22521 24.352 1.41475 24.3117C1.83782 24.2278 1.94274 23.7681 2.02736 23.1572C2.13228 22.2779 2.13228 20.62 2.13228 18.6936V15.0052L2.13905 15.0086ZM4.78239 17.3142C4.78239 19.536 4.8027 21.1503 4.82639 21.5497C4.8467 22.0732 4.8907 22.9122 5.05993 23.1438C5.33408 23.5432 6.15991 23.9828 7.8285 23.9828C9.98447 23.9828 11.4229 23.5633 12.6887 22.4726C14.0426 21.3214 14.4656 19.4118 14.4656 17.2538C14.4656 14.5924 13.3453 12.8741 12.4349 12.0149C10.4888 10.1691 8.07896 9.9207 6.43068 9.9207C6.00761 9.9207 5.22577 9.98446 5.05654 10.0684C4.86701 10.1523 4.8027 10.2563 4.8027 10.4879C4.78239 11.1994 4.78239 13.0251 4.78239 14.6797V17.3209V17.3142ZM33.5918 23.372C33.5918 23.9392 33.5715 23.9795 33.3177 24.1272C31.9435 24.8387 29.8722 25.0702 28.2239 25.0702C23.0455 25.0702 18.4594 22.6404 18.4594 16.8544C18.4594 13.5017 20.2126 11.1524 22.1385 10.0012C24.1692 8.78633 26.0476 8.63866 27.8245 8.63866C29.2833 8.63866 31.1448 8.89037 31.5645 8.97427C32.0078 9.05817 32.7491 9.18235 33.2331 9.20584C33.4869 9.22598 33.5275 9.30988 33.5275 9.45755C33.5275 9.68912 33.3786 10.2764 33.3786 12.8942C33.3786 13.2298 33.3143 13.3339 33.1451 13.3339C32.9961 13.3339 32.9555 13.2298 32.9352 13.062C32.8709 12.5787 32.766 11.9109 32.2177 11.3236C31.5848 10.6523 29.8925 9.68912 27.503 9.68912C26.3421 9.68912 24.7987 9.77303 23.3163 10.9879C22.1317 11.9746 21.3702 13.5453 21.3702 16.1228C21.3702 20.6301 24.2673 24.003 28.7248 24.003C29.2731 24.003 30.0143 24.003 30.522 23.7714C30.8402 23.6237 30.9248 23.3519 30.9248 22.9961V21.0261C30.9248 19.979 30.9248 19.1802 30.9045 18.5526C30.8842 17.8411 30.6946 17.5055 29.994 17.3579C29.8248 17.3176 29.466 17.2941 29.1682 17.2941C28.9787 17.2941 28.85 17.2538 28.85 17.1263C28.85 16.9585 28.999 16.9182 29.2934 16.9182C30.3934 16.9182 31.7235 16.982 32.3598 16.982C32.9961 16.982 34.1367 16.9182 34.834 16.9182C35.1081 16.9182 35.257 16.9585 35.257 17.1263C35.257 17.2538 35.1284 17.2941 34.9829 17.2941C34.8137 17.2941 34.6647 17.3142 34.4109 17.3579C33.8389 17.4619 33.6291 17.8177 33.6087 18.5526C33.5884 19.1802 33.5884 20.0193 33.5884 21.0664V23.372H33.5918ZM38.3302 15.0086C38.3302 11.8236 38.3302 11.2363 38.2862 10.5651C38.2456 9.85357 38.0324 9.49447 37.5687 9.39043C37.3352 9.32666 37.061 9.30653 36.8072 9.30653C36.5973 9.30653 36.4687 9.26625 36.4687 9.09845C36.4687 8.97091 36.6379 8.93064 36.9764 8.93064C37.7785 8.93064 39.1121 8.99441 39.7247 8.99441C40.2526 8.99441 41.5016 8.93064 42.3037 8.93064C42.5778 8.93064 42.7471 8.97091 42.7471 9.09845C42.7471 9.26625 42.6185 9.30653 42.4086 9.30653C42.1988 9.30653 42.0295 9.32666 41.7757 9.37029C41.2037 9.47433 41.0345 9.83008 40.9939 10.5651C40.9533 11.2363 40.9533 11.8236 40.9533 15.0086V18.697C40.9533 20.7308 40.9533 22.3853 41.0379 23.2881C41.1022 23.8553 41.2511 24.2312 41.884 24.3151C42.1819 24.3554 42.6455 24.399 42.9637 24.399C43.1972 24.399 43.3021 24.4628 43.3021 24.5668C43.3021 24.7145 43.1329 24.7749 42.8994 24.7749C41.5049 24.7749 40.1714 24.7111 39.6028 24.7111C39.1154 24.7111 37.7853 24.7749 36.9392 24.7749C36.665 24.7749 36.5161 24.7111 36.5161 24.5668C36.5161 24.4628 36.6007 24.399 36.8545 24.399C37.1727 24.399 37.4265 24.3587 37.6161 24.3151C38.0391 24.2312 38.1644 23.8754 38.2287 23.268C38.3336 22.3887 38.3336 20.7308 38.3336 18.697V15.0086H38.3302ZM52.3085 10.4241C52.3085 9.58508 52.3085 9.4307 52.2983 9.25283C52.2882 9.06489 52.2442 8.97763 52.058 8.93735C52.014 8.92728 51.9193 8.92057 51.8414 8.92057C51.7805 8.92057 51.7466 8.9105 51.7466 8.87023C51.7466 8.82996 51.7873 8.81989 51.8685 8.81989C52.1629 8.81989 52.5149 8.83667 52.6706 8.83667C52.8432 8.83667 53.1952 8.81989 53.5303 8.81989C54.2275 8.81989 55.1583 8.81989 55.7641 9.45084C56.0416 9.73947 56.3056 10.1959 56.3056 10.8537C56.3056 11.5484 56.0112 12.082 55.6998 12.3942C55.4426 12.6526 54.8638 13.0452 53.8315 13.0452C53.6318 13.0452 53.4017 13.0285 53.1918 13.0117C52.9786 12.9949 52.7857 12.9781 52.6469 12.9781C52.586 12.9781 52.4642 12.9781 52.3288 12.9848C52.2002 12.9848 52.0546 12.9949 51.9429 12.9949C51.8719 12.9949 51.8312 12.9781 51.8312 12.9379C51.8312 12.911 51.8549 12.8942 51.9192 12.8942C52.0039 12.8942 52.0682 12.8842 52.1189 12.8707C52.2306 12.8472 52.2577 12.7264 52.2814 12.5653C52.3085 12.3337 52.3085 11.8975 52.3085 11.3873V10.414V10.4241ZM53.0057 11.0316C53.0057 11.6189 53.0125 12.0418 53.0159 12.1492C53.0226 12.2868 53.0328 12.5083 53.0768 12.5687C53.1478 12.6727 53.3678 12.7902 53.8078 12.7902C54.3764 12.7902 54.7555 12.6794 55.0906 12.3908C55.446 12.0854 55.5577 11.5853 55.5577 11.0148C55.5577 10.3134 55.2632 9.86029 55.0229 9.63207C54.5118 9.14543 53.8755 9.07831 53.4389 9.07831C53.3272 9.07831 53.1208 9.09509 53.0768 9.11858C53.026 9.14208 53.0091 9.16893 53.0091 9.22934C53.0023 9.41728 53.0023 9.8972 53.0023 10.3335V11.0316H53.0057ZM57.1924 10.8034C57.1924 10.0919 57.1924 9.95761 57.1856 9.80994C57.1755 9.64885 57.1247 9.59515 57.0198 9.56159C56.9656 9.54481 56.9013 9.5381 56.8404 9.5381C56.7896 9.5381 56.7626 9.52803 56.7626 9.48104C56.7626 9.4542 56.8032 9.44077 56.881 9.44077C57.0638 9.44077 57.3989 9.45084 57.5376 9.45084C57.6595 9.45084 57.9776 9.44077 58.1672 9.44077C58.2281 9.44077 58.2687 9.45084 58.2687 9.48104C58.2687 9.52467 58.2416 9.5381 58.1908 9.5381C58.1401 9.5381 58.1029 9.54481 58.0453 9.55488C57.9133 9.57837 57.8727 9.64214 57.8625 9.80994C57.8524 9.95761 57.8524 10.0919 57.8524 10.8034V11.6323C57.8524 12.0854 57.8524 12.4613 57.8761 12.6593C57.893 12.7868 57.9269 12.8573 58.0724 12.8808C58.1401 12.8909 58.2518 12.8976 58.3228 12.8976C58.377 12.8976 58.4007 12.9244 58.4007 12.9479C58.4007 12.9815 58.3601 12.9983 58.3059 12.9983C57.981 12.9983 57.6493 12.9815 57.5139 12.9815C57.4022 12.9815 57.0672 12.9983 56.8743 12.9983C56.8133 12.9983 56.7795 12.9815 56.7795 12.9479C56.7795 12.9244 56.7964 12.8976 56.8573 12.8976C56.9284 12.8976 56.9859 12.8909 57.0299 12.8808C57.1315 12.8573 57.1586 12.7935 57.1755 12.6526C57.1992 12.4579 57.1992 12.082 57.1992 11.629V10.8L57.1924 10.8034ZM59.4634 10.8034C59.4634 10.0919 59.4634 9.95761 59.4567 9.80994C59.4465 9.64885 59.3991 9.59851 59.2434 9.55488C59.2028 9.54481 59.1216 9.5381 59.0471 9.5381C58.9964 9.5381 58.9625 9.52132 58.9625 9.48776C58.9625 9.4542 59.0031 9.44413 59.0742 9.44413C59.3314 9.44413 59.6428 9.4542 59.7444 9.4542C59.9102 9.4542 60.357 9.44413 60.5093 9.44413C60.8207 9.44413 61.1794 9.47098 61.44 9.64214C61.5788 9.73611 61.7853 9.97439 61.7853 10.2899C61.7853 10.6389 61.5856 10.9477 61.105 11.3303C61.5382 11.8605 61.8834 12.2868 62.1813 12.5787C62.4554 12.8506 62.628 12.8707 62.7059 12.8875C62.7566 12.8976 62.7837 12.8976 62.8243 12.8976C62.8649 12.8976 62.8852 12.9244 62.8852 12.9479C62.8852 12.9882 62.8514 12.9983 62.7905 12.9983H62.3234C62.0493 12.9983 61.9173 12.9714 61.7886 12.9043C61.5754 12.8002 61.3926 12.5787 61.1185 12.2129C60.9222 11.9579 60.7157 11.6424 60.6548 11.5719C60.6277 11.5451 60.6007 11.5383 60.5668 11.5383L60.1268 11.5283C60.1031 11.5283 60.0862 11.5383 60.0862 11.5686V11.6357C60.0862 12.072 60.093 12.4378 60.1133 12.6358C60.1302 12.7734 60.1539 12.8607 60.3028 12.8842C60.3739 12.8942 60.4822 12.9009 60.5431 12.9009C60.5837 12.9009 60.604 12.9278 60.604 12.9513C60.604 12.9848 60.5634 13.0016 60.5025 13.0016C60.2182 13.0016 59.8121 12.9848 59.7376 12.9848C59.6428 12.9848 59.3314 13.0016 59.1351 13.0016C59.0742 13.0016 59.0404 12.9848 59.0404 12.9513C59.0404 12.9278 59.0573 12.9009 59.1182 12.9009C59.1893 12.9009 59.2468 12.8942 59.2908 12.8842C59.3924 12.8607 59.4195 12.7734 59.4364 12.6358C59.4601 12.4378 59.4601 12.0653 59.4601 11.6357V10.8067L59.4634 10.8034ZM60.0862 11.1692C60.0862 11.2195 60.0964 11.2363 60.1302 11.2531C60.2351 11.2866 60.3807 11.2967 60.5025 11.2967C60.6988 11.2967 60.7631 11.2799 60.8477 11.2195C61 11.1155 61.1659 10.9108 61.1659 10.5248C61.1659 9.86029 60.709 9.68912 60.4179 9.68912C60.2961 9.68912 60.1776 9.69584 60.1268 9.7059C60.093 9.71597 60.0828 9.73275 60.0828 9.77303V11.1725L60.0862 11.1692ZM63.288 10.8034C63.288 10.0919 63.288 9.95761 63.2812 9.80994C63.2711 9.64885 63.2237 9.59851 63.068 9.55488C63.0274 9.54481 62.9462 9.5381 62.8717 9.5381C62.8209 9.5381 62.7871 9.52132 62.7871 9.48776C62.7871 9.4542 62.8277 9.44413 62.8988 9.44413C63.156 9.44413 63.4674 9.4542 63.6062 9.4542C63.7618 9.4542 64.8483 9.46091 64.9431 9.4542C65.0311 9.44748 65.1089 9.4307 65.1495 9.42735C65.1766 9.42063 65.2071 9.40385 65.2274 9.40385C65.2544 9.40385 65.2612 9.42735 65.2612 9.44748C65.2612 9.48104 65.2341 9.53474 65.2206 9.75289C65.2138 9.80323 65.2037 10.008 65.1935 10.0617C65.1867 10.0851 65.1766 10.1388 65.1394 10.1388C65.1055 10.1388 65.0987 10.1154 65.0987 10.0784C65.0987 10.0449 65.092 9.96097 65.0649 9.90727C65.0243 9.82337 64.9871 9.7596 64.74 9.73611C64.6554 9.72604 64.0698 9.71262 63.9717 9.71262C63.948 9.71262 63.9378 9.7294 63.9378 9.75625V10.9175C63.9378 10.9443 63.9446 10.9678 63.9717 10.9678C64.0834 10.9678 64.7197 10.9678 64.8314 10.9577C64.9498 10.9477 65.0209 10.9342 65.0649 10.8873C65.1055 10.8537 65.1191 10.8269 65.1428 10.8269C65.1664 10.8269 65.1834 10.8503 65.1834 10.8772C65.1834 10.904 65.1732 10.9812 65.1428 11.2195C65.1326 11.3135 65.1191 11.5014 65.1191 11.535C65.1191 11.5753 65.1123 11.639 65.0683 11.639C65.0344 11.639 65.0243 11.6223 65.0243 11.5988C65.0175 11.5484 65.0175 11.488 65.0074 11.4276C64.9803 11.3336 64.9194 11.2631 64.7332 11.2464C64.6452 11.2363 64.0868 11.2229 63.9649 11.2229C63.9412 11.2229 63.9378 11.2464 63.9378 11.2732V11.6491C63.9378 11.8102 63.9311 12.2062 63.9378 12.3438C63.948 12.666 64.1003 12.7365 64.6012 12.7365C64.7298 12.7365 64.9363 12.7298 65.0649 12.6761C65.1867 12.619 65.2443 12.5217 65.2747 12.327C65.2849 12.2767 65.2984 12.2566 65.3323 12.2566C65.3729 12.2566 65.3763 12.317 65.3763 12.3673C65.3763 12.4713 65.3357 12.7935 65.3086 12.8875C65.2747 13.0083 65.2307 13.0083 65.048 13.0083C64.6791 13.0083 64.3846 13.0016 64.1443 12.9915C63.904 12.9848 63.7212 12.9815 63.5757 12.9815C63.5182 12.9815 63.4132 12.9882 63.2982 12.9882C63.1797 12.9949 63.0579 12.9983 62.9597 12.9983C62.8988 12.9983 62.8649 12.9815 62.8649 12.9479C62.8649 12.9244 62.8819 12.8976 62.9428 12.8976C63.0139 12.8976 63.0714 12.8909 63.1154 12.8808C63.2169 12.8573 63.244 12.77 63.2609 12.6324C63.2846 12.4344 63.2846 12.0619 63.2846 11.6323V10.8034H63.288ZM66.5744 12.5519C66.0904 12.1492 65.9618 11.6189 65.9618 11.1658C65.9618 10.8436 66.0667 10.2932 66.5372 9.87707C66.8926 9.5683 67.363 9.38036 68.0907 9.38036C68.3987 9.38036 68.5815 9.40385 68.8048 9.4307C68.9876 9.45755 69.1501 9.49111 69.2956 9.50789C69.3531 9.51461 69.3667 9.53474 69.3667 9.56495C69.3667 9.60522 69.3565 9.65892 69.343 9.82337C69.3328 9.97775 69.3328 10.2395 69.3261 10.3335C69.3193 10.4006 69.3024 10.451 69.2584 10.451C69.2178 10.451 69.2076 10.4107 69.2076 10.3503C69.2008 10.2026 69.1399 10.0348 69.0181 9.91398C68.8522 9.75289 68.5205 9.63878 68.0704 9.63878C67.6203 9.63878 67.3664 9.71597 67.1464 9.90392C66.7843 10.2127 66.6963 10.6658 66.6963 11.1255C66.6963 12.2431 67.5661 12.7734 68.2227 12.7734C68.6559 12.7734 68.8962 12.7398 69.0925 12.525C69.1772 12.4311 69.2415 12.3002 69.2584 12.2096C69.2685 12.1391 69.2821 12.1156 69.3193 12.1156C69.3532 12.1156 69.3768 12.1592 69.3768 12.1995C69.3768 12.2566 69.3193 12.6626 69.2719 12.8237C69.2482 12.9076 69.2279 12.9278 69.1433 12.9613C68.947 13.0385 68.5747 13.0654 68.2565 13.0654C67.5864 13.0654 67.0178 12.9278 66.5744 12.5586V12.5519ZM70.5073 12.5519C70.0233 12.1492 69.8947 11.6189 69.8947 11.1658C69.8947 10.8436 69.9996 10.2932 70.4701 9.87707C70.8254 9.5683 71.2959 9.38036 72.0236 9.38036C72.3316 9.38036 72.5143 9.40385 72.7377 9.4307C72.9205 9.45755 73.0829 9.49111 73.2285 9.50789C73.286 9.51461 73.2996 9.53474 73.2996 9.56495C73.2996 9.60522 73.2894 9.65892 73.2759 9.82337C73.2657 9.97775 73.2657 10.2395 73.2589 10.3335C73.2522 10.4006 73.2353 10.451 73.1913 10.451C73.1506 10.451 73.1405 10.4107 73.1405 10.3503C73.1337 10.2026 73.0728 10.0348 72.9509 9.91398C72.7851 9.75289 72.4534 9.63878 72.0033 9.63878C71.5531 9.63878 71.2993 9.71597 71.0793 9.90392C70.7171 10.2127 70.6291 10.6658 70.6291 11.1255C70.6291 12.2431 71.499 12.7734 72.1556 12.7734C72.5888 12.7734 72.8291 12.7398 73.0254 12.525C73.11 12.4311 73.1743 12.3002 73.1913 12.2096C73.2014 12.1391 73.2149 12.1156 73.2522 12.1156C73.286 12.1156 73.3097 12.1592 73.3097 12.1995C73.3097 12.2566 73.2522 12.6626 73.2048 12.8237C73.1811 12.9076 73.1608 12.9278 73.0762 12.9613C72.8799 13.0385 72.5076 13.0654 72.1894 13.0654C71.5193 13.0654 70.9507 12.9278 70.5073 12.5586V12.5519ZM74.3589 10.8034C74.3589 10.0919 74.3589 9.95761 74.3522 9.80994C74.342 9.64885 74.2912 9.59515 74.1863 9.56159C74.1288 9.54481 74.0679 9.5381 74.0069 9.5381C73.9562 9.5381 73.9291 9.52803 73.9291 9.48104C73.9291 9.4542 73.9697 9.44077 74.0475 9.44077C74.2303 9.44077 74.5654 9.45084 74.7042 9.45084C74.826 9.45084 75.1441 9.44077 75.3337 9.44077C75.3946 9.44077 75.4352 9.45084 75.4352 9.48104C75.4352 9.52467 75.4081 9.5381 75.3574 9.5381C75.3066 9.5381 75.2694 9.54481 75.2118 9.55488C75.0765 9.57837 75.0392 9.64214 75.0291 9.80994C75.0189 9.95761 75.0189 10.0919 75.0189 10.8034V11.6323C75.0189 12.0854 75.0189 12.4613 75.0426 12.6593C75.0595 12.7868 75.0934 12.8573 75.2389 12.8808C75.3066 12.8909 75.4183 12.8976 75.4894 12.8976C75.5469 12.8976 75.5672 12.9244 75.5672 12.9479C75.5672 12.9815 75.5266 12.9983 75.4724 12.9983C75.1475 12.9983 74.8158 12.9815 74.6805 12.9815C74.5688 12.9815 74.2337 12.9983 74.0408 12.9983C73.9799 12.9983 73.946 12.9815 73.946 12.9479C73.946 12.9244 73.9629 12.8976 74.0239 12.8976C74.0949 12.8976 74.1525 12.8909 74.1965 12.8808C74.298 12.8573 74.3251 12.7935 74.342 12.6526C74.3657 12.4579 74.3657 12.082 74.3657 11.629V10.8L74.3589 10.8034ZM76.0377 11.2195C76.0377 10.4174 76.6063 9.38036 78.0955 9.38036C79.3309 9.38036 80.1025 10.0583 80.1025 11.139C80.1025 12.2196 79.3105 13.062 78.0447 13.062C76.6198 13.062 76.0377 12.0552 76.0377 11.2229V11.2195ZM79.3681 11.3068C79.3681 10.2664 78.7385 9.62536 77.9466 9.62536C77.4016 9.62536 76.7586 9.91398 76.7586 11.0718C76.7586 12.0384 77.317 12.8003 78.241 12.8003C78.5862 12.8003 79.3681 12.6392 79.3681 11.3034V11.3068ZM78.9958 8.56147C79.0296 8.62859 78.9958 8.64537 78.9687 8.64537C78.9416 8.64537 78.8909 8.6353 78.7792 8.64537C78.4712 8.68564 78.0312 8.86016 77.8247 8.97091C77.7807 8.99441 77.7401 9.01454 77.73 9.01454C77.7198 9.01454 77.6961 9.00447 77.6961 8.98098C77.6961 8.95749 77.7198 8.93735 77.7469 8.9105C77.9703 8.69907 78.5558 8.26948 78.6438 8.21243C78.6979 8.17216 78.7385 8.16209 78.7555 8.16209C78.7961 8.16209 78.8062 8.17887 78.8333 8.22921C78.8773 8.3064 78.9281 8.41044 78.9958 8.56147ZM81.321 12.3572C81.3311 12.7231 81.3921 12.8338 81.4868 12.864C81.5714 12.8909 81.6662 12.8976 81.744 12.8976C81.7982 12.8976 81.8287 12.9211 81.8287 12.9479C81.8287 12.9882 81.7847 12.9983 81.717 12.9983C81.3988 12.9983 81.1721 12.9815 81.0807 12.9815C81.0367 12.9815 80.8031 12.9983 80.5527 12.9983C80.485 12.9983 80.441 12.9915 80.441 12.9479C80.441 12.9211 80.4748 12.8976 80.5188 12.8976C80.5865 12.8976 80.6745 12.8909 80.7422 12.8741C80.8708 12.8405 80.8878 12.713 80.8911 12.3035L80.9351 9.51796C80.9351 9.42399 80.969 9.35687 81.0197 9.35687C81.0807 9.35687 81.1484 9.42735 81.233 9.51125C81.2939 9.57166 82.0284 10.3167 82.7425 11.0081C83.0776 11.3336 83.7274 11.9981 83.8019 12.0619H83.8256L83.7748 9.97439C83.768 9.68577 83.724 9.60522 83.6089 9.56159C83.5379 9.53474 83.4194 9.53474 83.3517 9.53474C83.2908 9.53474 83.2739 9.51125 83.2739 9.4844C83.2739 9.44413 83.3246 9.44077 83.3957 9.44077C83.6529 9.44077 83.9136 9.45084 84.0185 9.45084C84.076 9.45084 84.2588 9.44077 84.4991 9.44077C84.5668 9.44077 84.6108 9.44748 84.6108 9.4844C84.6108 9.51125 84.5837 9.53474 84.5262 9.53474C84.4754 9.53474 84.4382 9.53474 84.3739 9.55152C84.2419 9.5918 84.2012 9.67234 84.1945 9.93748L84.1369 12.9009C84.1369 13.005 84.0963 13.0486 84.0591 13.0486C83.9745 13.0486 83.9102 12.9983 83.8594 12.9479C83.5514 12.666 82.9388 12.0854 82.4277 11.5954C81.893 11.0886 81.3751 10.5181 81.2804 10.4342H81.2634L81.321 12.3505V12.3572ZM55.693 18.4553C55.693 18.603 55.6863 18.6164 55.622 18.6533C55.2598 18.8413 54.7149 18.9017 54.2783 18.9017C52.9143 18.9017 51.7026 18.2607 51.7026 16.737C51.7026 15.8543 52.1663 15.2334 52.6706 14.9314C53.2054 14.6092 53.7029 14.5723 54.17 14.5723C54.5558 14.5723 55.0432 14.6394 55.1549 14.6595C55.2734 14.683 55.4663 14.7132 55.5949 14.72C55.6626 14.7267 55.6727 14.7468 55.6727 14.7871C55.6727 14.8475 55.6321 15.0019 55.6321 15.6932C55.6321 15.7805 55.6152 15.8107 55.5712 15.8107C55.5306 15.8107 55.5204 15.7838 55.5137 15.7402C55.4967 15.6127 55.4697 15.4348 55.3241 15.2804C55.1583 15.1025 54.7115 14.8508 54.082 14.8508C53.774 14.8508 53.3678 14.8743 52.9786 15.1932C52.6672 15.4516 52.4675 15.8677 52.4675 16.5457C52.4675 17.7337 53.2325 18.6231 54.4069 18.6231C54.5524 18.6231 54.7454 18.6231 54.8807 18.5627C54.9654 18.5224 54.9857 18.452 54.9857 18.358V17.8378C54.9857 17.5626 54.9857 17.3512 54.9789 17.1867C54.9721 16.9988 54.9214 16.9115 54.7386 16.8712C54.6946 16.8612 54.5998 16.8544 54.522 16.8544C54.4712 16.8544 54.4374 16.8444 54.4374 16.8108C54.4374 16.7672 54.478 16.7538 54.5558 16.7538C54.8469 16.7538 55.1955 16.7705 55.3647 16.7705C55.534 16.7705 55.8318 16.7538 56.018 16.7538C56.089 16.7538 56.1296 16.7638 56.1296 16.8108C56.1296 16.8444 56.0958 16.8544 56.0586 16.8544C56.0146 16.8544 55.974 16.8612 55.9063 16.8712C55.7573 16.8981 55.6998 16.992 55.6964 17.1867C55.6897 17.3512 55.6897 17.5727 55.6897 17.8512V18.4587L55.693 18.4553ZM57.0266 16.6329C57.0266 15.9214 57.0266 15.7872 57.0198 15.6395C57.0096 15.4784 56.9656 15.4281 56.8066 15.3845C56.7659 15.3744 56.6847 15.3677 56.6103 15.3677C56.5595 15.3677 56.5256 15.3509 56.5256 15.3173C56.5256 15.2838 56.5663 15.2737 56.6373 15.2737C56.8946 15.2737 57.2059 15.2838 57.3447 15.2838C57.5004 15.2838 58.5868 15.2905 58.6816 15.2838C58.7696 15.2771 58.8475 15.2603 58.8881 15.2569C58.9151 15.2502 58.9422 15.2334 58.9659 15.2334C58.993 15.2334 58.9998 15.2569 58.9998 15.2771C58.9998 15.3106 58.9727 15.3643 58.9591 15.5825C58.9524 15.6328 58.9422 15.8375 58.9321 15.8912C58.9253 15.9147 58.9151 15.9684 58.8745 15.9684C58.8407 15.9684 58.8339 15.9449 58.8339 15.908C58.8339 15.8745 58.8271 15.7906 58.8001 15.7369C58.7595 15.653 58.7222 15.5892 58.4752 15.5657C58.3905 15.5556 57.805 15.5422 57.7069 15.5422C57.6832 15.5422 57.673 15.559 57.673 15.5858V16.747C57.673 16.7739 57.6798 16.7974 57.7069 16.7974C57.8185 16.7974 58.4548 16.7974 58.5665 16.7873C58.685 16.7773 58.7561 16.7638 58.8001 16.7168C58.8407 16.6833 58.8576 16.6564 58.8779 16.6564C58.8982 16.6564 58.9185 16.6799 58.9185 16.7068C58.9185 16.7336 58.9084 16.8108 58.8779 17.0491C58.8678 17.1431 58.8542 17.331 58.8542 17.3646C58.8542 17.4048 58.8475 17.4686 58.8035 17.4686C58.7696 17.4686 58.7595 17.4518 58.7595 17.4283C58.7527 17.378 58.7527 17.3176 58.7425 17.2572C58.7155 17.1632 58.6545 17.0927 58.4684 17.0759C58.3804 17.0659 57.8219 17.0525 57.7001 17.0525C57.6764 17.0525 57.673 17.0759 57.673 17.1028V17.4787C57.673 17.6398 57.6662 18.0358 57.673 18.1734C57.6832 18.4956 57.8355 18.5661 58.3364 18.5661C58.465 18.5661 58.6715 18.5594 58.8001 18.5057C58.9219 18.4486 58.9795 18.3513 59.0133 18.1566C59.0235 18.1063 59.037 18.0861 59.0674 18.0861C59.1081 18.0861 59.1115 18.1466 59.1115 18.1969C59.1115 18.3009 59.0708 18.6231 59.0438 18.7171C59.0099 18.8379 58.9659 18.8379 58.7831 18.8379C58.4142 18.8379 58.1198 18.8312 57.8795 18.8211C57.6392 18.8144 57.4564 18.8111 57.3109 18.8111C57.2533 18.8111 57.1484 18.8178 57.0333 18.8178C56.9149 18.8245 56.793 18.8278 56.6949 18.8278C56.6339 18.8278 56.6001 18.8111 56.6001 18.7775C56.6001 18.754 56.617 18.7272 56.6779 18.7272C56.749 18.7272 56.8066 18.7204 56.8506 18.7104C56.9521 18.6869 56.9792 18.5996 56.9961 18.462C57.0198 18.264 57.0198 17.8915 57.0198 17.4619V16.6329H57.0266ZM60.4314 18.1868C60.4416 18.5526 60.5025 18.6634 60.5973 18.6936C60.6819 18.7204 60.7767 18.7272 60.8545 18.7272C60.9087 18.7272 60.9391 18.7507 60.9391 18.7775C60.9391 18.8178 60.8951 18.8278 60.8274 18.8278C60.5093 18.8278 60.2825 18.8111 60.1911 18.8111C60.1471 18.8111 59.9136 18.8278 59.6631 18.8278C59.5954 18.8278 59.5514 18.8211 59.5514 18.7775C59.5514 18.7507 59.5853 18.7272 59.6293 18.7272C59.697 18.7272 59.785 18.7204 59.8527 18.7037C59.9813 18.6701 59.9982 18.5426 60.0016 18.1331L60.0456 15.3475C60.0456 15.2536 60.0794 15.1865 60.1302 15.1865C60.1911 15.1865 60.2588 15.2569 60.3434 15.3408C60.4044 15.4012 61.1388 16.1463 61.853 16.8377C62.188 17.1632 62.8412 17.8277 62.9123 17.8915H62.936L62.8852 15.804C62.8785 15.5154 62.8345 15.4348 62.7194 15.3912C62.6483 15.3643 62.5299 15.3643 62.4622 15.3643C62.4012 15.3643 62.3843 15.3408 62.3843 15.314C62.3843 15.2737 62.4351 15.2704 62.5062 15.2704C62.7634 15.2704 63.024 15.2804 63.1289 15.2804C63.1865 15.2804 63.3692 15.2704 63.6095 15.2704C63.6772 15.2704 63.7212 15.2771 63.7212 15.314C63.7212 15.3408 63.6942 15.3643 63.6366 15.3643C63.5858 15.3643 63.5486 15.3643 63.4877 15.3811C63.3557 15.4214 63.3151 15.5019 63.3083 15.7671L63.2508 18.7305C63.2508 18.8346 63.2102 18.8782 63.1729 18.8782C63.0883 18.8782 63.024 18.8278 62.9732 18.7775C62.6652 18.4956 62.0526 17.915 61.5416 17.425C61.0068 16.9182 60.489 16.3477 60.3942 16.2638H60.3773L60.4314 18.1801V18.1868ZM64.8144 16.6329C64.8144 15.9214 64.8144 15.7872 64.8077 15.6395C64.7975 15.4784 64.7535 15.4281 64.5944 15.3845C64.5538 15.3744 64.4726 15.3677 64.3981 15.3677C64.3474 15.3677 64.3135 15.3509 64.3135 15.3173C64.3135 15.2838 64.3541 15.2737 64.4252 15.2737C64.6824 15.2737 64.9938 15.2838 65.1326 15.2838C65.2883 15.2838 66.3747 15.2905 66.4695 15.2838C66.5575 15.2771 66.6353 15.2603 66.676 15.2569C66.703 15.2502 66.7301 15.2334 66.7538 15.2334C66.7809 15.2334 66.7877 15.2569 66.7877 15.2771C66.7877 15.3106 66.7606 15.3643 66.747 15.5825C66.7403 15.6328 66.7301 15.8375 66.72 15.8912C66.7132 15.9147 66.703 15.9684 66.6624 15.9684C66.6286 15.9684 66.6218 15.9449 66.6218 15.908C66.6218 15.8745 66.615 15.7906 66.588 15.7369C66.5473 15.653 66.5101 15.5892 66.263 15.5657C66.1784 15.5556 65.5929 15.5422 65.4947 15.5422C65.4711 15.5422 65.4609 15.559 65.4609 15.5858V16.747C65.4609 16.7739 65.4677 16.7974 65.4947 16.7974C65.6064 16.7974 66.2427 16.7974 66.3544 16.7873C66.4729 16.7773 66.544 16.7638 66.588 16.7168C66.6286 16.6833 66.6455 16.6564 66.6658 16.6564C66.6861 16.6564 66.7064 16.6799 66.7064 16.7068C66.7064 16.7336 66.6963 16.8108 66.6658 17.0491C66.6557 17.1431 66.6421 17.331 66.6421 17.3646C66.6421 17.4048 66.6353 17.4686 66.5913 17.4686C66.5575 17.4686 66.5473 17.4518 66.5473 17.4283C66.5406 17.378 66.5406 17.3176 66.5304 17.2572C66.5033 17.1632 66.4424 17.0927 66.2563 17.0759C66.1683 17.0659 65.6098 17.0525 65.488 17.0525C65.4643 17.0525 65.4609 17.0759 65.4609 17.1028V17.4787C65.4609 17.6398 65.4541 18.0358 65.4609 18.1734C65.4711 18.4956 65.6234 18.5661 66.1243 18.5661C66.2529 18.5661 66.4593 18.5594 66.588 18.5057C66.7098 18.4486 66.7673 18.3513 66.8012 18.1566C66.8113 18.1063 66.8249 18.0861 66.8553 18.0861C66.896 18.0861 66.8993 18.1466 66.8993 18.1969C66.8993 18.3009 66.8587 18.6231 66.8316 18.7171C66.7978 18.8379 66.7538 18.8379 66.571 18.8379C66.2021 18.8379 65.9077 18.8312 65.6674 18.8211C65.4271 18.8144 65.2443 18.8111 65.0987 18.8111C65.0412 18.8111 64.9363 18.8178 64.8212 18.8178C64.7028 18.8245 64.5809 18.8278 64.4828 18.8278C64.4218 18.8278 64.388 18.8111 64.388 18.7775C64.388 18.754 64.4049 18.7272 64.4658 18.7272C64.5369 18.7272 64.5944 18.7204 64.6384 18.7104C64.74 18.6869 64.7671 18.5996 64.784 18.462C64.8077 18.264 64.8077 17.8915 64.8077 17.4619V16.6329H64.8144ZM67.9147 16.6329C67.9147 15.9214 67.9147 15.7872 67.9079 15.6395C67.8978 15.4784 67.8538 15.4281 67.6947 15.3845C67.6541 15.3744 67.5729 15.3677 67.4984 15.3677C67.4476 15.3677 67.4138 15.3509 67.4138 15.3173C67.4138 15.2838 67.4544 15.2737 67.5255 15.2737C67.7827 15.2737 68.0941 15.2838 68.1956 15.2838C68.3615 15.2838 68.8082 15.2737 68.9605 15.2737C69.2719 15.2737 69.6307 15.3006 69.8913 15.4717C70.0301 15.5657 70.2365 15.804 70.2365 16.1195C70.2365 16.4685 70.0368 16.7773 69.5562 17.1599C69.9894 17.6901 70.3347 18.1163 70.6325 18.4083C70.9067 18.6802 71.0793 18.7003 71.1571 18.7171C71.2079 18.7272 71.235 18.7272 71.2756 18.7272C71.3162 18.7272 71.3365 18.754 71.3365 18.7775C71.3365 18.8178 71.3027 18.8278 71.2417 18.8278H70.7747C70.5005 18.8278 70.3685 18.801 70.2399 18.7339C70.0301 18.6298 69.8439 18.4083 69.5698 18.0425C69.3735 17.7874 69.167 17.472 69.1061 17.4015C69.079 17.3746 69.0485 17.3679 69.0181 17.3679L68.5781 17.3579C68.5544 17.3579 68.5375 17.3679 68.5375 17.3981V17.4653C68.5375 17.9016 68.5442 18.2674 68.5645 18.4654C68.5815 18.603 68.6052 18.6902 68.7541 18.7137C68.8252 18.7238 68.9335 18.7305 68.9944 18.7305C69.035 18.7305 69.0553 18.7574 69.0553 18.7809C69.0553 18.8144 69.0147 18.8312 68.9538 18.8312C68.6695 18.8312 68.2633 18.8144 68.1889 18.8144C68.0941 18.8144 67.7827 18.8312 67.5864 18.8312C67.5255 18.8312 67.4916 18.8144 67.4916 18.7809C67.4916 18.7574 67.5086 18.7305 67.5695 18.7305C67.6406 18.7305 67.6981 18.7238 67.7421 18.7137C67.8436 18.6902 67.8707 18.603 67.8876 18.4654C67.9113 18.2674 67.9113 17.8948 67.9113 17.4653V16.6363L67.9147 16.6329ZM68.5375 16.9988C68.5375 17.0491 68.5476 17.0659 68.5815 17.0827C68.6864 17.1162 68.8319 17.1263 68.9538 17.1263C69.1501 17.1263 69.2144 17.1095 69.299 17.0491C69.4479 16.9451 69.6171 16.7403 69.6171 16.3544C69.6171 15.6899 69.1602 15.5187 68.8692 15.5187C68.7473 15.5187 68.6289 15.5254 68.5781 15.5355C68.5442 15.5456 68.5341 15.5623 68.5341 15.6026V17.0021L68.5375 16.9988ZM71.9491 17.6431C71.922 17.6431 71.9153 17.6498 71.9051 17.6767L71.6445 18.3076C71.5937 18.4251 71.5734 18.5392 71.5734 18.5963C71.5734 18.6802 71.6174 18.7305 71.7697 18.7305H71.8408C71.9017 18.7305 71.9119 18.754 71.9119 18.7809C71.9119 18.8211 71.8848 18.8312 71.834 18.8312C71.6716 18.8312 71.4448 18.8144 71.2891 18.8144C71.2384 18.8144 70.9777 18.8312 70.7205 18.8312C70.6596 18.8312 70.6325 18.8211 70.6325 18.7809C70.6325 18.754 70.6494 18.7305 70.6901 18.7305C70.7341 18.7305 70.7916 18.7238 70.8356 18.7238C71.059 18.6902 71.1436 18.5459 71.2417 18.311L72.5245 15.3543C72.5786 15.22 72.6193 15.1663 72.67 15.1663C72.7411 15.1663 72.7648 15.2099 72.8156 15.314C72.934 15.5724 73.7531 17.4955 74.0645 18.2103C74.254 18.6365 74.3928 18.697 74.4808 18.7137C74.5518 18.7238 74.6094 18.7305 74.6635 18.7305C74.7075 18.7305 74.7312 18.7473 74.7312 18.7809C74.7312 18.8211 74.7042 18.8312 74.518 18.8312C74.3454 18.8312 73.99 18.8312 73.5771 18.8211C73.4891 18.8144 73.4316 18.8144 73.4316 18.7809C73.4316 18.754 73.4417 18.7372 73.4925 18.7305C73.5263 18.7238 73.5602 18.6802 73.5365 18.6265L73.1574 17.6801C73.1472 17.6532 73.1303 17.6465 73.1066 17.6465H71.9525L71.9491 17.6431ZM72.9983 17.3847C73.022 17.3847 73.0254 17.3746 73.022 17.3579L72.5583 16.1631C72.5583 16.1631 72.5482 16.1195 72.5346 16.1195C72.5177 16.1195 72.511 16.1463 72.5076 16.1631L72.0337 17.3512C72.0236 17.3746 72.0337 17.3847 72.0506 17.3847H72.9983ZM75.9192 17.4619C75.9192 18.0626 75.9192 18.3613 76.0241 18.452C76.1087 18.5224 76.2983 18.5526 76.6773 18.5526C76.938 18.5526 77.1275 18.5459 77.2527 18.4184C77.3137 18.358 77.3644 18.2237 77.3746 18.1365C77.3813 18.0929 77.3915 18.066 77.4321 18.066C77.466 18.066 77.4761 18.1163 77.4761 18.17C77.4761 18.2237 77.4423 18.5728 77.405 18.7104C77.3712 18.8144 77.3475 18.8379 77.0937 18.8379C76.7417 18.8379 76.4574 18.8312 76.2137 18.8211C75.97 18.8144 75.7635 18.8111 75.5604 18.8111C75.5029 18.8111 75.398 18.8178 75.2829 18.8178C75.1644 18.8245 75.0426 18.8278 74.9445 18.8278C74.8835 18.8278 74.8497 18.8111 74.8497 18.7775C74.8497 18.754 74.8666 18.7272 74.9275 18.7272C74.9986 18.7272 75.0561 18.7204 75.1001 18.7104C75.2017 18.6869 75.2288 18.5996 75.2457 18.462C75.2694 18.264 75.2694 17.8915 75.2694 17.4619V16.6329C75.2694 15.9214 75.2694 15.7872 75.2626 15.6395C75.2524 15.4784 75.2051 15.4281 75.0494 15.3845C75.0088 15.3744 74.9478 15.3677 74.8869 15.3677C74.8294 15.3677 74.8023 15.3509 74.8023 15.3173C74.8023 15.2838 74.8361 15.2737 74.9072 15.2737C75.134 15.2737 75.4488 15.2838 75.5808 15.2838C75.6992 15.2838 76.0986 15.2737 76.2881 15.2737C76.3592 15.2737 76.393 15.2838 76.393 15.3173C76.393 15.3509 76.366 15.3677 76.3051 15.3677C76.2509 15.3677 76.1731 15.3744 76.1155 15.3845C75.9801 15.408 75.9429 15.4717 75.9327 15.6395C75.9226 15.7872 75.9226 15.9214 75.9226 16.6329V17.4619H75.9192ZM52.3085 22.0799C52.3085 21.2409 52.3085 21.0865 52.2983 20.9086C52.2882 20.7207 52.2306 20.6267 52.1088 20.5999C52.0479 20.5831 51.9768 20.5764 51.9091 20.5764C51.8549 20.5764 51.8211 20.5663 51.8211 20.5227C51.8211 20.4891 51.8651 20.4791 51.9531 20.4791C52.1663 20.4791 52.5149 20.4958 52.6774 20.4958C52.8162 20.4958 53.1445 20.4791 53.3577 20.4791C53.4288 20.4791 53.4761 20.4891 53.4761 20.5227C53.4761 20.5663 53.4423 20.5764 53.3882 20.5764C53.334 20.5764 53.2866 20.5831 53.2223 20.5932C53.0734 20.62 53.026 20.714 53.0159 20.9086C53.0057 21.0865 53.0057 21.2409 53.0057 22.0799V23.0532C53.0057 23.5902 53.0057 24.0265 53.0294 24.2648C53.0463 24.4124 53.0869 24.5131 53.2528 24.5366C53.3306 24.5467 53.4525 24.5601 53.5371 24.5601C53.598 24.5601 53.6251 24.5769 53.6251 24.6037C53.6251 24.644 53.5811 24.6608 53.5201 24.6608C53.1512 24.6608 52.8026 24.644 52.6503 24.644C52.5217 24.644 52.1697 24.6608 51.9463 24.6608C51.8752 24.6608 51.8346 24.644 51.8346 24.6037C51.8346 24.5769 51.8583 24.5601 51.9226 24.5601C52.0072 24.5601 52.0716 24.55 52.1223 24.5366C52.234 24.5131 52.2679 24.4191 52.2848 24.2614C52.3119 24.0298 52.3119 23.5935 52.3119 23.0566V22.0833L52.3085 22.0799ZM54.901 21.1201C54.9112 21.0429 54.9586 20.9993 54.9958 20.9993C55.0466 20.9993 55.0804 21.0227 55.1447 21.1469L56.4613 23.7647L57.7779 21.1134C57.8185 21.0362 57.8625 20.9959 57.9065 20.9959C57.9472 20.9959 58.0013 21.0462 58.0182 21.1436L58.465 24.0433C58.509 24.3352 58.553 24.4628 58.7053 24.5064C58.8441 24.5467 58.9219 24.55 58.9828 24.55C59.0268 24.55 59.0607 24.5668 59.0607 24.5937C59.0607 24.6339 59.0065 24.6507 58.9321 24.6507C58.8102 24.6507 58.113 24.6272 57.9167 24.6172C57.7982 24.6104 57.7712 24.5903 57.7712 24.5635C57.7712 24.54 57.7949 24.5232 57.8287 24.5131C57.8558 24.503 57.8693 24.446 57.8524 24.3151L57.5782 22.2813H57.5613L56.5087 24.3822C56.397 24.6037 56.37 24.6474 56.3124 24.6474C56.2515 24.6474 56.194 24.5534 56.1161 24.4091C55.9976 24.1943 55.6084 23.4761 55.5543 23.3418C55.5137 23.2546 55.226 22.6605 55.0635 22.335H55.0466L54.8131 24.1708C54.8029 24.2547 54.7961 24.3151 54.7961 24.3923C54.7961 24.4796 54.8638 24.5131 54.9451 24.5299C55.0297 24.5467 55.0737 24.5534 55.1177 24.5534C55.1617 24.5534 55.1955 24.5769 55.1955 24.597C55.1955 24.6406 55.1515 24.6541 55.077 24.6541C54.8706 24.6541 54.6472 24.6373 54.5592 24.6373C54.4644 24.6373 54.2309 24.6541 54.0752 24.6541C54.0244 24.6541 53.9872 24.644 53.9872 24.597C53.9872 24.5735 54.0143 24.5534 54.0651 24.5534C54.1057 24.5534 54.1361 24.5534 54.2174 24.5433C54.3494 24.5265 54.3968 24.3386 54.4171 24.1842L54.901 21.1167V21.1201ZM59.8628 22.4625C59.8628 21.751 59.8628 21.6168 59.8561 21.4691C59.8459 21.308 59.8019 21.2577 59.6428 21.214C59.6022 21.204 59.521 21.1973 59.4465 21.1973C59.3958 21.1973 59.3619 21.1805 59.3619 21.1469C59.3619 21.1134 59.4025 21.1033 59.4736 21.1033C59.7308 21.1033 60.0422 21.1134 60.181 21.1134C60.3807 21.1134 60.7733 21.1033 60.9933 21.1033C61.6059 21.1033 61.8293 21.3013 61.9071 21.3684C62.012 21.4691 62.1508 21.6772 62.1508 21.9323C62.1508 22.5968 61.616 23.07 60.9188 23.07C60.8951 23.07 60.797 23.07 60.7733 23.0633C60.7462 23.0633 60.7123 23.0465 60.7123 23.0129C60.7123 22.9727 60.7699 22.9525 60.8748 22.9525C61.149 22.9525 61.5314 22.6706 61.5314 22.1907C61.5314 22.0363 61.5145 21.7275 61.2403 21.496C61.061 21.3416 60.8613 21.3181 60.7496 21.3181C60.6785 21.3181 60.5837 21.3248 60.5397 21.3416C60.5127 21.3516 60.4991 21.3819 60.4991 21.4288V23.2915C60.4991 23.7211 60.4991 24.0936 60.5228 24.2983C60.5397 24.4292 60.5668 24.5198 60.7123 24.54C60.7834 24.55 60.8917 24.5567 60.9628 24.5567C61.0203 24.5567 61.0407 24.5836 61.0407 24.6071C61.0407 24.6406 61 24.6574 60.9527 24.6574C60.6244 24.6574 60.2791 24.6406 60.1505 24.6406C60.0388 24.6406 59.7274 24.6574 59.5311 24.6574C59.4702 24.6574 59.4364 24.6406 59.4364 24.6071C59.4364 24.5836 59.4533 24.5567 59.5142 24.5567C59.5853 24.5567 59.6428 24.55 59.6868 24.54C59.7884 24.5165 59.8154 24.4292 59.8324 24.2916C59.8561 24.0936 59.8561 23.7211 59.8561 23.2915V22.4625H59.8628ZM62.6517 22.8753C62.6517 22.0732 63.2203 21.0362 64.7095 21.0362C65.9483 21.0362 66.7166 21.7141 66.7166 22.7948C66.7166 23.8755 65.9246 24.7178 64.6588 24.7178C63.2339 24.7178 62.6517 23.711 62.6517 22.8787V22.8753ZM65.9821 22.9626C65.9821 21.9222 65.3526 21.2812 64.5606 21.2812C64.0157 21.2812 63.3726 21.5698 63.3726 22.7277C63.3726 23.6942 63.9311 24.4561 64.8551 24.4561C65.2003 24.4561 65.9821 24.295 65.9821 22.9592V22.9626ZM67.5289 24.5937C67.451 24.5601 67.4341 24.54 67.4341 24.4326C67.4341 24.1775 67.4578 23.8855 67.4612 23.8083C67.4612 23.7378 67.4849 23.6875 67.5221 23.6875C67.5661 23.6875 67.5729 23.7311 67.5729 23.7647C67.5729 23.8251 67.5898 23.9258 67.6169 24.0063C67.7218 24.3554 68.0907 24.4695 68.3953 24.4695C68.8184 24.4695 69.0756 24.2044 69.0756 23.8721C69.0756 23.6674 69.0248 23.4626 68.5916 23.2076L68.3073 23.0431C67.7286 22.7075 67.539 22.392 67.539 21.9759C67.539 21.402 68.0975 21.0295 68.7778 21.0295C69.0959 21.0295 69.3464 21.0731 69.475 21.1067C69.519 21.1167 69.5427 21.1335 69.5427 21.1671C69.5427 21.2275 69.5258 21.3617 69.5258 21.7309C69.5258 21.8316 69.5021 21.8786 69.4648 21.8786C69.431 21.8786 69.4141 21.8517 69.4141 21.7947C69.4141 21.751 69.3904 21.6067 69.2855 21.4859C69.2144 21.3986 69.0587 21.2644 68.7405 21.2644C68.3885 21.2644 68.0704 21.4456 68.0704 21.7678C68.0704 21.9792 68.1482 22.1437 68.5882 22.3853L68.7879 22.4961C69.4344 22.8485 69.6341 23.2076 69.6341 23.6338C69.6341 23.9828 69.4987 24.2648 69.1433 24.5131C68.9098 24.6776 68.5849 24.7078 68.3242 24.7078C68.0399 24.7078 67.7387 24.6809 67.5289 24.5869V24.5937ZM70.6968 22.4625C70.6968 21.751 70.6968 21.6168 70.6901 21.4691C70.6799 21.308 70.6291 21.2543 70.5242 21.2208C70.4667 21.204 70.4057 21.1973 70.3448 21.1973C70.2941 21.1973 70.267 21.1872 70.267 21.1402C70.267 21.1134 70.3076 21.0999 70.3854 21.0999C70.5682 21.0999 70.9033 21.11 71.042 21.11C71.1639 21.11 71.482 21.0999 71.6716 21.0999C71.7325 21.0999 71.7731 21.11 71.7731 21.1402C71.7731 21.1838 71.746 21.1973 71.6953 21.1973C71.6445 21.1973 71.6073 21.204 71.5497 21.214C71.4143 21.2375 71.3771 21.3013 71.367 21.4691C71.3568 21.6168 71.3568 21.751 71.3568 22.4625V23.2915C71.3568 23.7446 71.3568 24.1204 71.3805 24.3185C71.3974 24.446 71.4313 24.5165 71.5768 24.54C71.6445 24.55 71.7562 24.5567 71.8273 24.5567C71.8848 24.5567 71.9051 24.5836 71.9051 24.6071C71.9051 24.6406 71.8645 24.6574 71.8103 24.6574C71.4854 24.6574 71.1537 24.6406 71.0184 24.6406C70.9067 24.6406 70.5716 24.6574 70.3787 24.6574C70.3177 24.6574 70.2839 24.6406 70.2839 24.6071C70.2839 24.5836 70.3008 24.5567 70.3618 24.5567C70.4328 24.5567 70.4904 24.55 70.5344 24.54C70.6359 24.5165 70.663 24.4527 70.6799 24.3117C70.7036 24.1171 70.7036 23.7412 70.7036 23.2881V22.4592L70.6968 22.4625ZM73.6177 21.3886L72.8866 21.4053C72.6023 21.4121 72.4873 21.4456 72.4128 21.5497C72.362 21.6168 72.3417 21.6772 72.3282 21.7108C72.318 21.751 72.3045 21.7712 72.2706 21.7712C72.2368 21.7712 72.2266 21.7443 72.2266 21.694C72.2266 21.6168 72.3214 21.1637 72.3316 21.1234C72.3417 21.063 72.3586 21.0362 72.3891 21.0362C72.4297 21.0362 72.4771 21.0764 72.6023 21.0899C72.7479 21.1067 72.9306 21.1134 73.0931 21.1134H75.0832C75.2389 21.1134 75.3438 21.1033 75.4183 21.0899C75.4961 21.0798 75.5368 21.0664 75.5503 21.0664C75.5841 21.0664 75.5909 21.0932 75.5909 21.1671C75.5909 21.2677 75.5808 21.6134 75.5808 21.7376C75.574 21.7879 75.5638 21.8148 75.5368 21.8148C75.4961 21.8148 75.486 21.7913 75.4792 21.7208L75.4724 21.6705C75.4623 21.5497 75.3337 21.4053 74.8937 21.3986L74.2743 21.3886V23.2881C74.2743 23.7177 74.2811 24.0902 74.3014 24.295C74.3183 24.4259 74.3454 24.5165 74.4909 24.5366C74.5586 24.5467 74.6703 24.5534 74.7414 24.5534C74.7955 24.5534 74.8192 24.5802 74.8192 24.6037C74.8192 24.6373 74.7786 24.6541 74.7245 24.6541C74.3995 24.6541 74.0712 24.6373 73.9325 24.6373C73.8208 24.6373 73.4857 24.6541 73.2928 24.6541C73.2319 24.6541 73.198 24.6373 73.198 24.6037C73.198 24.5802 73.2149 24.5534 73.2759 24.5534C73.3469 24.5534 73.4079 24.5467 73.4485 24.5366C73.55 24.5131 73.5771 24.4259 73.594 24.2883C73.6177 24.0902 73.6177 23.7177 73.6177 23.2881V21.3886ZM76.4946 22.4625C76.4946 21.751 76.4946 21.6168 76.4878 21.4691C76.4777 21.308 76.4269 21.2543 76.322 21.2208C76.2678 21.204 76.2035 21.1973 76.1426 21.1973C76.0918 21.1973 76.0647 21.1872 76.0647 21.1402C76.0647 21.1134 76.1054 21.0999 76.1832 21.0999C76.366 21.0999 76.701 21.11 76.8398 21.11C76.9617 21.11 77.2798 21.0999 77.4693 21.0999C77.5303 21.0999 77.5709 21.11 77.5709 21.1402C77.5709 21.1838 77.5438 21.1973 77.493 21.1973C77.4423 21.1973 77.405 21.204 77.3475 21.214C77.2155 21.2375 77.1749 21.3013 77.1647 21.4691C77.1546 21.6168 77.1546 21.751 77.1546 22.4625V23.2915C77.1546 23.7446 77.1546 24.1204 77.1783 24.3185C77.1952 24.446 77.229 24.5165 77.3746 24.54C77.4423 24.55 77.554 24.5567 77.625 24.5567C77.6792 24.5567 77.7029 24.5836 77.7029 24.6071C77.7029 24.6406 77.6623 24.6574 77.6081 24.6574C77.2832 24.6574 76.9515 24.6406 76.8161 24.6406C76.7044 24.6406 76.3694 24.6574 76.1764 24.6574C76.1155 24.6574 76.0817 24.6406 76.0817 24.6071C76.0817 24.5836 76.0986 24.5567 76.1595 24.5567C76.2306 24.5567 76.2881 24.55 76.3321 24.54C76.4337 24.5165 76.4607 24.4527 76.4777 24.3117C76.5014 24.1171 76.5014 23.7412 76.5014 23.2881V22.4592L76.4946 22.4625ZM78.3019 21.5597C78.1903 21.3013 78.1192 21.2543 77.9398 21.2107C77.8687 21.1939 77.7909 21.1939 77.7503 21.1939C77.7063 21.1939 77.6927 21.1704 77.6927 21.1436C77.6927 21.1033 77.7435 21.0999 77.8146 21.0999C78.0752 21.0999 78.3561 21.11 78.5287 21.11C78.6506 21.11 78.9078 21.0999 79.1515 21.0999C79.2124 21.0999 79.2699 21.11 79.2699 21.1436C79.2699 21.1771 79.2361 21.1939 79.1921 21.1939C79.1142 21.1939 79.0432 21.2006 79.0026 21.2275C78.9687 21.251 78.9518 21.2778 78.9518 21.3214C78.9518 21.3819 78.9958 21.5094 79.0635 21.6738L79.8893 23.7781H79.9062C80.1195 23.2915 80.749 21.7779 80.8641 21.4691C80.8878 21.4087 80.9081 21.3349 80.9081 21.298C80.9081 21.2476 80.8844 21.2308 80.8404 21.214C80.7828 21.1973 80.705 21.1906 80.6441 21.1906C80.6001 21.1906 80.5594 21.1738 80.5594 21.1402C80.5594 21.1067 80.6034 21.0966 80.6982 21.0966C80.9419 21.0966 81.1619 21.1067 81.2228 21.1067C81.3074 21.1067 81.5342 21.0966 81.6865 21.0966C81.7474 21.0966 81.788 21.1067 81.788 21.1402C81.788 21.1738 81.761 21.1906 81.7102 21.1906C81.6594 21.1906 81.5545 21.1838 81.4699 21.2443C81.409 21.2879 81.3413 21.3617 81.2127 21.6604C81.0164 22.1034 80.8911 22.3551 80.6204 22.9324C80.309 23.617 80.0788 24.1305 79.9671 24.3688C79.8453 24.6406 79.8013 24.7111 79.7336 24.7111C79.6659 24.7111 79.6287 24.6507 79.5339 24.4292L78.2986 21.5564L78.3019 21.5597ZM82.2179 23.4727C82.1908 23.4727 82.184 23.4794 82.1739 23.5063L81.9133 24.1372C81.8625 24.2547 81.8422 24.3688 81.8422 24.4259C81.8422 24.5098 81.8862 24.5601 82.0385 24.5601H82.1096C82.1705 24.5601 82.1807 24.5836 82.1807 24.6104C82.1807 24.6507 82.1536 24.6608 82.1028 24.6608C81.9404 24.6608 81.7136 24.644 81.5579 24.644C81.5071 24.644 81.2465 24.6608 80.9893 24.6608C80.9284 24.6608 80.9013 24.6507 80.9013 24.6104C80.9013 24.5836 80.9182 24.5601 80.9554 24.5601C80.9994 24.5601 81.057 24.5534 81.101 24.5534C81.3244 24.5198 81.409 24.3755 81.5071 24.1406L82.7899 21.1838C82.8474 21.0496 82.8846 20.9959 82.9354 20.9959C83.0065 20.9959 83.0302 21.0395 83.081 21.1436C83.1994 21.402 84.0185 23.325 84.3299 24.0399C84.5194 24.4661 84.6582 24.5265 84.7495 24.5433C84.8206 24.5534 84.8782 24.5601 84.9323 24.5601C84.9763 24.5601 85 24.5769 85 24.6104C85 24.6507 84.9729 24.6608 84.7902 24.6608C84.6175 24.6608 84.2622 24.6608 83.8492 24.6507C83.7612 24.644 83.7037 24.644 83.7037 24.6104C83.7037 24.5836 83.7139 24.5668 83.7646 24.5601C83.7985 24.5534 83.8323 24.5098 83.8086 24.4561L83.4296 23.5096C83.4194 23.4828 83.4025 23.4761 83.3788 23.4761H82.2247L82.2179 23.4727ZM83.2671 23.2109C83.2908 23.2109 83.2942 23.2009 83.2908 23.1841L82.8271 21.9893C82.8271 21.9893 82.817 21.9457 82.8034 21.9457C82.7865 21.9457 82.7797 21.9725 82.7763 21.9893L82.3025 23.1774C82.2924 23.2009 82.3025 23.2109 82.3194 23.2109H83.2671ZM48.6091 6.42026H47.0861V27H48.6091V6.42026ZM39.7687 1.77874C39.8296 1.84922 40.0665 1.44649 40.0902 1.3995C40.3102 0.94307 40.2323 0.486638 40.8788 0.335612C40.8551 0.476569 40.7096 0.543692 40.6486 0.677937C40.4862 1.03704 40.7705 1.71162 40.493 2.11771L42.0329 1.10081L41.048 2.58757C41.7317 2.64127 42.1175 1.88614 42.8012 2.29223C42.7065 2.42312 42.5135 2.34593 42.3578 2.42312C42.2022 2.50031 41.9855 2.84935 41.8197 2.9903C41.6539 3.13126 41.4508 3.20174 41.3052 3.34941L43.1465 3.68838L41.3492 3.98707C41.7351 4.55761 42.6963 4.26899 42.8046 5.09124C42.4052 4.65159 41.9957 4.88651 41.5016 4.83617C41.3289 4.81939 41.1766 4.7422 41.0074 4.70864L42.0329 6.23567L40.537 5.25904C40.5268 5.91013 41.0819 6.13499 40.9194 6.80622C40.9059 6.86663 40.8619 7.02436 40.7942 7.04114C40.8788 6.47731 40.5065 6.40348 40.2154 6.10814C40.0597 5.9504 39.9345 5.70876 39.833 5.51411L39.4268 7.33984L39.1256 5.55774C38.5671 5.96383 38.8514 6.88005 38.0121 7.00087C38.4758 6.61827 38.2219 6.22896 38.2693 5.74904C38.2862 5.56445 38.381 5.4 38.3979 5.21877L36.8579 6.23567L37.8835 4.75227C37.1896 4.70528 36.7801 5.46377 36.0862 5.04761L36.5973 4.89658C36.8816 4.5207 37.1388 4.32604 37.5281 4.08104C37.5721 4.0542 37.6059 4.0844 37.5822 3.98707L35.741 3.6481L37.5382 3.34941C37.1795 2.79565 36.2047 3.07421 36.1269 2.28888C36.5195 2.68825 36.8816 2.46004 37.3453 2.50031C37.5281 2.51709 37.7007 2.60099 37.8801 2.62784L36.8952 1.14444L38.3505 2.12107C38.4216 1.42635 37.6465 1.03369 38.0527 0.338968C38.1542 0.406091 38.1204 0.610814 38.1576 0.721566C38.2422 0.983344 38.6957 1.2082 38.8988 1.51361C38.9293 1.55724 39.0511 1.90292 39.1188 1.82573L39.4607 0L39.7619 1.7821L39.7687 1.77874Z" fill="black"/>
</svg>
