<svg width="1328" height="1018" viewBox="0 0 1328 1018" fill="none" xmlns="http://www.w3.org/2000/svg">
<path fill-rule="evenodd" clip-rule="evenodd" d="M399.135 594.24C410.935 653.63 436.625 710.02 472.275 758.7C550.405 865.38 677.135 929.68 810.015 930.24V1017.6C566.615 1020.88 346.925 834.08 309.855 594.24H399.135ZM1206.94 661.49C1195.2 602.97 1269.98 568.32 1309.23 611.521V595.2H1326.51L1326.52 595.19C1325.21 626.31 1328.26 658.83 1326.56 689.79C1324.92 719.49 1313.67 740.66 1282.55 746.59C1251.37 752.54 1219.11 742.24 1206.52 711.36H1225.72C1236.97 735.89 1276.47 738.549 1296.49 724.06C1308.11 715.65 1309.3 701.61 1309.23 688.32L1291.64 700C1258.61 715.98 1214.42 698.78 1206.94 661.49ZM530.665 610.08L532.586 611.05C562.036 578.04 618.535 590.57 631.905 632.68C649.555 688.27 585.435 735.65 540.765 699.82C537.435 697.15 534.805 692.35 530.665 691.2V708.48H514.345V552.96H530.665V610.08ZM651.135 636.47C660.445 596.83 711.855 578.41 744.245 603.86C747.255 606.22 749.585 610.67 753.385 611.52V595.2H769.705V707.52H753.385V692.16L735.165 705.14C688.705 727.99 639.435 686.31 651.135 636.47ZM940.586 637.44L990.985 595.2H1015.47L953.105 648.58L1019.31 708.48H995.785L940.586 660.48V707.04L939.145 708.48H923.305V552.96H940.586V637.44ZM1055.78 708.48H1038.51V595.2H1055.78V708.48ZM1114.03 600.17C1144.99 580.55 1184.43 599.17 1184.43 636.96V708.48H1168.11C1167.51 689.811 1168.9 670.95 1168.15 652.28C1167.32 631.79 1166.11 608.47 1139.82 607.64C1110.8 606.71 1101.09 631.64 1099.9 656.12C1099.07 673.32 1100.6 691.221 1099.94 708.48H1084.11L1082.66 707.04V595.2H1099.94V611.521C1101.62 611.94 1101.86 610.83 1102.83 610.09C1106.66 607.15 1109.46 603.07 1114.03 600.17ZM812.905 611.521C832.295 590.231 867.425 582.94 887.315 607.67C894.495 616.6 896.655 628.65 897.375 639.85H897.385C898.795 661.89 896.335 685.341 897.385 707.521H880.105V634.08C880.105 633.08 877.975 625.78 877.405 624.3C868.225 600.55 837.335 604.04 822.975 621.11C814.945 630.65 813.525 641.08 812.865 653.24C811.905 671.01 813.665 689.661 812.905 707.521H795.625V595.2H812.905V611.521ZM710.305 608.13C686.025 608.13 666.335 627.82 666.335 652.1C666.335 676.38 686.025 696.07 710.305 696.07C734.585 696.07 754.275 676.38 754.275 652.1C754.275 627.82 734.585 608.13 710.305 608.13ZM573.885 607.41C549.545 607.41 529.815 627.14 529.815 651.48C529.815 675.82 549.545 695.55 573.885 695.55C598.225 695.55 617.954 675.82 617.955 651.48C617.955 627.141 598.225 607.41 573.885 607.41ZM1266.77 607.93C1212.99 608.75 1206.7 685.31 1260.76 690.22C1325.61 696.109 1324.47 607.06 1266.77 607.93ZM1043.05 551.26C1063.26 547.12 1065.73 571.94 1051.98 575.55C1032.15 580.76 1029.14 554.11 1043.05 551.26ZM597.975 384.59C609.545 290.91 717.835 262.85 796.115 289.9C851.285 308.96 884.315 362.14 872.425 420.47H693.865C695.105 457.47 746.994 461.11 771.915 446.2C775.754 443.9 781.575 436.831 784.535 436.74C806.935 443.43 831.035 447.59 853.225 454.55C854.555 454.97 858.595 455.56 857.935 457.33C857.425 458.7 853.076 464.11 851.795 465.61L851.785 465.6C779.215 550.54 581.555 517.57 597.975 384.59ZM536.425 284.16H586.345V344.64H536.425V420.96C536.425 422.83 538.315 428.51 539.465 430.4C546.276 441.61 562.195 438.4 572.905 436.8L587.315 501.11C549.525 513.87 477.775 522.96 454.055 482.21C450.785 476.59 446.185 463.761 446.185 457.44V344.64H417.385V285.6L418.825 284.16H446.185V216.96H536.425V284.16ZM94.8248 507.84H4.58456V284.16H94.8248V507.84ZM233.575 304.35C287.633 267.295 393.989 265.246 394.345 352.736V507.84H303.145V380.64C303.145 377.439 300.975 369.149 299.485 366.06C289.025 344.35 260.245 350.231 244.665 362.48C241.334 365.101 228.266 379.099 228.265 382.56V507.84H137.065V284.16H218.185L219.625 285.6V318.72L233.575 304.35ZM1067.31 277.44V350.4H1044.74C1042.36 350.401 1031.95 352.96 1028.9 353.75C1015.05 357.33 1002.69 364.3 990.505 371.52V507.84H900.745L899.305 506.4V285.6L900.745 284.16H982.825V323.52L990.015 313.91C1009.4 291.53 1037.14 276.71 1067.31 277.44ZM813.865 0C929.385 0.41 1040.99 39.0504 1131.1 110.44C1250.88 205.33 1324.08 352.9 1323.61 506.88H1236.26C1235.29 465.48 1229.43 424.73 1217.32 385.18H1217.32C1163.85 210.57 997.535 86.6603 813.865 88.3203V0ZM777.385 372.48C772.915 326.2 696.215 325.96 691.945 372.48H777.385ZM48.5748 192.23C65.5648 191.9 94.3449 201.83 98.2349 220.74C108.165 268.98 13.9057 278.26 1.21541 235.2C-6.77456 208.08 26.4148 192.661 48.5748 192.23Z" fill="black"/>
</svg>
