<svg width="23" height="29" viewBox="0 0 23 29" fill="none" xmlns="http://www.w3.org/2000/svg">
<path d="M22.9221 0V22.3492H0V0H22.9221ZM7.50572 1.67963H1.66494V3.44789H3.79786L7.59571 10.7957H5.81828L2.89789 5.22058H1.66044V13.8049H21.0322V5.22058H19.8397L16.9869 10.7957H15.1419L18.9173 3.44789H21.0277V1.67963H15.3849L13.675 10.7957H12.1675L13.6975 1.67963H9.06716L10.5971 10.7957H9.02216L7.49222 1.67963H7.50572ZM21.0322 15.4889H1.66494V17.3458H21.0367V15.4889H21.0322ZM21.0322 19.0299H1.66494V20.7095H21.0367V19.0299H21.0322Z" fill="black"/>
<path d="M7.5735 23.28C8.31597 23.3553 9.10794 23.8606 9.27444 24.6184C9.48143 25.5801 9.08094 26.4664 8.04598 26.6215L9.53093 28.8995H7.77599L6.56104 26.5994V28.8995H5.12109V23.28C5.90406 23.3376 6.79953 23.2047 7.569 23.28H7.5735ZM7.25851 24.3879C7.05602 24.3525 6.77703 24.4101 6.56104 24.3879V25.9391H7.25851C7.31701 25.9391 7.587 25.7839 7.641 25.7263C8.05048 25.3097 7.87949 24.4899 7.25851 24.3879Z" fill="black"/>
<path d="M15.7369 28.899L17.7348 23.2751L19.4628 23.2839L21.3977 28.899H19.9353L19.6473 28.0835L17.5144 28.0614C17.4154 28.0968 17.2804 28.7527 17.2624 28.8945H15.7324L15.7369 28.899ZM19.2873 26.9977L18.5223 24.5204L17.8023 26.9977H19.2873Z" fill="black"/>
<path d="M12.0497 27.2634C12.0407 27.9193 13.1072 28.0567 13.3997 27.5515C13.5932 27.2191 13.2827 27.0286 13.0307 26.8912C11.8832 26.2574 10.5288 26.3505 10.7988 24.5069C11.0688 22.6633 14.8081 22.7564 14.6956 24.8703L13.3997 24.9102C13.2962 24.5246 13.2377 24.2809 12.7877 24.2499C12.0497 24.1967 11.7662 24.8437 12.4637 25.2337C13.2647 25.6813 14.6416 25.7522 14.7811 26.9311C14.9701 28.5309 13.6382 29.1381 12.2162 28.9741C11.3432 28.8722 10.6773 28.1365 10.6998 27.259H12.0497V27.2634Z" fill="black"/>
<path d="M3.2426 23.2798H1.84766V28.8993H3.2426V23.2798Z" fill="black"/>
</svg>
