<svg width="79" height="14" viewBox="0 0 79 14" fill="none" xmlns="http://www.w3.org/2000/svg">
<path d="M8.13146 2.66113C7.74313 3.29895 1.45703 13.2544 1.45703 13.2544H5.00054L9.78186 5.46198L8.10719 2.66113H8.13146Z" fill="black"/>
<path d="M6.67443 10.5378C6.2861 9.90003 0 0 0 0H6.45599L9.92669 5.29666C9.92669 5.29666 7.59671 8.9849 6.67443 10.5378Z" fill="black"/>
<path d="M19.9998 12.6172H18.1067L15.9708 9.12311L14.9757 10.3156V12.645H13.3496V1.38611H14.9757V8.09706L17.9125 4.492H19.8784L17.063 7.79201L19.9755 12.6172H19.9998Z" fill="black"/>
<path d="M22.8136 12.6178H21.1875V4.49258H22.8136V6.32284C23.2505 5.10267 24.0757 4.27073 25.3378 4.35393V6.32284H25.2407C23.8087 6.32284 22.8136 7.37663 22.8136 9.53966V12.6178Z" fill="black"/>
<path d="M26.7734 3.24507V1.47028H28.5229V3.24507H26.7734ZM26.8463 12.6182V4.49297H28.4743V12.6182H26.8463Z" fill="black"/>
<path d="M37.2341 12.6172H35.341L33.2052 9.12311L32.2101 10.3156V12.645H30.584V1.38611H32.2101V8.09706L35.1469 4.492H37.1128L34.2974 7.79201L37.2099 12.6172H37.2341Z" fill="black"/>
<path d="M41.4564 12.8116C39.4176 12.8671 37.7429 11.0369 37.6944 8.70743C37.6944 8.6797 37.6944 8.62424 37.6944 8.59651C37.6459 6.21162 39.2963 4.21498 41.3835 4.15952C43.4708 4.10406 45.2183 5.98978 45.2668 8.37466C45.3154 10.7595 43.665 12.7562 41.5777 12.8116C41.5292 12.8116 41.5049 12.8116 41.4564 12.8116ZM41.4564 5.96204C40.1457 5.96204 39.3205 7.12675 39.3205 8.56878C39.3205 10.0108 40.2186 11.2032 41.4806 11.2032C42.7427 11.2032 43.6407 10.0385 43.6407 8.59651C43.6407 7.15449 42.7427 5.96204 41.4564 5.96204Z" fill="black"/>
<path d="M49.367 12.7561C48.2748 12.7561 47.2312 12.3124 46.3574 11.536L47.0855 10.2881C47.7408 10.8981 48.566 11.2586 49.4155 11.2864C50.1194 11.2864 50.532 10.9536 50.532 10.399C50.532 9.73343 49.7796 9.51158 48.9544 9.23427C47.9107 8.90149 46.7458 8.40233 46.7458 6.84938C46.7458 5.26871 47.8622 4.35358 49.2699 4.35358C50.1922 4.35358 51.1145 4.68635 51.8911 5.26871L51.2358 6.5998C50.6291 6.1561 49.9495 5.87879 49.2214 5.82333C48.5903 5.82333 48.2263 6.1561 48.2263 6.62753C48.2263 7.23762 49.0029 7.4872 49.8281 7.79224C50.8718 8.15275 52.0367 8.70737 52.0367 10.1494C52.0367 11.8965 50.8718 12.7284 49.3913 12.7284L49.367 12.7561Z" fill="black"/>
<path d="M53.8105 2.9401V1.85858H59.8296V2.74598L56.8686 6.48969C58.519 6.62834 59.9752 7.54347 59.9752 9.54012C59.9752 11.5368 58.5675 12.7847 56.82 12.7847C55.4366 12.8124 54.1503 12.1191 53.3008 10.8712L54.0774 10.0947C54.8056 11.1208 55.6793 11.7031 56.8443 11.7031C58.0093 11.7031 58.9073 10.8712 58.9073 9.59558C58.9073 8.23675 57.8394 7.51574 56.2618 7.51574H55.655L55.4366 6.79473L58.3976 2.96783H53.8105V2.9401Z" fill="black"/>
<path d="M67.7931 3.85582C67.0893 3.19027 66.4339 2.80204 65.5845 2.80204C63.8855 2.80204 62.8176 4.77095 62.8176 7.54407C63.4001 6.49028 64.3952 5.8802 65.4874 5.90793C67.2591 5.90793 68.7397 7.2113 68.7397 9.23567C68.7397 11.26 67.2834 12.8407 65.366 12.8407C64.4438 12.8685 63.5457 12.4802 62.8904 11.7592C62.138 10.8995 61.7012 9.7903 61.7012 7.5718C61.7012 4.27179 63.1574 1.72052 65.6087 1.72052C66.7252 1.72052 67.5747 2.19195 68.3999 2.94069L67.7931 3.85582ZM65.3418 6.93398C63.9341 6.93398 62.9875 8.09869 62.9875 9.29113C62.9875 10.6777 63.9826 11.7315 65.366 11.7315C66.7495 11.7315 67.6475 10.65 67.6475 9.2634C67.6475 7.93231 66.7009 6.93398 65.3418 6.93398Z" fill="black"/>
<path d="M74.3925 12.8124C71.9654 12.8124 70.4121 10.2888 70.4121 7.26613C70.4121 4.24343 71.9654 1.66443 74.4168 1.66443C76.8681 1.66443 78.3729 4.18797 78.3729 7.21066C78.3729 10.2334 76.8196 12.8124 74.3925 12.8124ZM74.3925 2.77368C72.6207 2.77368 71.5286 4.82578 71.5286 7.21066C71.5286 9.59554 72.645 11.6754 74.4168 11.6754C76.1885 11.6754 77.2564 9.59554 77.2564 7.23839C77.2564 4.88124 76.14 2.74594 74.3682 2.74594L74.3925 2.77368Z" fill="black"/>
</svg>
