<svg width="33" height="27" viewBox="0 0 33 27" fill="none" xmlns="http://www.w3.org/2000/svg">
<path d="M10.299 18.1266L7.787 18.9067C7.5116 18.0825 6.87828 17.3842 5.94638 17.2764C1.92575 16.8108 1.94291 23.061 5.73821 22.8309C6.75866 22.7689 7.58208 22.1277 7.87695 21.1867L10.3421 21.925C9.28454 25.8925 3.70054 26.4245 1.24561 23.3423C-0.298756 21.4029 -0.258419 18.4106 1.37403 16.5304C3.87209 13.6531 9.28315 14.2728 10.299 18.1266ZM22.3604 1.06513L22.359 9.56529C22.423 10.1247 22.9181 10.5507 23.494 10.5791H31.8648C32.4731 10.5391 32.947 10.118 32.9998 9.52215V1.10692C32.9423 0.456245 32.4226 0.0810268 31.7758 0.0500207L23.4634 0.063951C22.8634 0.133602 22.4545 0.479612 22.3604 1.06558V1.06513ZM22.3163 15.0641L25.3049 22.4993C25.4992 22.9505 26.1756 23.2605 26.6559 23.2605H27.3013C26.9439 24.3642 26.2943 24.889 25.0861 24.4801C24.941 24.4311 24.6099 24.2159 24.5167 24.2914C24.2705 24.8594 23.8904 25.4498 23.6748 26.0223C23.6414 26.1104 23.57 26.2353 23.6275 26.3238C23.7216 26.469 24.7652 26.8168 24.9855 26.864C27.2285 27.3484 28.67 26.5342 29.4275 24.4797L32.9984 15.0637H29.9941C29.8768 15.2488 29.8193 15.4816 29.7484 15.6883C29.1739 17.3599 28.6667 19.0549 28.0927 20.727C27.9611 21.0825 27.5679 21.1368 27.388 20.7818L25.4319 15.0637H22.3163V15.0641ZM18.1993 12.0876C18.1205 12.0876 17.8191 12.2332 17.7361 12.2857C17.049 12.7189 17.3198 13.477 17.1097 14.0944C16.8088 14.9779 15.959 15.0988 15.1059 15.0641V17.4368H16.9085C16.9132 17.4368 16.9753 17.497 16.9753 17.5015V22.5919C16.9753 22.7505 17.1297 23.2421 17.1969 23.4124C17.8928 25.1798 20.1247 25.4287 21.7822 24.943V22.6997C21.2361 22.724 20.344 22.8966 19.9574 22.4193C19.9078 22.3582 19.7348 21.9947 19.7348 21.9448V17.4368H21.7822V15.0641H19.8016C19.7969 15.0641 19.7348 15.0039 19.7348 14.9994V12.0876H18.1993ZM20.7136 3.6975C20.5675 1.38508 19.165 -0.117592 16.6841 0.0500207C15.6317 0.12102 14.7614 0.644079 14.1267 1.43226V0.310651H12.4576C12.0112 0.310651 11.4562 0.944703 11.4562 1.36755V10.2757H14.2157V4.21472C14.2157 4.03318 14.3938 3.57438 14.4893 3.40137C15.3475 1.84208 17.9545 2.38716 17.9545 4.17158V10.2757H20.714V3.6975H20.7136ZM14.2602 15.1289C14.2602 15.1244 14.1981 15.0641 14.1935 15.0641H12.5467C12.3074 15.0641 11.88 15.2924 11.7246 15.4753C11.5554 15.6739 11.4117 16.0838 11.4117 16.3367V25.0292H14.2602V15.1289ZM12.8193 11.1273C11.866 11.1273 11.0932 11.8764 11.0932 12.8003C11.0932 13.7241 11.866 14.4732 12.8193 14.4732C13.7725 14.4732 14.5454 13.7241 14.5454 12.8003C14.5454 11.8764 13.7725 11.1273 12.8193 11.1273ZM0.199186 6.79946C1.5414 11.8242 9.11021 11.8373 10.4895 6.85832C11.5341 3.08772 8.84548 -0.300932 4.77107 0.0212615C1.26369 0.298968 -0.646944 3.631 0.199186 6.79946ZM5.55832 8.11789C2.05465 8.36324 1.84647 2.8554 4.94725 2.47838C8.69804 2.02228 8.95118 7.88018 5.55832 8.11789Z" fill="black"/>
</svg>
