<svg width="83" height="14" viewBox="0 0 83 14" fill="none" xmlns="http://www.w3.org/2000/svg">
<path d="M39.4912 0C40.0676 1.63798e-05 40.6392 0.0683139 41.2041 0.206055C41.7698 0.343813 42.2771 0.558954 42.7266 0.851562C43.1761 1.14419 43.5397 1.52252 43.8164 1.98633C44.093 2.4509 44.2314 3.00331 44.2314 3.64551C44.2314 4.20711 44.1414 4.69708 43.9629 5.11523C43.7836 5.53333 43.556 5.90251 43.2793 6.22363C43.0026 6.54473 42.692 6.83214 42.3457 7.08398L42.3477 7.08496C42.0015 7.33753 41.661 7.57249 41.3271 7.79004L39.2334 9.18262H41.5352V8.57227L43.7852 10.8945L41.5352 13.2168V12.542H32.918L33.4883 9.38965L39.0596 5.49707C39.2675 5.3479 39.4808 5.16685 39.7002 4.9541C39.9186 4.74232 40.0282 4.52689 40.0283 4.30859C40.0283 4.06739 39.9586 3.86564 39.8203 3.70508C39.682 3.54453 39.4453 3.4639 39.1113 3.46387C38.7079 3.46387 38.3818 3.59554 38.1338 3.85938C37.885 4.1234 37.7095 4.47424 37.6055 4.91016L37.1904 4.85059C37.6372 4.92337 37.9445 4.97263 37.9668 4.97656L35.3027 6.8125L33.3633 4.22754C33.3633 4.22754 33.5867 4.26411 33.9336 4.32031C34.0842 3.6764 34.3224 3.0923 34.6475 2.56738C34.9815 2.02777 35.3851 1.56751 35.8584 1.18848C36.3308 0.809539 36.8729 0.516577 37.4844 0.30957C38.0951 0.103403 38.7643 0 39.4912 0ZM7.24707 0C7.68501 0 8.11844 0.0381611 8.54492 0.112305C8.9714 0.187279 9.37521 0.290684 9.75586 0.421875C10.1366 0.553926 10.4881 0.712103 10.8115 0.895508C11.1341 1.07891 11.4056 1.28577 11.625 1.51562L9.06348 3.97754C8.86724 3.74864 8.61469 3.56295 8.30371 3.41992C7.99258 3.27646 7.62898 3.2041 7.21387 3.2041C6.89072 3.20412 6.60021 3.27358 6.34082 3.41113C6.08131 3.54887 5.95121 3.76196 5.95117 4.04883C5.95117 4.2787 6.06069 4.45666 6.2793 4.58301C6.4979 4.7093 6.81941 4.8418 7.24414 4.97949C7.77304 5.15148 8.24377 5.34699 8.65723 5.56543C9.07071 5.78389 9.4216 6.03632 9.70898 6.32324C9.9963 6.61013 10.2175 6.93794 10.373 7.30469C10.5285 7.67215 10.6054 8.08528 10.6055 8.54395C10.6055 9.3247 10.4326 9.99102 10.0889 10.542C9.74417 11.093 9.30435 11.5418 8.77051 11.8857C8.23678 12.2297 7.64731 12.483 7.00391 12.6436C6.35953 12.8041 5.7319 12.8848 5.12109 12.8848C4.63646 12.8848 4.1526 12.8445 3.66797 12.7646C3.18338 12.684 2.71907 12.569 2.27539 12.4199C1.83162 12.2708 1.4127 12.0866 1.02051 11.8682C0.628607 11.6506 0.288871 11.4032 0 11.1279L2.7334 8.61328C2.87169 8.77374 3.03901 8.9167 3.23535 9.04297C3.43104 9.16931 3.63591 9.2759 3.84961 9.3623C4.06328 9.44869 4.27946 9.51717 4.49805 9.56934C4.71666 9.62069 4.91945 9.64648 5.10449 9.64648C5.5078 9.64643 5.83085 9.58017 6.07227 9.44824C6.31462 9.31619 6.43652 9.12378 6.43652 8.87109C6.43647 8.66412 6.33499 8.48085 6.13281 8.32031C5.93053 8.15978 5.5533 7.99306 5 7.82031C4.56117 7.68256 4.14913 7.5221 3.7627 7.33789C3.37632 7.15451 3.04122 6.93316 2.75879 6.6748C2.47631 6.41641 2.25489 6.10606 2.09277 5.74414C1.93157 5.38235 1.85063 4.9433 1.85059 4.42676C1.85059 3.79507 1.97974 3.20951 2.23926 2.66992C2.49881 2.13031 2.86755 1.66178 3.3457 1.26562C3.82379 0.869534 4.39552 0.56009 5.05859 0.335938C5.72167 0.111821 6.45141 4.45686e-05 7.24707 0ZM51.0801 0C51.518 1.70492e-05 51.9514 0.0381446 52.3779 0.112305C52.8043 0.18729 53.2083 0.290686 53.5889 0.421875C53.9694 0.553881 54.3203 0.712199 54.6436 0.895508C54.9662 1.07891 55.2376 1.28576 55.457 1.51562L52.8955 3.97754C52.6993 3.74867 52.4467 3.56293 52.1357 3.41992C51.8246 3.27649 51.461 3.2041 51.0459 3.2041C50.7228 3.20415 50.4322 3.27355 50.1729 3.41113C49.9133 3.54887 49.7832 3.76196 49.7832 4.04883C49.7832 4.2787 49.8927 4.45666 50.1113 4.58301C50.3299 4.70931 50.6514 4.84179 51.0762 4.97949C51.605 5.15146 52.0758 5.34702 52.4893 5.56543C52.9027 5.78389 53.2536 6.03632 53.541 6.32324C53.8284 6.61016 54.0495 6.9379 54.2051 7.30469C54.3606 7.67216 54.4374 8.08525 54.4375 8.54395C54.4375 9.32475 54.2647 9.991 53.9209 10.542C53.5762 11.093 53.1364 11.5418 52.6025 11.8857C52.0688 12.2296 51.4794 12.483 50.8359 12.6436C50.1916 12.8041 49.5639 12.8848 48.9531 12.8848C48.4685 12.8847 47.9846 12.8445 47.5 12.7646C47.0154 12.684 46.5511 12.5691 46.1074 12.4199C45.6637 12.2708 45.2456 12.0866 44.8535 11.8682C44.4614 11.6506 44.121 11.4034 43.832 11.1279L46.5654 8.61328C46.7037 8.77374 46.8711 8.91669 47.0674 9.04297C47.263 9.1693 47.468 9.27591 47.6816 9.3623C47.8953 9.44868 48.1115 9.51717 48.3301 9.56934C48.5487 9.62069 48.7515 9.64648 48.9365 9.64648C49.34 9.64645 49.6638 9.58026 49.9053 9.44824C50.1474 9.3162 50.2686 9.12365 50.2686 8.87109C50.2685 8.66421 50.167 8.4808 49.9658 8.32031C49.7636 8.15973 49.3855 7.99312 48.832 7.82031C48.3933 7.68257 47.9811 7.52207 47.5947 7.33789C47.2084 7.15452 46.8732 6.93313 46.5908 6.6748C46.3084 6.41643 46.0861 6.10602 45.9248 5.74414C45.7636 5.38236 45.6827 4.94326 45.6826 4.42676C45.6826 3.7951 45.8118 3.20949 46.0713 2.66992C46.3308 2.1303 46.7005 1.66178 47.1787 1.26562C47.6568 0.869646 48.2286 0.56003 48.8916 0.335938C49.5547 0.111861 50.2844 0 51.0801 0ZM18.5156 3.51465H15.627L15.3672 4.89258H18.0312L17.5293 7.83887H14.8652L14.6055 9.31934H17.8242L17.2705 12.541H10.5918L12.7188 0.344727H19.0684L18.5156 3.51465ZM22.2119 9.21582H25.3779L24.79 12.541L17.9727 12.54L20.1006 0.344727H23.752L22.2119 9.21582ZM29.5781 9.21582H32.7441L32.1572 12.541L25.3398 12.54L27.4678 0.344727H31.1182L29.5781 9.21582ZM77.2588 0.344727C78.8387 0.344774 80.0469 0.67183 80.8828 1.32617C81.7188 1.98072 82.1377 2.88273 82.1377 4.03125C82.1377 4.81179 82.0084 5.48899 81.749 6.06348C81.4895 6.63814 81.1106 7.10894 80.6152 7.47656C80.1191 7.84415 79.5187 8.11724 78.8154 8.29492C78.1122 8.47338 77.3108 8.56249 76.4111 8.5625H75.2344L74.5078 12.541L74.5068 12.54H70.5273L72.6904 0.344727H77.2588ZM59.5215 4.58203H61.3555L62.083 0.344727H65.7168L63.5889 12.54H59.9727L60.8027 7.82031H58.9863L58.1562 12.54H54.5566L56.6846 0.344727H60.2656L59.5215 4.58203ZM69.0059 12.54H64.9746L67.1377 0.344727H71.1689L69.0059 12.54ZM75.752 5.56348H76.3926V5.56445C76.9456 5.56441 77.3776 5.47223 77.6895 5.28906C78.0006 5.10566 78.1572 4.81802 78.1572 4.42676C78.1571 4.05935 78.0301 3.80665 77.7764 3.66895C77.5226 3.53131 77.1761 3.46191 76.7383 3.46191H76.1328L75.752 5.56348Z" fill="black"/>
</svg>
