<svg width="77" height="22" viewBox="0 0 77 22" fill="none" xmlns="http://www.w3.org/2000/svg">
<path d="M8.68612 0.688243C8.84122 0.688243 8.91878 0.764575 9.07389 0.840906C8.15874 1.22256 7.22809 2.1996 6.77827 4.30634L5.08758 4.76433C5.63046 3.25297 6.70072 0.688243 8.68612 0.688243ZM9.5237 1.43629C9.67881 1.89428 9.83392 2.41333 9.83392 3.25297V3.40563L7.61586 4.01628C8.08119 2.4286 8.84122 1.75688 9.53922 1.45156L9.5237 1.43629ZM11.5246 2.79499L10.5319 3.10031V2.87132C10.5319 2.18434 10.4544 1.66528 10.2993 1.2073C10.8421 1.35996 11.2919 2.03167 11.5246 2.79499ZM16.5036 4.00102C16.5036 4.00102 16.4261 3.84836 16.3485 3.84836C16.1934 3.84836 14.5803 3.69569 14.5803 3.69569C14.5803 3.69569 13.4325 2.56599 13.2773 2.48966C13.1222 2.337 12.8896 2.41333 12.812 2.41333C12.812 2.41333 12.5794 2.48966 12.1916 2.64232C11.8038 1.58895 11.1213 0.596646 9.97352 0.596646H9.89597C9.60126 0.153925 9.15144 0.00126233 8.76367 0.00126233C6.00273 -0.0750689 4.69981 3.3293 4.23448 5.05439C3.61404 5.20705 3.00912 5.43605 2.31113 5.66504C1.69069 5.8177 1.69069 5.89403 1.61314 6.41308C1.53558 6.79474 0 18.7177 0 18.7177L12.1916 20.9771L18.7837 19.5421C18.7837 19.5421 16.4881 4.13841 16.4881 3.98575L16.5036 4.00102ZM16.271 3.84836L14.5803 3.69569C14.5803 3.69569 13.4325 2.56599 13.2773 2.48966C13.2773 2.48966 13.2256 2.46422 13.1222 2.41333L12.2071 20.9923L18.7992 19.5573C18.7992 19.5573 16.5036 4.15368 16.5036 4.00102C16.5036 3.92469 16.3485 3.84836 16.271 3.84836ZM9.98903 7.48172L9.15144 9.89379C9.15144 9.89379 8.45345 9.51213 7.53831 9.51213C6.23539 9.51213 6.15783 10.2602 6.15783 10.4892C6.15783 11.5425 9.07389 12.0005 9.07389 14.5653C9.07389 16.6109 7.77097 17.8933 6.00273 17.8933C3.92426 17.8933 2.85401 16.6109 2.85401 16.6109L3.39689 14.7943C3.39689 14.7943 4.46714 15.695 5.3978 15.695C6.01824 15.695 6.23539 15.237 6.23539 14.8706C6.23539 13.4356 3.86222 13.3592 3.86222 11.0235C3.86222 9.05414 5.32025 7.1764 8.15874 7.1764C9.46166 7.10007 10.0045 7.48172 10.0045 7.48172M26.5547 11.9242C25.8567 11.5425 25.562 11.2372 25.562 10.8708C25.562 10.3365 26.0273 10.0465 26.7874 10.0465C27.6249 10.0465 28.4005 10.4281 28.4005 10.4281L29.0209 8.61142C29.0209 8.61142 28.478 8.15344 26.8804 8.15344C24.5848 8.15344 23.0492 9.4358 23.0492 11.2525C23.0492 12.3059 23.8093 13.0692 24.7399 13.5882C25.5 14.0462 25.8102 14.3363 25.8102 14.7943C25.8102 15.2522 25.4224 15.695 24.6624 15.695C23.5921 15.695 22.5219 15.1606 22.5219 15.1606L21.9014 16.9773C21.9014 16.9773 22.8166 17.588 24.4297 17.588C26.7253 17.588 28.416 16.4583 28.416 14.4126C28.416 13.2829 27.5784 12.4433 26.5702 11.9242M35.8457 8.07711C34.6979 8.07711 33.7673 8.61142 33.0848 9.4358L34.0775 4.30634H31.4717L28.9434 17.3742H31.5492L32.3868 12.9165C32.697 11.2525 33.6122 10.1991 34.4653 10.1991C35.0857 10.1991 35.3029 10.5808 35.3029 11.1762C35.3029 11.5578 35.3029 11.9242 35.2253 12.3059L34.2326 17.4353H36.8384L37.8311 12.1532C37.9087 11.6189 37.9862 10.9472 37.9862 10.4892C37.9862 8.97781 37.2262 8.07711 35.8457 8.07711ZM42.5154 15.5576C41.6003 15.5576 41.2901 14.8095 41.2901 13.8935C41.2901 12.4585 42.0501 10.0465 43.4306 10.0465C44.3457 10.0465 44.6559 10.7945 44.6559 11.5578C44.6559 13.2218 43.8959 15.5576 42.5154 15.5576ZM43.8183 8.07711C40.6696 8.07711 38.6067 10.8708 38.6067 13.9699C38.6067 15.9392 39.832 17.5116 42.2052 17.5116C45.2764 17.5116 47.3393 14.7943 47.3393 11.6189C47.3393 9.80219 46.2691 8.07711 43.8183 8.07711ZM51.4807 15.6339C50.7827 15.6339 50.4105 15.2522 50.4105 15.2522L50.8758 12.8402C51.186 11.2525 52.0236 10.1991 52.9543 10.1991C53.7143 10.1991 54.0245 10.9472 54.0245 11.6341C53.947 13.2982 52.9543 15.6339 51.4962 15.6339H51.4807ZM54.0245 8.07711C52.2563 8.07711 51.2636 9.58846 51.2636 9.58846L51.4187 8.22977H49.1231C49.0455 9.13048 48.8129 10.5655 48.5802 11.6341L46.7344 20.9923H49.3402L50.0382 17.2216H50.1158C50.1158 17.2216 50.6587 17.5269 51.6514 17.5269C54.7225 17.5269 56.7079 14.4279 56.7079 11.3288C56.7079 9.6648 55.9479 8.07711 54.0245 8.07711ZM60.384 4.45901C59.5464 4.45901 58.926 5.14599 58.926 5.97036C58.926 6.71841 59.3913 7.25273 60.1513 7.25273C60.9889 7.25273 61.6869 6.71841 61.6869 5.74137C61.6869 4.99332 61.144 4.45901 60.384 4.45901ZM56.7855 17.3742H59.3913L61.1595 8.32137H58.5537L56.7855 17.3742ZM67.7517 8.3061H65.9059L65.9834 7.84811C66.1386 6.9474 66.6814 6.18409 67.519 6.18409C67.9844 6.18409 68.3566 6.33675 68.3566 6.33675L68.8995 4.29108C68.8995 4.29108 68.4342 4.06208 67.519 4.06208C66.6039 4.06208 65.6732 4.29108 64.9907 4.88646C64.0756 5.63451 63.6878 6.70314 63.4552 7.75651L63.3776 8.2145H62.1523L61.7645 10.1838H62.9898L61.6094 17.359H64.2152L65.5957 10.1838H67.3639L67.7517 8.29083V8.3061ZM73.9561 8.3061C73.9561 8.3061 72.3429 12.3059 71.5829 14.5042C71.5053 13.8172 70.9625 8.3061 70.9625 8.3061H68.2015L69.7371 16.6109C69.7371 16.7636 69.7371 16.9163 69.6595 17.0689C69.3493 17.6796 68.8219 18.1986 68.2791 18.5803C67.8137 18.9619 67.2088 19.1909 66.821 19.3283L67.519 21.5114C68.0619 21.4351 69.1322 20.9771 70.0473 20.1527C71.1951 19.0993 72.3429 17.359 73.4287 15.0996L76.5774 8.38243L73.9716 8.3061H73.9561Z" fill="black"/>
</svg>
