<svg width="94" height="13" viewBox="0 0 94 13" fill="none" xmlns="http://www.w3.org/2000/svg">
<path d="M84.9586 0H72.9443L67.8284 5.3481L68.5283 0H65.7719L64.1627 12.5662L61.9258 7.47238C63.6504 7.02359 64.8194 5.37054 64.7256 3.53049C64.639 2.49079 64.0256 0 60.5765 0H55.6337L54.1689 11.4367L51.3547 0H49.1683L43.4246 11.4143L44.9255 0H42.2123L37.9334 6.65708L35.4006 0H30.3279L27.3117 5.11623L25.4356 0H20.4495L19.4465 7.74914L15.2975 0H12.9379L11.4875 11.3619L8.70223 0.0448792H6.51585L0.526752 11.8705C0.1371 12.641 0 12.9551 0 12.9551H3.14608C3.84601 10.6887 6.24887 9.42463 8.12497 8.6542L9.04138 12.9551H11.2783V13H14.0708L15.0738 5.25086L19.1795 12.9102L19.2228 12.9551H21.5391L23.0616 1.42117L25.6954 7.6519L24.9955 12.9551H27.7519L28.4518 7.74914L32.6658 1.1893L31.1577 12.9551H33.9575L34.8739 5.75201L36.7067 10.1502H38.5828L41.3825 5.80437L40.4228 12.9626H42.3927H45.712C46.4119 10.6962 48.9014 9.33487 50.7847 8.56444L51.7011 12.9626H54.5441H56.7738L57.4737 7.8015H59.2199L61.2764 12.9626H66.8687L67.3521 9.02071L69.2282 7.16571L72.1145 12.9626H83.4361L83.7392 10.6513H77.5769L77.9665 7.6145H83.1691L83.4722 5.25834H78.2696L78.6159 2.35616L84.6916 2.31128H87.578L86.1781 12.9551H88.9778L90.3344 2.31128H93.7402L94 0H84.9514H84.9586ZM4.94281 8.74396L7.17249 4.03165L8.0023 8.01841C6.96323 8.16053 5.93859 8.39988 4.94281 8.74396ZM47.6819 8.6542L49.825 4.07652L50.6548 7.97353C49.6446 8.07825 48.6416 8.31013 47.6819 8.6542ZM61.5362 4.98159C61.0888 5.4229 60.4899 5.65478 59.8766 5.61738H57.6902L58.1303 2.31128H60.36C61.1393 2.19908 61.8609 2.76755 61.9691 3.58285C61.9691 3.61277 61.9691 3.64269 61.9764 3.67261C61.9836 4.15132 61.832 4.61507 61.5362 4.98907V4.98159ZM74.6112 11.8631L71.3208 5.43786L76.076 0.381473L74.604 11.8705L74.6112 11.8631Z" fill="black"/>
</svg>
