<svg width="101" height="18" viewBox="0 0 101 18" fill="none" xmlns="http://www.w3.org/2000/svg">
<path d="M12.6038 7.05448C12.6304 6.91072 12.4058 6.84295 12.2996 7.03189L9.35794 12.7145C9.17625 13.0205 8.87208 13.0123 8.87208 13.0123H7.27976C7.27976 13.0123 6.947 13.0205 6.89597 12.6878L6.03652 7.0093C5.99569 6.77518 5.74868 6.79161 5.70377 7.0093L4.78308 11.7965C6.09164 13.8646 7.54719 15.8279 9.13542 17.668C9.3069 17.8467 9.54983 17.9556 9.81522 17.9556C10.0806 17.9556 10.3215 17.8467 10.493 17.668C11.773 16.1873 12.9611 14.6306 14.0573 13.0041L11.4749 13.0123L12.5997 7.05448H12.6038ZM19.6304 1.78056C19.6304 1.3041 19.2854 0.909792 18.8302 0.833805C16.7459 0.435386 13.7409 0 9.81522 0C6.71836 0 3.69296 0.291626 0.757372 0.846127C0.324588 0.938544 0 1.32259 0 1.78262C0 1.89352 0.0204144 2.00031 0.0551187 2.09683C0.777787 4.12179 1.62907 6.08308 2.59875 7.97454L3.46432 3.36397H8.38417L9.10072 7.87186C9.13746 8.08544 9.38244 8.06696 9.49267 7.8965L11.8607 3.36397H16.8133L15.3924 10.9154C17.0603 8.14911 18.4648 5.20409 19.5692 2.11532H19.5651C19.6039 2.01058 19.6284 1.89968 19.6284 1.78262L19.6304 1.78056ZM39.9141 5.50188C39.6651 5.50188 39.6712 5.73806 39.6712 5.73806V6.9518C39.6712 6.9518 39.661 7.19003 39.9019 7.19003H42.8824V9.15748H39.9243C39.6569 9.15748 39.6732 9.41214 39.6732 9.41214V10.6526C39.6732 10.6526 39.659 10.9031 39.9223 10.9031H43.1131V13.0308H37.1807V3.37424H43.1131V5.50188H39.9162H39.9141ZM57.6399 11.3549C57.4909 11.3549 57.4582 11.4823 57.4582 11.4823L56.8438 13.0328H54.194L57.8869 3.37424H60.6123L64.2256 13.0328H61.5656L60.9879 11.4823C60.9879 11.4823 60.9573 11.3549 60.8164 11.3549H57.6358H57.6399ZM60.1488 9.00345L59.4486 6.85527C59.3792 6.65812 59.0934 6.66428 59.024 6.8717L58.3258 8.97264C58.2646 9.17801 58.3708 9.35258 58.6035 9.35258H59.8753C60.1101 9.35258 60.2142 9.17801 60.1488 9.0014V9.00345ZM68.1431 13.0328H65.6464V5.8202C65.6464 5.50804 65.3586 5.50188 65.3586 5.50188H63.4253V3.37424H70.3621V5.50188H68.4575C68.1268 5.50188 68.1431 5.80172 68.1431 5.80172V13.0349V13.0328ZM81.5615 8.02383C81.5615 11.1516 79.3343 13.3532 76.2537 13.3532C73.1732 13.3532 70.9399 11.1516 70.9399 8.02383C70.9399 5.10141 73.4896 3.05181 76.2537 3.05181C79.0178 3.05181 81.5615 5.10141 81.5615 8.02383ZM73.5386 8.03615C73.5386 9.70376 74.7614 10.9175 76.2517 10.9175C77.7419 10.9175 78.9607 9.70376 78.9607 8.03615C78.9607 6.70535 77.7378 5.48545 76.2517 5.48545C74.7655 5.48545 73.5386 6.70535 73.5386 8.03615ZM82.721 3.37424H85.2136L88.8371 8.642C88.9453 8.81451 89.1801 8.81451 89.1801 8.6153V3.37219H91.6747V13.0308H89.1801L85.5218 7.69113C85.4136 7.54737 85.2136 7.61104 85.2136 7.80408V13.0308H82.721V3.37424ZM95.8311 5.50188C95.5779 5.50188 95.5861 5.73806 95.5861 5.73806V6.9518C95.5861 6.9518 95.5718 7.19003 95.8148 7.19003H98.7953V9.15748H95.8372C95.5677 9.15748 95.5861 9.41214 95.5861 9.41214V10.6526C95.5861 10.6526 95.5677 10.9031 95.8372 10.9031H99.0259V13.0308H93.0894V3.37424H99.0259V5.50188H95.829H95.8311ZM25.5036 3.37424H28.1983L29.907 8.09366C29.9785 8.25385 30.1806 8.24358 30.2479 8.09366L32.0505 3.37424H34.7718L35.9068 13.0328H33.4081L32.9304 8.07312C32.91 7.88829 32.6773 7.8965 32.6119 8.07312L30.6297 12.8069C30.6297 12.8069 30.5521 13.0308 30.3255 13.0308H29.76C29.5436 13.0308 29.4497 12.7987 29.4497 12.7987L27.5716 8.03615C27.49 7.84721 27.2797 7.88829 27.2532 8.05258L26.6734 13.0328H24.193L25.5057 3.37424H25.5036ZM50.1989 7.63363H54.2879C54.2879 7.63363 54.3634 8.51877 54.2511 9.33615C54.1389 10.1535 53.8755 10.823 53.4182 11.4494C52.4669 12.7597 51.1339 13.347 49.5313 13.347C46.5121 13.347 44.4094 11.2831 44.4094 8.24768C44.4094 5.21231 46.5223 3.0477 49.6171 3.0477C51.5911 3.0477 53.1222 3.94312 53.949 5.75243L51.5789 6.75053C51.2339 5.83047 50.5071 5.21231 49.5048 5.21231C47.8614 5.21231 47.0061 6.78955 47.0061 8.26001C47.0061 9.73046 47.9002 11.2831 49.5415 11.2831C50.5296 11.2831 51.4176 10.823 51.7279 9.9194C51.7728 9.79413 51.7034 9.60724 51.4891 9.60724H50.2091C49.9172 9.60724 49.909 9.30534 49.909 9.30534V7.91704C49.909 7.91704 49.8947 7.63568 50.1968 7.63568L50.1989 7.63363ZM99.9405 3.69873H100.163C100.273 3.69873 100.359 3.7131 100.422 3.74801C100.484 3.77882 100.516 3.84659 100.516 3.94517C100.516 4.00062 100.498 4.0458 100.463 4.08277C100.428 4.11973 100.383 4.14233 100.328 4.15465C100.349 4.16286 100.365 4.17518 100.377 4.18545C100.39 4.19983 100.402 4.22037 100.416 4.24706L100.588 4.61057H100.441L100.302 4.2943C100.281 4.25323 100.263 4.22858 100.243 4.21831C100.22 4.2101 100.19 4.20394 100.149 4.20394H100.069V4.61057H99.9405V3.69873ZM100.069 4.08893H100.179C100.243 4.08893 100.29 4.07661 100.326 4.05196C100.359 4.02732 100.377 3.99241 100.377 3.94928C100.377 3.90615 100.363 3.87329 100.33 3.8507C100.3 3.82605 100.255 3.81579 100.196 3.81579H100.071V4.09098L100.069 4.08893ZM99.4485 4.15465C99.4485 4.58593 99.7956 4.93711 100.226 4.93711C100.657 4.93711 101 4.58593 101 4.15465C101 3.72337 100.653 3.37424 100.226 3.37424C99.7996 3.37424 99.4485 3.72337 99.4485 4.15465ZM99.5465 4.15465C99.5465 3.77882 99.8527 3.47282 100.224 3.47282C100.596 3.47282 100.902 3.77882 100.902 4.15465C100.902 4.53048 100.6 4.83648 100.224 4.83648C99.8486 4.83648 99.5465 4.53048 99.5465 4.15465Z" fill="black"/>
</svg>
