<svg width="92" height="24" viewBox="0 0 92 24" fill="none" xmlns="http://www.w3.org/2000/svg">
<path d="M81.3186 2.00553V4.08033C81.1077 3.73453 80.8394 3.46777 80.5039 3.27017C80.1684 3.07257 79.7851 2.97377 79.3538 2.97377C78.4145 2.97377 77.6669 3.33933 77.111 4.05069C76.5551 4.76205 76.2676 5.80933 76.2676 7.06409C76.2676 8.15089 76.5551 9.04997 77.1206 9.74157C77.6861 10.4332 78.8075 10.7395 79.7947 10.7395C83.2546 10.7395 83.2163 7.68653 83.2163 7.68653V0.651972C83.2163 0.651972 81.3186 0.444492 81.3186 2.00553ZM80.9544 8.55597C80.686 8.96105 80.2739 9.15865 79.7467 9.15865C79.2196 9.15865 78.8266 8.95117 78.5678 8.54609C78.3091 8.13113 78.1749 7.53833 78.1749 6.86649C78.1749 6.23417 78.3091 5.71053 78.5583 5.28569C78.8075 4.86085 79.21 4.65337 79.7563 4.65337C80.1109 4.65337 80.4272 4.77193 80.6956 5.00905C81.1365 5.39437 81.3569 6.08597 81.3569 6.98505C81.3569 7.62725 81.2132 8.15089 80.9448 8.55597H80.9544Z" fill="black"/>
<path d="M57.4206 10.5815H59.2991V6.98522C59.2991 6.4023 59.3758 5.9577 59.51 5.67118C59.7687 5.1673 60.2671 4.9203 61.0243 4.9203C61.0818 4.9203 61.1489 4.9203 61.2448 4.9203C61.331 4.9203 61.4364 4.93018 61.561 4.94994V2.98382C61.4748 2.98382 61.4269 2.98382 61.4077 2.97394H61.3118C57.1809 2.97394 57.4206 6.7481 57.4206 6.7481V10.5815Z" fill="black"/>
<path d="M53.0805 10.7597C54.2306 10.7597 55.122 10.3942 55.7641 9.68281C56.1092 9.30737 56.3296 8.93193 56.4159 8.56637H54.4223C54.3456 8.68493 54.2594 8.78373 54.1635 8.86277C53.8952 9.09001 53.5405 9.15917 53.1188 9.15917C52.6971 9.15917 52.4096 9.09989 52.1221 8.91217C51.6524 8.61577 51.3936 8.11189 51.3649 7.37089H56.5596C56.5596 6.73857 56.5405 6.24457 56.5021 5.90865C56.4159 5.32573 56.2242 4.83173 55.9367 4.38713C55.6204 3.89313 55.2082 3.52757 54.7003 3.30033C54.1923 3.07309 53.646 2.95453 53.023 2.95453C51.9783 2.95453 51.1253 3.29045 50.4735 3.97217C49.8122 4.65389 49.4863 5.63201 49.4863 6.90653C49.4863 8.26997 49.8505 9.24809 50.579 9.85077C51.3074 10.4534 52.1412 10.7597 53.0901 10.7597H53.0805ZM51.9016 4.97993C52.17 4.70329 52.5342 4.56497 53.023 4.56497C53.4543 4.56497 53.8281 4.70329 54.1348 4.96017C54.4319 5.21705 54.6044 5.61225 54.6332 6.11613H51.4224C51.4799 5.63201 51.6524 5.25657 51.9112 4.97993H51.9016Z" fill="black"/>
<path d="M16.6769 0C7.4567 0 0 5.04868 0 11.2434V11.8955C0 18.4657 6.52701 23.791 16.6674 23.791C26.8077 23.791 33.3347 18.4657 33.3347 11.8955V11.2434C33.3347 5.05856 25.8684 0 16.6674 0L16.6769 0ZM32.4338 10.0084C28.8875 10.868 26.2614 12.0338 25.5905 12.3401C24.009 10.9174 20.3574 7.63724 19.3606 6.87648C18.7951 6.44176 18.4117 6.20464 18.0763 6.09596C17.9229 6.04656 17.7121 5.99716 17.4437 5.99716C17.1945 5.99716 16.9261 6.04656 16.6386 6.14536C16.006 6.35284 15.3639 6.87648 14.7409 7.38036L14.7025 7.41C14.1275 7.88424 13.5332 8.36836 13.0828 8.46716C12.8815 8.50668 12.6898 8.53632 12.4885 8.53632C11.9901 8.53632 11.5301 8.38812 11.3672 8.16088C11.3384 8.12136 11.3672 8.06208 11.4247 7.97316L12.8144 6.41212C13.907 5.2858 14.9326 4.22864 17.3095 4.17924H17.4245C18.9005 4.17924 20.3765 4.86096 20.5395 4.94C21.9196 5.64148 23.3477 5.99716 24.7854 5.99716C26.108 5.99716 27.4882 5.681 28.9163 5.06844C30.6894 6.45164 31.9354 8.14112 32.4434 10.0084H32.4338ZM28.2933 4.62384C27.0856 5.09808 25.9259 5.34508 24.795 5.34508C23.4627 5.34508 22.1209 5.01904 20.827 4.35708C20.7599 4.31756 19.1306 3.52716 17.4341 3.52716H17.2999C15.3064 3.57656 14.1946 4.30768 13.4278 4.94C12.6994 4.95976 12.0668 5.1376 11.5013 5.30556C11.0029 5.44388 10.5621 5.57232 10.1499 5.57232C9.97741 5.57232 9.66112 5.56244 9.63237 5.56244C9.20107 5.55256 7.19792 5.04868 5.38646 4.3966C8.28096 2.49964 12.2777 1.32392 16.6865 1.32392C21.0954 1.32392 25.3796 2.59844 28.3029 4.62384H28.2933ZM4.75389 4.85108C6.65161 5.59208 8.7506 6.14536 9.45985 6.19476C9.68029 6.20464 9.91032 6.23428 10.1403 6.23428C10.6579 6.23428 11.1755 6.08608 11.6739 5.93788C11.971 5.84896 12.2968 5.76004 12.6419 5.69088C12.5556 5.7798 12.4598 5.8786 12.3735 5.9774L10.9646 7.54832C10.8592 7.657 10.61 7.97316 10.7729 8.3486C10.8304 8.50668 10.9646 8.65488 11.1467 8.77344C11.4822 9.00068 12.086 9.16864 12.6515 9.16864C12.8623 9.16864 13.0636 9.14888 13.2457 9.10936C13.8399 8.98092 14.4629 8.45728 15.1147 7.92376C15.6418 7.48904 16.3894 6.95552 16.9549 6.78756C17.1082 6.74804 17.3095 6.7184 17.4724 6.7184C17.5204 6.7184 17.5587 6.7184 17.6066 6.7184C17.9804 6.7678 18.3446 6.90612 18.9964 7.40012C20.1561 8.2992 25.2934 12.923 25.3413 12.9724C25.3413 12.9724 25.6671 13.2688 25.648 13.7431C25.6384 14.0098 25.4946 14.2568 25.2358 14.4248C25.0154 14.5631 24.795 14.6422 24.5649 14.6422C24.2199 14.6422 23.9803 14.4742 23.9707 14.4643C23.9515 14.4544 22.188 12.7847 21.5458 12.2314C21.4404 12.1425 21.3446 12.0635 21.2487 12.0635C21.1912 12.0635 21.1433 12.0832 21.105 12.1228C20.9995 12.2512 21.1145 12.4389 21.2487 12.5476L23.2998 14.6817C23.2998 14.6817 23.5586 14.9287 23.5777 15.2547C23.5873 15.6104 23.4244 15.9068 23.0889 16.1242C22.8493 16.2822 22.6001 16.3712 22.3605 16.3712C22.0442 16.3712 21.8238 16.223 21.7759 16.1834L21.4787 15.887C20.9324 15.3436 20.3861 14.7706 19.974 14.4248C19.8781 14.3359 19.7727 14.2667 19.6673 14.2667C19.6194 14.2667 19.5714 14.2865 19.5331 14.326C19.4852 14.3853 19.4564 14.4742 19.5714 14.6422C19.6194 14.7014 19.6769 14.7607 19.6769 14.7607L21.1816 16.4996C21.1816 16.4996 21.4883 16.8849 21.22 17.2406L21.1625 17.3098C21.1145 17.3592 21.0666 17.4086 21.0283 17.4481C20.7695 17.6654 20.434 17.6852 20.2999 17.6852C20.2232 17.6852 20.1561 17.6852 20.0986 17.6654C19.9452 17.6358 19.8494 17.5963 19.8015 17.537L19.7823 17.5172C19.696 17.4382 18.9485 16.6379 18.3159 16.1044C18.2296 16.0352 18.1338 15.9463 18.0188 15.9463C17.9613 15.9463 17.9229 15.9661 17.8846 16.0056C17.76 16.1439 17.9421 16.3514 18.0283 16.4304L19.3127 17.8828C19.3127 17.8828 19.2935 17.9223 19.2647 17.9717C19.2168 18.031 19.0635 18.199 18.6034 18.2582C18.5459 18.2582 18.4884 18.2681 18.4309 18.2681C17.9517 18.2681 17.4437 18.031 17.1753 17.8828C17.2903 17.6259 17.3574 17.3295 17.3574 17.0529C17.3574 15.9661 16.5044 15.0868 15.4501 15.0868H15.383C15.4118 14.5928 15.3447 13.6542 14.415 13.2392C14.1466 13.1206 13.8783 13.0614 13.6099 13.0614C13.4086 13.0614 13.217 13.1009 13.0253 13.17C12.8336 12.7847 12.5077 12.4982 12.0956 12.35C11.8655 12.271 11.6355 12.2216 11.4151 12.2216C11.0221 12.2216 10.6675 12.3401 10.3512 12.5772C10.0445 12.182 9.58445 11.9449 9.09564 11.9449C8.67392 11.9449 8.26179 12.1228 7.95509 12.429C7.55254 12.1129 5.98069 11.0854 1.75395 10.0974C1.58143 10.0578 1.23639 9.95904 0.958445 9.87012C1.52393 7.96328 2.86575 6.24416 4.76347 4.85108H4.75389ZM11.856 16.055C11.5493 16.2625 11.1946 16.3909 10.7729 16.223C9.71863 15.7981 9.80489 14.7607 9.85281 14.4841C9.85281 14.4544 9.85281 14.4446 9.85281 14.4446C9.65154 14.652 9.38317 14.7706 9.07647 14.7706C8.46307 14.7706 7.95509 14.2568 7.95509 13.6245C7.95509 12.9922 8.46307 12.4784 9.07647 12.4784C9.64195 12.4784 10.1116 12.923 10.1787 13.4862C10.332 13.2293 10.955 12.5377 11.9231 12.844C12.6035 13.0515 12.6994 13.6937 12.7186 13.9209C12.7186 13.9802 12.7473 13.9802 12.7857 13.9308C12.9486 13.753 13.4278 13.3676 14.2137 13.7134C15.2297 14.1679 14.808 15.4622 14.7792 15.5412C14.7505 15.6203 14.7025 15.7487 14.7313 15.7685C14.7792 15.7981 15.1338 15.6005 15.4405 15.6104C16.2169 15.6104 16.8399 16.2625 16.8399 17.0529C16.8399 17.8433 16.2073 18.4954 15.431 18.4954C14.6546 18.4954 14.0508 17.8828 14.0316 17.1122C14.0316 16.9738 14.0029 16.9541 13.8974 17.0529C13.6674 17.2702 13.3128 17.5271 12.7281 17.2801C11.9518 16.9541 11.9039 16.381 11.9422 16.1143C11.9518 16.0254 11.9422 16.0056 11.856 16.0649V16.055ZM16.6769 22.4671C7.82091 22.4671 0.642158 17.7346 0.642158 11.8955C0.642158 11.441 0.699665 10.9964 0.785925 10.5617C1.01595 10.621 1.476 10.7297 1.59102 10.7593C5.9136 11.7473 7.3321 12.7748 7.57171 12.9724C7.48545 13.1799 7.44712 13.3973 7.44712 13.6146C7.44712 14.5335 8.17553 15.2844 9.06689 15.2844C9.17232 15.2844 9.26816 15.2844 9.36401 15.2547C9.49819 15.9364 9.92949 16.4502 10.5812 16.7071C10.7729 16.7861 10.9646 16.8158 11.1563 16.8158C11.2809 16.8158 11.4055 16.8059 11.5301 16.7664C11.6547 17.0825 11.9326 17.4777 12.5365 17.7346C12.7473 17.8235 12.9582 17.863 13.169 17.863C13.3416 17.863 13.5045 17.8334 13.6674 17.7741C13.9645 18.5052 14.6546 18.9992 15.431 18.9992C15.9485 18.9992 16.4373 18.7918 16.8015 18.3966C17.1082 18.5744 17.76 18.8906 18.4213 18.8906C18.5076 18.8906 18.5842 18.8906 18.6705 18.8807C19.3222 18.8016 19.6289 18.5349 19.7631 18.3274C19.7919 18.2879 19.8111 18.2582 19.8302 18.2187C19.9836 18.2582 20.1465 18.2978 20.3478 18.2978C20.7024 18.2978 21.0474 18.1693 21.3925 17.9124C21.7375 17.6556 21.9771 17.2999 22.0059 16.9837C22.1209 16.9837 22.2359 17.0035 22.3605 17.0035C22.7343 17.0035 23.0889 16.8849 23.434 16.6478C24.0953 16.1933 24.2103 15.6104 24.2007 15.2251C24.3157 15.2547 24.4308 15.2646 24.5554 15.2646C24.9004 15.2646 25.2358 15.1559 25.5617 14.9484C25.9739 14.6817 26.223 14.2667 26.2614 13.7727C26.2901 13.4467 26.2039 13.1108 26.0409 12.8242C27.1432 12.3401 29.6447 11.3916 32.5967 10.7C32.6638 11.0952 32.7021 11.4904 32.7021 11.8955C32.7021 17.7346 25.5234 22.4671 16.6769 22.4671Z" fill="black"/>
<path d="M90.1508 4.08942C89.547 3.3089 88.6365 2.92358 87.4097 2.92358C86.1829 2.92358 85.2723 3.3089 84.6685 4.08942C84.0647 4.86994 83.7676 5.7789 83.7676 6.83606C83.7676 7.89322 84.0743 8.83182 84.6685 9.60246C85.2723 10.3632 86.1829 10.7485 87.4097 10.7485C88.6365 10.7485 89.547 10.3632 90.1508 9.60246C90.7546 8.83182 91.0518 7.91298 91.0518 6.83606C91.0518 5.75914 90.7451 4.86006 90.1508 4.08942ZM88.6556 8.53542C88.3585 8.9405 87.9464 9.1381 87.4001 9.1381C86.8538 9.1381 86.4321 8.9405 86.1349 8.53542C85.8378 8.14022 85.7036 7.56718 85.7036 6.83606C85.7036 6.10494 85.8474 5.5319 86.1349 5.1367C86.4321 4.7415 86.8442 4.5439 87.4001 4.5439C87.956 4.5439 88.3585 4.7415 88.6556 5.1367C88.9528 5.5319 89.0965 6.10494 89.0965 6.83606C89.0965 7.56718 88.9528 8.14022 88.6556 8.53542Z" fill="black"/>
<path d="M43.56 14.4841H41.6719V21.8348H43.56V14.4841Z" fill="black"/>
<path d="M48.808 14.2855C48.3767 14.2855 47.9934 14.3843 47.6579 14.572C47.3225 14.7696 47.0445 15.0363 46.8432 15.3821V11.9044C46.8432 11.9044 44.9551 11.7167 44.9551 13.2975V18.9389C44.9551 18.9389 44.9168 21.9919 48.3767 21.9919C49.3735 21.9919 50.4853 21.6856 51.0508 20.994C51.6163 20.3024 51.9038 19.4033 51.9038 18.3165C51.9038 17.0617 51.6259 16.0737 51.0604 15.3624C50.4949 14.651 49.7473 14.2855 48.808 14.2855ZM49.5748 19.8183C49.316 20.2332 48.9231 20.4209 48.3959 20.4209C47.8688 20.4209 47.4662 20.2233 47.1883 19.8183C46.9199 19.4132 46.7761 18.8994 46.7761 18.2473C46.7761 17.3483 46.9966 16.7061 47.4375 16.3207C47.7154 16.0836 48.0221 15.9651 48.3863 15.9651C48.9326 15.9651 49.3256 16.1725 49.5844 16.5974C49.8336 17.0222 49.9678 17.5557 49.9678 18.1782C49.9678 18.8599 49.8336 19.4033 49.5748 19.8183Z" fill="black"/>
<path d="M56.347 14.2866C52.2161 14.2866 52.4557 18.0608 52.4557 18.0608V21.8349H54.3343V18.2979C54.3343 17.7051 54.4014 17.2704 54.5547 16.9937C54.8135 16.4899 55.3119 16.2429 56.0691 16.2429C56.1266 16.2429 56.1936 16.2429 56.2895 16.2429C56.3758 16.2429 56.4908 16.2527 56.6058 16.2725V14.3064C56.5291 14.2866 56.4716 14.2866 56.4524 14.2866H56.3662H56.347Z" fill="black"/>
<path d="M63.7515 17.1898C63.6652 16.6168 63.4831 16.1129 63.186 15.6782C62.8697 15.1842 62.4576 14.8285 61.9688 14.6012C61.4704 14.374 60.924 14.2653 60.3011 14.2653C59.2659 14.2653 58.4225 14.6012 57.7803 15.2731C57.1286 15.9449 56.8027 16.9132 56.8027 18.1778C56.8027 19.5215 57.1574 20.4996 57.8858 21.0924C58.6046 21.6951 59.4289 21.9915 60.3777 21.9915C61.5183 21.9915 62.4001 21.6358 63.0326 20.9244C63.3777 20.549 63.5885 20.1834 63.6748 19.8179H61.7004V19.8376C61.6237 19.9463 61.5375 20.0451 61.4416 20.1242C61.1732 20.3514 60.809 20.4304 60.3873 20.4304C59.9656 20.4304 59.6781 20.3712 59.3905 20.1834C58.9209 19.887 58.6813 19.3832 58.6525 18.6422H63.7994C63.7994 18.0098 63.7898 17.5356 63.7419 17.1997L63.7515 17.1898ZM58.71 17.3874C58.7771 16.9132 58.9401 16.5377 59.1988 16.2611C59.4576 15.9844 59.8314 15.8461 60.3011 15.8461C60.7419 15.8461 61.1062 15.9844 61.3937 16.2413C61.6908 16.5081 61.8537 16.8835 61.8825 17.3973H58.7005L58.71 17.3874Z" fill="black"/>
<path d="M38.4727 13.2991V21.8157H40.2362V11.906C40.2362 11.906 38.4727 11.827 38.4727 13.2991Z" fill="black"/>
<path d="M74.7671 3.42901C74.1537 3.11285 73.4637 2.94489 72.6777 2.94489C71.4701 2.94489 70.6171 3.27093 70.1187 3.91313C69.8024 4.32809 69.6299 4.86161 69.5915 5.50381H71.403C71.4413 5.22717 71.5372 4.99993 71.6714 4.82209C71.8535 4.59485 72.1698 4.48617 72.6202 4.48617C73.0132 4.48617 73.3295 4.54544 73.5307 4.664C73.732 4.77268 73.8375 4.99004 73.8375 5.28644C73.8375 5.53344 73.6937 5.72116 73.4349 5.83972C73.2816 5.90888 73.0324 5.96816 72.6873 6.00768L72.0452 6.08672C71.3167 6.17564 70.7704 6.3436 70.3966 6.56096C69.7161 6.96604 69.3711 7.61812 69.3711 8.52708C69.3711 9.22856 69.582 9.77197 70.0133 10.1474C70.435 10.5327 70.9813 10.6908 71.633 10.7204C75.716 10.9082 75.6681 8.50733 75.7064 8.00345V5.23705C75.7064 4.34785 75.3901 3.74517 74.7767 3.41913L74.7671 3.42901ZM73.8183 7.63788C73.8087 8.28008 73.6266 8.72468 73.2816 8.97168C72.9365 9.21868 72.5627 9.33724 72.1506 9.33724C71.8918 9.33724 71.6714 9.26808 71.4988 9.11988C71.3167 8.97168 71.2305 8.73456 71.2305 8.40852C71.2305 8.04297 71.3742 7.76632 71.6714 7.58848C71.8439 7.4798 72.1314 7.40076 72.534 7.32172L72.9557 7.23281C73.1665 7.19329 73.3295 7.15376 73.4541 7.10436C73.5787 7.05496 73.6937 6.99568 73.8183 6.91664V7.628V7.63788Z" fill="black"/>
<path d="M65.4651 4.60414C65.9347 4.60414 66.2702 4.75234 66.5002 5.04874C66.6535 5.2661 66.7494 5.5131 66.7781 5.78974H68.7909C68.6855 4.74246 68.3212 4.01134 67.727 3.59638C67.1232 3.18142 66.3468 2.97394 65.4076 2.97394C64.2958 2.97394 63.4332 3.32962 62.8006 4.02122C62.168 4.7227 61.8613 5.70082 61.8613 6.96546C61.8613 8.0819 62.1489 8.99086 62.7143 9.69234C63.2798 10.3938 64.1712 10.7495 65.3788 10.7495C66.5865 10.7495 67.5066 10.3247 68.12 9.48486C68.5034 8.96122 68.7238 8.40794 68.7717 7.82502H66.7686C66.7302 8.21034 66.6152 8.5265 66.4235 8.7735C66.2318 9.01062 65.906 9.13906 65.4459 9.13906C64.7942 9.13906 64.3533 8.83278 64.1233 8.22022C63.9891 7.89418 63.9316 7.45946 63.9316 6.92594C63.9316 6.36278 63.9987 5.9083 64.1233 5.5625C64.3629 4.93018 64.8133 4.60414 65.4747 4.60414H65.4651Z" fill="black"/>
<path d="M47.0124 6.13565V10.5915H48.7184V6.18505C48.7184 4.29797 47.6066 2.96417 45.7377 2.96417C44.8655 2.96417 44.1179 3.35937 43.6099 3.99169C43.1307 3.35937 42.3927 2.96417 41.4822 2.96417C39.6515 2.96417 38.4727 4.35725 38.4727 6.18505V10.5915H40.1883V6.13565C40.1883 5.31561 40.725 4.76233 41.4918 4.76233C42.6227 4.76233 42.7377 5.73057 42.7377 6.13565V10.5915H44.4534V6.13565C44.4534 5.31561 44.9997 4.76233 45.7568 4.76233C46.8878 4.76233 47.022 5.73057 47.022 6.13565H47.0124Z" fill="black"/>
<path d="M43.5487 11.8955H41.6719V13.8218H43.5487V11.8955Z" fill="black"/>
</svg>
