<svg width="103" height="17" viewBox="0 0 103 17" fill="none" xmlns="http://www.w3.org/2000/svg">
<path d="M5.33357 5.09435V14.2711H3.42387V5.09435H0V3.3774H8.91031V5.09435H5.33357ZM6.16588 10.2698C6.16588 9.05635 6.51288 8.06646 7.20444 7.30256C7.89844 6.53865 8.81082 6.15793 9.94888 6.15793C11.1427 6.15793 12.0721 6.52391 12.7321 7.25834C13.3922 7.99278 13.7246 8.99494 13.7246 10.2698C13.7246 11.5446 13.3873 12.5467 12.7152 13.2959C12.0406 14.0451 11.1209 14.4184 9.94888 14.4184C8.77685 14.4184 7.82564 14.0402 7.16077 13.2836C6.49832 12.5271 6.16588 11.5225 6.16588 10.2673V10.2698ZM8.07558 10.2698C8.07558 12.0236 8.6992 12.9029 9.94888 12.9029C10.5215 12.9029 10.9753 12.6745 11.3126 12.2176C11.6475 11.7607 11.8149 11.1123 11.8149 10.2698C11.8149 8.54053 11.1937 7.67346 9.94888 7.67346C9.37621 7.67346 8.92002 7.90189 8.58273 8.35876C8.24544 8.81563 8.07558 9.45181 8.07558 10.2698ZM18.7985 8.03699C18.4709 7.81838 18.1094 7.7103 17.7187 7.7103C17.2916 7.7103 16.9155 7.90681 16.5831 8.29736C16.2531 8.68791 16.0881 9.16688 16.0881 9.73183V14.2686H14.2512V6.3053H16.0881V7.03482C16.6025 6.45022 17.2844 6.15793 18.1385 6.15793C18.7646 6.15793 19.245 6.25372 19.5775 6.44777L18.7985 8.03945V8.03699ZM24.9183 14.2686V9.66551C24.9183 8.98757 24.7897 8.4914 24.5325 8.17945C24.2753 7.8675 23.8555 7.7103 23.2731 7.7103C23.0037 7.7103 22.715 7.78645 22.4092 7.94119C22.1035 8.09594 21.8633 8.28507 21.6934 8.51351V14.2686H19.8565V6.3053H21.179L21.5163 7.04956C22.0161 6.45514 22.7538 6.15793 23.7269 6.15793C24.6999 6.15793 25.4012 6.44286 25.9423 7.01026C26.4834 7.57766 26.7552 8.37104 26.7552 9.38549V14.2711H24.9183V14.2686ZM31.9286 13.4728C31.7612 13.7503 31.4724 13.9763 31.0575 14.1532C30.6425 14.33 30.2106 14.416 29.7617 14.416C28.9148 14.416 28.2475 14.2023 27.7646 13.7724C27.2793 13.3426 27.0367 12.7359 27.0367 11.9474C27.0367 11.0263 27.3788 10.3041 28.0607 9.78341C28.7426 9.26268 29.7156 9.00231 30.9726 9.00231C31.1885 9.00231 31.4433 9.03916 31.7369 9.11284C31.7369 8.177 31.1521 7.70785 29.9801 7.70785C29.2885 7.70785 28.711 7.82329 28.2475 8.05664L27.852 6.6148C28.4829 6.30776 29.2351 6.15301 30.1063 6.15301C31.305 6.15301 32.1858 6.43057 32.7439 6.98324C33.302 7.53591 33.5811 8.58229 33.5811 10.1248V11.827C33.5811 12.8882 33.7922 13.5538 34.212 13.8265C34.0591 14.0942 33.8917 14.2588 33.7049 14.3202C33.518 14.3816 33.3045 14.4135 33.0667 14.4135C32.8022 14.4135 32.5644 14.3153 32.3533 14.1163C32.1422 13.9174 32.0014 13.7012 31.9262 13.4703L31.9286 13.4728ZM31.7515 10.5228C31.4385 10.4589 31.2031 10.427 31.0454 10.427C29.5967 10.427 28.8712 10.9084 28.8712 11.8688C28.8712 12.5836 29.2812 12.9397 30.099 12.9397C31.2007 12.9397 31.7515 12.3822 31.7515 11.267V10.5228ZM39.4412 14.2686V13.7847C39.2884 13.9542 39.0311 14.1016 38.6696 14.2268C38.308 14.3521 37.9319 14.416 37.5461 14.416C36.4493 14.416 35.5854 14.0647 34.957 13.3598C34.3285 12.6548 34.013 11.6748 34.013 10.4147C34.013 9.1546 34.3746 8.13033 35.0977 7.3394C35.8208 6.54848 36.7259 6.15301 37.813 6.15301C38.4099 6.15301 38.9535 6.27583 39.4437 6.52391V3.33319L41.2806 2.88614V14.2637H39.4437L39.4412 14.2686ZM39.4412 8.20893C39.0506 7.89207 38.6405 7.73241 38.2134 7.73241C37.4782 7.73241 36.9128 7.95839 36.5172 8.4128C36.1217 8.86722 35.9227 9.51813 35.9227 10.3656C35.9227 12.0211 36.7114 12.8489 38.2886 12.8489C38.4658 12.8489 38.6817 12.7948 38.9389 12.6892C39.1962 12.5836 39.3636 12.4755 39.4412 12.365V8.20893ZM41.6543 10.2698C41.6543 9.05635 42.0013 8.06646 42.6928 7.30256C43.3868 6.53865 44.2992 6.15793 45.4373 6.15793C46.6311 6.15793 47.5605 6.52391 48.2205 7.25834C48.8805 7.99278 49.213 8.99494 49.213 10.2698C49.213 11.5446 48.8757 12.5467 48.2035 13.2959C47.5289 14.0451 46.6093 14.4184 45.4373 14.4184C44.2652 14.4184 43.314 14.0402 42.6491 13.2836C41.9867 12.5271 41.6543 11.5225 41.6543 10.2673V10.2698ZM43.564 10.2698C43.564 12.0236 44.1876 12.9029 45.4373 12.9029C46.0099 12.9029 46.4637 12.6745 46.801 12.2176C47.1358 11.7607 47.3033 11.1123 47.3033 10.2698C47.3033 8.54053 46.6821 7.67346 45.4373 7.67346C44.8646 7.67346 44.4084 7.90189 44.0711 8.35876C43.7338 8.81563 43.564 9.45181 43.564 10.2698ZM48.849 13.6668L49.5551 11.9351C50.3098 12.4706 51.0523 12.7383 51.7803 12.7383C52.9013 12.7383 53.4619 12.3429 53.4619 11.5495C53.4619 11.1786 53.3308 10.8224 53.0663 10.4859C52.8019 10.1494 52.2559 9.77113 51.4308 9.35111C50.6058 8.93108 50.0501 8.5872 49.7638 8.31701C49.4775 8.04681 49.2567 7.72504 49.1038 7.35414C48.9509 6.98324 48.8733 6.57058 48.8733 6.11862C48.8733 5.27612 49.179 4.57607 49.7881 4.02095C50.3971 3.46583 51.1809 3.18827 52.1345 3.18827C53.3794 3.18827 54.2918 3.42407 54.8741 3.89568L54.2942 5.56105C53.622 5.0747 52.9159 4.83153 52.1709 4.83153C51.7293 4.83153 51.3896 4.94943 51.1469 5.18523C50.9043 5.42104 50.783 5.72807 50.783 6.10389C50.783 6.72779 51.4672 7.3787 52.8334 8.05173C53.5541 8.40789 54.0734 8.73703 54.3912 9.0367C54.7091 9.33637 54.9518 9.68516 55.1192 10.0855C55.2866 10.4835 55.3691 10.9305 55.3691 11.4193C55.3691 12.3011 55.0246 13.0282 54.3379 13.598C53.6487 14.1679 52.7266 14.4528 51.5716 14.4528C50.567 14.4528 49.6619 14.19 48.8538 13.6644L48.849 13.6668ZM55.7962 7.80119H54.8863V6.30776H55.7962V4.68661L57.6331 4.0013V6.3053H59.7928V7.79873H57.6331V11.2867C57.6331 11.8565 57.7205 12.2594 57.8976 12.4952C58.0748 12.731 58.3829 12.8489 58.8221 12.8489C59.2613 12.8489 59.6739 12.7285 60.0573 12.4853V14.1949C59.6302 14.3447 59.0235 14.4184 58.2349 14.4184C57.4463 14.4184 56.8493 14.1949 56.4271 13.7454C56.0049 13.2959 55.7962 12.6597 55.7962 11.8295V7.79873V7.80119ZM60.0233 10.2698C60.0233 9.05635 60.3703 8.06646 61.0643 7.30256C61.7583 6.53865 62.6706 6.15793 63.8087 6.15793C65.0026 6.15793 65.9319 6.52391 66.592 7.25834C67.252 7.99278 67.5844 8.99494 67.5844 10.2698C67.5844 11.5446 67.2471 12.5467 66.575 13.2959C65.9004 14.0451 64.9783 14.4184 63.8087 14.4184C62.6391 14.4184 61.6855 14.0402 61.0206 13.2836C60.3557 12.5271 60.0257 11.5225 60.0257 10.2673L60.0233 10.2698ZM61.933 10.2698C61.933 12.0236 62.5566 12.9029 63.8063 12.9029C64.3789 12.9029 64.8327 12.6745 65.17 12.2176C65.5049 11.7607 65.6723 11.1123 65.6723 10.2698C65.6723 8.54053 65.0511 7.67346 63.8063 7.67346C63.2336 7.67346 62.7774 7.90189 62.4401 8.35876C62.1028 8.81563 61.933 9.45181 61.933 10.2698ZM72.4108 8.03699C72.0833 7.81838 71.7217 7.7103 71.331 7.7103C70.904 7.7103 70.5254 7.90681 70.1954 8.29736C69.8654 8.68791 69.7004 9.16688 69.7004 9.73183V14.2686H67.8635V6.3053H69.7004V7.03482C70.2148 6.45022 70.8967 6.15793 71.7508 6.15793C72.3769 6.15793 72.8573 6.25372 73.1898 6.44777L72.4108 8.03945V8.03699ZM79.8846 10.8568H74.2647C74.2987 11.4905 74.5147 11.9843 74.9102 12.3355C75.3057 12.6868 75.8396 12.8636 76.5117 12.8636C77.3489 12.8636 77.9846 12.6425 78.4214 12.2029L79.1348 13.6226C78.4894 14.1532 77.5236 14.4184 76.24 14.4184C75.0388 14.4184 74.0924 14.0623 73.3936 13.3524C72.6948 12.6401 72.3478 11.6477 72.3478 10.3754C72.3478 9.10302 72.7312 8.10577 73.4979 7.32712C74.2647 6.54848 75.1844 6.16038 76.2569 6.16038C77.3974 6.16038 78.3147 6.50426 79.0038 7.19448C79.6954 7.8847 80.0399 8.76159 80.0399 9.82763C80.0399 10.0561 79.989 10.3999 79.8846 10.8617V10.8568ZM74.3327 9.45918H78.1958C78.0671 8.2949 77.4314 7.71276 76.2861 7.71276C75.2378 7.71276 74.5875 8.2949 74.3327 9.45918ZM86.7202 0V0.461783H77.7565V1.15691H86.7202V1.6187H103.002V0H86.7202ZM87.5428 1.92328V2.38506H80.2777V3.08019H87.5428V3.54197H98.7123V1.92328H87.5428ZM87.3487 3.8441V4.30588H81.7822V5.00101H87.3487V5.46279H95.8441V3.8441H87.3487ZM87.1595 5.76737V6.22916H82.5636V6.92429H87.1595V7.38607H93.1312V5.76737H87.1595ZM86.7202 7.69065V8.15243H83.095V8.84757H86.7202V9.30935H90.9449V7.69065H86.7202ZM85.8515 9.61393V10.0757H82.9542V10.7708H85.8515V11.2326H88.8629V9.61393H85.8515ZM84.7936 11.5347V11.9965H82.8669V12.6917H84.7936V13.1534H86.8343V11.5347H84.7936ZM83.6895 13.458V13.9198H82.7334V14.6149H83.6895V15.0767H85.0022V13.458H83.6895ZM82.8669 15.3813V15.8431H82.3961V16.5382H82.8669V17H84.1796V15.3813H82.8669Z" fill="black"/>
</svg>
