<svg width="71" height="18" viewBox="0 0 71 18" fill="none" xmlns="http://www.w3.org/2000/svg">
<path d="M7.37139 0.280151L0 16.8923H3.92114L5.3937 13.3326H13.0605L14.5288 16.8923H18.5441L11.1513 0.280151H7.37139ZM6.60515 10.4134L9.23779 4.05487L11.8619 10.4134H6.60515Z" fill="black"/>
<path d="M31.2597 11.5527C32.3299 11.0798 33.1603 10.3919 33.7425 9.49768C34.3247 8.60774 34.6158 7.54153 34.6158 6.30766C34.6158 5.07378 34.3247 3.98178 33.7425 3.07894C33.1603 2.17611 32.3342 1.48393 31.2597 1.00242C30.1895 0.520908 28.9139 0.280151 27.4328 0.280151H20.2754V16.8923H24.1024V12.2664H27.4328C27.4927 12.2664 27.5483 12.2578 27.6083 12.2578L30.7888 16.8923H34.924L31.2297 11.5656C31.2297 11.5656 31.2511 11.557 31.264 11.5527H31.2597ZM29.8685 4.17095C30.4507 4.67825 30.7417 5.38763 30.7417 6.30766C30.7417 7.22769 30.4507 7.91557 29.8685 8.43147C29.2863 8.94738 28.4045 9.20103 27.223 9.20103H24.1024V3.41428H27.223C28.4045 3.41428 29.2863 3.66794 29.8685 4.17524V4.17095Z" fill="black"/>
<path d="M41.9649 4.74204C42.4358 4.26913 42.9966 3.90369 43.643 3.65004C44.2894 3.39638 44.9957 3.27171 45.7705 3.27171C46.5881 3.27171 47.3458 3.43508 48.0393 3.75752C48.7327 4.08426 49.362 4.57007 49.9313 5.21925L52.3885 2.94067C51.6008 1.97764 50.6291 1.24247 49.469 0.748064C48.3089 0.249355 47.0162 0 45.5821 0C44.2894 0 43.0993 0.210662 42.0163 0.627686C40.929 1.04901 39.9787 1.6466 39.1696 2.42046C38.3563 3.19432 37.727 4.10576 37.2775 5.15047C36.8281 6.19518 36.6055 7.34307 36.6055 8.58984C36.6055 9.83662 36.8281 10.9845 37.2775 12.0292C37.727 13.0739 38.352 13.9811 39.1568 14.7592C39.9616 15.5331 40.9076 16.1307 42.0035 16.552C43.0993 16.969 44.2851 17.1797 45.5607 17.1797C47.0119 17.1797 48.3132 16.926 49.4733 16.4187C50.6291 15.9114 51.6051 15.1762 52.3928 14.2132L49.9356 11.9346C49.3663 12.601 48.737 13.0954 48.0435 13.4179C47.3501 13.7403 46.5924 13.9037 45.7748 13.9037C45.0042 13.9037 44.2936 13.779 43.6472 13.5253C43.0009 13.2717 42.4401 12.9063 41.9692 12.4333C41.494 11.9604 41.1302 11.3972 40.8691 10.7481C40.6079 10.0989 40.4795 9.3809 40.4795 8.58984C40.4795 7.79879 40.6079 7.08082 40.8691 6.43163C41.1302 5.78245 41.494 5.21925 41.9692 4.74634L41.9649 4.74204Z" fill="black"/>
<path d="M66.9858 16.8923H71.0011L63.6083 0.280151H59.8284L52.457 16.8923H56.3782L57.8507 13.3326H65.5175L66.9858 16.8923ZM59.0579 10.4134L61.6905 4.05487L64.3146 10.4134H59.0579Z" fill="black"/>
</svg>
