<?xml version="1.0" encoding="UTF-8"?>
<svg id="Layer_1" xmlns="http://www.w3.org/2000/svg" version="1.1" viewBox="0 0 85 27">
  <!-- Generator: Adobe Illustrator 30.3.0, SVG Export Plug-In . SVG Version: 2.1.3 Build 182)  -->
  <path d="M2.1,14.6c0-3.2,0-3.8,0-4.4,0-.7-.2-1-.9-1.2-.2,0-.5,0-.8,0s-.4,0-.4-.2.1-.2.5-.2c1.1,0,2.5,0,3,0s2,0,3.3,0c2.6,0,6.2,0,8.5,2.4,1.1,1.1,2.1,2.8,2.1,5.3s-1.1,4.7-2.3,5.8c-1,1-3.2,2.5-7.1,2.5s-1.6,0-2.4-.1c-.8,0-1.5-.1-2.1-.1s-.7,0-1.2,0c-.5,0-1,0-1.5,0s-.4,0-.4-.2,0-.2.3-.2.6,0,.8,0c.4,0,.5-.5.6-1.2.1-.9.1-2.5.1-4.5v-3.7h0ZM4.8,16.9c0,2.2,0,3.8,0,4.2,0,.5,0,1.4.2,1.6.3.4,1.1.8,2.8.8s3.6-.4,4.9-1.5c1.4-1.2,1.8-3.1,1.8-5.2s-1.1-4.4-2-5.2c-1.9-1.8-4.4-2.1-6-2.1s-1.2,0-1.4.1c-.2,0-.3.2-.3.4,0,.7,0,2.5,0,4.2v2.6h0ZM33.6,22.9c0,.6,0,.6-.3.8-1.4.7-3.4.9-5.1.9-5.2,0-9.8-2.4-9.8-8.2s1.8-5.7,3.7-6.9c2-1.2,3.9-1.4,5.7-1.4s3.3.3,3.7.3c.4,0,1.2.2,1.7.2.3,0,.3.1.3.3,0,.2-.1.8-.1,3.4s0,.4-.2.4-.2-.1-.2-.3c0-.5-.2-1.2-.7-1.7-.6-.7-2.3-1.6-4.7-1.6s-2.7,0-4.2,1.3c-1.2,1-1.9,2.6-1.9,5.1,0,4.5,2.9,7.9,7.4,7.9s1.3,0,1.8-.2c.3-.1.4-.4.4-.8v-2c0-1,0-1.8,0-2.5,0-.7-.2-1-.9-1.2-.2,0-.5,0-.8,0s-.3,0-.3-.2.1-.2.4-.2c1.1,0,2.4,0,3.1,0s1.8,0,2.5,0,.4,0,.4.2-.1.2-.3.2-.3,0-.6,0c-.6.1-.8.5-.8,1.2,0,.6,0,1.5,0,2.5v2.3h0ZM38.3,14.6c0-3.2,0-3.8,0-4.4,0-.7-.3-1.1-.7-1.2-.2,0-.5,0-.8,0s-.3,0-.3-.2.2-.2.5-.2c.8,0,2.1,0,2.7,0s1.8,0,2.6,0,.4,0,.4.2-.1.2-.3.2-.4,0-.6,0c-.6.1-.7.5-.8,1.2,0,.7,0,1.3,0,4.4v3.7c0,2,0,3.7,0,4.6,0,.6.2.9.8,1,.3,0,.8,0,1.1,0s.3,0,.3.2c0,.1-.2.2-.4.2-1.4,0-2.7,0-3.3,0s-1.8,0-2.7,0-.4,0-.4-.2,0-.2.3-.2.6,0,.8,0c.4,0,.5-.4.6-1,.1-.9.1-2.5.1-4.6v-3.7h0ZM52.3,10c0-.8,0-1,0-1.2,0-.2,0-.3-.2-.3,0,0-.1,0-.2,0s0,0,0,0,0,0,.1,0c.3,0,.6,0,.8,0s.5,0,.9,0c.7,0,1.6,0,2.2.6.3.3.5.7.5,1.4s-.3,1.2-.6,1.5c-.3.3-.8.7-1.9.7s-.4,0-.6,0c-.2,0-.4,0-.5,0s-.2,0-.3,0c-.1,0-.3,0-.4,0s-.1,0-.1,0,0,0,0,0,.1,0,.2,0c.1,0,.1-.1.2-.3,0-.2,0-.7,0-1.2v-1h0ZM53,10.6c0,.6,0,1,0,1.1,0,.1,0,.4,0,.4,0,.1.3.2.7.2s.9-.1,1.3-.4c.4-.3.5-.8.5-1.4s-.3-1.2-.5-1.4c-.5-.5-1.1-.6-1.6-.6s-.3,0-.4,0c0,0,0,0,0,.1,0,.2,0,.7,0,1.1v.7h0ZM57.2,10.4c0-.7,0-.8,0-1,0-.2,0-.2-.2-.2,0,0-.1,0-.2,0s0,0,0,0,0,0,.1,0c.2,0,.5,0,.7,0s.4,0,.6,0,.1,0,.1,0c0,0,0,0,0,0s0,0-.1,0c-.1,0-.2,0-.2.3,0,.1,0,.3,0,1v.8c0,.5,0,.8,0,1,0,.1,0,.2.2.2,0,0,.2,0,.3,0s0,0,0,0c0,0,0,0,0,0-.3,0-.7,0-.8,0s-.4,0-.6,0,0,0,0,0,0,0,0,0,.1,0,.2,0c.1,0,.1,0,.1-.2,0-.2,0-.6,0-1v-.8h0ZM59.5,10.4c0-.7,0-.8,0-1,0-.2,0-.2-.2-.3,0,0-.1,0-.2,0s0,0,0,0,0,0,.1,0c.3,0,.6,0,.7,0,.2,0,.6,0,.8,0,.3,0,.7,0,.9.2.1,0,.3.3.3.6s-.2.7-.7,1c.4.5.8,1,1.1,1.2.3.3.4.3.5.3,0,0,0,0,.1,0s0,0,0,0c0,0,0,0,0,0h-.5c-.3,0-.4,0-.5,0-.2-.1-.4-.3-.7-.7-.2-.3-.4-.6-.5-.6,0,0,0,0,0,0h-.4s0,0,0,0h0c0,.5,0,.9,0,1.1,0,.1,0,.2.2.2,0,0,.2,0,.2,0s0,0,0,0c0,0,0,0-.1,0-.3,0-.7,0-.8,0s-.4,0-.6,0,0,0,0,0,0,0,0,0,.1,0,.2,0c.1,0,.1-.1.1-.2,0-.2,0-.6,0-1v-.8h0ZM60.1,10.7c0,0,0,0,0,0,.1,0,.3,0,.4,0,.2,0,.3,0,.3,0,.2-.1.3-.3.3-.7,0-.7-.5-.8-.7-.8s-.2,0-.3,0c0,0,0,0,0,0v1.4h0ZM63.3,10.4c0-.7,0-.8,0-1,0-.2,0-.2-.2-.3,0,0-.1,0-.2,0s0,0,0,0,0,0,.1,0c.3,0,.6,0,.7,0s1.2,0,1.3,0c0,0,.2,0,.2,0,0,0,0,0,0,0s0,0,0,0c0,0,0,0,0,.3,0,0,0,.3,0,.3,0,0,0,0,0,0s0,0,0,0,0-.1,0-.2c0,0,0-.1-.3-.2,0,0-.7,0-.8,0s0,0,0,0v1.2s0,0,0,0c.1,0,.7,0,.9,0,.1,0,.2,0,.2,0,0,0,0,0,0,0s0,0,0,0,0,.1,0,.3c0,0,0,.3,0,.3s0,.1,0,.1,0,0,0,0c0,0,0-.1,0-.2,0,0,0-.2-.3-.2,0,0-.6,0-.8,0s0,0,0,0v.4c0,.2,0,.6,0,.7,0,.3.2.4.7.4s.3,0,.5,0c.1,0,.2-.2.2-.3,0,0,0,0,0,0s0,0,0,.1c0,.1,0,.4,0,.5,0,.1,0,.1-.3.1-.4,0-.7,0-.9,0-.2,0-.4,0-.6,0s-.2,0-.3,0c-.1,0-.2,0-.3,0s0,0,0,0,0,0,0,0,.1,0,.2,0c.1,0,.1-.1.1-.2,0-.2,0-.6,0-1v-.8h0ZM66.6,12.1c-.5-.4-.6-.9-.6-1.4s.1-.9.6-1.3c.4-.3.8-.5,1.6-.5s.5,0,.7,0c.2,0,.3,0,.5,0,0,0,0,0,0,0s0,0,0,.3c0,.2,0,.4,0,.5,0,0,0,.1,0,.1s0,0,0-.1c0-.1,0-.3-.2-.4-.2-.2-.5-.3-.9-.3s-.7,0-.9.3c-.4.3-.5.8-.5,1.2,0,1.1.9,1.6,1.5,1.6s.7,0,.9-.2c0,0,.1-.2.2-.3,0,0,0,0,0,0s0,0,0,0c0,0,0,.5-.1.6,0,0,0,.1-.1.1-.2,0-.6.1-.9.1-.7,0-1.2-.1-1.7-.5h0ZM70.5,12.1c-.5-.4-.6-.9-.6-1.4s.1-.9.6-1.3c.4-.3.8-.5,1.6-.5s.5,0,.7,0c.2,0,.3,0,.5,0,0,0,0,0,0,0s0,0,0,.3c0,.2,0,.4,0,.5,0,0,0,.1,0,.1s0,0,0-.1c0-.1,0-.3-.2-.4-.2-.2-.5-.3-.9-.3s-.7,0-.9.3c-.4.3-.5.8-.5,1.2,0,1.1.9,1.6,1.5,1.6s.7,0,.9-.2c0,0,.1-.2.2-.3,0,0,0,0,0,0s0,0,0,0c0,0,0,.5-.1.6,0,0,0,.1-.1.1-.2,0-.6.1-.9.1-.7,0-1.2-.1-1.7-.5h0ZM74.4,10.4c0-.7,0-.8,0-1,0-.2,0-.2-.2-.2,0,0-.1,0-.2,0s0,0,0,0,0,0,.1,0c.2,0,.5,0,.7,0s.4,0,.6,0,.1,0,.1,0c0,0,0,0,0,0s0,0-.1,0c-.1,0-.2,0-.2.3,0,.1,0,.3,0,1v.8c0,.5,0,.8,0,1,0,.1,0,.2.2.2,0,0,.2,0,.3,0s0,0,0,0c0,0,0,0,0,0-.3,0-.7,0-.8,0s-.4,0-.6,0,0,0,0,0,0,0,0,0,.1,0,.2,0c.1,0,.1,0,.1-.2,0-.2,0-.6,0-1v-.8h0ZM76,10.8c0-.8.6-1.8,2.1-1.8s2,.7,2,1.8-.8,1.9-2.1,1.9-2-1-2-1.8h0ZM79.4,10.9c0-1-.6-1.7-1.4-1.7s-1.2.3-1.2,1.4.6,1.7,1.5,1.7,1.1-.2,1.1-1.5h0ZM79,8.1c0,0,0,0,0,0s0,0-.2,0c-.3,0-.7.2-1,.3,0,0,0,0,0,0s0,0,0,0,0,0,0,0c.2-.2.8-.6.9-.7,0,0,0,0,.1,0,0,0,0,0,0,0,0,0,0,.2.2.3ZM81.3,11.9c0,.4,0,.5.2.5,0,0,.2,0,.3,0s0,0,0,0c0,0,0,0-.1,0-.3,0-.5,0-.6,0s-.3,0-.5,0-.1,0-.1,0,0,0,0,0c0,0,.2,0,.2,0,.1,0,.1-.2.1-.6v-2.8c0,0,0-.2.1-.2s.1,0,.2.2c0,0,.8.8,1.5,1.5.3.3,1,1,1.1,1.1h0v-2.1c0-.3-.1-.4-.2-.4,0,0-.2,0-.3,0s0,0,0,0c0,0,0,0,.1,0,.3,0,.5,0,.6,0s.2,0,.5,0,.1,0,.1,0,0,0,0,0,0,0-.2,0c-.1,0-.2.1-.2.4v3c0,.1,0,.1-.1.1,0,0-.1,0-.2-.1-.3-.3-.9-.9-1.4-1.4-.5-.5-1.1-1.1-1.1-1.2h0v1.9c0,0,0,0,0,0ZM55.7,18c0,.1,0,.2,0,.2-.4.2-.9.2-1.3.2-1.4,0-2.6-.6-2.6-2.2s.5-1.5,1-1.8c.5-.3,1-.4,1.5-.4s.9,0,1,0c.1,0,.3,0,.4,0,0,0,0,0,0,0,0,0,0,.2,0,.9s0,.1,0,.1,0,0,0,0c0-.1,0-.3-.2-.5-.2-.2-.6-.4-1.2-.4s-.7,0-1.1.3c-.3.3-.5.7-.5,1.4,0,1.2.8,2.1,1.9,2.1s.3,0,.5,0c0,0,.1-.1.1-.2v-.5c0-.3,0-.5,0-.7,0-.2,0-.3-.2-.3,0,0-.1,0-.2,0s0,0,0,0,0,0,.1,0c.3,0,.6,0,.8,0s.5,0,.7,0,.1,0,.1,0,0,0,0,0,0,0-.2,0c-.1,0-.2.1-.2.3,0,.2,0,.4,0,.7v.6h0ZM57,16.2c0-.7,0-.8,0-1,0-.2,0-.2-.2-.3,0,0-.1,0-.2,0s0,0,0,0,0,0,.1,0c.3,0,.6,0,.7,0s1.2,0,1.3,0c0,0,.2,0,.2,0,0,0,0,0,0,0s0,0,0,0c0,0,0,0,0,.3,0,0,0,.3,0,.3,0,0,0,0,0,0s0,0,0,0,0-.1,0-.2c0,0,0-.1-.3-.2,0,0-.7,0-.8,0s0,0,0,0v1.2s0,0,0,0c.1,0,.7,0,.9,0,.1,0,.2,0,.2,0,0,0,0,0,0,0s0,0,0,0,0,.1,0,.3c0,0,0,.3,0,.3s0,.1,0,.1,0,0,0,0c0,0,0-.1,0-.2,0,0,0-.2-.3-.2,0,0-.6,0-.8,0s0,0,0,0v.4c0,.2,0,.6,0,.7,0,.3.2.4.7.4s.3,0,.5,0c.1,0,.2-.2.2-.3,0,0,0,0,0,0s0,0,0,.1c0,.1,0,.4,0,.5,0,.1,0,.1-.3.1-.4,0-.7,0-.9,0-.2,0-.4,0-.6,0s-.2,0-.3,0c-.1,0-.2,0-.3,0s0,0,0,0,0,0,0,0,.1,0,.2,0c.1,0,.1-.1.1-.2,0-.2,0-.6,0-1v-.8h0ZM60.4,17.8c0,.4,0,.5.2.5,0,0,.2,0,.3,0s0,0,0,0c0,0,0,0-.1,0-.3,0-.5,0-.6,0s-.3,0-.5,0-.1,0-.1,0,0,0,0,0c0,0,.2,0,.2,0,.1,0,.1-.2.1-.6v-2.8c0,0,0-.2.1-.2s.1,0,.2.2c0,0,.8.8,1.5,1.5.3.3,1,1,1.1,1.1h0v-2.1c0-.3-.1-.4-.2-.4,0,0-.2,0-.3,0s0,0,0,0c0,0,0,0,.1,0,.3,0,.5,0,.6,0s.2,0,.5,0,.1,0,.1,0,0,0,0,0,0,0-.1,0c-.1,0-.2.1-.2.4v3c0,.1,0,.1-.1.1,0,0-.1,0-.2-.1-.3-.3-.9-.9-1.4-1.4-.5-.5-1.1-1.1-1.1-1.2h0v1.9c0,0,0,0,0,0ZM64.8,16.2c0-.7,0-.8,0-1,0-.2,0-.2-.2-.3,0,0-.1,0-.2,0s0,0,0,0,0,0,.1,0c.3,0,.6,0,.7,0s1.2,0,1.3,0c0,0,.2,0,.2,0,0,0,0,0,0,0s0,0,0,0c0,0,0,0,0,.3,0,0,0,.3,0,.3,0,0,0,0,0,0s0,0,0,0,0-.1,0-.2c0,0,0-.1-.3-.2,0,0-.7,0-.8,0s0,0,0,0v1.2s0,0,0,0c.1,0,.7,0,.9,0,.1,0,.2,0,.2,0,0,0,0,0,0,0s0,0,0,0,0,.1,0,.3c0,0,0,.3,0,.3s0,.1,0,.1,0,0,0,0c0,0,0-.1,0-.2,0,0,0-.2-.3-.2,0,0-.6,0-.8,0s0,0,0,0v.4c0,.2,0,.6,0,.7,0,.3.2.4.7.4s.3,0,.5,0c.1,0,.2-.2.2-.3,0,0,0,0,0,0s0,0,0,.1c0,.1,0,.4,0,.5,0,.1,0,.1-.3.1-.4,0-.7,0-.9,0-.2,0-.4,0-.6,0s-.2,0-.3,0c-.1,0-.2,0-.3,0s0,0,0,0,0,0,0,0,.1,0,.2,0c.1,0,.1-.1.1-.2,0-.2,0-.6,0-1v-.8h0ZM67.9,16.2c0-.7,0-.8,0-1,0-.2,0-.2-.2-.3,0,0-.1,0-.2,0s0,0,0,0,0,0,.1,0c.3,0,.6,0,.7,0,.2,0,.6,0,.8,0,.3,0,.7,0,.9.2.1,0,.3.3.3.6s-.2.7-.7,1c.4.5.8,1,1.1,1.2.3.3.4.3.5.3,0,0,0,0,.1,0s0,0,0,0c0,0,0,0,0,0h-.5c-.3,0-.4,0-.5,0-.2-.1-.4-.3-.7-.7-.2-.3-.4-.6-.5-.6,0,0,0,0,0,0h-.4s0,0,0,0h0c0,.5,0,.9,0,1.1,0,.1,0,.2.2.2,0,0,.2,0,.2,0s0,0,0,0c0,0,0,0-.1,0-.3,0-.7,0-.8,0s-.4,0-.6,0,0,0,0,0,0,0,0,0,.1,0,.2,0c.1,0,.1-.1.1-.2,0-.2,0-.6,0-1v-.8h0ZM68.5,16.6c0,0,0,0,0,0,.1,0,.3,0,.4,0,.2,0,.3,0,.3,0,.1-.1.3-.3.3-.7,0-.7-.5-.8-.7-.8s-.2,0-.3,0c0,0,0,0,0,0v1.4h0ZM71.9,17.2s0,0,0,0l-.3.6c0,.1,0,.2,0,.3,0,0,0,.1.2.1h0c0,0,0,0,0,0,0,0,0,0,0,0-.2,0-.4,0-.5,0s-.3,0-.6,0,0,0,0,0,0,0,0,0,.1,0,.1,0c.2,0,.3-.2.4-.4l1.3-3c0-.1,0-.2.1-.2s0,0,.1.1c.1.3.9,2.2,1.2,2.9.2.4.3.5.4.5,0,0,.1,0,.2,0s0,0,0,0,0,0-.2,0-.5,0-.9,0c0,0-.1,0-.1,0s0,0,0,0c0,0,0,0,0-.1l-.4-.9s0,0,0,0h-1.2ZM73,17s0,0,0,0l-.5-1.2s0,0,0,0,0,0,0,0l-.5,1.2s0,0,0,0h.9ZM75.9,17c0,.6,0,.9.1,1,0,0,.3.1.7.1s.5,0,.6-.1c0,0,.1-.2.1-.3,0,0,0,0,0,0s0,0,0,.1,0,.4,0,.5c0,.1,0,.1-.3.1s-.6,0-.9,0c-.2,0-.5,0-.7,0s-.2,0-.3,0c-.1,0-.2,0-.3,0s0,0,0,0,0,0,0,0,.1,0,.2,0c.1,0,.1-.1.1-.2,0-.2,0-.6,0-1v-.8c0-.7,0-.8,0-1,0-.2,0-.2-.2-.3,0,0-.1,0-.2,0s0,0,0,0,0,0,.1,0c.2,0,.5,0,.7,0s.5,0,.7,0,.1,0,.1,0,0,0,0,0-.1,0-.2,0c-.1,0-.2,0-.2.3,0,.1,0,.3,0,1v.8h0ZM52.3,21.6c0-.8,0-1,0-1.2,0-.2,0-.3-.2-.3,0,0-.1,0-.2,0s0,0,0,0,0,0,.1,0c.2,0,.6,0,.7,0s.5,0,.7,0,.1,0,.1,0,0,0,0,0-.1,0-.2,0c-.1,0-.2.1-.2.3,0,.2,0,.3,0,1.2v1c0,.5,0,1,0,1.2,0,.1,0,.2.2.3,0,0,.2,0,.3,0s0,0,0,0c0,0,0,0-.1,0-.4,0-.7,0-.9,0s-.5,0-.7,0-.1,0-.1,0,0,0,0,0,.1,0,.2,0c.1,0,.1-.1.2-.3,0-.2,0-.7,0-1.2v-1h0ZM54.9,20.7c0,0,0-.1,0-.1s0,0,.1.1l1.3,2.6,1.3-2.7c0,0,0-.1.1-.1s0,0,.1.1l.4,2.9c0,.3,0,.4.2.5.1,0,.2,0,.3,0s0,0,0,0c0,0,0,0-.1,0-.1,0-.8,0-1,0-.1,0-.1,0-.1,0s0,0,0,0c0,0,0,0,0-.2l-.3-2h0l-1.1,2.1c-.1.2-.1.3-.2.3s-.1,0-.2-.2c-.1-.2-.5-.9-.6-1.1,0,0-.3-.7-.5-1h0l-.2,1.8c0,0,0,.1,0,.2s0,.1.1.1c0,0,.1,0,.2,0s0,0,0,0c0,0,0,0-.1,0-.2,0-.4,0-.5,0s-.3,0-.5,0,0,0,0,0,0,0,0,0,0,0,.2,0c.1,0,.2-.2.2-.4l.5-3.1h0ZM59.9,22c0-.7,0-.8,0-1,0-.2,0-.2-.2-.3,0,0-.1,0-.2,0s0,0,0,0,0,0,.1,0c.3,0,.6,0,.7,0,.2,0,.6,0,.8,0,.6,0,.8.2.9.3.1.1.2.3.2.6,0,.7-.5,1.1-1.2,1.1s-.1,0-.1,0c0,0,0,0,0,0s0,0,.2,0c.3,0,.7-.3.7-.8s0-.5-.3-.7c-.2-.2-.4-.2-.5-.2s-.2,0-.2,0c0,0,0,0,0,0v1.9c0,.4,0,.8,0,1,0,.1,0,.2.2.2,0,0,.2,0,.3,0s0,0,0,0c0,0,0,0,0,0-.3,0-.7,0-.8,0s-.4,0-.6,0,0,0,0,0,0,0,0,0,.1,0,.2,0c.1,0,.1-.1.1-.2,0-.2,0-.6,0-1v-.8h0ZM62.7,22.4c0-.8.6-1.8,2.1-1.8s2,.7,2,1.8-.8,1.9-2.1,1.9-2-1-2-1.8h0ZM66,22.5c0-1-.6-1.7-1.4-1.7s-1.2.3-1.2,1.4.6,1.7,1.5,1.7,1.1-.2,1.1-1.5h0ZM67.5,24.2c0,0,0,0,0-.2,0-.3,0-.5,0-.6,0,0,0-.1,0-.1s0,0,0,0c0,0,0,.2,0,.2.1.3.5.5.8.5s.7-.3.7-.6,0-.4-.5-.7l-.3-.2c-.6-.3-.8-.7-.8-1.1s.6-.9,1.2-.9.6,0,.7,0c0,0,0,0,0,0,0,0,0,.2,0,.6s0,.1,0,.1,0,0,0,0,0-.2-.1-.3c0,0-.2-.2-.5-.2s-.7.2-.7.5,0,.4.5.6h.2c.6.5.8.8.8,1.2s-.1.6-.5.9c-.2.2-.6.2-.8.2s-.6,0-.8-.1h0ZM70.7,22c0-.7,0-.8,0-1,0-.2,0-.2-.2-.2,0,0-.1,0-.2,0s0,0,0,0,0,0,.1,0c.2,0,.5,0,.7,0s.4,0,.6,0,.1,0,.1,0c0,0,0,0,0,0s0,0-.1,0c-.1,0-.2,0-.2.3,0,.1,0,.3,0,1v.8c0,.5,0,.8,0,1,0,.1,0,.2.2.2,0,0,.2,0,.3,0s0,0,0,0c0,0,0,0,0,0-.3,0-.7,0-.8,0s-.4,0-.6,0,0,0,0,0,0,0,0,0,.1,0,.2,0c.1,0,.1,0,.1-.2,0-.2,0-.6,0-1v-.8h0ZM73.6,21h-.7c-.3,0-.4,0-.5.2,0,0,0,.1,0,.2,0,0,0,0,0,0s0,0,0,0c0,0,0-.5.1-.6,0,0,0,0,0,0s0,0,.2,0c.1,0,.3,0,.5,0h2c.2,0,.3,0,.3,0,0,0,.1,0,.1,0,0,0,0,0,0,.1s0,.4,0,.6c0,0,0,0,0,0,0,0,0,0,0,0h0c0-.2-.1-.3-.6-.3h-.6s0,1.9,0,1.9c0,.4,0,.8,0,1,0,.1,0,.2.2.2,0,0,.2,0,.3,0s0,0,0,0c0,0,0,0,0,0-.3,0-.7,0-.8,0s-.4,0-.6,0,0,0,0,0,0,0,0,0,.1,0,.2,0c.1,0,.1-.1.1-.2,0-.2,0-.6,0-1v-1.9ZM76.5,22c0-.7,0-.8,0-1,0-.2,0-.2-.2-.2,0,0-.1,0-.2,0s0,0,0,0,0,0,.1,0c.2,0,.5,0,.7,0s.4,0,.6,0,.1,0,.1,0c0,0,0,0,0,0s0,0-.1,0c-.1,0-.2,0-.2.3,0,.1,0,.3,0,1v.8c0,.5,0,.8,0,1,0,.1,0,.2.2.2,0,0,.2,0,.3,0s0,0,0,0c0,0,0,0,0,0-.3,0-.7,0-.8,0s-.4,0-.6,0,0,0,0,0,0,0,0,0,.1,0,.2,0c.1,0,.1,0,.1-.2,0-.2,0-.6,0-1v-.8h0ZM78.3,21.1c-.1-.3-.2-.3-.4-.3,0,0-.1,0-.2,0s0,0,0,0c0,0,0,0,.1,0,.3,0,.5,0,.7,0s.4,0,.6,0,.1,0,.1,0,0,0,0,0c0,0-.1,0-.2,0,0,0,0,0,0,0s0,.2.1.4l.8,2.1h0c.2-.5.8-2,1-2.3,0,0,0-.1,0-.2s0,0,0,0c0,0-.1,0-.2,0s0,0,0,0,0,0,.1,0c.2,0,.5,0,.5,0s.3,0,.5,0,.1,0,.1,0,0,0,0,0-.2,0-.2,0c0,0-.1.1-.3.4-.2.4-.3.7-.6,1.3-.3.7-.5,1.2-.7,1.4-.1.3-.2.3-.2.3s-.1,0-.2-.3l-1.2-2.9h0ZM82.2,23s0,0,0,0l-.3.6c0,.1,0,.2,0,.3,0,0,0,.1.2.1h0c0,0,0,0,0,0,0,0,0,0,0,0-.2,0-.4,0-.5,0s-.3,0-.6,0,0,0,0,0,0,0,0,0,.1,0,.1,0c.2,0,.3-.2.4-.4l1.3-3c0-.1,0-.2.1-.2s0,0,.1.1c.1.3.9,2.2,1.2,2.9.2.4.3.5.4.5,0,0,.1,0,.2,0s0,0,0,0,0,0-.2,0-.5,0-.9,0c0,0-.1,0-.1,0s0,0,0,0c0,0,0,0,0-.1l-.4-.9s0,0,0,0h-1.2ZM83.3,22.8s0,0,0,0l-.5-1.2s0,0,0,0,0,0,0,0l-.5,1.2s0,0,0,0h.9ZM48.6,6h-1.5v20.6h1.5V6ZM39.8,1.3c0,0,.3-.3.3-.4.2-.5.1-.9.8-1.1,0,.1-.2.2-.2.3-.2.4.1,1-.2,1.4l1.5-1-1,1.5c.7,0,1.1-.7,1.8-.3,0,.1-.3,0-.4.1-.2,0-.4.4-.5.6-.2.1-.4.2-.5.4l1.8.3-1.8.3c.4.6,1.3.3,1.5,1.1-.4-.4-.8-.2-1.3-.3-.2,0-.3,0-.5-.1l1,1.5-1.5-1c0,.7.5.9.4,1.5,0,0,0,.2-.1.2,0-.6-.3-.6-.6-.9-.2-.2-.3-.4-.4-.6l-.4,1.8-.3-1.8c-.6.4-.3,1.3-1.1,1.4.5-.4.2-.8.3-1.3,0-.2.1-.3.1-.5l-1.5,1,1-1.5c-.7,0-1.1.7-1.8.3l.5-.2c.3-.4.5-.6.9-.8,0,0,0,0,0,0l-1.8-.3,1.8-.3c-.4-.6-1.3-.3-1.4-1.1.4.4.8.2,1.2.2.2,0,.4.1.5.1l-1-1.5,1.5,1c0-.7-.7-1.1-.3-1.8.1,0,0,.3.1.4,0,.3.5.5.7.8,0,0,.2.4.2.3l.3-1.8.3,1.8h0Z"/>
</svg>