<svg width="95" height="18" viewBox="0 0 95 18" fill="none" xmlns="http://www.w3.org/2000/svg">
<path d="M21.263 15.3749C20.9453 15.6703 20.6252 16.0021 20.3171 16.3149C20.0944 16.5411 19.9564 16.9356 19.5317 16.7475L9.97208 7.25657C7.76049 5.40925 5.35995 5.70725 3.48911 7.81799C2.53203 8.89788 2.27254 10.0538 2.52705 11.4742C2.58837 11.8156 2.88466 12.3234 3.06864 12.6275C4.05791 14.2612 5.9414 15.6227 7.95942 15.3973C9.73329 15.1993 11.8793 13.4193 12.181 11.6567C12.2155 11.4541 12.1089 11.2371 12.3696 11.166C12.7237 11.1751 12.8648 11.5339 13.0756 11.7472C13.2565 11.93 14.1112 12.634 14.1216 12.8282C14.1281 12.9513 14.007 13.0315 13.9702 13.1273C13.9196 13.2581 13.9046 13.4489 13.8491 13.5702C13.4512 14.4345 12.9092 15.2407 12.2159 15.9131C9.75858 18.2964 6.38601 18.7229 3.51747 16.7536C0.814124 14.8994 -0.83364 11.6757 0.435817 8.43643C0.489094 8.30073 0.581851 8.23269 0.634745 8.10763C0.778478 7.76782 0.871618 7.48426 1.07438 7.15394C3.52705 3.15521 8.22657 2.15705 11.8123 5.43434C14.9736 8.49572 18.0216 11.6765 21.194 14.7261C21.3232 14.85 21.5785 14.9541 21.511 15.186C21.4769 15.3031 21.3228 15.319 21.2634 15.3745L21.263 15.3749ZM17.7333 4.20393C17.603 4.48141 17.3945 4.78093 17.3872 5.1025C17.3811 5.372 17.8564 5.66848 18.0311 5.84675C18.2488 6.06836 18.8161 6.81071 19.1124 6.805L19.1971 6.74153C19.2826 6.45759 19.2527 6.08774 19.3658 5.82015C19.9468 4.44872 21.4589 3.03966 22.9503 2.6873C25.0864 2.18289 26.797 3.26278 28.0695 4.83985C29.1879 6.2261 29.4317 7.96965 28.4566 9.49008C27.746 10.5981 26.5072 11.6613 25.1653 11.8992C22.751 12.328 21.2841 10.5156 19.7755 9.03776C17.2124 6.52715 14.5926 3.97624 12.0997 1.47171C11.9548 1.32613 11.9855 1.15128 11.6796 1.17257C11.4589 1.18777 11.4079 1.3668 11.2822 1.4949C10.9276 1.85638 10.3918 2.28058 10.0867 2.63826C9.8636 2.89978 9.98013 2.96782 10.1948 3.18866C10.9751 3.99183 11.8295 4.74102 12.6283 5.52746C14.8801 7.74387 17.099 10.0222 19.3719 12.2136C21.0561 13.8374 22.6199 14.6466 25.0641 14.4634C27.5283 14.2787 29.7805 12.1934 30.7414 10.0621C30.9185 9.6695 31.2585 8.88761 31.2991 8.47482C31.3899 7.54697 31.4835 6.38194 31.2129 5.48337C30.81 4.14615 29.9978 3.00203 28.9741 2.05062C25.2293 -1.42927 19.8613 -0.328097 17.7341 4.20317L17.7333 4.20393ZM44.2838 1.02509C44.1731 1.03649 44.0213 1.06766 44.0002 1.19499L43.9921 11.96C43.9304 12.1641 43.1255 12.1007 42.917 12.0999C42.1508 12.0984 40.8587 12.1584 40.1631 11.8984C39.682 11.7187 39.385 11.4556 39.096 11.0592C39.0749 11.0303 39.0121 11.0193 38.9764 10.9717C38.8568 10.8117 38.6073 10.0405 38.5774 9.82724C38.4329 8.79107 38.6314 7.65036 39.4689 6.95705C40.3145 6.25727 41.4452 6.19683 42.464 6.54235C42.595 6.58682 43.1428 6.86696 43.2371 6.80272C43.2643 6.73773 43.275 6.67159 43.2804 6.60127C43.2942 6.41235 43.3038 5.46512 43.2505 5.35109C43.183 5.20627 42.5448 4.99683 42.3685 4.94818C40.0753 4.31492 37.8553 5.59474 37.1083 7.77276C36.899 8.38321 36.8917 9.98308 37.0787 10.5981C38.2332 14.3904 42.0155 13.566 45.1566 13.639L45.5349 13.5257C45.5146 10.3172 45.495 7.10453 45.5138 3.8949C45.518 3.18144 45.6656 1.20146 45.5054 1.07298C45.4226 1.00684 44.4494 1.00874 44.2831 1.02547L44.2838 1.02509ZM65.29 9.80595C65.2559 9.63947 65.1697 9.53684 65.1536 9.34032C65.0378 7.91948 65.1831 6.2394 65.195 4.7988C65.203 3.80291 65.1352 2.74279 65.1693 1.76326C65.1797 1.45803 65.4246 1.08628 64.9811 1.02813C64.7657 1 64.0969 0.995058 63.8872 1.02699C63.492 1.08704 63.6411 1.33678 63.6419 1.56902C63.6488 3.70028 63.5614 5.85093 63.599 7.98942C63.6158 8.93779 63.6779 10.2511 63.9792 11.1413C64.768 13.4713 67.1858 14.1909 69.4476 13.5884C72.0574 12.8936 72.8179 10.4191 72.3924 7.9917C72.1394 6.54919 70.6699 5.21501 69.2513 4.90789C68.3571 4.71441 67.1375 4.74216 66.3046 5.14621C65.8554 5.36402 66.029 5.60843 66.0306 5.99842C66.0313 6.2432 65.9581 6.50852 66.0631 6.75141C66.315 6.81375 66.5146 6.60165 66.7101 6.52334C67.9953 6.00792 70.2575 6.54159 70.7688 7.94761C71.2318 9.22059 71.0398 11.1736 69.7174 11.8658C68.2218 12.6484 66.4127 12.2873 65.5077 10.8858C65.4115 10.7368 65.3349 10.0222 65.2904 9.80557L65.29 9.80595ZM76.1498 9.75236C76.0659 8.52423 76.118 7.26531 76.1145 6.03453C76.1103 4.55553 76.0835 3.05296 76.1103 1.5675C76.1145 1.344 76.2525 1.09693 75.8945 1.03383C75.701 0.99962 74.9639 0.996959 74.7684 1.02737C74.709 1.03649 74.6565 1.05588 74.6159 1.10149C74.479 1.25809 74.5982 1.52303 74.5959 1.68191C74.5641 3.75236 74.5354 5.83763 74.5557 7.91454C74.5714 9.4878 74.4672 11.204 75.5929 12.4625C77.5247 14.6219 81.7497 14.089 82.9551 11.4222C83.7497 9.66417 83.5408 7.23225 82.0406 5.91175C80.8252 4.84213 79.1874 4.535 77.6289 4.98543C77.4331 5.04206 76.9122 5.21805 76.8497 5.41495C76.7956 5.58486 76.8328 6.05505 76.8344 6.26297C76.8355 6.4211 76.765 6.56516 76.888 6.73164C77.1134 6.86658 77.3284 6.63624 77.5147 6.56174C78.86 6.02388 80.7075 6.42946 81.489 7.69446C82.0946 8.67475 82.0057 10.5187 81.2119 11.3857C80.3326 12.3458 78.3568 12.5184 77.2748 11.8296C76.7393 11.4887 76.5542 11.0979 76.2778 10.5844C76.1245 10.2993 76.1705 10.0511 76.1502 9.75274L76.1498 9.75236ZM55.676 10.4662L55.6982 5.07665C55.6817 5.02648 55.6591 4.99987 55.6127 4.97327C55.4947 4.90599 54.592 4.90979 54.4065 4.92803C54.3103 4.93754 54.2176 4.97289 54.1313 5.01242C54.0282 5.20931 54.1198 5.39785 54.124 5.58372C54.1673 7.54659 53.9098 9.8356 54.3674 11.7236C54.7254 13.1992 56.3686 13.5709 57.7036 13.6382C58.6557 13.6861 59.9439 13.6948 60.8918 13.6382C61.0141 13.631 61.1329 13.6097 61.2517 13.5816C61.3924 13.3687 61.2847 13.1517 61.2847 12.9418C61.285 10.6072 61.2433 8.23801 61.2862 5.88704C61.2908 5.63693 61.3556 5.3834 61.328 5.13253C61.3123 4.98809 61.2164 4.94248 61.0804 4.92689C60.8956 4.90599 59.9661 4.90789 59.8488 4.98543C59.7059 5.0797 59.7818 5.605 59.8113 5.77073C59.6948 7.69902 59.9612 9.79607 59.8113 11.7042C59.8017 11.8243 59.7714 11.9418 59.7266 12.0524C59.6315 12.1219 58.2371 12.1075 58.0075 12.0988C57.4088 12.0763 56.6541 12.017 56.1831 11.5966C55.8611 11.3097 55.8745 10.8265 55.6767 10.4654L55.676 10.4662ZM92.5661 4.34647C92.5738 4.14615 92.5619 3.94507 92.5646 3.74476C92.5661 3.60906 92.6731 3.35249 92.3879 3.4555C92.1341 3.5471 92.0977 3.71739 91.9414 3.87818C91.2852 4.55363 90.5891 5.27621 89.9149 5.92468C89.6888 6.1421 89.0855 6.44694 89.8563 6.50434C90.2139 6.53095 90.5703 6.40665 90.9279 6.52981L90.9954 6.61419L91.0126 11.0649C91.2503 12.6849 92.3009 13.3273 93.8417 13.5565C94.059 13.5888 94.8218 13.7146 94.9349 13.5223C95.0199 13.3771 94.9464 12.8213 94.9536 12.6024C94.9582 12.472 95.0475 12.3033 94.9586 12.1877C94.8521 12.0493 94.3484 12.082 94.1821 12.0562C93.5389 11.9555 92.9759 11.7297 92.614 11.169C92.5458 10.695 92.5067 10.2222 92.5669 9.7516L92.537 6.58758C92.7731 6.40361 92.987 6.50206 93.2288 6.50662C93.5999 6.51308 94.041 6.52981 94.4055 6.50472C94.5677 6.4937 94.8498 6.46215 94.969 6.35838L94.9962 6.30022C95.0161 6.14324 94.9548 5.99956 94.9525 5.84903C94.9502 5.67418 95.0759 5.09832 94.9295 5.00139C94.8448 4.97212 94.7624 4.93754 94.6711 4.92841C94.0732 4.86912 93.3814 4.97327 92.7735 4.93031C92.7125 4.92613 92.6217 4.92423 92.5761 4.88166C92.4442 4.75774 92.5604 4.49623 92.5661 4.34647ZM47.4877 8.6261L47.4858 13.4322C47.4835 13.5861 47.6437 13.6238 47.7718 13.6371C47.963 13.6568 48.8814 13.6595 49.0025 13.5793C49.1474 13.4835 49.0424 13.2604 49.0401 13.1319C49.0102 11.4678 49.0669 9.80101 49.0401 8.13652C49.0903 7.87919 49.1344 7.58537 49.2202 7.33906C49.6518 6.10447 51.5069 6.61077 52.5108 6.50548C52.6039 6.4956 52.6882 6.46405 52.7725 6.4268C52.8147 6.40817 52.8251 6.3789 52.8331 6.33633C52.8787 6.08926 52.8285 5.60196 52.8312 5.32106C52.8327 5.14127 52.9435 4.99265 52.6602 4.93069C51.3709 4.94666 49.4046 4.73684 48.4103 5.72968C47.669 6.46975 47.6372 7.66329 47.4877 8.6261ZM87.3929 4.92727C86.8099 4.879 86.141 4.95236 85.5504 4.94552C85.3622 5.01128 85.3587 5.18004 85.2805 5.3165C85.1475 5.54723 85.1115 5.70953 85.0046 5.90681C84.9222 6.05847 84.7033 6.18277 84.8125 6.39373C84.9337 6.62711 85.847 6.39601 86.1498 6.53323C86.3652 6.63091 86.2357 6.92474 86.233 7.0859C86.2112 8.41286 86.2694 9.7421 86.269 11.0622C86.269 11.1188 86.2238 11.188 86.2326 11.2523C86.3116 11.946 86.1564 12.7514 86.2326 13.4326C86.2464 13.5557 86.3219 13.6162 86.445 13.6352C86.6313 13.664 87.5619 13.6599 87.6765 13.5447C87.7819 13.4383 87.711 13.184 87.711 13.057C87.7183 10.5871 87.6527 8.08673 87.711 5.62173C87.7144 5.47387 87.8145 5.12189 87.7041 5.0128C87.6585 4.96756 87.4657 4.93335 87.3921 4.92727H87.3929ZM86.5481 1.00532C85.934 1.00532 85.4365 1.4987 85.4365 2.10763C85.4365 2.71657 85.934 3.20995 86.5481 3.20995C87.1621 3.20995 87.6596 2.71657 87.6596 2.10763C87.6596 1.4987 87.1621 1.00532 86.5481 1.00532Z" fill="black"/>
</svg>
