<svg width="92" height="19" viewBox="0 0 92 19" fill="none" xmlns="http://www.w3.org/2000/svg">
<path d="M17.7812 3.47559L17.7725 10.3066H15.3975V6.21875L10.0781 9.27148V15.4404L13.6006 13.4111L14.7754 15.4893L8.88086 18.8887L2.99023 15.4893L4.16406 13.4199L7.6875 15.4492V9.27148L2.37891 6.21582V10.3037H0.00488281L0 3.47559L5.84668 0L7.05469 2.05957L3.55762 4.1377L8.89062 7.2002L14.2236 4.1377L10.7266 2.05957L11.9346 0L17.7812 3.47559ZM64.2139 6.21387C64.6689 6.20525 65.1202 6.30696 65.5283 6.50977C65.9166 6.70911 66.2556 6.99343 66.5205 7.3418C66.804 7.71792 67.0156 8.14379 67.1445 8.59766L67.1455 8.5918C67.2931 9.10202 67.3659 9.63165 67.3613 10.1631C67.37 10.7247 67.2935 11.285 67.1338 11.8232C66.9983 12.2804 66.7762 12.707 66.4795 13.0791C66.2059 13.418 65.8596 13.6907 65.4668 13.876C65.057 14.0647 64.6106 14.1591 64.1602 14.1533C63.7349 14.1657 63.3131 14.0727 62.9316 13.8828C62.5949 13.7046 62.3024 13.4517 62.0762 13.1436H62.0479V16.3867H59.6992V6.43262H61.9434V7.33887H61.9873C62.2311 7.00256 62.5448 6.72354 62.9062 6.52148C63.3084 6.30737 63.7592 6.20127 64.2139 6.21387ZM53.3115 6.5293C54.3513 6.13002 55.501 6.13002 56.541 6.5293C57.0063 6.71611 57.4271 6.99974 57.7764 7.36133C58.1201 7.7231 58.3888 8.1499 58.5674 8.61719C58.9411 9.63018 58.9411 10.7448 58.5674 11.7578C58.3893 12.2257 58.1203 12.6535 57.7764 13.0156C57.4271 13.3772 57.0063 13.6609 56.541 13.8477C55.501 14.2469 54.3513 14.2469 53.3115 13.8477C52.8456 13.6616 52.4235 13.3793 52.0723 13.0195C51.721 12.6597 51.4483 12.2299 51.2715 11.7578C50.8977 10.7448 50.8977 9.63018 51.2715 8.61719C51.4486 8.14552 51.7209 7.71594 52.0723 7.35645C52.4235 6.9969 52.8458 6.71539 53.3115 6.5293ZM79.5879 6.22461C80.049 6.219 80.5084 6.29001 80.9463 6.43555C81.3317 6.56534 81.6899 6.7664 82.0029 7.02734C82.2986 7.27894 82.5429 7.58639 82.7207 7.93262C82.9063 8.29292 83.0276 8.68359 83.0801 9.08594H80.8213C80.764 8.78245 80.6221 8.50158 80.4121 8.27637C80.3064 8.17514 80.181 8.09573 80.0439 8.04492C79.9071 7.99413 79.761 7.97259 79.6152 7.98047C79.3905 7.96743 79.1656 8.01514 78.9658 8.11914C78.7661 8.22314 78.5977 8.37938 78.4785 8.57129C78.2361 8.96735 78.1055 9.51166 78.1055 10.1826C78.1055 10.8534 78.2303 11.3858 78.4785 11.7744C78.598 11.966 78.767 12.1217 78.9668 12.2256C79.1664 12.3295 79.3907 12.3778 79.6152 12.3652V12.3691C80.3616 12.369 80.7881 11.941 80.8936 11.084H83.1348C83.1212 11.4959 83.0299 11.9015 82.8662 12.2793C82.7012 12.6514 82.4606 12.9848 82.1611 13.2588C81.8433 13.5456 81.4724 13.7667 81.0693 13.9082C80.6153 14.0697 80.1362 14.1487 79.6543 14.1426C79.1021 14.1527 78.5535 14.0528 78.04 13.8477C77.5778 13.6589 77.1594 13.3755 76.8115 13.0156C76.4673 12.6538 76.1983 12.226 76.0215 11.7578C75.8306 11.2572 75.7357 10.7247 75.7412 10.1885C75.734 9.64964 75.8262 9.11383 76.0117 8.6084C76.1844 8.14208 76.4474 7.71503 76.7861 7.35254C77.1289 6.99255 77.5433 6.70909 78.002 6.52051C78.5057 6.31641 79.0449 6.21559 79.5879 6.22461ZM71.542 6.22656C72.0153 6.21548 72.4883 6.26485 72.9492 6.37402C73.3017 6.46141 73.634 6.61792 73.9268 6.83398C74.2366 7.06044 74.4804 7.36679 74.6318 7.7207C74.7907 8.1145 74.8683 8.53694 74.8604 8.96191V12.7451C74.856 12.9821 74.8724 13.2192 74.9102 13.4531C74.9189 13.5239 74.9426 13.5919 74.9785 13.6533C75.0145 13.7148 75.0628 13.7686 75.1201 13.8105L75.1143 13.8057V13.9082H72.8496C72.7809 13.809 72.7314 13.6976 72.7031 13.5801C72.6598 13.4144 72.6265 13.2459 72.6035 13.0762H72.5732C72.3536 13.3847 72.0657 13.6372 71.7324 13.8145C71.3142 14.0169 70.8531 14.1127 70.3896 14.0928C70.0467 14.0954 69.7051 14.0458 69.377 13.9453C69.0832 13.8563 68.8113 13.7049 68.5801 13.502C68.3573 13.3047 68.1801 13.0599 68.0615 12.7861C67.9349 12.4814 67.8722 12.1535 67.8779 11.8232C67.8678 11.4644 67.9473 11.1082 68.1084 10.7881C68.254 10.5134 68.4634 10.2781 68.7188 10.1025C68.9933 9.91471 69.297 9.77359 69.6172 9.68555C69.9726 9.58449 70.3356 9.51137 70.7021 9.46582C71.1947 9.41881 71.6806 9.31943 72.1523 9.16992C72.4313 9.06205 72.5693 8.88162 72.5693 8.62891C72.5751 8.51913 72.5562 8.4096 72.5156 8.30762C72.4748 8.20558 72.4128 8.11338 72.333 8.03809C72.1697 7.90117 71.9108 7.83302 71.5566 7.83301C71.2533 7.81123 70.9523 7.89905 70.708 8.08105C70.5071 8.26716 70.3838 8.52368 70.3643 8.79785H68.208C68.2165 8.45452 68.2951 8.1163 68.4385 7.80469C68.5851 7.48907 68.7991 7.20901 69.0645 6.98535C69.368 6.73533 69.7172 6.54643 70.0918 6.42969C70.5615 6.28532 71.051 6.21723 71.542 6.22656ZM30.9092 3.46875V5.60059H25.665V7.4707H30.1621V9.48633H25.665V11.7227H30.9941V13.9121H23.1211V3.46875H30.9092ZM36.6387 6.21387C37.0085 6.20739 37.3758 6.28003 37.7158 6.42676C38.023 6.56075 38.2977 6.76012 38.5215 7.01074L38.5332 7.01562C38.7589 7.27347 38.9297 7.57536 39.0352 7.90234C39.1546 8.27248 39.2136 8.65969 39.209 9.04883V13.9121H36.8604V9.40625C36.8481 9.10557 36.7462 8.81421 36.5664 8.57129C36.4641 8.4446 36.3331 8.34431 36.1846 8.27832C36.036 8.2123 35.874 8.18229 35.7119 8.19141C35.5319 8.18577 35.3528 8.22296 35.1895 8.2998C35.0263 8.37678 34.8827 8.49181 34.7715 8.63477C34.5563 8.9206 34.4339 9.26517 34.4189 9.62109V13.9121H32.0703V6.43262H34.3262V7.45605H34.3691C34.6144 7.07898 34.9409 6.76206 35.3242 6.5293C35.7265 6.30856 36.1807 6.19923 36.6387 6.21387ZM41.9961 6.43262L43.0059 9.80859C43.0499 10.0036 43.0996 10.1899 43.1523 10.3701C43.2051 10.5503 43.2509 10.7083 43.2891 10.8457C43.3272 11.017 43.3654 11.1649 43.4033 11.3125H43.4326C43.4708 11.1663 43.5087 11.0111 43.5469 10.8457C43.5851 10.7083 43.6284 10.5489 43.6768 10.3701C43.7251 10.1913 43.7779 10.0036 43.835 9.80859L44.8555 6.43262H47.1992L44.6572 13.9121H42.1279L39.583 6.43262H41.9961ZM50.1318 6.43262V13.9121H47.7832V6.43262H50.1318ZM86.2637 3.46875V8.96191L88.4531 6.43262H91.1533L88.5625 9.23828L91.4473 13.9121H88.7295L86.9688 10.8594L86.2637 11.6191V13.9121H83.9512V3.46875H86.2637ZM72.6191 10.3447C72.4459 10.4301 72.2651 10.5014 72.0801 10.5566C71.8747 10.6201 71.652 10.6807 71.4131 10.7383C71.0681 10.8042 70.7365 10.9299 70.4346 11.1104C70.3351 11.1817 70.2556 11.2777 70.2031 11.3887C70.1504 11.4999 70.126 11.6231 70.1338 11.7461C70.1338 12.0494 70.2321 12.2636 70.4277 12.3887C70.6428 12.5226 70.8927 12.5887 71.1455 12.5791C71.535 12.5971 71.9173 12.4676 72.2158 12.2148C72.3518 12.0921 72.4587 11.9399 72.5293 11.7705C72.6001 11.6011 72.6327 11.4179 72.625 11.2344L72.6191 10.3447ZM54.9053 7.90918C54.6729 7.89749 54.4414 7.9499 54.2363 8.06055C54.0314 8.17116 53.8602 8.33599 53.7412 8.53711C53.485 8.95385 53.3564 9.50472 53.3564 10.1885C53.3565 10.8721 53.487 11.4202 53.7461 11.832C53.8662 12.0314 54.0376 12.1945 54.2422 12.3037C54.4471 12.413 54.6784 12.4643 54.9102 12.4521C55.143 12.4644 55.3753 12.4139 55.582 12.3047C55.7885 12.1955 55.9616 12.032 56.084 11.832C56.3481 11.4183 56.4795 10.8702 56.4785 10.1885H56.4746C56.4746 9.50767 56.3433 8.95683 56.0801 8.53711C55.959 8.33559 55.7855 8.1711 55.5791 8.06055C55.3723 7.94996 55.139 7.89733 54.9053 7.90918ZM63.5127 8.125C63.2777 8.1192 63.0454 8.17486 62.8379 8.28613C62.6454 8.39396 62.4803 8.54596 62.3564 8.72949C62.2184 8.93612 62.1186 9.16658 62.0625 9.40918C61.9994 9.68678 61.9681 9.97108 61.9697 10.2559C61.9697 10.8687 62.107 11.362 62.3799 11.7344C62.5139 11.9187 62.6917 12.0661 62.8965 12.1641C63.1015 12.262 63.3271 12.3078 63.5537 12.2959C63.7609 12.3032 63.9666 12.2576 64.1514 12.1631C64.3361 12.0685 64.494 11.9277 64.6104 11.7549C64.8646 11.3963 64.9922 10.8943 64.9912 10.25L64.9922 10.2637C64.9922 9.62037 64.8725 9.10498 64.6338 8.7168C64.5179 8.52491 64.3528 8.36782 64.1553 8.26367C63.9579 8.1595 63.7353 8.11148 63.5127 8.125ZM51.5342 3.39941L49.7939 5.55664H48.0137L48.833 3.39941H51.5342Z" fill="black"/>
</svg>
