<svg width="111" height="17" viewBox="0 0 111 17" fill="none" xmlns="http://www.w3.org/2000/svg">
<path d="M11.0449 9.04389C11.0449 9.04389 11.1359 8.4207 10.4232 8.4207H5.19163C4.46377 8.4207 4.58508 7.8127 4.58508 7.8127L4.81253 6.59672C4.81253 6.59672 4.87319 5.97353 5.60105 5.97353H11.5453C12.0609 5.97353 12.167 5.36553 12.167 5.36553L12.3945 4.36235C12.3945 4.36235 12.4854 3.73915 11.7727 3.73915H2.79574C2.06788 3.73915 2.00722 4.34715 2.00722 4.34715L0.00559119 14.683C0.00559119 14.683 -0.100556 15.291 0.612146 15.291H2.61377C3.12935 15.291 3.23549 14.683 3.23549 14.683L3.88754 11.3087C3.94819 10.9287 4.2818 10.6551 4.67606 10.6855H10.2412C10.7568 10.6855 10.8629 10.0775 10.8629 10.0775L11.0449 9.04389ZM53.9434 13.0414C53.2156 13.0414 53.3369 12.4334 53.3369 12.4334L53.5795 11.1415C53.6402 10.7615 53.9738 10.4879 54.368 10.5183H60.2364C60.752 10.5183 60.8582 9.91028 60.8582 9.91028L61.0553 8.87669C61.0553 8.87669 61.1463 8.2687 60.4336 8.2687H54.8836C54.1557 8.2687 54.277 7.6607 54.277 7.6607L54.4742 6.62712C54.5348 6.24712 54.8836 5.95833 55.2627 6.00393H61.495C62.0106 6.00393 62.1168 5.39593 62.1168 5.39593L62.3442 4.39275C62.3442 4.39275 62.4352 3.76955 61.7225 3.76955H52.4725C51.7447 3.76955 51.684 4.37755 51.684 4.37755L49.6824 14.7134C49.6824 14.7134 49.5762 15.3214 50.2889 15.3214H60.0696C60.5852 15.3214 60.6762 14.7134 60.6762 14.7134L60.9036 13.695C60.9036 13.695 60.9946 13.0566 60.2819 13.0566H53.9434V13.0414ZM70.6995 8.3295C70.3204 8.2991 69.9716 8.57269 69.911 8.95269L69.729 9.98628C69.729 9.98628 69.6229 10.5943 70.3356 10.5943H72.1856C72.1856 10.5943 72.7315 10.5791 72.6101 11.1719L72.4433 12.0231C72.4433 12.0231 72.3675 12.7678 71.8974 12.8894C71.8974 12.8894 70.6995 13.2846 68.804 13.2846C66.9085 13.2846 64.5581 12.5094 64.5581 9.92548C64.5581 7.34151 67.9093 5.68473 70.3507 5.68473C70.3507 5.68473 72.4433 5.65433 73.7474 6.52072C73.7474 6.52072 74.1265 6.83992 74.5208 6.59672L76.2343 5.50233C76.2343 5.50233 76.9622 5.15274 76.4163 4.74234C76.4163 4.74234 74.7786 3.41996 70.7602 3.41996C66.7417 3.41996 61.7073 5.30473 61.2069 10.0471C61.2069 10.0471 60.3881 15.443 68.5614 15.5342C70.4872 15.5038 72.413 15.2302 74.2782 14.7134C74.2782 14.7134 75.2638 14.455 75.4003 13.6646L76.2798 9.01349C76.2798 9.01349 76.4314 8.2839 75.6278 8.2839H70.6995V8.3295ZM40.8267 15.291C40.2808 15.291 40.0988 14.6982 40.0988 14.6982L35.9591 4.36235C35.9591 4.36235 35.671 3.73915 36.2775 3.73915H38.7189C39.1283 3.73915 39.4923 3.99755 39.6288 4.39275L42.1914 11.2023C42.1914 11.2023 42.3886 11.8559 42.8435 11.2023L47.6656 4.36235C47.6656 4.36235 48.1205 3.73915 48.7574 3.73915H50.8045C50.8045 3.73915 51.6689 3.75435 51.1836 4.37755L43.45 14.7134C43.1923 15.063 42.798 15.2758 42.3582 15.291H40.8267ZM91.1707 14.683L87.031 4.36235C86.8945 3.99755 86.5457 3.75435 86.1515 3.73915H84.6806C84.1195 3.73915 83.6343 4.36235 83.6343 4.36235L75.4609 14.6982C74.915 15.3822 75.8097 15.3062 75.8097 15.3062H78.0388C78.4634 15.2758 78.8425 15.063 79.0851 14.7134L80.1466 13.2846C80.3589 12.9806 80.6925 12.7982 81.0564 12.7678H86.2576C86.6216 12.783 86.9552 13.0262 87.0613 13.3758L87.5617 14.7134C87.5617 14.7134 87.7437 15.291 88.2896 15.291H90.7006C90.7006 15.291 91.4285 15.3518 91.1707 14.683ZM85.3023 10.5943H82.9216C82.133 10.5943 82.4818 10.0775 82.4818 10.0775L84.165 7.7367C84.8929 6.71832 85.1355 7.7367 85.1355 7.7367L85.9089 10.0775C86.106 10.6703 85.3023 10.5943 85.3023 10.5943ZM31.3948 3.73915C30.8792 3.79995 30.4546 4.34715 30.4546 4.34715L23.0092 13.7406C22.4481 14.4398 21.9932 13.7406 21.9932 13.7406L20.3858 11.2023C19.9006 10.4271 20.9469 10.0775 20.9469 10.0775C22.16 9.68228 23.8128 8.73989 23.8583 6.55112C23.9038 3.46556 18.3994 3.72395 18.3994 3.72395H13.6076C12.8797 3.72395 12.8191 4.33195 12.8191 4.33195L10.8174 14.6678C10.8174 14.6678 10.7113 15.2758 11.424 15.2758H13.4256C13.9563 15.2758 14.0473 14.6678 14.0473 14.6678L14.6994 11.2327C14.6994 11.2327 14.76 10.6095 15.4879 10.6095H16.0641C16.5342 10.6095 16.792 11.1871 16.792 11.1871L18.7633 14.683C18.7633 14.683 19.0362 15.3062 19.6276 15.3062H24.8592C25.2837 15.2758 25.6628 15.063 25.9055 14.7134L26.9669 13.2846C27.1792 12.9806 27.5128 12.7982 27.8768 12.7678H33.078C33.4419 12.783 33.7755 13.0262 33.8816 13.3758L34.3669 14.7134C34.3669 14.7134 34.5489 15.291 35.0948 15.291H37.521C37.521 15.291 38.264 15.367 37.9911 14.683L33.8513 4.36235C33.7148 3.99755 33.3661 3.75435 32.9718 3.73915H31.3948ZM32.1226 10.5943H29.7419C28.9534 10.5943 29.3022 10.0775 29.3022 10.0775L30.9854 7.7367C31.7132 6.71832 31.9558 7.7367 31.9558 7.7367L32.7292 10.0775C32.9263 10.6703 32.1226 10.5943 32.1226 10.5943ZM17.9141 8.4207H15.9883C15.2604 8.4359 15.3817 7.8279 15.3817 7.8279L15.6395 6.53592C15.7002 6.15592 16.0338 5.88233 16.428 5.91273H18.0657C18.0657 5.91273 19.8399 5.82153 20.2645 6.41432C20.4465 6.64232 20.5071 6.96151 20.4161 7.23511C20.2948 7.7823 19.7489 8.3599 17.9141 8.4207ZM35.1251 0H33.5935C33.2448 0.0303996 32.9415 0.212797 32.7292 0.486394L31.5919 1.97598C31.1825 2.50797 31.9255 2.52317 31.9255 2.52317H33.4571C33.8058 2.49277 34.1091 2.31037 34.3214 2.03677L35.4587 0.562393C35.8681 0.0151998 35.1251 0 35.1251 0ZM98.4645 16.3398C104.318 14.8046 110.474 12.3726 110.52 8.95269C110.52 8.95269 111.323 4.45354 98.7981 2.02157C98.7981 2.02157 96.4932 1.55038 96.0383 2.05197C95.6137 2.52317 97.3879 3.14636 97.3879 3.14636C100.754 4.46874 104.469 6.52072 104.576 9.13509C104.576 9.13509 105.394 12.3878 97.4485 15.5038C97.4485 15.5038 95.7957 16.0966 96.008 16.583C96.1748 16.9174 97.8276 16.4918 98.4645 16.3398ZM97.0391 14.9414C100.436 13.619 103.666 11.7191 103.666 9.28709C103.666 9.28709 104.181 6.36872 97.1149 3.54156C96.8875 3.46556 95.9776 3.16156 95.5531 3.61756C95.1891 3.99755 96.2354 4.69674 96.2354 4.69674C97.6002 5.80633 98.9043 7.32631 98.8588 9.08949C98.8133 10.6703 97.585 12.099 95.9018 13.2998C95.9018 13.2998 94.3248 14.3486 94.7039 14.9414C95.1588 15.671 96.4022 15.1542 97.0391 14.9414Z" fill="black"/>
</svg>
