<?xml version="1.0" encoding="UTF-8"?>
<svg id="Layer_1" xmlns="http://www.w3.org/2000/svg" version="1.1" viewBox="0 0 79 14">
  <!-- Generator: Adobe Illustrator 30.4.0, SVG Export Plug-In . SVG Version: 2.1.4 Build 226)  -->
  <path d="M6.7,10.5s0,0,0,0l-1.7,2.7H1.5s1.8-2.8,3.5-5.5C2.9,4.6,0,0,0,0h6.5l3.5,5.3s-1.3,2-2.3,3.7l-.5.9c-.1.2-.3.5-.4.6ZM20,12.6l-2.9-4.8,2.8-3.3h-2l-2.9,3.6V1.4h-1.6v11.3h1.6v-2.3l1-1.2,2.1,3.5h1.9,0ZM22.8,9.5c0-2.2,1-3.2,2.4-3.2h0v-2c-1.3,0-2.1.7-2.5,2v-1.8h-1.6v8.1h1.6v-3.1ZM28.5,3.2v-1.8h-1.7v1.8h1.7ZM28.5,12.6V4.5h-1.6v8.1h1.6ZM37.2,12.6l-2.9-4.8,2.8-3.3h-2l-2.9,3.6V1.4h-1.6v11.3h1.6v-2.3l1-1.2,2.1,3.5h1.9,0ZM41.6,12.8c2.1,0,3.7-2.1,3.7-4.4,0-2.4-1.8-4.3-3.9-4.2-2.1,0-3.7,2.1-3.7,4.4h0c0,2.4,1.7,4.3,3.8,4.2h.1ZM43.6,8.6c0,1.4-.9,2.6-2.2,2.6s-2.2-1.2-2.2-2.6.8-2.6,2.1-2.6,2.2,1.2,2.2,2.6ZM49.4,12.7c1.5,0,2.6-.8,2.6-2.6s-1.2-2-2.2-2.4c-.8-.3-1.6-.6-1.6-1.2s.4-.8,1-.8c.7,0,1.4.3,2,.8l.7-1.3c-.8-.6-1.7-.9-2.6-.9-1.4,0-2.5.9-2.5,2.5s1.2,2.1,2.2,2.4c.8.3,1.6.5,1.6,1.2s-.4.9-1.1.9c-.8,0-1.7-.4-2.3-1l-.7,1.2c.9.8,1.9,1.2,3,1.2h0ZM53.8,3h4.6l-3,3.8.2.7h.6c1.6,0,2.6.7,2.6,2.1s-.9,2.1-2.1,2.1-2-.6-2.8-1.6l-.8.8c.8,1.2,2.1,1.9,3.5,1.9,1.7,0,3.2-1.2,3.2-3.2s-1.5-2.9-3.1-3.1l3-3.7v-.9h-6v1.1h0ZM68.4,2.9c-.8-.7-1.7-1.2-2.8-1.2-2.5,0-3.9,2.6-3.9,5.9s.4,3.3,1.2,4.2c.7.7,1.6,1.1,2.5,1.1,1.9,0,3.4-1.6,3.4-3.6s-1.5-3.3-3.3-3.3c-1.1,0-2.1.6-2.7,1.6,0-2.8,1.1-4.7,2.8-4.7s1.5.4,2.2,1.1l.6-.9ZM67.6,9.3c0,1.4-.9,2.5-2.3,2.5s-2.4-1.1-2.4-2.4.9-2.4,2.4-2.4,2.3,1,2.3,2.3ZM78.4,7.2c0-3-1.5-5.5-4-5.5s-4,2.6-4,5.6,1.6,5.5,4,5.5,4-2.6,4-5.6ZM74.4,2.7c1.8,0,2.9,2.1,2.9,4.5s-1.1,4.4-2.8,4.4-2.9-2.1-2.9-4.5,1.1-4.4,2.9-4.4h0Z"/>
</svg>