<svg width="89" height="23" viewBox="0 0 89 23" fill="none" xmlns="http://www.w3.org/2000/svg">
<path d="M79.4848 1.9358V3.93872C79.2813 3.6033 79.0197 3.34455 78.6902 3.15289C78.3608 2.96122 77.9829 2.86539 77.5662 2.86539C76.6457 2.86539 75.919 3.21997 75.3764 3.90997C74.8337 4.59997 74.5527 5.60622 74.5527 6.8233C74.5527 7.87747 74.8337 8.73997 75.3861 9.4108C75.9384 10.0816 77.0333 10.3787 78.0023 10.3787C81.384 10.3787 81.3452 7.42705 81.3452 7.42705V0.632471C81.3452 0.632471 79.4945 0.431221 79.4945 1.94539L79.4848 1.9358ZM79.1263 8.27039C78.8647 8.6633 78.4577 8.85497 77.9441 8.85497C77.4306 8.85497 77.043 8.65372 76.7911 8.2608C76.5391 7.8583 76.4035 7.2833 76.4035 6.64122C76.4035 6.02789 76.5391 5.51997 76.7814 5.11747C77.0236 4.70539 77.4209 4.50414 77.9538 4.50414C78.3026 4.50414 78.6127 4.61914 78.8743 4.84914C79.3007 5.22289 79.5236 5.89372 79.5236 6.75622C79.5236 7.37914 79.3782 7.88705 79.1166 8.27039H79.1263Z" fill="black"/>
<path d="M56.1333 10.2254H57.9744V6.74667C57.9744 6.18125 58.0519 5.75 58.1779 5.47208C58.4298 4.98333 58.9143 4.74375 59.6604 4.74375H59.8736C59.9608 4.74375 60.0577 4.74375 60.1836 4.7725V2.875C60.0964 2.875 60.048 2.875 60.0383 2.875H59.9414C55.9008 2.875 56.1333 6.52625 56.1333 6.52625V10.235V10.2254Z" fill="black"/>
<path d="M51.8885 10.3979C53.0125 10.3979 53.8846 10.0433 54.5144 9.35334C54.8536 8.98917 55.0668 8.625 55.154 8.27042H53.2063C53.1288 8.38542 53.0513 8.48125 52.9544 8.55792C52.6928 8.77834 52.3439 8.84542 51.937 8.84542C51.53 8.84542 51.2393 8.78792 50.9583 8.60584C50.5029 8.31834 50.251 7.82959 50.2219 7.12042H55.2993C55.2993 6.50709 55.2799 6.02792 55.2412 5.70209C55.154 5.13667 54.9699 4.6575 54.6889 4.23584C54.3788 3.75667 53.9815 3.40209 53.4776 3.18167C52.9835 2.96125 52.4505 2.84625 51.8401 2.84625C50.8227 2.84625 49.9894 3.17209 49.3498 3.83334C48.7006 4.49459 48.3809 5.43375 48.3809 6.67C48.3809 7.9925 48.7394 8.93167 49.4467 9.51625C50.1541 10.1008 50.9777 10.3979 51.8982 10.3979H51.8885ZM50.7355 4.81084C50.9971 4.5425 51.3556 4.40834 51.8304 4.40834C52.2567 4.40834 52.6153 4.5425 52.9156 4.79167C53.2063 5.04084 53.3711 5.42417 53.4001 5.91292H50.2607C50.3188 5.44334 50.4835 5.07917 50.7355 4.81084Z" fill="black"/>
<path d="M16.2981 0C7.28666 0 0 4.87792 0 10.8675V11.5C0 17.8537 6.37583 23 16.2884 23C26.201 23 32.5768 17.8537 32.5768 11.5V10.8675C32.5768 4.8875 25.2805 0 16.2884 0H16.2981ZM31.7047 9.67917C28.2358 10.5129 25.668 11.6342 25.0188 11.9312C23.4685 10.5512 19.9027 7.38875 18.9337 6.65083C18.3814 6.22917 18.0035 5.99917 17.674 5.89375C17.5287 5.84583 17.3155 5.79792 17.0539 5.79792C16.8116 5.79792 16.55 5.84583 16.269 5.94167C15.6489 6.14292 15.0191 6.65083 14.4183 7.13958L14.3795 7.16833C13.8175 7.62833 13.2361 8.09792 12.8001 8.19375C12.6063 8.23208 12.4125 8.26083 12.2187 8.26083C11.7342 8.26083 11.2788 8.11708 11.1238 7.89667C11.0947 7.85833 11.1238 7.80083 11.1819 7.71458L12.5385 6.21C13.6044 5.1175 14.6121 4.10167 16.9279 4.05375H17.0442C18.488 4.05375 19.9317 4.715 20.0868 4.79167C21.4336 5.47208 22.829 5.81708 24.234 5.81708C25.5227 5.81708 26.8793 5.51042 28.2746 4.91625C30.009 6.25792 31.2299 7.88708 31.7241 9.68875L31.7047 9.67917ZM27.6544 4.46583C26.4723 4.92583 25.3386 5.16542 24.234 5.16542C22.9355 5.16542 21.6177 4.84917 20.3581 4.20708C20.2903 4.16875 18.7011 3.40208 17.0442 3.40208H16.9085C14.9609 3.45 13.8757 4.15917 13.1199 4.7725C12.4125 4.79167 11.7924 4.96417 11.2401 5.12708C10.7556 5.26125 10.3195 5.38583 9.92226 5.38583C9.75754 5.38583 9.44747 5.38583 9.4184 5.38583C8.99205 5.38583 7.03473 4.8875 5.2712 4.255C8.1006 2.42458 12.0056 1.28417 16.3175 1.28417C20.6294 1.28417 24.8154 2.52042 27.6738 4.47542L27.6544 4.46583ZM4.65106 4.68625C6.5018 5.405 8.55602 5.94167 9.25367 5.98958C9.46685 5.98958 9.68971 6.02792 9.92226 6.02792C10.4261 6.02792 10.93 5.88417 11.4242 5.74042C11.7149 5.65417 12.0346 5.56792 12.3738 5.50083C12.2866 5.58708 12.1993 5.68292 12.1121 5.77875L10.7362 7.29292C10.6296 7.39833 10.3874 7.705 10.5521 8.06917C10.6102 8.2225 10.7362 8.36625 10.9203 8.48125C11.2498 8.70167 11.8408 8.86458 12.3931 8.86458C12.5966 8.86458 12.8001 8.84542 12.9745 8.80708C13.5559 8.6825 14.1664 8.17458 14.8059 7.65708C15.3194 7.23542 16.0559 6.71792 16.6082 6.555C16.7535 6.51667 16.957 6.48792 17.112 6.48792H17.2477C17.6159 6.53583 17.9647 6.67 18.6042 7.14917C19.7379 8.02125 24.7572 12.4871 24.8057 12.535C24.8057 12.535 25.1254 12.8225 25.106 13.2825C25.106 13.5412 24.9607 13.7808 24.6991 13.9437C24.4859 14.0779 24.2727 14.1546 24.0402 14.1546C23.701 14.1546 23.4685 13.9917 23.4588 13.9821C23.4394 13.9725 21.7146 12.3625 21.0848 11.8258C20.9782 11.7396 20.891 11.6629 20.7941 11.6629C20.736 11.6629 20.6875 11.6821 20.6488 11.7204C20.5422 11.845 20.6488 12.0271 20.7941 12.1325L22.7999 14.1929C22.7999 14.1929 23.0518 14.4325 23.0712 14.7488C23.0712 15.0938 22.9259 15.3813 22.5964 15.5921C22.3639 15.7454 22.1216 15.8317 21.8891 15.8317C21.579 15.8317 21.3658 15.6879 21.3174 15.6496L21.0267 15.3621C20.4937 14.835 19.9608 14.2792 19.5538 13.9437C19.4569 13.8575 19.36 13.7904 19.2535 13.7904C19.205 13.7904 19.1566 13.8096 19.1178 13.8479C19.0694 13.9054 19.0403 13.9917 19.1566 14.1546C19.205 14.2121 19.2631 14.2696 19.2631 14.2696L20.736 15.9467C20.736 15.9467 21.0364 16.3204 20.7747 16.6654L20.7166 16.7325C20.7166 16.7325 20.6197 16.8283 20.5809 16.8667C20.329 17.0775 19.9996 17.0967 19.8736 17.0967C19.7961 17.0967 19.7283 17.0967 19.6798 17.0775C19.5345 17.0487 19.4376 17.0104 19.3891 16.9529L19.3697 16.9337C19.2825 16.8571 18.5558 16.0808 17.9357 15.5633C17.8484 15.4962 17.7612 15.41 17.645 15.41C17.5868 15.41 17.5481 15.4292 17.5093 15.4675C17.3833 15.6017 17.5674 15.8029 17.6547 15.8796L18.9143 17.2883C18.9143 17.2883 18.8949 17.3267 18.8659 17.3746C18.8174 17.4321 18.6721 17.595 18.2167 17.6525C18.1585 17.6525 18.1004 17.6621 18.0519 17.6621C17.5868 17.6621 17.083 17.4321 16.8213 17.2883C16.9376 17.0392 16.9958 16.7517 16.9958 16.4833C16.9958 15.4292 16.1624 14.5858 15.1353 14.5858H15.0675C15.0966 14.1067 15.0287 13.1962 14.1179 12.8033C13.8563 12.6883 13.5947 12.6308 13.333 12.6308C13.1392 12.6308 12.9455 12.6692 12.7613 12.7362C12.5772 12.3625 12.2575 12.0846 11.8505 11.9408C11.6277 11.8642 11.4048 11.8162 11.1819 11.8162C10.7943 11.8162 10.4552 11.9312 10.1451 12.1612C9.84475 11.7779 9.39902 11.5479 8.91453 11.5479C8.49788 11.5479 8.1006 11.7204 7.80022 12.0175C7.40294 11.7108 5.87197 10.7142 1.73446 9.76542C1.56973 9.72708 1.23059 9.63125 0.959281 9.545C1.51159 7.705 2.81971 6.0375 4.68013 4.69583L4.65106 4.68625ZM11.5889 15.525C11.2885 15.7263 10.9397 15.8508 10.5327 15.6879C9.50561 15.2758 9.58312 14.2696 9.63157 14.0108V13.9725C9.43778 14.1737 9.17616 14.2887 8.87578 14.2887C8.27501 14.2887 7.78084 13.7904 7.78084 13.1771C7.78084 12.5637 8.27501 12.0654 8.87578 12.0654C9.42809 12.0654 9.88351 12.4967 9.95133 13.0429C10.0967 12.7937 10.7071 12.1229 11.6567 12.42C12.3253 12.6212 12.4125 13.2442 12.4319 13.4646C12.4319 13.5221 12.461 13.5221 12.4997 13.4742C12.6548 13.3017 13.1296 12.9279 13.895 13.2633C14.8834 13.7042 14.4764 14.95 14.4474 15.0267C14.4183 15.1033 14.3698 15.2279 14.3989 15.2471C14.4474 15.2758 14.7962 15.0842 15.0966 15.0937C15.8524 15.0937 16.4628 15.7262 16.4628 16.4929C16.4628 17.2596 15.8427 17.8921 15.0869 17.8921C14.3311 17.8921 13.74 17.2979 13.7206 16.5504C13.7206 16.4163 13.6916 16.3971 13.585 16.4929C13.3621 16.7037 13.0133 16.9529 12.4416 16.7133C11.6858 16.3971 11.6373 15.8412 11.6761 15.5825C11.6761 15.4962 11.6761 15.4771 11.5889 15.5346V15.525ZM16.2981 21.7158C7.64518 21.7158 0.629831 17.1446 0.629831 11.5C0.629831 11.0592 0.68797 10.6279 0.775177 10.2062C0.99804 10.2637 1.45346 10.3692 1.56004 10.3979C5.78476 11.3563 7.17039 12.3433 7.40294 12.535C7.31573 12.7362 7.27697 12.9471 7.27697 13.1579C7.27697 14.0492 7.98432 14.7679 8.8564 14.7679C8.96298 14.7679 9.05019 14.7679 9.14709 14.7392C9.28274 15.4004 9.6994 15.8988 10.3389 16.1479C10.523 16.2246 10.7168 16.2533 10.9009 16.2533C11.0269 16.2533 11.1432 16.2533 11.2691 16.2054C11.3951 16.5121 11.6664 16.8954 12.2575 17.1446C12.461 17.2308 12.6741 17.2692 12.8776 17.2692C13.0424 17.2692 13.2071 17.2404 13.3621 17.1829C13.6528 17.8921 14.3311 18.3712 15.0869 18.3712C15.5907 18.3712 16.0752 18.17 16.4241 17.7867C16.7244 17.9592 17.364 18.2658 18.0035 18.2658C18.0907 18.2658 18.1585 18.2658 18.2457 18.2562C18.8852 18.1796 19.1856 17.9208 19.3116 17.7196C19.3407 17.6812 19.36 17.6525 19.3794 17.6142C19.5248 17.6525 19.6895 17.6908 19.8833 17.6908C20.2321 17.6908 20.5713 17.5662 20.9007 17.3171C21.2398 17.0679 21.4724 16.7229 21.5015 16.4162C21.6177 16.4162 21.7243 16.4354 21.8503 16.4354C22.2185 16.4354 22.5576 16.3204 22.8968 16.0904C23.546 15.6496 23.6526 15.0842 23.6429 14.7104C23.7592 14.7392 23.8658 14.7488 23.9917 14.7488C24.3309 14.7488 24.6603 14.6433 24.9801 14.4421C25.387 14.1833 25.6293 13.7808 25.668 13.3017C25.6971 12.9854 25.6099 12.6596 25.4549 12.3817C26.5304 11.9121 28.9819 10.9921 31.8598 10.3308C31.9276 10.7142 31.9664 11.0975 31.9664 11.4904C31.9664 17.135 24.951 21.7062 16.2981 21.7062V21.7158Z" fill="black"/>
<path d="M88.119 3.95792C87.5279 3.20084 86.6365 2.82709 85.435 2.82709C84.2334 2.82709 83.342 3.20084 82.7509 3.95792C82.1598 4.715 81.8691 5.58709 81.8691 6.6125C81.8691 7.63792 82.1695 8.53875 82.7509 9.28625C83.342 10.0242 84.2334 10.3979 85.435 10.3979C86.6365 10.3979 87.5279 10.0242 88.119 9.28625C88.7101 8.53875 89.0008 7.65709 89.0008 6.6125C89.0008 5.56792 88.7004 4.70542 88.119 3.95792ZM86.6559 8.25125C86.3652 8.64417 85.9582 8.83584 85.4253 8.83584C84.8923 8.83584 84.4757 8.64417 84.185 8.25125C83.8943 7.86792 83.7586 7.31209 83.7586 6.6125C83.7586 5.91292 83.8943 5.3475 84.185 4.97375C84.4757 4.59042 84.8826 4.39875 85.4253 4.39875C85.9679 4.39875 86.3652 4.59042 86.6559 4.97375C86.9466 5.35709 87.0822 5.91292 87.0822 6.6125C87.0822 7.31209 86.9369 7.8775 86.6559 8.25125Z" fill="black"/>
<path d="M73.0799 3.31584C72.4791 3.00917 71.8105 2.84625 71.0353 2.84625C69.8532 2.84625 69.0199 3.1625 68.5354 3.78542C68.2253 4.18792 68.0606 4.70542 68.0218 5.31875H69.7951C69.8338 5.05042 69.9307 4.83 70.0567 4.6575C70.2311 4.43709 70.5412 4.33167 70.9869 4.33167C71.3745 4.33167 71.6846 4.38917 71.8784 4.50417C72.0721 4.60959 72.1787 4.82042 72.1787 5.10792C72.1787 5.3475 72.0431 5.52959 71.7815 5.64459C71.6361 5.71167 71.3842 5.76917 71.0547 5.8075L70.4249 5.88417C69.7175 5.97042 69.1749 6.13334 68.8164 6.34417C68.1478 6.73709 67.8184 7.36959 67.8184 8.24167C67.8184 8.92209 68.0218 9.44917 68.4482 9.80375C68.8648 10.1775 69.3978 10.3308 70.0276 10.3596C74.0198 10.5417 73.9713 8.2225 74.0101 7.73375V5.06C74.0101 4.1975 73.7 3.6225 73.0993 3.30625L73.0799 3.31584ZM72.1594 7.37917C72.1594 8.00208 71.9752 8.43334 71.6361 8.67292C71.297 8.9125 70.9288 9.0275 70.5315 9.0275C70.2795 9.0275 70.0664 8.96042 69.892 8.81667C69.7175 8.67292 69.6303 8.44292 69.6303 8.12667C69.6303 7.77208 69.7757 7.50375 70.0567 7.33125C70.2214 7.22584 70.5024 7.14917 70.8997 7.0725L71.3163 6.98625C71.5198 6.94792 71.6846 6.90959 71.8008 6.86167C71.9268 6.81375 72.0334 6.75625 72.1594 6.67959V7.36959V7.37917Z" fill="black"/>
<path d="M63.9899 4.44667C64.4454 4.44667 64.7748 4.59042 64.9977 4.87792C65.143 5.08875 65.2399 5.32833 65.269 5.59667H67.236C67.1294 4.58083 66.7806 3.88125 66.1992 3.47875C65.6081 3.07625 64.8523 2.875 63.9318 2.875C62.8466 2.875 62.0036 3.22 61.3834 3.89083C60.7633 4.57125 60.4629 5.51042 60.4629 6.73708C60.4629 7.82 60.7439 8.69208 61.2962 9.3725C61.8485 10.0529 62.7206 10.3979 63.9027 10.3979C65.0849 10.3979 65.986 9.98583 66.5868 9.17125C66.9647 8.66333 67.1779 8.12667 67.2263 7.57083H65.269C65.2302 7.94458 65.1236 8.25125 64.9298 8.49083C64.7457 8.72083 64.426 8.84542 63.9706 8.84542C63.331 8.84542 62.9047 8.54833 62.6818 7.95417C62.5462 7.63792 62.4977 7.21625 62.4977 6.69875C62.4977 6.1525 62.5656 5.71167 62.6818 5.37625C62.9144 4.76292 63.3601 4.44667 63.9996 4.44667H63.9899Z" fill="black"/>
<path d="M45.9579 5.93208V10.2446H47.6246V5.98C47.6246 4.15917 46.5393 2.86542 44.708 2.86542C43.8553 2.86542 43.1285 3.24875 42.6247 3.86208C42.1596 3.24875 41.4328 2.86542 40.5414 2.86542C38.7488 2.86542 37.5957 4.21667 37.5957 5.98V10.2446H39.272V5.93208C39.272 5.13667 39.7953 4.6 40.5414 4.6C41.646 4.6 41.7623 5.53917 41.7623 5.93208V10.2446H43.4386V5.93208C43.4386 5.13667 43.9715 4.6 44.708 4.6C45.8126 4.6 45.9482 5.53917 45.9482 5.93208H45.9579Z" fill="black"/>
<path d="M63.5933 14.1163L62.3627 18.3138L60.9868 13.5029H59.0488L61.4713 20.3454H63.322L65.7832 13.5029H64.4266C64.0003 13.5029 63.729 13.7138 63.5933 14.1163Z" fill="black"/>
<path d="M51.3455 16.0521C51.2679 15.5442 51.0838 15.065 50.7931 14.6434C50.4734 14.1929 50.0858 13.8479 49.6013 13.6371C49.1168 13.4263 48.5839 13.3209 47.9831 13.3209C46.9657 13.3209 46.1518 13.6371 45.5219 14.26C44.8824 14.8925 44.582 15.7838 44.582 16.9625C44.582 18.2179 44.9406 19.1284 45.6285 19.6938C46.3262 20.2496 47.1401 20.5371 48.0509 20.5371C49.1556 20.5371 50.018 20.2113 50.6381 19.55C50.9676 19.205 51.1807 18.86 51.2679 18.5246H49.3688C49.3009 18.63 49.2137 18.7259 49.1168 18.7929C48.8552 19.0038 48.5064 19.0709 48.0897 19.0709C47.7021 19.0709 47.4017 19.0134 47.1207 18.8409C46.675 18.5629 46.4231 18.0838 46.4037 17.4034H51.4133C51.423 16.8188 51.4036 16.3684 51.3551 16.0521H51.3455ZM46.4425 16.2438C46.5103 15.8029 46.6653 15.4484 46.9269 15.1992C47.1886 14.9404 47.5374 14.8159 48.0025 14.8159C48.4288 14.8159 48.7777 14.9309 49.0684 15.18C49.3494 15.4292 49.5141 15.7838 49.5529 16.2534H46.4521L46.4425 16.2438Z" fill="black"/>
<path d="M68.341 13.5125H66.5V20.3646H68.341V13.5125Z" fill="black"/>
<path d="M55.5319 13.3304H55.4447C51.7723 13.5317 52.0049 16.8475 52.0049 16.8475V20.3646H53.8363V17.0679C53.8363 16.5217 53.9041 16.1096 54.0494 15.8413C54.3014 15.3621 54.7955 15.1321 55.5223 15.1321H55.5319C56.2587 15.1321 56.7625 15.3813 57.0048 15.8413C57.1501 16.1096 57.218 16.5217 57.218 17.0679V20.3646H59.0493V16.8475C59.0493 16.8475 59.2722 13.4934 55.5319 13.3304Z" fill="black"/>
<path d="M80.6665 16.2054C79.5813 15.9659 78.9417 15.7934 78.7673 15.7071C78.5929 15.6113 78.496 15.4771 78.496 15.2663C78.496 15.1034 78.5735 14.95 78.7479 14.835C78.9127 14.7104 79.1937 14.6529 79.6006 14.6529C80.0851 14.6529 80.4243 14.7679 80.6277 15.0171C80.7343 15.1417 80.8022 15.3334 80.8312 15.5634H82.6432C82.556 14.72 82.2459 14.1259 81.7033 13.7904C81.1607 13.455 80.4533 13.2825 79.5812 13.2825C78.6607 13.2825 77.9534 13.5125 77.4495 13.9725C76.9456 14.4229 76.6937 14.9788 76.6937 15.6017C76.6937 16.1384 76.8584 16.56 77.1782 16.8379C77.498 17.1254 78.0503 17.365 78.8448 17.5567C79.9398 17.8154 80.5793 17.9879 80.744 18.0934C80.9087 18.1796 81.0153 18.3617 81.0056 18.5438C81.0056 18.7546 80.899 18.9175 80.6859 19.0229C80.4824 19.1284 80.1917 19.1859 79.8332 19.1859C79.2324 19.1859 78.8061 19.0709 78.5832 18.8217C78.4572 18.6971 78.37 18.4575 78.3313 18.1509H76.4902C76.4902 18.8504 76.7519 19.435 77.2654 19.8854C77.7887 20.355 78.5832 20.5754 79.6782 20.5754C80.7731 20.5754 81.558 20.3646 82.0618 19.9334C82.5657 19.5021 82.8273 18.9463 82.8273 18.2659C82.8273 17.7388 82.6529 17.3267 82.2944 16.9721C81.9262 16.6367 81.3835 16.3779 80.6665 16.215V16.2054Z" fill="black"/>
<path d="M75.1624 14.3559C74.5713 13.6371 73.6895 13.2729 72.4977 13.2729C71.3058 13.2729 70.4241 13.6371 69.833 14.3559C69.2419 15.0746 68.9609 15.9371 68.9609 16.9338C68.9609 17.9304 69.2516 18.8025 69.833 19.5213C70.4241 20.2304 71.3058 20.5946 72.4977 20.5946C73.6895 20.5946 74.581 20.2304 75.1624 19.5213C75.7534 18.8121 76.0344 17.9496 76.0344 16.9338C76.0441 15.9275 75.7534 15.0842 75.1624 14.3559ZM73.7089 18.515C73.4279 18.8888 73.0112 19.0709 72.4783 19.0709C71.9454 19.0709 71.5384 18.8888 71.2477 18.515C70.957 18.1413 70.8214 17.6142 70.8214 16.9338C70.8214 16.2534 70.9667 15.7167 71.2477 15.3525C71.5287 14.9788 71.9454 14.7967 72.4783 14.7967C73.0112 14.7967 73.4182 14.9788 73.7089 15.3525C73.9899 15.7263 74.1352 16.2534 74.1352 16.9338C74.1352 17.6142 73.9899 18.1413 73.7089 18.515Z" fill="black"/>
<path d="M66.6738 12.7363H68.3405L68.8249 11.2892H67.1486L66.6738 12.7363Z" fill="black"/>
</svg>
