<svg width="52" height="21" viewBox="0 0 52 21" fill="none" xmlns="http://www.w3.org/2000/svg">
<g clip-path="url(#clip0_352_25736)">
<path d="M0.480469 0.325326C1.07637 0.209125 1.85562 0.139404 2.93283 0.139404C4.10171 0.139404 4.94972 0.395046 5.5227 0.85985C6.04985 1.30141 6.39363 1.99862 6.39363 2.83527C6.39363 3.67191 6.14152 4.36912 5.6373 4.85716C4.97264 5.50789 3.98711 5.83325 2.84115 5.83325C2.5432 5.83325 2.26817 5.83325 2.0619 5.76353V9.1566H0.480469V0.325326ZM2.0619 4.48532C2.26817 4.55504 2.52028 4.55504 2.84115 4.55504C4.03295 4.55504 4.76637 3.9508 4.76637 2.90499C4.76637 1.85918 4.07879 1.39437 2.97867 1.39437C2.5432 1.39437 2.22233 1.44086 2.0619 1.4641V4.46208V4.48532Z" fill="black"/>
<path d="M7.60834 4.76426C7.60834 3.88113 7.60834 3.25365 7.5625 2.67264H8.93766L9.00641 3.90437H9.05225C9.37312 2.99801 10.1065 2.5332 10.7941 2.5332C10.9545 2.5332 11.0462 2.5332 11.1837 2.57968V4.11354C11.0462 4.0903 10.8858 4.06706 10.7024 4.06706C9.9461 4.06706 9.41896 4.5551 9.25852 5.29879C9.23561 5.43823 9.21269 5.62415 9.21269 5.78683V9.13342H7.60834V4.76426Z" fill="black"/>
<path d="M18.266 5.8565C18.266 8.227 16.6158 9.29605 14.9885 9.29605C13.2008 9.29605 11.8027 8.04108 11.8027 5.9727C11.8027 3.90433 13.1779 2.5564 15.1031 2.5564C17.0283 2.5564 18.266 3.90433 18.266 5.87974V5.8565ZM13.4529 5.92622C13.4529 7.18119 14.0717 8.1108 15.0343 8.1108C15.9511 8.1108 16.5929 7.20443 16.5929 5.90298C16.5929 4.90366 16.1574 3.71841 15.0573 3.71841C13.9571 3.71841 13.4529 4.85718 13.4529 5.92622Z" fill="black"/>
<path d="M20.5353 2.69586L21.5667 5.97273C21.7501 6.55373 21.8876 7.06502 22.0022 7.59954H22.048C22.1626 7.06502 22.3001 6.57697 22.4835 5.97273L23.4919 2.69586H25.188L22.7585 9.15663H21.1771L18.8164 2.69586H20.5583H20.5353Z" fill="black"/>
<path d="M27.9395 0.883127C27.9395 1.37117 27.5957 1.76625 27.0228 1.76625C26.4498 1.76625 26.1289 1.37117 26.1289 0.883127C26.1289 0.371843 26.4956 0 27.0228 0C27.5499 0 27.9166 0.395083 27.9166 0.883127H27.9395ZM26.2206 9.15664V2.69586H27.8249V9.15664H26.2206Z" fill="black"/>
<path d="M29.6337 4.62477C29.6337 3.88109 29.6108 3.2536 29.5879 2.69584H30.986L31.0547 3.67193H31.1006C31.3985 3.16064 32.0861 2.5564 33.1404 2.5564C34.1947 2.5564 35.4094 3.27684 35.4094 5.32198V9.15661H33.805V5.5079C33.805 4.57829 33.4612 3.88109 32.5903 3.88109C31.9486 3.88109 31.5131 4.34589 31.3298 4.83393C31.2839 4.97338 31.261 5.1593 31.261 5.34522V9.15661H29.6566V4.62477H29.6337Z" fill="black"/>
<path d="M41.8283 8.94749C41.4845 9.11018 40.8199 9.27286 40.0177 9.27286C38.0237 9.27286 36.7402 7.97141 36.7402 5.97275C36.7402 3.97409 38.0466 2.5332 40.2927 2.5332C40.8886 2.5332 41.4845 2.67264 41.8512 2.81209L41.5533 4.04382C41.3012 3.90437 40.9115 3.78817 40.3386 3.78817C39.1009 3.78817 38.3675 4.69454 38.3904 5.87979C38.3904 7.20448 39.2384 7.97141 40.3386 7.97141C40.8886 7.97141 41.3012 7.85521 41.5991 7.71577L41.8283 8.92426V8.94749Z" fill="black"/>
<path d="M44.7833 0.883127C44.7833 1.37117 44.4395 1.76625 43.8665 1.76625C43.2935 1.76625 42.9727 1.37117 42.9727 0.883127C42.9727 0.371843 43.3394 0 43.8665 0C44.3936 0 44.7604 0.395083 44.7604 0.883127H44.7833ZM43.0873 9.15664V2.69586H44.6916V9.15664H43.0873Z" fill="black"/>
<path d="M51.4315 7.59955C51.4315 8.18056 51.4544 8.76156 51.5461 9.15664H50.1021L49.9875 8.4362H49.9417C49.5521 8.94748 48.8874 9.29608 48.0623 9.29608C46.7789 9.29608 46.0684 8.34324 46.0684 7.36715C46.0684 5.74034 47.4894 4.90369 49.85 4.92693V4.81073C49.85 4.3924 49.6896 3.67196 48.5666 3.67196C47.9477 3.67196 47.2831 3.88112 46.8476 4.16L46.5267 3.09095C47.008 2.81207 47.8102 2.50995 48.8187 2.50995C50.8585 2.50995 51.4544 3.8114 51.4544 5.25229V7.57631L51.4315 7.59955ZM49.85 5.99598C48.7041 5.99598 47.6269 6.22838 47.6269 7.20447C47.6269 7.83195 48.0394 8.13407 48.5436 8.13407C49.2083 8.13407 49.6438 7.71575 49.8042 7.25095C49.85 7.13475 49.85 7.01855 49.85 6.90234V6.01922V5.99598Z" fill="black"/>
<path d="M5.08807 18.1274C4.74428 18.29 4.07963 18.4527 3.27745 18.4527C1.28348 18.4527 0 17.1513 0 15.1526C0 13.154 1.3064 11.7131 3.55248 11.7131C4.14838 11.7131 4.74428 11.8525 5.11099 11.992L4.81304 13.2237C4.56093 13.0842 4.1713 12.968 3.59832 12.968C2.36068 12.968 1.62727 13.8744 1.65019 15.0597C1.65019 16.3844 2.4982 17.1513 3.59832 17.1513C4.14838 17.1513 4.56093 17.0351 4.85888 16.8956L5.08807 18.1041V18.1274Z" fill="black"/>
<path d="M12.9261 15.0364C12.9261 17.4069 11.2759 18.4759 9.64867 18.4759C7.86096 18.4759 6.46289 17.221 6.46289 15.1526C6.46289 13.0842 7.83805 11.7363 9.76326 11.7363C11.6885 11.7363 12.9261 13.0842 12.9261 15.0596V15.0364ZM8.11308 15.1061C8.11308 16.3611 8.7319 17.2907 9.6945 17.2907C10.6113 17.2907 11.253 16.3843 11.253 15.0829C11.253 14.0835 10.8175 12.8983 9.71742 12.8983C8.6173 12.8983 8.11308 14.037 8.11308 15.1061Z" fill="black"/>
<path d="M14.9443 13.7814C14.9443 13.0377 14.9214 12.4103 14.8984 11.8525H16.2736L16.3424 12.8053H16.3882C16.6861 12.2941 17.2591 11.7131 18.3592 11.7131C19.2073 11.7131 19.849 12.2011 20.124 12.8983H20.1469C20.3761 12.5497 20.6282 12.2708 20.9262 12.0849C21.2929 11.8293 21.7055 11.6898 22.2326 11.6898C23.2869 11.6898 24.3412 12.4103 24.3412 14.4786V18.29H22.7597V14.711C22.7597 13.642 22.393 12.9913 21.6138 12.9913C21.0637 12.9913 20.6512 13.3864 20.4907 13.8512C20.4449 13.9906 20.422 14.1998 20.422 14.3857V18.2668H18.8635V14.5251C18.8635 13.6188 18.5197 12.9913 17.7633 12.9913C17.1674 12.9913 16.7549 13.4793 16.5945 13.8976C16.5486 14.0603 16.5257 14.2462 16.5257 14.4322V18.2436H14.9443V13.7117V13.7814Z" fill="black"/>
<path d="M26.7236 14.0138C26.7236 13.1539 26.7007 12.48 26.6777 11.8757H28.0987L28.1675 12.875H28.1904C28.6717 12.1546 29.4051 11.7363 30.3677 11.7363C31.8346 11.7363 33.0493 13.0145 33.0493 15.0364C33.0493 17.3604 31.6054 18.4992 30.1385 18.4992C29.3364 18.4992 28.6717 18.1506 28.3508 17.6393H28.3279V20.9859H26.7236V14.0603V14.0138ZM28.3279 15.6174C28.3279 15.7801 28.3279 15.9195 28.3738 16.0589C28.5342 16.7329 29.1072 17.1977 29.7948 17.1977C30.8261 17.1977 31.422 16.3378 31.422 15.0596C31.422 13.9208 30.872 12.9912 29.8406 12.9912C29.1759 12.9912 28.5571 13.4793 28.3967 14.1997C28.3738 14.3392 28.3508 14.4786 28.3508 14.618V15.6174H28.3279Z" fill="black"/>
<path d="M35.0888 13.9441C35.0888 13.061 35.0888 12.4335 35.043 11.8525H36.4181L36.4869 13.0842H36.5327C36.8536 12.1779 37.587 11.7131 38.2746 11.7131C38.435 11.7131 38.5267 11.7131 38.6642 11.7596V13.2934C38.5267 13.2702 38.3663 13.2469 38.1829 13.2469C37.4266 13.2469 36.8994 13.735 36.739 14.4787C36.7161 14.6181 36.6932 14.804 36.6932 14.9667V18.3133H35.0888V13.9441Z" fill="black"/>
<path d="M45.2654 16.7794C45.2654 17.3604 45.2884 17.9414 45.38 18.3365H43.9361L43.8215 17.6161H43.7757C43.3861 18.1274 42.7214 18.476 41.8963 18.476C40.6128 18.476 39.9023 17.5231 39.9023 16.547C39.9023 14.9202 41.3233 14.0836 43.684 14.1068V13.9906C43.684 13.5723 43.5236 12.8518 42.4005 12.8518C41.7817 12.8518 41.1171 13.061 40.6816 13.3399L40.3607 12.2708C40.842 11.9919 41.6442 11.6898 42.6527 11.6898C44.6925 11.6898 45.2884 12.9913 45.2884 14.4322V16.7562L45.2654 16.7794ZM43.7069 15.1758C42.561 15.1758 41.4838 15.4082 41.4838 16.3843C41.4838 17.0118 41.8963 17.3139 42.4005 17.3139C43.0652 17.3139 43.5007 16.8956 43.6611 16.4308C43.7069 16.3146 43.7069 16.1984 43.7069 16.0822V15.1991V15.1758Z" fill="black"/>
<path d="M47.6041 16.8027C47.9479 17.0351 48.6584 17.2907 49.2313 17.2907C49.9418 17.2907 50.2627 16.9886 50.2627 16.5703C50.2627 16.152 50.0106 15.9195 49.2084 15.6174C47.9708 15.1991 47.4666 14.5019 47.4666 13.735C47.4666 12.5962 48.4062 11.7131 49.8731 11.7131C50.5836 11.7131 51.2024 11.8758 51.5691 12.1082L51.2482 13.2469C50.9961 13.0842 50.469 12.8751 49.896 12.8751C49.323 12.8751 49.0021 13.1772 49.0021 13.5723C49.0021 13.9674 49.3001 14.1765 50.1023 14.4787C51.2712 14.897 51.7983 15.478 51.7983 16.4308C51.7983 17.6161 50.9044 18.4527 49.2084 18.4527C48.4292 18.4527 47.7416 18.2668 47.2832 18.0112L47.6041 16.8259V16.8027Z" fill="black"/>
</g>
<defs>
<clipPath id="clip0_352_25736">
<rect width="51.7975" height="20.9394" fill="white"/>
</clipPath>
</defs>
</svg>
