<svg width="30" height="29" viewBox="0 0 30 29" fill="none" xmlns="http://www.w3.org/2000/svg">
<path d="M15.7884 0C17.3766 0.386134 18.7295 0.692378 20.0383 1.65106C25.994 6.08494 20.6118 12.769 19.5971 18.1217C19.553 18.6676 20.3177 19.2135 20.6853 19.6263C21.0824 19.6263 22.9059 13.7011 23.2735 12.9555C24.0235 11.4376 26.0675 10.8783 27.7293 11.5041C29.1116 12.0234 28.9351 13.5813 27.5528 13.6612C26.8469 13.7011 26.4058 13.2218 25.8764 13.9807L26.3322 14.1272C26.4646 14.6864 26.1999 15.685 25.4352 15.2456L25.1411 16.2443L25.5823 16.3108C25.5528 16.8967 25.4058 17.8953 24.5676 17.4959L24.4205 18.1616H24.847C25.0087 18.3347 24.5823 19.5996 24.347 19.6129L23.8323 19.3466L23.5382 20.2787L24.0676 20.3985L23.6852 21.5436L23.097 21.4637C22.8323 22.0762 22.9353 22.196 23.2735 22.702C23.5088 23.0615 25.6705 25.5514 25.8911 25.6446C26.4352 25.871 26.7734 25.3916 27.2881 25.3251C28.3469 25.1653 28.7734 25.4582 29.2586 26.2438V27.0427C29.0234 27.2291 28.9792 27.5087 28.744 27.7084C28.1704 28.2011 27.3175 28.0679 27.3616 28.8402L26.2587 29C25.8323 28.4807 25.5528 28.3875 24.8617 28.2277C24.8617 28.4408 24.8323 28.7736 24.5235 28.747L23.4647 28.1079C23.8176 27.7351 23.5382 27.2957 23.1117 27.096C22.8029 26.9628 22.6412 27.6419 22.0235 26.7631C21.5529 26.1106 22.1265 26.084 21.9794 25.7511C21.7147 25.0987 21.303 25.4982 21.0088 25.4316C20.7588 25.365 20.053 24.4196 20.4794 24.1267C19.7883 24.2998 19.1118 24.2066 18.4354 23.9936L18.7442 24.7791C19.3618 24.3398 19.5971 25.6846 19.3912 26.0041C18.7148 26.0041 18.7883 26.6699 18.7295 27.1758H19.1706C19.3177 27.309 18.7589 28.3342 18.4942 28.3609C17.8619 27.8682 17.7589 28.5872 17.0825 28.8003C15.7001 29.213 14.509 28.241 15.0678 26.9628C15.2884 26.4568 15.8619 26.4302 15.8178 25.7778C15.8031 25.4582 14.8325 24.1933 14.5678 24.2465C14.3031 24.6726 13.4796 25.3117 13.4502 25.7778C13.4061 26.4302 14.0531 26.4835 14.2443 27.056C14.8913 28.8935 12.3032 29.506 11.2002 28.1212C10.6708 28.8802 9.93557 27.309 10.0973 27.1625C10.8767 27.4022 10.5385 25.9109 9.87674 25.9775C9.67087 25.6579 9.93557 25.112 10.0238 24.7658L10.1856 24.6593L10.5238 24.7525L10.8326 23.9669C10.1562 24.18 9.4797 24.2732 8.78854 24.1001C9.215 24.4063 8.50913 25.3517 8.25914 25.405C7.96502 25.4848 7.55327 25.0721 7.28857 25.7245C7.14151 26.0574 7.71503 26.084 7.24445 26.7364C6.62682 27.6019 6.47977 26.9229 6.15624 27.0693C6.08272 27.096 5.58273 27.5753 5.58273 27.6285L5.80331 28.0813C5.37685 28.4674 4.39158 29.1997 4.40628 28.2144C3.71512 28.3742 3.43572 28.4674 3.00926 28.9867L2.02399 28.8535L1.84752 28.747C2.0681 28.1079 1.12695 28.1478 0.612256 27.7351C-0.725948 26.6299 0.274028 24.8857 2.21516 25.3517C2.61221 25.4449 2.8475 25.8443 3.3769 25.618C3.59748 25.5248 5.74449 23.0216 5.99448 22.6754C6.33271 22.1694 6.42094 22.0496 6.17095 21.4371L5.58273 21.517C5.39156 21.3039 5.02392 20.5716 5.20038 20.3719L5.72978 20.2521L5.43567 19.32L4.92098 19.5863C4.68569 19.573 4.25923 18.2948 4.42099 18.135H4.84745L4.7004 17.4692C3.86218 17.8687 3.71512 16.8701 3.68571 16.2842L4.12688 16.2176L3.83277 15.219C3.06808 15.6584 2.80338 14.6598 2.93573 14.1005L3.3916 13.9541C2.8622 13.1951 2.42104 13.6745 1.71517 13.6345C0.332851 13.5546 0.156384 11.9968 1.5387 11.4775C3.20043 10.8384 5.2445 11.4109 5.99448 12.9288C6.36212 13.6745 8.20031 19.5996 8.58266 19.5996C8.9503 19.1735 9.72969 18.6409 9.67087 18.095C8.33266 12.2897 2.62691 4.64692 10.7297 0.798898L13.4355 0H15.7737H15.7884Z" fill="black"/>
</svg>
