<svg width="70" height="29" viewBox="0 0 70 29" fill="none" xmlns="http://www.w3.org/2000/svg">
<path d="M36.922 0.0331233C43.2986 -0.540422 47.7159 6.44966 44.5098 12.0596C41.9093 16.5942 35.8711 17.3112 32.0594 13.8699C28.7286 15.0528 25.0059 13.5473 23.8125 10.1598C21.9957 4.99787 27.0721 0.284049 32.0594 2.25561C33.3952 1.03683 35.1052 0.212356 36.922 0.0510466V0.0331233ZM31.3825 8.04483C31.4359 14.8915 41.0365 16.7376 43.4233 10.2135C45.6497 4.1734 38.4716 -0.880964 33.6268 3.25931C35.0517 4.4781 35.782 6.16288 35.8711 8.04483H34.0543C34.1255 3.97624 29.0135 1.95091 26.3062 5.03372C23.3672 8.40329 26.609 13.5473 30.8482 12.2747C30.0823 11.0022 29.6013 9.53246 29.6726 8.0269H31.3825V8.04483Z" fill="black"/>
<path d="M30.6334 18.9952V28.7634H29.0303V27.7956C26.0735 30.8425 21.9947 27.4192 23.4018 23.6911C24.0964 21.863 26.501 20.8234 28.211 21.9167C28.5138 22.1139 28.6741 22.4903 29.0303 22.544V18.9952H30.6334ZM26.6613 22.9921C23.5799 23.3327 24.6486 28.62 27.8013 27.2579C30.0278 26.29 29.1015 22.7233 26.6613 22.9921Z" fill="black"/>
<path d="M56.1636 18.9952V22.6516C58.2476 20.2857 61.8456 21.7913 62.0415 24.8561C62.2196 27.6701 59.9219 29.803 57.1967 28.6559L56.1636 27.921V28.7813H54.5605V19.0132H56.1636V18.9952ZM58.0695 22.9921C54.7209 23.3864 56.1992 28.7993 59.2807 27.222C61.329 26.1645 60.385 22.7233 58.0695 22.9921Z" fill="black"/>
<path d="M14.7281 25.7725H9.27766C9.45578 27.7441 12.1275 28.2459 13.0894 26.5074L14.4075 27.063C14.1225 28.3355 12.3591 29.0345 11.1479 28.9987C6.73058 28.8374 6.40997 22.5284 10.3286 21.6143C13.0359 20.987 14.9596 23.1199 14.7281 25.7725ZM13.0181 24.482C12.7688 22.2954 9.66952 22.385 9.27766 24.482H13.0181Z" fill="black"/>
<path d="M69.7156 25.7705H64.2652C64.4968 27.1864 65.9039 27.975 67.2041 27.3836C67.5604 27.2223 68.0057 26.5591 68.166 26.5412C68.2372 26.5412 69.1456 26.9713 69.3416 27.043C69.4128 27.0789 69.5553 27.0072 69.484 27.2043C69.3415 27.5628 68.4332 28.3873 68.0591 28.5665C65.6723 29.7494 62.8224 28.3335 62.6443 25.5912C62.2881 19.9992 70.3212 20.2143 69.6978 25.7526L69.7156 25.7705ZM68.1125 24.48C67.6494 22.2934 64.8174 22.3651 64.2652 24.48H68.1125Z" fill="black"/>
<path d="M37.6846 28.7812H36.1884L36.135 28.0284C35.9213 28.0284 35.6897 28.4048 35.476 28.5482C33.6592 29.7132 30.934 28.4585 31.7533 26.0927C32.3055 24.5333 34.7279 24.5513 36.0816 24.372C36.2953 22.5259 33.9264 22.3467 33.3564 23.9419L31.9136 23.6193C32.1986 21.3251 36.046 20.7695 37.2393 22.508C37.3106 22.6156 37.6846 23.3863 37.6846 23.4579V28.7812ZM36.0816 25.555C35.4047 25.788 34.4251 25.6446 33.8017 26.003C33.0358 26.4332 33.1426 27.4548 33.9976 27.5982C35.3335 27.8133 36.2775 26.9171 36.0816 25.5729V25.555Z" fill="black"/>
<path d="M45.7041 28.7833H43.9942V24.3204C43.9942 23.8903 43.4064 23.2092 42.9611 23.1017C41.3224 22.7611 40.7881 23.8544 40.6812 25.2704C40.5921 26.3637 40.6812 27.7079 40.7881 28.7654H39.0781V21.6857H40.7881L40.6812 22.546C41.8568 21.148 44.4038 21.0584 45.2944 22.797C45.4369 23.0658 45.7041 24.0516 45.7041 24.3204V28.7833Z" fill="black"/>
<path d="M22.2066 28.7822H20.6035V24.5343C20.6035 24.5343 20.372 23.8174 20.3364 23.7457C19.9445 23.0646 18.8758 22.8854 18.2168 23.208C17.8605 23.3873 17.2906 24.2655 17.2906 24.6419V28.7822H15.6875V21.7025H17.2906V22.5628C18.3593 21.2365 20.6214 21.0752 21.6723 22.509C21.7969 22.6703 22.2066 23.5486 22.2066 23.692V28.8001V28.7822Z" fill="black"/>
<path d="M48.5752 21.6857V26.2561C48.5752 26.2561 48.7889 26.758 48.8423 26.8476C49.4836 27.8154 51.0154 27.5466 51.4072 26.4174C51.425 26.3457 51.5675 25.7543 51.5675 25.7184V21.6857H53.1706V26.4712C53.1706 26.5787 52.8856 27.3315 52.7965 27.4928C51.7991 29.5181 48.2724 29.4823 47.2571 27.4928C47.168 27.2957 46.8652 26.4353 46.8652 26.274V21.7036H48.5752V21.6857Z" fill="black"/>
<path d="M2.77863 19.5334V21.5229C2.92113 21.8634 4.02546 21.5587 4.06108 21.738V23.0643H2.77863V28.6026C2.77863 28.6026 2.92113 28.6922 2.88551 28.7639H1.17558V23.0643L0 23.0105V21.6842H1.17558V19.5334H2.77863Z" fill="black"/>
<path d="M6.62009 21.6857H4.91016V28.7654H6.62009V21.6857Z" fill="black"/>
<path d="M5.05262 18.8352C5.9965 17.8855 7.52808 19.3908 6.49515 20.3406C5.46223 21.2904 4.16216 19.7134 5.05262 18.8352Z" fill="black"/>
</svg>
