<?xml version="1.0" encoding="UTF-8"?>
<svg id="Layer_1" data-name="Layer 1" xmlns="http://www.w3.org/2000/svg" viewBox="0 0 960 162">
  <path d="M149,.32c35.39,5.23,61.85,24.18,71.42,60.43,12.86,48.73-21.37,96.86-71.39,100.69-23.74,1.82-44.62-6.59-62.31-22.05-18.47,6-38.56,6.73-56.84-4.73C15.83,125.85,3.39,110.37.99,91.18L0,87.32l.28-12.86c2.29-19.17,13.14-36.19,28.24-45.86,18.18-11.64,38.88-12.99,58.24-5.29,12.51-10.81,26.18-19.12,42.42-21.81l5.82-1.19h14ZM74.49,124.04c-7.85-13.97-12.22-27.56-11.99-42.84l17.81.09c.21,38.72,34.11,67.12,71.26,61.88,37.58-5.3,61.8-42.74,51.18-79.64-5.74-19.96-21.18-35.09-38.91-41.27-21.59-7.53-43.85-3.61-61.05,10.93,14.45,12.86,22.2,29.11,22.07,47.86l-17.45.15c-.77-17.91-10.48-33.73-27.19-41.08-18.31-8.06-39.11-2.75-51.74,12.15-12.51,14.76-14.36,36.4-3.45,53.15,10.15,15.59,30.03,24.79,49.46,18.61ZM959.69,86.37l.31,8.08-3.95,1.02-51.09-.09c.54,9.28,7.42,15.91,16.2,17.66s17.11-1.29,22.2-10.28l13.9,6.57c-6.38,12.54-18.51,18.77-32.32,18.51-11.21-.22-22.14-4.21-29.09-13.44-11.98-15.9-10.33-39.21,4.45-52.61,10.9-9.88,25.7-11.84,39.03-5.83,11.72,5.28,19.48,16.98,20.37,30.43ZM943.2,82.91c-2.18-11.67-11.13-16.86-20.46-16.18-8.43.61-16.31,7.2-17.6,16.37l38.05-.2ZM548.59,116.77c-13.28,15.25-36.32,14.64-49.53-.74-12.29-14.32-12.3-36.23-.39-50.87,12.99-15.96,36.35-16.54,50.13-1.64l.1-35.86,16.9-.06-.02,98.39-16.58.21-.62-9.43ZM550.08,90.29c0-12.07-9.79-21.86-21.86-21.86s-21.86,9.79-21.86,21.86,9.79,21.86,21.86,21.86,21.86-9.79,21.86-21.86ZM872.19,116.85c-13.48,14.83-36.1,14.73-48.86.14l-.47,9.23-16.41-.31.02-98.49,16.66.07.16,36.8c11.91-14.53,33.48-15.69,47.36-2.39,14.94,14.32,15.87,39.19,1.55,54.93ZM865.78,90.29c0-12.07-9.78-21.85-21.85-21.85s-21.85,9.78-21.85,21.85,9.78,21.85,21.85,21.85,21.85-9.78,21.85-21.85ZM365.74,112.87c8.77,1.97,16.49-.41,21.34-7.67,1.14-1.7,3.89-1.67,5.58-.84l10.09,4.94c-5.29,10.6-15.34,16.74-26.67,18.24-13.25,1.75-25.32-2.33-33.74-11.95-8.49-9.69-10.91-22.45-7.63-35.36,3.34-13.17,11.91-22.57,25.13-26.24,19.45-5.4,39.31,5.49,44.2,25.53,1.24,5.07,1.34,10.29,1.09,15.91l-54.85.04c.79,8.89,6.82,15.47,15.48,17.41ZM388.57,82.89c-2.04-11.6-10.89-16.67-19.97-16.18-8.29.45-16.4,6.55-18.24,16.29l38.21-.12ZM583.03,122.75c-6.95-5.07-8.5-13.98-6.58-22.16,3.84-16.32,26.38-16.91,43.13-19.13,1.64-2.63.61-7.45-1.2-10.09s-5.86-4.48-9.39-4.8c-7.67-.68-12.62,3.22-15.58,10.72l-15.15-3.83c4.68-18.6,26.34-24.67,43.04-18.51,9.22,3.4,15.42,11.64,15.47,21.6l.27,49.32-15.66.38-.64-8.16c-9.56,10.43-25.59,13.52-37.71,4.67ZM602.62,114.25c5.69.05,10.88-2.08,14.07-5.7,3.37-3.83,4.42-8.87,3.5-14.47l-21.01,3.28c-4.91.77-7.35,6.12-6.65,9.98.81,4.44,4.61,6.87,10.09,6.91ZM441.19,69.88c6.34-2.75,13.55-1.98,18.37,2.94,2.91,2.97,4.4,8.15,4.4,12.4l.03,40.88,16.95-.03-.25-47.23c-.08-14.48-10.53-25.06-24.56-26.07-10.02-.72-18.68,2.64-24.73,10.88l-.27-9.28-16.84.31.02,71.31,16.9.16.3-41.01c.05-7.01,4.83-13.16,9.68-15.26ZM683.9,68.32c8.4-.18,15.76,5.32,15.84,14.21l.37,43.57,16.94-.17-.39-48.3c-.11-14-11.62-24.25-24.98-24.94-9.41-.49-17.43,2.52-23.94,10.42l-.67-8.65-16.52.03-.05,71.5,16.74.15.62-42.4c.14-9.2,7.98-15.24,16.04-15.42ZM776.03,54.56l-.28,42.65c-.06,9.17-6.95,15.27-15.22,14.98-7.76-.27-14.12-6.29-14.18-15.09l-.3-42.64-16.8.12.36,45.73c.11,14.21,10.62,24.94,24.44,26.99,10.36,1.53,21.14.32,29.12-6.88,5.97-5.38,9.52-14.04,9.55-22.31l.14-43.61-16.84.07ZM285.52,69.32l11.43-.86.9-10.16c.08-.91-.4-3-1.11-3.4s-2.61-.68-3.52-.7l-7.76-.12-.07-20.87-16.84.02-.18,21.1-11.83.16-.13,14.08,12.05.41.02,57.21,16.96-.42.09-56.46ZM306.72,54.45v71.79h16.91V54.45h-16.91ZM315.08,23.07c-5.74,0-10.4,4.65-10.4,10.4s4.65,10.4,10.4,10.4,10.4-4.65,10.4-10.4-4.65-10.4-10.4-10.4Z"/>
</svg>