<svg width="64" height="23" viewBox="0 0 64 23" fill="none" xmlns="http://www.w3.org/2000/svg">
<path d="M5.00035 6.66864L2.91618 2.80093C2.3468 1.54498 3.24922 0.0840806 4.64583 0H25.1007C26.4221 0.131376 27.2332 1.50294 26.7283 2.69583L16.3988 21.6718C15.577 22.728 13.9547 22.7123 13.1329 21.6718L10.764 17.3731C10.6781 17.3521 10.6512 17.4415 10.619 17.494C10.0335 18.3769 9.59303 19.533 9.02902 20.4526C8.465 21.3722 7.52498 21.5141 6.76759 20.7574L0.112229 8.48163C-0.269152 7.85102 0.386179 6.66864 1.10597 6.66864H5.00035ZM6.16598 6.67915C5.38173 7.04175 5.45156 7.52521 5.77922 8.1926C7.0684 10.8254 8.69598 13.3846 10.0228 16.0068C10.3182 16.4272 11.038 16.443 11.3871 16.0909C12.7569 13.5159 14.2878 11.004 15.6038 8.4028C15.9261 7.76169 16.2806 7.17838 15.4534 6.71068L6.16598 6.67915Z" fill="black"/>
<path d="M57.2109 6.82606L58.9619 9.46911L59.0854 9.55843L60.627 7.07302L60.8579 6.82606H63.0332L63.0654 6.95742L60.251 11.408L63.1943 16.0373L63.1138 16.1687H60.8579C60.8257 16.1687 60.7075 16.0741 60.6807 16.0321L58.876 13.2314L57.0767 16.1424C56.9854 16.1845 55.2666 16.195 55.0625 16.1687C54.9658 16.1582 54.9014 16.1424 54.8477 16.0583L57.6514 11.3608L54.8262 6.95217L54.9067 6.8208H57.2163L57.2109 6.82606Z" fill="black"/>
<path d="M29.8306 6.82627H31.8179L33.8428 13.8727C33.8857 14.004 34.0415 13.983 34.1328 13.9147L36.0933 6.96289C36.1201 6.92086 36.1523 6.87356 36.1953 6.85255C36.2974 6.80525 38.0806 6.80525 38.1826 6.85255C38.2256 6.87356 38.2686 6.92611 38.2847 6.96815L35.9375 15.1022C35.2876 16.6418 32.8384 16.6996 32.1455 15.1705L29.7285 6.97866L29.8359 6.82627H29.8306Z" fill="black"/>
<path d="M49.7165 13.8834C49.7595 14.1461 49.9636 14.3721 50.2375 14.4246C51.1023 14.5717 52.3215 14.3405 53.2292 14.4351C53.3581 14.4509 53.4602 14.4561 53.4978 14.5875C53.5407 14.7399 53.5515 15.8328 53.5085 15.9747C53.4602 16.1271 53.2024 16.1376 53.0573 16.1639C52.0959 16.3163 50.1999 16.3846 49.2815 16.1429C48.2287 15.8696 47.6755 15.1445 47.5627 14.0988C47.6809 12.4016 47.4123 10.5257 47.5627 8.84951C47.7776 6.47969 50.3557 6.58479 52.2033 6.7214C52.6169 6.75293 53.0412 6.82124 53.4548 6.88955C53.5407 6.95261 53.5569 8.2715 53.4924 8.40287C53.4602 8.46067 53.3957 8.49745 53.3313 8.50796L50.2859 8.52372C50.0119 8.54474 49.7111 8.84951 49.7111 9.11224V10.5572H53.2829C53.2829 10.5572 53.3796 10.6361 53.3903 10.6623C53.4333 10.7517 53.4441 11.9077 53.4172 12.0495C53.4065 12.1073 53.3259 12.2335 53.2829 12.2335H49.7111C49.7702 12.7326 49.6306 13.4105 49.7111 13.8886L49.7165 13.8834Z" fill="black"/>
<path d="M44.0286 8.55346V16.0307C44.0286 16.0307 43.948 16.1253 43.9211 16.1358C43.803 16.1884 42.4065 16.1831 42.1755 16.1673C42.0574 16.1568 41.8264 16.1358 41.8264 15.9834V8.55871H39.49C39.4148 8.49566 39.3772 8.41684 39.3611 8.317C39.3288 8.12784 39.3342 7.07692 39.3987 6.9403C39.4202 6.89301 39.447 6.85097 39.5007 6.82996L46.3918 6.84572C46.4563 6.8825 46.4831 6.93505 46.4993 7.00336C46.5315 7.17676 46.5315 8.19615 46.4993 8.36429C46.4885 8.42209 46.4079 8.5482 46.365 8.5482H44.0286V8.55346Z" fill="black"/>
</svg>
