<svg width="54" height="27" viewBox="0 0 54 27" fill="none" xmlns="http://www.w3.org/2000/svg">
<path d="M29.4357 14.8379L30.5593 17.6998L30.4891 17.7243L25.5264 14.8428H14.3932C12.8576 14.6713 11.9868 13.549 11.8931 11.976C11.7106 8.84942 11.9868 5.48275 11.9446 2.3415C12.1132 1.20948 12.9278 0.322482 13.9953 0.0823554C21.9449 -0.0842629 29.9226 0.0627533 37.8816 0.00884733C39.333 0.12156 40.3255 1.22908 40.4285 2.72865C40.6345 5.77188 40.274 9.05524 40.4285 12.123C40.4753 13.3334 39.2346 14.8379 38.0689 14.8379H29.4357ZM19.3325 7.83991C19.7304 9.39338 20.3484 11.0008 21.2801 12.2896C21.6827 12.8483 22.5957 14.0146 23.312 13.2501C23.7708 12.7601 23.5601 11.2164 23.5929 10.5058C23.6725 8.6681 24.061 6.01691 24.6135 4.27722C24.7493 3.85087 24.9927 3.42942 25.1144 3.04228C25.489 1.84655 23.9534 1.07226 23.3213 2.09648C22.8063 2.93937 22.4552 4.34583 22.2492 5.33083C22.0104 6.46776 21.8372 7.65369 21.767 8.81512L21.5797 8.39857C21.0179 7.18324 20.9898 5.52195 20.5591 4.32622C20.208 3.35592 19.2435 3.53234 18.8268 4.34582L16.2893 9.45219C16.2191 9.46689 16.2425 9.39338 16.2285 9.34438C15.6479 7.33515 15.5121 5.17402 15.1048 3.13049C14.9878 2.54243 14.8707 2.14548 14.2013 2.13078C13.5318 2.11608 13.0823 2.56203 13.1104 3.25791C13.5879 6.02671 13.9297 8.91313 14.7256 11.6035C14.8754 12.1132 15.1891 13.4216 15.8024 13.4657C16.5655 13.5196 17.2912 11.9907 17.6283 11.4075L19.3325 7.83501V7.83991ZM28.2559 2.96387C24.7727 3.32651 23.4618 10.888 27.1089 12.0152C32.0715 13.5539 33.668 2.40031 28.2559 2.96387ZM35.6016 2.96387C32.0341 3.33631 30.8028 10.8978 34.4077 12.0152C38.7946 13.3726 40.7328 4.63006 36.9827 3.15499C36.552 2.98347 36.0651 2.91487 35.6063 2.96387H35.6016Z" fill="black"/>
<path d="M12.9688 26.731L13.9987 18.4148L16.7048 18.4197L17.6224 23.0115L18.5775 18.4393L21.3397 18.4197L22.4165 26.731H20.3378L19.7292 21.1052L18.4183 26.6869L17.0138 26.7359L15.5437 21.1052L15.0287 26.731H12.9688Z" fill="black"/>
<path d="M22.7012 26.7316L23.8014 18.4105L26.4232 18.4595L27.3127 22.9631L28.2912 18.4595L31.0347 18.435L32.1068 26.7316H30L29.4148 21.1058L28.0992 26.7365L26.6339 26.7316L25.2761 21.1058L24.7611 26.7316H22.7012Z" fill="black"/>
<path d="M8.75171 18.2353C12.3754 17.8481 13.4475 21.3961 12.572 24.4835C11.9587 26.6593 9.82383 27.5169 7.85749 26.674C4.96884 25.4391 5.02502 18.6322 8.74702 18.2353H8.75171ZM9.02793 20.1367C8.61594 20.2151 8.3678 20.7199 8.26948 21.1021C8.07753 21.847 8.04476 23.9836 8.46144 24.6207C8.87811 25.2578 9.76297 25.1843 10.1656 24.6011C10.615 23.9542 10.5916 22.0283 10.4137 21.2589C10.2358 20.4895 9.82383 19.9848 9.02793 20.1367Z" fill="black"/>
<path d="M37.7176 18.4165C38.4854 18.4459 39.2672 18.3822 40.035 18.4165C40.9574 18.4557 41.9546 18.5684 42.699 19.2006C43.9162 20.2444 43.6494 22.332 42.2121 22.974V23.0426L43.8928 26.7425H41.5988L39.8665 22.974V26.7425H37.7129V18.4214L37.7176 18.4165ZM39.8197 20.0288V21.9596C39.8525 22.0086 39.8618 22.0135 39.9133 22.0135C40.7233 22.0135 41.5707 21.646 41.1774 20.6365C40.962 20.0827 40.3019 20.0778 39.8197 20.0288Z" fill="black"/>
<path d="M53.9001 18.4148V20.2231H51.6997V21.7423H53.5724V23.4525H51.6997V24.9717H53.9001V26.731H49.5508V18.4148H53.9001Z" fill="black"/>
<path d="M37.0662 18.4631V20.2273H34.8658C34.8517 20.2616 34.9126 20.2861 34.9126 20.3008V21.673C34.9126 21.673 34.8517 21.7122 34.8658 21.7465H36.7853V23.4617H34.936L34.8751 23.5352C34.8751 23.5352 34.9126 23.5744 34.9126 23.5842V24.9073C34.9126 24.9073 34.8517 24.9465 34.8658 24.9808H37.0428L37.113 25.0544V26.7205L37.0428 26.794H32.7637V18.4729H37.0662V18.4631Z" fill="black"/>
<path d="M48.9436 18.368V20.3723C47.4033 19.7647 45.9707 20.5292 45.8536 22.3032C45.7225 24.332 47.0896 25.4542 48.9436 24.7779V26.7823C46.3124 27.532 43.7702 25.9051 43.5642 22.9892C43.3255 19.6275 45.8957 17.6182 48.9436 18.3631V18.368Z" fill="black"/>
<path d="M5.39168 18.3666V20.3709C3.82329 19.7534 2.40004 20.5522 2.30172 22.3507C2.19404 24.3599 3.57516 25.4429 5.39168 24.7765V26.7808C2.93376 27.4816 0.457106 26.0947 0.0638379 23.3749C-0.184295 21.6499 0.279199 20.018 1.66032 18.9889C2.75117 18.1754 4.09952 18.0627 5.39168 18.3617V18.3666Z" fill="black"/>
<path d="M35.9285 5.01554C34.9408 5.04984 34.262 6.95096 34.2105 7.81823C34.145 8.91089 34.6693 10.8022 35.9893 9.67526C36.771 9.00398 37.0987 7.50464 36.963 6.50018C36.8881 5.9465 36.5885 4.99104 35.9285 5.01554Z" fill="black"/>
<path d="M28.5811 5.01664C27.687 5.07544 26.9848 6.82467 26.9146 7.62824C26.8116 8.80909 27.35 10.9601 28.759 9.60286C29.6437 8.75029 29.9152 6.88347 29.4424 5.75161C29.2832 5.36942 29.0352 4.98724 28.5811 5.01174V5.01664Z" fill="black"/>
<path d="M35.9285 5.01537C36.5885 4.99577 36.8881 5.94634 36.963 6.50002C37.0987 7.50448 36.771 9.00872 35.9893 9.67509C34.6693 10.8021 34.145 8.91072 34.2105 7.81807C34.262 6.9557 34.9408 5.04967 35.9285 5.01537Z" fill="black"/>
<path d="M28.581 5.01667C29.0351 4.98727 29.2832 5.36946 29.4423 5.75654C29.9151 6.8884 29.6436 8.75522 28.7589 9.60779C27.3546 10.9601 26.8116 8.80912 26.9146 7.63317C26.9848 6.8296 27.6869 5.08037 28.581 5.02157V5.01667Z" fill="black"/>
</svg>
