<svg width="56" height="15" viewBox="0 0 56 15" fill="none" xmlns="http://www.w3.org/2000/svg">
<path d="M30.5428 15H28L27.9554 14.956V3.63345L28 3.58941H30.156L30.528 5.99507C30.5794 6.00153 30.5869 5.95778 30.6038 5.92314C30.669 5.78956 30.7017 5.55615 30.7577 5.40026C31.2718 3.96637 32.2882 3.26 33.8599 3.35366C36.8231 3.5304 37.1147 7.27306 36.7508 9.49258C36.4161 11.533 35.125 13.0594 32.8607 12.6401C31.6018 12.407 30.9436 11.4708 30.6464 10.3067L30.5425 10.3211V14.9997L30.5428 15ZM32.1115 5.6504C29.9162 5.90699 30.0656 10.1053 32.0517 10.3877C33.8179 10.639 34.4044 9.22982 34.3193 7.74045C34.2422 6.38877 33.6031 5.476 32.1115 5.6504ZM49.6655 8.66408H43.6134C43.54 8.66408 43.5998 8.95766 43.6123 9.01726C43.8744 10.2729 45.042 10.6822 46.2232 10.4459C46.8683 10.317 47.2016 9.83226 47.4098 9.25507L49.6358 9.83755C49.1743 11.5239 47.9859 12.4734 46.2301 12.6528C42.6815 13.0153 40.6317 10.5319 41.015 7.1568C41.3345 4.34275 43.6593 3.06447 46.3756 3.38742C49.1478 3.71712 49.8905 6.07316 49.6965 8.50378C49.692 8.56015 49.6789 8.61006 49.6652 8.66378L49.6655 8.66408ZM43.6432 6.99209H47.2715C47.3411 6.99209 47.2887 6.77249 47.278 6.7214C46.9299 5.0732 44.4231 5.0412 43.7711 6.44367C43.7337 6.52441 43.6075 6.85528 43.6027 6.92457C43.6009 6.95305 43.6218 6.98593 43.6429 6.9918L43.6432 6.99209ZM26.9443 12.4188H24.7437L24.4015 10.2776C24.3509 10.2706 24.3217 10.2762 24.3042 10.3275C24.2521 10.4796 24.2235 10.6458 24.1599 10.8011C23.6665 12.0031 22.7489 12.612 21.4278 12.6114C19.3786 12.6108 18.3509 11.1282 18.8159 9.19694C19.4208 6.68529 22.4252 7.2757 24.3872 7.19731C24.4158 6.36117 24.178 5.57641 23.2119 5.49626C22.546 5.44107 21.8961 5.61781 21.5959 6.24814C21.4995 6.45072 21.4671 6.66738 21.3936 6.87583L19.0028 6.53233C19.1328 5.31629 19.7538 4.25526 20.9175 3.76028C22.2419 3.19659 24.7383 3.19365 25.8746 4.16102C26.6227 4.79782 26.897 5.76489 26.9461 6.7123L26.9449 12.4188H26.9443ZM24.3866 8.89865H21.814C21.6486 8.89865 21.3314 9.23951 21.279 9.39746C21.0526 10.0827 21.5492 10.5146 22.2011 10.57C23.3065 10.664 24.4491 10.1276 24.3866 8.89865ZM18.1116 3.63345L18.067 3.58941H10.1413V5.7599H14.8996L14.6324 6.03911L9.99577 10.2677C9.94787 10.3364 9.99488 10.413 9.99428 10.4961C9.98982 11.0832 10.005 11.6719 9.99428 12.2588C9.99339 12.3151 9.97197 12.3642 9.96304 12.4179C9.9919 12.4106 10.0267 12.4478 10.0374 12.4478H18.1563L18.2009 12.4038V10.3211L18.1563 10.277H13.145C13.1593 10.243 13.1792 10.201 13.2042 10.174C13.3036 10.0663 13.5018 9.90096 13.6205 9.79263C15.1064 8.4342 16.637 7.11628 18.1116 5.74522V3.63315V3.63345ZM56 3.63345C55.8584 3.56387 55.5888 3.57825 55.4189 3.58823C54.3278 3.65135 53.6872 4.23648 53.323 5.21677C53.2275 5.47366 53.1852 5.74875 53.0707 5.99389C53.0266 5.95954 53.0082 5.91374 52.9984 5.8606C52.8656 5.1466 52.8279 4.38239 52.6975 3.66398L52.6544 3.58911H50.5132L50.4686 3.63315V12.4035L50.5132 12.4475H53.0114L53.0561 12.4035V7.65149C53.0561 6.84882 53.6785 6.17386 54.4989 6.14127L56.0003 6.11133V3.63286L56 3.63345ZM37.6209 3.5897V12.4481H40.2083V3.5897H37.6209ZM0 10.3067V12.4188H8.95168V10.3067H0ZM38.9432 0C38.1243 0 37.4605 0.654701 37.4605 1.46236C37.4605 2.27002 38.1243 2.92472 38.9432 2.92472C39.762 2.92472 40.4258 2.27002 40.4258 1.46236C40.4258 0.654701 39.762 0 38.9432 0Z" fill="black"/>
</svg>
