<svg width="24" height="24" viewBox="0 0 24 24" fill="none" xmlns="http://www.w3.org/2000/svg">
<path d="M20.6497 14.863C20.5428 14.7956 20.4205 14.7562 20.2943 14.7487C20.1681 14.7412 20.0421 14.7657 19.9279 14.8199C19.6421 14.9551 19.3268 15.0158 19.0112 14.9964C18.6957 14.977 18.3902 14.8781 18.1231 14.709C17.856 14.5399 17.636 14.3059 17.4836 14.029C17.3312 13.752 17.2512 13.441 17.2512 13.1249C17.2512 12.8088 17.3312 12.4978 17.4836 12.2208C17.636 11.9439 17.856 11.7099 18.1231 11.5408C18.3902 11.3717 18.6957 11.2728 19.0112 11.2534C19.3268 11.234 19.6421 11.2947 19.9279 11.4299C20.0422 11.4842 20.1684 11.5086 20.2947 11.501C20.4211 11.4933 20.5434 11.4538 20.6504 11.3862C20.7573 11.3185 20.8454 11.2249 20.9064 11.114C20.9675 11.0032 20.9995 10.8786 20.9994 10.7521V6.7499C20.9994 6.35207 20.8414 5.97054 20.5601 5.68923C20.2788 5.40793 19.8972 5.24989 19.4994 5.24989H16.1038C16.1178 5.12539 16.1246 5.00018 16.1244 4.87489C16.1237 4.41395 16.0289 3.958 15.8458 3.53499C15.6627 3.11198 15.3951 2.73083 15.0594 2.4149C14.5947 1.97841 14.0158 1.68249 13.3898 1.56141C12.7638 1.44034 12.1164 1.49905 11.5224 1.73076C10.9284 1.96247 10.4122 2.3577 10.0335 2.87067C9.65487 3.38364 9.42928 3.99338 9.38286 4.62927C9.36845 4.83612 9.37284 5.04384 9.39598 5.24989H5.99942C5.60159 5.24989 5.22006 5.40793 4.93876 5.68923C4.65745 5.97054 4.49942 6.35207 4.49942 6.7499V9.77052C4.37491 9.75656 4.24971 9.74968 4.12442 9.7499C3.66348 9.75064 3.20755 9.84548 2.78455 10.0286C2.36155 10.2117 1.98039 10.4793 1.66442 10.8149C1.34618 11.1511 1.10114 11.5496 0.944776 11.9853C0.788411 12.421 0.724126 12.8843 0.755982 13.3461C0.809727 14.1593 1.15524 14.9257 1.72899 15.5045C2.30273 16.0832 3.06613 16.4354 3.87879 16.4961C4.08563 16.511 4.2934 16.5066 4.49942 16.483V19.4999C4.49942 19.8977 4.65745 20.2793 4.93876 20.5606C5.22006 20.8419 5.60159 20.9999 5.99942 20.9999H19.4994C19.8972 20.9999 20.2788 20.8419 20.5601 20.5606C20.8414 20.2793 20.9994 19.8977 20.9994 19.4999V15.4977C20.9995 15.371 20.9675 15.2463 20.9063 15.1353C20.8452 15.0243 20.7569 14.9307 20.6497 14.863ZM19.4994 19.4999H5.99942V15.4977C5.99946 15.3711 5.96748 15.2466 5.90644 15.1358C5.84541 15.0249 5.75731 14.9313 5.65035 14.8636C5.5434 14.796 5.42106 14.7565 5.29473 14.7488C5.1684 14.7412 5.04219 14.7656 4.92786 14.8199C4.64207 14.9551 4.32676 15.0158 4.01122 14.9964C3.69569 14.977 3.39018 14.8781 3.12309 14.709C2.85601 14.5399 2.63603 14.3059 2.4836 14.029C2.33117 13.752 2.25123 13.441 2.25123 13.1249C2.25123 12.8088 2.33117 12.4978 2.4836 12.2208C2.63603 11.9439 2.85601 11.7099 3.12309 11.5408C3.39018 11.3717 3.69569 11.2728 4.01122 11.2534C4.32676 11.234 4.64207 11.2947 4.92786 11.4299C5.04219 11.4842 5.1684 11.5086 5.29473 11.501C5.42106 11.4933 5.5434 11.4538 5.65035 11.3862C5.75731 11.3185 5.84541 11.2249 5.90644 11.114C5.96748 11.0032 5.99946 10.8786 5.99942 10.7521V6.7499H10.3766C10.5032 6.74994 10.6277 6.71795 10.7385 6.65692C10.8494 6.59588 10.943 6.50779 11.0107 6.40083C11.0783 6.29387 11.1178 6.17153 11.1255 6.0452C11.1331 5.91888 11.1087 5.79267 11.0544 5.67833C10.9193 5.39255 10.8586 5.07723 10.8779 4.7617C10.8973 4.44616 10.9962 4.14065 11.1653 3.87357C11.3345 3.60649 11.5684 3.3865 11.8453 3.23407C12.1223 3.08164 12.4333 3.00171 12.7494 3.00171C13.0656 3.00171 13.3766 3.08164 13.6535 3.23407C13.9305 3.3865 14.1644 3.60649 14.3335 3.87357C14.5026 4.14065 14.6015 4.44616 14.6209 4.7617C14.6403 5.07723 14.5796 5.39255 14.4444 5.67833C14.3902 5.79267 14.3657 5.91888 14.3734 6.0452C14.381 6.17153 14.4205 6.29387 14.4881 6.40083C14.5558 6.50779 14.6494 6.59588 14.7603 6.65692C14.8712 6.71795 14.9957 6.74994 15.1222 6.7499H19.4994V9.77146C19.2934 9.74786 19.0856 9.74346 18.8788 9.75833C18.0059 9.82014 17.1911 10.2186 16.6064 10.8696C16.0216 11.5206 15.7126 12.3733 15.7444 13.2478C15.7763 14.1223 16.1466 14.9502 16.7772 15.557C17.4077 16.1637 18.2493 16.5018 19.1244 16.4999C19.2497 16.5001 19.3749 16.4932 19.4994 16.4793V19.4999Z" fill="#A4F6A2"/>
</svg>
