<svg width="28" height="28" viewBox="0 0 28 28" fill="none" xmlns="http://www.w3.org/2000/svg">
<path d="M20.4172 22.1669H10.5005C8.98602 22.1665 7.50147 21.745 6.21275 20.9494C4.92404 20.1539 3.88192 19.0156 3.20286 17.6619C2.52381 16.3082 2.23456 14.7923 2.36744 13.2837C2.50032 11.775 3.0501 10.333 3.95534 9.11881C4.86057 7.90463 6.08561 6.96609 7.49355 6.40806C8.90149 5.85004 10.4369 5.69451 11.9281 5.95887C13.4194 6.22323 14.8077 6.89705 15.9381 7.90503C17.0684 8.91302 17.8962 10.2155 18.3289 11.6669H20.4172C21.8096 11.6669 23.145 12.22 24.1295 13.2046C25.1141 14.1891 25.6672 15.5245 25.6672 16.9169C25.6672 18.3093 25.1141 19.6446 24.1295 20.6292C23.145 21.6137 21.8096 22.1669 20.4172 22.1669Z" stroke="#2C2C2C" stroke-width="2.33333" stroke-linecap="round" stroke-linejoin="round"/>
</svg>
