<svg width="147" height="54" viewBox="0 0 147 54" fill="none" xmlns="http://www.w3.org/2000/svg">
<path d="M0.019191 19.6692C-0.557591 6.26415 11.9613 -2.65337 24.8395 0.713638C31.428 2.43738 36.4656 7.9133 38.2975 14.3026C38.4917 14.9807 39.1583 17.2528 39.0395 17.7528C38.9323 18.2096 37.1383 20.0597 36.7206 20.9072C35.0773 24.2513 35.7642 27.9315 38.2018 30.6465C36.3989 32.5971 34.7642 34.7748 33.9612 37.3431C33.6482 38.3429 32.3236 44.034 33.4482 44.2698C34.4569 44.4795 34.0917 42.4051 34.1961 41.8679C35.0947 37.2598 37.4743 33.5336 41.686 31.2554C38.1729 29.0779 36.8598 25.2482 38.7438 21.479C39.2048 20.5569 40.1179 19.9018 40.4947 19.2037C40.9266 18.4107 41.0078 17.3449 41.4424 16.4227C43.486 12.0703 44.5179 11.4871 46.802 16.259C49.1991 15.4259 58.1323 17.2099 59.3642 19.2238C60.6078 21.2577 56.2656 26.9376 54.7264 28.4083C54.2046 28.9083 51.2947 30.767 51.2424 30.974C50.7933 32.7607 57.5896 32.442 57.9177 32.669C58.6452 33.1747 57.9701 35.3981 57.5672 36.0761C55.9729 38.7681 52.4541 37.6965 49.941 37.9781C48.0977 38.1849 45.5034 39.6358 44.5931 41.2703C44.9206 41.6381 44.941 41.7846 45.4571 41.5606C47.3672 40.7244 47.5846 39.8599 50.2309 39.8599C56.0105 39.8599 58.3264 45.0081 57.6569 50.0931C59.1787 51.182 60.5933 51.7622 60.2165 54.0002H36.3381L36.3408 53.9974C25.0482 53.0895 20.6773 45.8729 21.4222 35.2488C21.828 29.4773 25.5092 23.5416 20.8482 18.3877C16.9149 14.0382 9.8628 14.3026 5.22805 17.3794C6.85702 13.0155 11.4976 10.2259 15.9323 9.22612C16.828 7.84139 13.8192 7.90458 12.9294 7.97641C9.2627 8.26659 6.25684 10.4241 3.94672 13.1131L0.019191 19.6692ZM91.628 5.07486L109.425 53.9974H97.1238L94.6977 46.7261L79.0628 46.5881L76.5729 53.9974H64.2713L82.1034 4.77611L91.628 5.07486ZM146.761 14.0928L127.66 43.1264H146.761V53.9974H113.187V44.4133L132.002 15.3799H114.057V4.79604H146.761V14.0928ZM82.5062 36.5476H91.4802L87.2803 23.674L82.5062 36.5476ZM53.286 23.2659C55.8307 22.473 54.8135 18.247 51.741 19.1576C49.4569 19.8357 50.2337 24.214 53.286 23.2659Z" fill="black"/>
</svg>
