<?xml version="1.0" encoding="UTF-8"?>
<svg id="Layer_1" xmlns="http://www.w3.org/2000/svg" version="1.1" viewBox="0 0 913 243">
  <!-- Generator: Adobe Illustrator 29.8.2, SVG Export Plug-In . SVG Version: 2.1.1 Build 3)  -->
  <path d="M47.6,183.8V59.2c0-35.8,18.6-57,53.7-57s53.7,21.2,53.7,57v24.5h-34.5v-26.9c0-15.3-7.3-21.6-18.2-21.6s-18.2,6.3-18.2,21.6v129.6c0,15.3,7.3,21.2,18.2,21.2s18.2-6,18.2-21.2v-35.5h34.5v32.8c0,35.8-18.6,57-53.7,57s-53.7-21.2-53.7-57Z"/>
  <path d="M176.9,5.5h36.5v232.1h-36.5V5.5Z"/>
  <path d="M240.5,5.5h53.7c36.5,0,54.4,20.2,54.4,57.4v22.9c0,37.1-17.9,57.4-54.4,57.4h-17.2v94.5h-36.5V5.5ZM294.2,109.9c11.6,0,17.9-5.3,17.9-21.9v-27.5c0-16.6-6.3-21.9-17.9-21.9h-17.2v71.3h17.2Z"/>
  <path d="M368.5,5.5h36.5v232.1h-36.5V5.5Z"/>
  <path d="M460.6,38.6h-38.1V5.5h112.7v33.2h-38.1v198.9h-36.5V38.6Z"/>
  <path d="M552.8,5.5h54c37.8,0,54,17.6,54,53.4v14.3c0,23.9-7.6,39.1-23.9,45.8v.7c18.2,5.6,24.2,22.9,24.2,49.1v40.8c0,11.3.3,19.6,4,28.2h-37.1c-2-6-3.3-9.6-3.3-28.5v-42.4c0-21.6-6.3-28.5-22.9-28.5h-12.6v99.5h-36.5V5.5ZM602.5,104.9c13.6,0,21.9-6,21.9-24.5v-17.9c0-16.6-5.6-23.9-18.6-23.9h-16.6v66.3h13.3Z"/>
  <path d="M686.4,5.5h36.5v232.1h-36.5V5.5Z"/>
  <path d="M778.2,5.5h49.4l37.8,232.1h-36.5l-6.6-46.1v.7h-41.4l-6.6,45.4h-33.8L778.2,5.5ZM818,160.6l-16.2-114.7h-.7l-15.9,114.7h32.8Z"/>
</svg>