<svg width="256" height="33" viewBox="0 0 256 33" fill="none" xmlns="http://www.w3.org/2000/svg">
<path d="M48.9883 0C49.2536 0.0612203 51.152 4.34207 51.0771 4.58789C49.5813 5.57584 47.2378 6.32526 46.9463 8.36816C46.3974 12.2254 50.1181 16.5315 51.1426 20.3018C52.7456 26.2101 49.5593 30.9685 43.9736 32.8418L41.9941 28.2598C43.5931 27.1018 45.7804 26.6193 46.2461 24.4023C47.0367 20.6439 41.9743 14.8755 41.5859 10.708C41.0768 5.25636 44.2014 1.96418 48.9883 0ZM25.6416 1.36523C25.6634 1.36523 25.9385 1.63842 25.9385 1.66016V31.4785H20.3945V1.36523H25.6416ZM5.54395 1.36328V31.4766H0V1.6582C0 1.63853 0.272868 1.36579 0.296875 1.36328H5.54395ZM111.677 6.08789V23.3076C111.677 23.7604 111.073 25.3232 110.773 25.7559C109.194 28.0301 105.662 27.4909 103.361 26.7539V23.6035C104.566 23.9138 106.248 24.7066 107.338 23.7188C107.502 23.5706 107.916 22.8752 107.916 22.7188V6.08789H111.677ZM226.526 6.08789V20.752C226.526 21.327 227.161 22.7801 227.608 23.2188C228.752 24.337 231.881 24.2977 233.131 23.3789C233.678 22.9777 234.446 21.5609 234.446 20.9482V6.08789H238.209V21.5391C238.209 21.6409 237.898 22.71 237.824 22.9277C235.567 29.6779 222.764 28.5102 222.764 21.1455V6.08789H226.526ZM92.626 5.74805C101.491 4.77614 103.408 14.767 101.433 21.3906C99.0667 29.3264 88.2862 29.3402 85.8848 21.3906C84.1312 15.5831 85.1937 6.5622 92.624 5.74609L92.626 5.74805ZM131.077 11.2949C130.966 5.25035 138.952 4.99347 143.162 6.4834V9.8291C141.416 9.14341 135.85 8.08832 135.133 10.4082C134.151 13.5854 138.779 14.6726 140.769 16.0459C145.944 19.6186 144.362 26.6423 137.892 27.3203C137.069 27.4053 130.887 27.062 130.887 26.2617V23.2109C133.07 23.7445 135.428 24.2858 137.701 23.9814C140.64 23.5882 139.918 20.2542 138.002 18.7959C135.117 16.6027 131.168 16.0965 131.079 11.2949H131.077ZM207.929 12.4707C207.267 7.46157 211.002 5.41671 215.533 5.69922C216.215 5.74072 219.791 6.29189 219.964 6.80566C220.099 7.20528 220.107 9.71828 219.681 9.81934C219.54 9.85293 217.437 9.12178 216.9 9.0625C215.081 8.86096 211.707 8.73025 211.711 11.3047C211.715 13.834 215.888 14.8105 217.68 16.1602C220.099 17.984 221.21 20.5448 220.197 23.5166C218.541 28.3757 211.66 27.5654 207.713 26.5576V23.2129C209.764 23.7662 212.007 24.2381 214.148 24.001C215.551 23.8468 216.461 23.0738 216.378 21.5898C216.156 17.6579 208.602 17.5668 207.929 12.4707ZM124.134 5.91016L130.061 26.6982C130.134 26.8563 129.866 27.1465 129.797 27.1465H126.232C125.656 27.1457 124.981 22.7971 124.561 22.1162L118.729 22.0166C118.429 22.1001 117.621 26.6179 117.124 27.1465H113.262L119.323 5.87891L124.134 5.91016ZM183.953 6.08594V9.23633H175.439V14.7471H182.767V17.8975H175.439V23.8018H184.151V27.1465H171.677V6.08594H183.953ZM71.2861 6.08789V14.5518H78.8096V6.08789H82.7705V26.9512H79.1064C79.0848 26.9512 78.813 26.6819 78.8096 26.6572V17.8994H71.5811C71.5593 17.8994 71.2852 18.1707 71.2842 18.1934V26.9512H67.5205V6.08789H71.2861ZM190.687 6.08789V23.8018H199.398V26.9512H186.924V6.08789H190.687ZM240.979 6.08789C243.885 6.38232 247.575 5.6907 250.385 6.08789C256.18 6.90603 256.834 16.8551 251.074 18.3926L255.83 26.9512H251.276L247.221 18.8789C246.749 18.462 245.581 18.7764 244.939 18.6855V26.6572C244.936 26.6818 244.665 26.9505 244.643 26.9512H240.979V6.08789ZM162.072 6.08789C162.255 6.08789 163.985 6.70057 164.288 6.83691C171.788 10.2259 170.309 26.9488 161.479 26.9492H153.459V6.08789H162.072ZM93.2275 8.88867C88.9759 9.18349 88.8926 14.8048 89.0967 18.0039C89.277 20.8196 90.0419 24.2147 93.5605 24.209C98.4049 24.2031 98.277 17.8739 98.0234 14.4453C97.8015 11.4575 96.7703 8.64364 93.2275 8.88867ZM157.22 23.8018H161.28C161.485 23.801 162.892 22.9481 163.162 22.7207C165.865 20.4522 165.881 12.8444 163.358 10.5166C162.804 10.0048 161.006 9.23828 160.289 9.23828H157.22V23.8018ZM119.601 18.6836H123.758L121.68 10.8086L119.601 18.6836ZM244.939 15.5361H248.405C248.76 15.5361 250.084 15.0335 250.389 14.7529C251.496 13.7292 251.383 10.5855 250.032 9.78516C249.83 9.66466 248.747 9.23858 248.604 9.23828H244.939V15.5361Z" fill="black"/>
</svg>
