<svg width="218" height="47" viewBox="0 0 218 47" fill="none" xmlns="http://www.w3.org/2000/svg">
<path d="M154.548 29.1484C156.612 29.1484 158.307 29.6084 159.622 30.543C160.937 31.4776 161.715 33.1205 161.955 35.4785H157.543C157.463 34.8581 157.259 34.3033 156.925 33.8066C156.439 33.1443 155.694 32.8086 154.681 32.8066C153.23 32.8085 152.236 33.5316 151.706 34.9756C151.423 35.742 151.284 36.7645 151.284 38.042C151.284 39.2539 151.423 40.2323 151.706 40.9697C152.215 42.3498 153.182 43.0361 154.606 43.0361C155.609 43.0361 156.329 42.7661 156.751 42.2188C157.172 41.6711 157.434 40.9623 157.521 40.0938H161.918C161.816 41.4152 161.337 42.6565 160.494 43.832C159.142 45.7231 157.143 46.6718 154.49 46.6719C151.837 46.6719 149.889 45.8839 148.639 44.3066C147.388 42.7296 146.764 40.6772 146.764 38.1582C146.764 35.3108 147.454 33.1058 148.835 31.5215C150.216 29.9371 152.12 29.1485 154.548 29.1484ZM188.463 29.0723C190.52 29.0723 192.199 29.4811 193.5 30.2988C194.794 31.1313 195.535 32.5627 195.724 34.585H191.414C191.356 34.0301 191.203 33.5842 190.949 33.2627C190.477 32.6715 189.669 32.3799 188.528 32.3799C187.591 32.3799 186.922 32.5254 186.522 32.8174C186.123 33.1093 185.926 33.4536 185.926 33.8477C185.926 34.3439 186.137 34.7087 186.559 34.9277C186.98 35.1613 188.478 35.5557 191.051 36.125V36.1396C192.759 36.5485 194.045 37.1628 194.902 37.9805C195.753 38.8054 196.175 39.8416 196.175 41.0898C196.175 42.7254 195.565 44.0697 194.351 45.1064C193.137 46.1432 191.305 46.6611 188.718 46.6611C186.13 46.6611 184.218 46.1068 182.982 45.0117C181.747 43.9164 181.129 42.5139 181.129 40.8125H185.497C185.584 41.5866 185.781 42.1348 186.086 42.4561C186.624 43.033 187.613 43.3242 189.052 43.3242C189.902 43.3242 190.571 43.2008 191.072 42.9453C191.574 42.6898 191.821 42.295 191.821 41.8057C191.821 41.3168 191.617 40.9517 191.218 40.6963C190.811 40.4406 189.313 40.0102 186.726 39.3896C184.858 38.9223 183.543 38.3454 182.779 37.6445C182.016 36.9509 181.631 35.9573 181.631 34.665C181.631 33.1316 182.227 31.818 183.419 30.7227C184.618 29.6202 186.297 29.0723 188.463 29.0723ZM116.338 29.0957C117.712 29.0957 118.947 29.3518 120.045 29.8701C121.142 30.3885 122.051 31.1983 122.764 32.3154L122.771 32.3232C123.417 33.3088 123.839 34.448 124.028 35.7402C124.145 36.4996 124.188 37.5875 124.166 39.0186H112.886C112.944 40.6759 113.46 41.8371 114.441 42.5088C115.03 42.9249 115.749 43.1288 116.585 43.1289C117.472 43.1289 118.192 42.8739 118.744 42.3701C119.042 42.1001 119.311 41.7196 119.544 41.2305H123.941C123.833 42.216 123.323 43.2098 122.415 44.2246C121.005 45.838 119.028 46.6415 116.491 46.6416C114.398 46.6416 112.551 45.9625 110.945 44.6045C109.339 43.2465 108.539 41.0408 108.539 37.9814C108.539 35.1121 109.259 32.9145 110.705 31.3887C112.151 29.8626 114.027 29.0958 116.338 29.0957ZM32.0107 29.1484C33.8135 29.1484 35.4125 29.5139 36.8154 30.2295C38.2179 30.945 38.916 32.3028 38.916 34.2959V41.8896C38.916 42.4152 38.9233 43.0505 38.9453 43.8027C38.9742 44.3719 39.0613 44.7517 39.1992 44.9561H39.2207C39.359 45.1606 39.5701 45.3285 39.8535 45.46V46.0957H35.165C35.0344 45.7597 34.9474 45.4455 34.8965 45.1533C34.8456 44.8615 34.8016 44.5256 34.7725 44.1533C34.1767 44.803 33.4934 45.358 32.7158 45.8105C31.7855 46.3434 30.7385 46.6133 29.5684 46.6133C28.0713 46.6132 26.843 46.1824 25.8691 45.3281C24.8953 44.474 24.4082 43.2619 24.4082 41.6924C24.4082 39.6625 25.1863 38.1881 26.749 37.2754C27.6067 36.779 28.8639 36.4207 30.5283 36.209L31.9961 36.0264C32.7955 35.9242 33.3625 35.7996 33.7041 35.6465C34.322 35.3836 34.6279 34.975 34.6279 34.4199C34.6279 33.7485 34.3877 33.2741 33.9229 33.0186C33.4503 32.7631 32.7667 32.6318 31.8584 32.6318C30.8407 32.6318 30.1208 32.8868 29.6992 33.3906C29.4013 33.7627 29.1985 34.2741 29.0967 34.9092H24.9385C25.0256 33.4635 25.4332 32.2734 26.1455 31.3389C27.2866 29.8788 29.2417 29.1484 32.0107 29.1484ZM171.419 29.1484C173.222 29.1484 174.821 29.5139 176.224 30.2295C177.626 30.945 178.324 32.3028 178.324 34.2959V41.8896C178.324 42.4152 178.332 43.0505 178.354 43.8027C178.382 44.3719 178.469 44.7517 178.607 44.9561H178.629C178.767 45.1606 178.978 45.3285 179.262 45.46V46.0957H174.573C174.443 45.7597 174.356 45.4455 174.305 45.1533C174.254 44.8615 174.21 44.5256 174.181 44.1533C173.585 44.803 172.902 45.358 172.124 45.8105C171.194 46.3434 170.147 46.6133 168.977 46.6133C167.48 46.6132 166.251 46.1824 165.277 45.3281C164.304 44.474 163.816 43.262 163.816 41.6924C163.816 39.6625 164.595 38.1881 166.157 37.2754C167.015 36.779 168.272 36.4207 169.937 36.209L171.404 36.0264C172.204 35.9242 172.771 35.7996 173.112 35.6465C173.73 35.3836 174.036 34.975 174.036 34.4199C174.036 33.7485 173.796 33.2741 173.331 33.0186C172.859 32.7631 172.175 32.6318 171.267 32.6318C170.249 32.6318 169.529 32.8868 169.107 33.3906C168.809 33.7627 168.607 34.2741 168.505 34.9092H164.347C164.434 33.4635 164.841 32.2734 165.554 31.3389C166.695 29.8788 168.65 29.1484 171.419 29.1484ZM10.8223 41.3105H10.8301L14.8496 23.707H21.5439V46.0938H17.2041V30.9502C17.2041 30.5121 17.2115 29.9058 17.2188 29.1172C17.2333 28.3288 17.2334 27.7224 17.2334 27.2988L13.0176 46.0859H8.49707L4.31055 27.2988C4.31055 27.7296 4.31793 28.3362 4.3252 29.1172C4.33973 29.9058 4.33887 30.5121 4.33887 30.9502V46.0938H0V23.707H6.77441L10.8223 41.3105ZM47.165 46.0938H42.7969V29.541H47.165V46.0938ZM55.7441 46.0938H51.4336V23.707H55.7441V46.0938ZM71.9365 23.707L79.8301 46.0938H74.7783L73.3398 41.4932H65.1338L63.5928 46.0938H58.7227L66.6738 23.707H71.9365ZM100.72 29.1758C101.439 29.1758 102.158 29.3149 102.863 29.5996C103.568 29.8844 104.208 30.3805 104.782 31.0889C105.247 31.6656 105.56 32.374 105.72 33.2139C105.821 33.7686 105.873 34.5861 105.873 35.6592L105.844 46.0938H101.432V35.5498C101.432 34.922 101.33 34.4036 101.126 34.002C100.741 33.2356 100.036 32.8487 99.0117 32.8486C97.8198 32.8486 96.9984 33.3451 96.5479 34.3379C96.3151 34.8634 96.1982 35.4989 96.1982 36.2363V46.0938H91.8594V36.2363C91.8594 35.2579 91.7573 34.542 91.5537 34.0967C91.1903 33.3011 90.485 32.8994 89.4238 32.8994C88.1958 32.8995 87.3669 33.2936 86.9453 34.0967C86.7126 34.5567 86.5967 35.2357 86.5967 36.1338V46.0938H82.2285V29.5703H86.415V31.9863C86.9455 31.1249 87.4543 30.5115 87.9268 30.1465C88.7624 29.4967 89.8457 29.1758 91.1758 29.1758C92.433 29.1758 93.4509 29.4531 94.2285 30.0078C94.8534 30.5261 95.3337 31.1908 95.6533 32.001C96.2203 31.0301 96.9183 30.3149 97.7539 29.8623C98.6407 29.4023 99.6295 29.1758 100.72 29.1758ZM143.532 46.0938H139.164V29.541H143.532V46.0938ZM136.212 29.1465C136.27 29.1538 136.394 29.1606 136.582 29.168V33.5996C136.306 33.5703 136.066 33.5484 135.855 33.541C135.645 33.5265 135.471 33.5273 135.34 33.5273C133.61 33.5273 132.447 34.0967 131.851 35.2285C131.516 35.8709 131.349 36.8491 131.349 38.1777V46.0928H127.01V29.54H131.124V32.4248C131.785 31.3223 132.367 30.5628 132.861 30.1611C133.668 29.4824 134.714 29.1465 136.008 29.1465V29.1387C136.088 29.1387 136.154 29.1465 136.212 29.1465ZM34.5986 38.042C34.3298 38.2098 34.0536 38.3485 33.7773 38.458C33.5011 38.5675 33.1227 38.6692 32.6357 38.7568L31.6689 38.9395C30.7679 39.0999 30.1142 39.2977 29.7217 39.5312C29.0603 39.9255 28.7256 40.5387 28.7256 41.3711C28.7256 42.1085 28.9295 42.6417 29.3438 42.9629C29.7507 43.2988 30.2448 43.4668 30.8262 43.4668C31.7564 43.4668 32.614 43.1967 33.3916 42.6494C34.1693 42.1017 34.5764 41.1009 34.6055 39.6553L34.5986 39.6484V38.042ZM174.007 38.042C173.738 38.2098 173.462 38.3485 173.186 38.458C172.909 38.5675 172.531 38.6692 172.044 38.7568L171.077 38.9395C170.176 39.0999 169.522 39.2977 169.13 39.5312C168.468 39.9255 168.134 40.5387 168.134 41.3711C168.134 42.1085 168.338 42.6417 168.752 42.9629C169.159 43.2988 169.653 43.4668 170.234 43.4668C171.165 43.4668 172.022 43.1967 172.8 42.6494C173.577 42.1017 173.985 41.1009 174.014 39.6553L174.007 39.6484V38.042ZM66.3838 37.6309H72.0381L69.2549 28.8252L66.3838 37.6309ZM116.331 32.666C115.335 32.666 114.564 32.9805 114.012 33.6084C113.467 34.2362 113.118 35.0831 112.98 36.1562L112.973 36.1631H119.667C119.602 35.017 119.253 34.1478 118.635 33.5566C118.017 32.9654 117.247 32.666 116.331 32.666ZM207.739 25.7803L202.535 31.4023V15.3311H186.537L192.127 10.1035H207.739V25.7803ZM217.799 25.7451L212.595 31.3604V5.22754H186.748L192.345 0H217.799V25.7451ZM47.165 27.5625H42.7969V23.5684H47.165V27.5625ZM143.532 27.5625H139.164V23.5684H143.532V27.5625Z" fill="black"/>
</svg>
