<svg width="159" height="39" viewBox="0 0 159 39" fill="none" xmlns="http://www.w3.org/2000/svg">
<path d="M0 1.19847H12.7965C15.7235 1.19847 19.1743 3.71337 20.7127 5.09649L43.1633 27.9953V1.19847H50.7897V37.7581H37.4387C35.06 37.6845 32.7246 37.2347 30.003 34.7747L7.58959 11.8344V37.7581H0V1.19847ZM159 38.0074C149.866 39.1542 140.625 39.2677 131.365 38.5516C125.945 38.1113 120.635 37.0852 115.769 34.748C109.625 31.8192 107.668 25.2364 107.75 19.2693C107.818 13.7615 109.599 7.8814 114.941 4.67871C118.443 2.56438 122.184 1.87095 126.158 1.20774C137.008 -0.551375 147.878 -0.15461 158.462 0.912968V6.12795C145.98 3.89646 132.795 4.45196 128.315 9.72739C125.515 13.0094 125.117 16.2745 125.117 19.0237C125.117 23.9779 126.959 31.4944 137.903 32.9548C145.043 33.9185 152.111 33.1872 159 32.0329V38.0074ZM80.835 32.3213C81.9154 32.3308 99.1178 32.4044 105.023 32.3213V37.7839C93.1282 38.2052 81.6997 38.3885 69.6837 37.9294C59.4875 37.542 57.7312 32.8259 57.5341 28.2948V1.19769H104.454V6.40323H74.0999V15.7108H101.765V20.7918H74.0997C74.0997 23.541 74.1983 26.6586 74.2271 27.2196C74.3893 30.7645 76.1764 32.0681 80.835 32.3213Z" fill="black"/>
</svg>
