<svg width="135" height="68" viewBox="0 0 135 68" fill="none" xmlns="http://www.w3.org/2000/svg">
<path d="M69.463 54.8737C71.9779 52.2118 77.528 52.9072 78.4374 56.6832C79.7356 62.0623 76.1943 65.4284 70.9221 63.4269V67.6306L70.4952 68L69.463 67.7759V54.8737ZM18.387 54.5886C19.7029 52.8431 23.8229 52.9013 25.2997 54.2396H25.3026C26.671 55.4817 26.4489 61.2593 25.8991 63.0603C24.0248 64.4538 18.2205 64.5206 17.8315 61.8179C17.1737 57.2186 21.5159 58.3212 24.5278 57.4659C25.0102 53.9195 21.3756 54.0504 18.9895 55.1935L18.387 54.5886ZM65.6676 62.7023C63.9014 64.8377 56.9126 64.2849 56.9126 61.2534V53.5702H58.3719V60.3809C58.3719 63.0543 62.3662 63.1736 64.2085 62.2659V53.5673H65.6676V62.7023ZM42.751 63.4383C38.1134 61.53 39.2538 52.5492 45.6518 53.3028C48.0028 53.5791 49.9824 56.049 49.3361 58.3501L41.751 59.6709H41.7482C41.6955 61.716 44.0376 62.9641 45.9587 62.8624C46.5699 62.8302 49.7427 61.2623 48.8975 62.8565C48.0526 64.4508 44.2102 64.0406 42.751 63.4383ZM29.7707 49.6516C29.7707 49.1047 31.2298 49.1047 31.2298 49.6516V57.9167C31.7268 58.484 36.0019 53.8379 36.4786 53.4104C37.0313 53.3637 37.8648 53.7886 37.5167 54.4432C37.0254 55.3682 33.1481 57.7567 33.2943 58.6004L37.6716 62.3911C38.4581 63.6624 37.7505 64.1366 36.4901 63.5635C35.3731 63.0573 33.0778 59.7495 31.8146 58.9263L31.2298 59.2199V63.7148L29.7707 63.2785V49.6516ZM7.3923 54.3937C8.5005 54.2975 9.31635 53.0932 11.5269 53.2823C12.7785 53.3899 14.8867 54.7806 14.8867 56.0403V63.7176C14.3194 63.706 13.3985 63.9125 13.1763 63.2434C12.878 61.0644 13.4278 58.4258 13.15 56.3107C12.84 53.9544 9.35136 54.062 8.02087 55.598C7.93319 55.8306 8.17274 55.976 8.17294 56.0373V63.7205L6.73139 63.703C6.13491 61.4978 7.52971 57.3057 6.13782 55.4496C5.05004 53.995 2.69311 54.385 1.46205 55.4585V63.7235H0.00290204V54.8796C1.28368 53.5383 3.47683 53.0233 5.27225 53.4161C5.98573 53.5702 7.07942 54.4227 7.3923 54.3937ZM24.5191 58.7865C22.8932 58.8766 18.1297 58.8652 19.4105 61.6811C20.0742 63.1417 24.2324 63.3279 24.5219 61.8355C24.6914 60.9568 24.3992 59.7233 24.5191 58.7865ZM76.9783 60.0229C77.4724 57.1137 76.2995 54.1639 72.9047 54.5013C72.2701 54.5652 71.1795 54.8417 70.9778 55.5079C70.8023 56.0842 70.7906 60.8435 70.9194 61.5416C71.2528 63.3512 76.3845 63.5081 76.9783 60.0229ZM47.8536 57.6142C47.9969 54.1201 43.5639 53.259 41.9731 56.2642C41.7012 56.7792 41.1691 57.9808 41.7306 58.3647L47.8536 57.6112V57.6142ZM53.2984 3.67431C60.4509 -1.78624 70.1006 -1.24796 75.873 5.87668C76.8992 7.14225 79.0894 11.3373 79.0894 12.8297V45.1597H79.0923L70.472 45.3401L70.0451 45.0142V13.9904C70.0447 13.7979 69.2144 12.1344 69.004 11.8348C66.4775 8.18371 60.7082 8.16631 58.3134 11.9046C58.1232 12.2015 57.202 14.1272 57.202 14.2785V45.0142L56.5383 45.3895L48.1548 45.1597V1.23075C50.9504 -0.450762 51.7018 1.97241 53.2984 3.67431ZM5.15229 3.67738C12.413 -2.14395 23.2353 -0.986083 28.4316 6.91243C29.3877 8.36706 30.9374 12.0325 30.9374 13.6995V45.1599C27.8963 45.3548 24.9428 45.2618 21.8901 45.1599V14.5695C21.8901 13.8452 20.703 11.6982 20.1473 11.0814C17.4513 8.08199 12.0942 8.59104 9.97126 12.0065C9.74313 12.3702 9.04728 13.9875 9.04724 14.2785V45.1599C6.02662 45.6749 3.02939 45.128 0 45.1599V0.79728C2.94753 0.183439 3.42706 1.96678 5.15229 3.67738ZM85.5635 10.5577C91.6018 1.90859 103.743 0.733303 111.93 7.19172C112.536 7.19172 114.843 3.40396 115.428 3.40386H120.536V3.40676C120.443 3.69187 120.828 4.03526 120.828 4.13127V37.1856L120.39 37.622H112.509C112.398 37.622 112.085 38.16 111.814 37.4416L111.778 34.7216C110.173 34.9573 108.971 36.2054 107.398 36.8889C91.1133 43.9554 75.1974 25.4121 85.5635 10.5577ZM124.039 30.0842C125.934 30.7823 128.005 30.7825 130.016 30.6574C131.385 30.573 134.221 29.2495 134.774 31.1578C136.253 36.2517 130.01 39.6758 125.943 36.4524C123.843 34.7888 123.956 32.9538 124.026 30.5663L124.039 30.0842ZM35.0252 8.33507C37.3733 10.9795 41.5956 11.2732 44.0725 8.62591V37.622H35.0252V8.33507ZM105.164 27.4224C112.24 22.3225 107.763 11.3256 98.8682 12.4719C95.7861 12.8676 93.0316 15.3346 92.1397 18.2525C89.7653 26.0202 98.7044 32.0799 105.164 27.4224ZM38.09 1.40514C39.6954 1.4051 44.5523 -0.223869 44.9382 1.82128C46.6751 11.0114 32.1833 10.066 34.1511 0.79728C35.4904 0.797288 36.7449 1.40514 38.09 1.40514Z" fill="black"/>
</svg>
