<svg width="28" height="28" viewBox="0 0 28 28" fill="none" xmlns="http://www.w3.org/2000/svg">
<path d="M23.625 10.4999C23.626 8.87783 23.217 7.28186 22.4361 5.86019C21.6551 4.43853 20.5276 3.23728 19.1582 2.36801C17.7887 1.49874 16.2218 0.989662 14.603 0.888048C12.9841 0.786434 11.3659 1.09558 9.89847 1.78678C8.43109 2.47798 7.16218 3.52881 6.20961 4.84167C5.25704 6.15453 4.65171 7.68682 4.44984 9.29624C4.24796 10.9057 4.4561 12.54 5.05491 14.0474C5.65372 15.5549 6.62379 16.8866 7.875 17.9188V26.2499C7.87489 26.3991 7.91295 26.5459 7.98556 26.6762C8.05817 26.8066 8.16291 26.9162 8.28984 26.9947C8.41676 27.0732 8.56165 27.1179 8.71072 27.1246C8.8598 27.1313 9.00811 27.0998 9.14156 27.033L14 24.6092L18.8595 27.0385C18.9814 27.0967 19.1149 27.1263 19.25 27.1249C19.4821 27.1249 19.7046 27.0327 19.8687 26.8686C20.0328 26.7045 20.125 26.4819 20.125 26.2499V17.9188C21.2198 17.0171 22.1014 15.8843 22.7065 14.6016C23.3116 13.3189 23.6253 11.9181 23.625 10.4999ZM6.125 10.4999C6.125 8.94233 6.58686 7.41978 7.45218 6.12474C8.31749 4.8297 9.5474 3.82034 10.9864 3.2243C12.4253 2.62826 14.0087 2.47231 15.5363 2.77617C17.0639 3.08003 18.4671 3.83005 19.5685 4.93139C20.6698 6.03273 21.4198 7.43592 21.7237 8.96352C22.0275 10.4911 21.8716 12.0745 21.2756 13.5135C20.6795 14.9525 19.6702 16.1824 18.3751 17.0477C17.0801 17.913 15.5575 18.3749 14 18.3749C11.9121 18.3725 9.91044 17.5421 8.43409 16.0658C6.95775 14.5894 6.12732 12.5877 6.125 10.4999ZM18.375 24.8345L14.3905 22.8428C14.2689 22.782 14.1348 22.7503 13.9989 22.7503C13.863 22.7503 13.7289 22.782 13.6073 22.8428L9.625 24.8345V19.0716C10.9795 19.7639 12.4789 20.1248 14 20.1248C15.5211 20.1248 17.0205 19.7639 18.375 19.0716V24.8345ZM14 16.6249C15.2114 16.6249 16.3956 16.2656 17.4029 15.5926C18.4101 14.9196 19.1952 13.963 19.6588 12.8438C20.1224 11.7246 20.2436 10.4931 20.0073 9.30493C19.771 8.11679 19.1876 7.02542 18.331 6.16883C17.4744 5.31223 16.3831 4.72888 15.1949 4.49255C14.0068 4.25621 12.7753 4.37751 11.6561 4.84109C10.5369 5.30468 9.58027 6.08974 8.90725 7.09699C8.23423 8.10424 7.875 9.28845 7.875 10.4999C7.87674 12.1238 8.52261 13.6807 9.67089 14.829C10.8192 15.9773 12.3761 16.6231 14 16.6249ZM14 6.12486C14.8653 6.12486 15.7112 6.38145 16.4306 6.86218C17.1501 7.34291 17.7108 8.02619 18.042 8.82562C18.3731 9.62504 18.4597 10.5047 18.2909 11.3534C18.1221 12.202 17.7054 12.9816 17.0936 13.5934C16.4817 14.2053 15.7022 14.622 14.8535 14.7908C14.0049 14.9596 13.1252 14.873 12.3258 14.5418C11.5263 14.2107 10.8431 13.6499 10.3623 12.9305C9.88159 12.211 9.625 11.3651 9.625 10.4999C9.625 9.33953 10.0859 8.22674 10.9064 7.40626C11.7269 6.58579 12.8397 6.12486 14 6.12486Z" fill="#F2F2F2"/>
</svg>
