<svg width="28" height="28" viewBox="0 0 28 28" fill="none" xmlns="http://www.w3.org/2000/svg">
<path d="M25.375 10.5C25.3755 10.4186 25.3644 10.3376 25.3422 10.2594L23.7727 4.76875C23.6672 4.40444 23.4467 4.08402 23.1441 3.85535C22.8415 3.62668 22.473 3.50203 22.0938 3.5H5.90625C5.52698 3.50203 5.15853 3.62668 4.85594 3.85535C4.55335 4.08402 4.33284 4.40444 4.22734 4.76875L2.65891 10.2594C2.63631 10.3376 2.6249 10.4186 2.625 10.5V12.25C2.625 12.9292 2.78314 13.5991 3.08688 14.2066C3.39063 14.8141 3.83164 15.3425 4.375 15.75V23.625C4.375 23.8571 4.46719 24.0796 4.63128 24.2437C4.79538 24.4078 5.01794 24.5 5.25 24.5H22.75C22.9821 24.5 23.2046 24.4078 23.3687 24.2437C23.5328 24.0796 23.625 23.8571 23.625 23.625V15.75C24.1684 15.3425 24.6094 14.8141 24.9131 14.2066C25.2169 13.5991 25.375 12.9292 25.375 12.25V10.5ZM5.90625 5.25H22.0938L23.3428 9.625H4.66047L5.90625 5.25ZM11.375 11.375H16.625V12.25C16.625 12.9462 16.3484 13.6139 15.8562 14.1062C15.3639 14.5984 14.6962 14.875 14 14.875C13.3038 14.875 12.6361 14.5984 12.1438 14.1062C11.6516 13.6139 11.375 12.9462 11.375 12.25V11.375ZM9.625 11.375V12.25C9.62484 12.7014 9.50828 13.1451 9.28658 13.5383C9.06488 13.9315 8.74554 14.2609 8.35938 14.4947C7.97323 14.7284 7.53332 14.8587 7.08214 14.8728C6.63097 14.8869 6.18377 14.7845 5.78375 14.5753C5.72288 14.5279 5.65593 14.4889 5.58469 14.4594C5.21399 14.2221 4.90892 13.8953 4.69753 13.5093C4.48615 13.1232 4.37523 12.6902 4.375 12.25V11.375H9.625ZM21.875 22.75H6.125V16.5375C6.41305 16.5956 6.70616 16.6249 7 16.625C7.6792 16.625 8.34907 16.4669 8.95656 16.1631C9.56405 15.8594 10.0925 15.4184 10.5 14.875C10.9075 15.4184 11.4359 15.8594 12.0434 16.1631C12.6509 16.4669 13.3208 16.625 14 16.625C14.6792 16.625 15.3491 16.4669 15.9566 16.1631C16.5641 15.8594 17.0925 15.4184 17.5 14.875C17.9075 15.4184 18.4359 15.8594 19.0434 16.1631C19.6509 16.4669 20.3208 16.625 21 16.625C21.2938 16.6249 21.587 16.5956 21.875 16.5375V22.75ZM22.4142 14.4594C22.3439 14.489 22.2777 14.5276 22.2173 14.5742C21.8174 14.7836 21.3702 14.8862 20.9189 14.8723C20.4677 14.8584 20.0277 14.7283 19.6414 14.4946C19.2551 14.2609 18.9356 13.9316 18.7138 13.5384C18.4919 13.1452 18.3752 12.7015 18.375 12.25V11.375H23.625V12.25C23.6246 12.6903 23.5136 13.1234 23.302 13.5094C23.0904 13.8955 22.7851 14.2222 22.4142 14.4594Z" fill="#F2F2F2"/>
</svg>
