<svg width="24" height="24" viewBox="0 0 24 24" fill="none" xmlns="http://www.w3.org/2000/svg">
<path d="M12.7506 7.49985V11.5752L16.1368 13.6067C16.3074 13.7092 16.4303 13.8752 16.4784 14.0682C16.5266 14.2613 16.4961 14.4655 16.3937 14.6361C16.2912 14.8067 16.1252 14.9296 15.9322 14.9777C15.7392 15.0259 15.5349 14.9954 15.3643 14.893L11.6143 12.643C11.5033 12.5763 11.4115 12.482 11.3477 12.3693C11.284 12.2566 11.2505 12.1293 11.2506 11.9998V7.49985C11.2506 7.30094 11.3296 7.11017 11.4702 6.96952C11.6109 6.82887 11.8016 6.74985 12.0006 6.74985C12.1995 6.74985 12.3902 6.82887 12.5309 6.96952C12.6715 7.11017 12.7506 7.30094 12.7506 7.49985ZM21.0006 5.24985C20.8016 5.24985 20.6109 5.32887 20.4702 5.46952C20.3296 5.61017 20.2506 5.80094 20.2506 5.99985V7.68735C19.6552 6.99735 19.0477 6.33266 18.3643 5.64079C17.1135 4.38989 15.5219 3.53531 13.7882 3.18384C12.0545 2.83237 10.2557 2.99958 8.61655 3.6646C6.97737 4.32961 5.5705 5.46293 4.57175 6.92295C3.573 8.38297 3.02664 10.1049 3.00095 11.8737C2.97526 13.6424 3.47137 15.3796 4.42731 16.868C5.38324 18.3564 6.75659 19.5301 8.37577 20.2424C9.99494 20.9548 11.7881 21.1741 13.5313 20.8732C15.2744 20.5722 16.8902 19.7642 18.1768 18.5502C18.2485 18.4824 18.3061 18.4013 18.3464 18.3113C18.3866 18.2213 18.4088 18.1243 18.4116 18.0257C18.4144 17.9272 18.3977 17.8291 18.3626 17.737C18.3275 17.6448 18.2745 17.5606 18.2068 17.4889C18.1391 17.4173 18.0579 17.3596 17.968 17.3194C17.878 17.2791 17.7809 17.2569 17.6824 17.2541C17.5839 17.2513 17.4857 17.268 17.3936 17.3031C17.3015 17.3383 17.2172 17.3912 17.1456 17.4589C16.0731 18.4696 14.7267 19.142 13.2744 19.392C11.8221 19.6421 10.3283 19.4587 8.97957 18.8649C7.63085 18.2711 6.48695 17.2931 5.69073 16.053C4.89451 14.813 4.48124 13.3659 4.50254 11.8924C4.52384 10.4189 4.97877 8.98427 5.8105 7.76776C6.64224 6.55125 7.81393 5.60673 9.17925 5.05214C10.5446 4.49755 12.043 4.35747 13.4875 4.6494C14.9319 4.94133 16.2584 5.65232 17.3012 6.6936C18.0643 7.4661 18.7327 8.21047 19.4068 8.99985H17.2506C17.0516 8.99985 16.8609 9.07887 16.7202 9.21952C16.5796 9.36017 16.5006 9.55094 16.5006 9.74985C16.5006 9.94876 16.5796 10.1395 16.7202 10.2802C16.8609 10.4208 17.0516 10.4998 17.2506 10.4998H21.0006C21.1995 10.4998 21.3902 10.4208 21.5309 10.2802C21.6715 10.1395 21.7506 9.94876 21.7506 9.74985V5.99985C21.7506 5.80094 21.6715 5.61017 21.5309 5.46952C21.3902 5.32887 21.1995 5.24985 21.0006 5.24985Z" fill="#A4F6A2"/>
</svg>
